<svg width="56" height="56" viewBox="0 0 56 56" fill="none" xmlns="http://www.w3.org/2000/svg">
<g opacity="0.7">
<path d="M50.4937 28.7365L50.5224 28.0488H48.6313L48.6027 28.6792L50.4937 28.7365Z" fill="#27FFF2" fill-opacity="0.4"/>
<path d="M50.4365 29.7968C50.4365 29.7968 50.4365 29.6249 50.4652 29.453C50.4652 29.367 50.4652 29.2811 50.4938 29.2238C50.4938 29.1665 50.4938 29.1092 50.4938 29.1092L48.6027 29.0232C48.6027 29.0232 48.6027 29.0518 48.6027 29.1378C48.6027 29.1951 48.6027 29.2811 48.5741 29.367C48.5741 29.5389 48.5454 29.6822 48.5454 29.6822L50.4365 29.7968Z" fill="#27FFF2" fill-opacity="0.4"/>
<path d="M50.3505 30.8569C50.3505 30.8569 50.3792 30.685 50.4078 30.5131C50.4365 30.3412 50.4365 30.1692 50.4365 30.1692L48.5454 29.9973C48.5454 29.9973 48.5454 30.1692 48.5168 30.3125C48.4881 30.4844 48.4881 30.6277 48.4881 30.6277L50.3505 30.8569Z" fill="#27FFF2" fill-opacity="0.4"/>
<path d="M50.1784 31.9172C50.1784 31.9172 50.207 31.7453 50.2357 31.5734C50.2643 31.4874 50.2643 31.4015 50.2643 31.3442C50.2643 31.2869 50.2643 31.2296 50.2643 31.2296L48.4019 30.9717C48.4019 30.9717 48.4019 31.0003 48.4019 31.0576C48.4019 31.1149 48.3732 31.2009 48.3732 31.2869C48.3446 31.4588 48.3159 31.602 48.3159 31.602L50.1784 31.9172Z" fill="#27FFF2" fill-opacity="0.4"/>
<path d="M49.9777 32.9487C49.9777 32.9487 50.0064 32.7768 50.0637 32.6049C50.0923 32.433 50.121 32.2611 50.121 32.2611L48.2586 31.9172C48.2586 31.9172 48.2299 32.0892 48.2013 32.2324C48.1726 32.3757 48.1153 32.5476 48.1153 32.5476L49.9777 32.9487Z" fill="#27FFF2" fill-opacity="0.4"/>
<path d="M49.7203 33.9798C49.7203 33.9798 49.7776 33.8079 49.8063 33.6359C49.8349 33.464 49.8922 33.2921 49.8922 33.2921L48.0584 32.8623C48.0584 32.8623 48.0298 33.0056 47.9725 33.1775C47.9438 33.3208 47.8865 33.4927 47.8865 33.4927L49.7203 33.9798Z" fill="#27FFF2" fill-opacity="0.4"/>
<path d="M49.434 34.983C49.434 34.983 49.434 34.9543 49.4626 34.8683C49.4913 34.811 49.5199 34.7251 49.5486 34.6391C49.6059 34.4672 49.6345 34.2953 49.6345 34.2953L47.8294 33.7795C47.8294 33.7795 47.7721 33.9228 47.7434 34.0947C47.7148 34.1807 47.6861 34.238 47.6861 34.2953C47.6575 34.3526 47.6575 34.3813 47.6575 34.3813L49.434 34.983Z" fill="#27FFF2" fill-opacity="0.4"/>
<path d="M49.0611 35.9857C49.0611 35.9857 49.0897 35.957 49.0897 35.8711C49.1184 35.8138 49.147 35.7278 49.1757 35.6418C49.233 35.4699 49.2903 35.298 49.2903 35.298L47.5138 34.6963C47.5138 34.6963 47.4565 34.8396 47.3992 35.0115C47.3706 35.0974 47.3419 35.1547 47.3133 35.212C47.2846 35.2694 47.2846 35.298 47.2846 35.298L49.0611 35.9857Z" fill="#27FFF2" fill-opacity="0.4"/>
<path d="M48.6884 36.9884C48.6884 36.9884 48.7743 36.8165 48.8317 36.6733C48.889 36.5013 48.9749 36.3581 48.9749 36.3581L47.2271 35.6704C47.2271 35.6704 47.1698 35.8137 47.1125 35.9569C47.0552 36.1002 46.9979 36.2435 46.9979 36.2435L48.6884 36.9884Z" fill="#27FFF2" fill-opacity="0.4"/>
<path d="M48.2302 37.9626C48.2302 37.9626 48.2589 37.9339 48.2875 37.8766C48.3162 37.8193 48.3448 37.7334 48.4021 37.6474C48.4881 37.4755 48.5454 37.3322 48.5454 37.3322L46.8262 36.5586C46.8262 36.5586 46.7689 36.7019 46.6829 36.8451C46.6543 36.9311 46.6256 36.9884 46.597 37.0457C46.5683 37.103 46.5397 37.1317 46.5397 37.1317L48.2302 37.9626Z" fill="#27FFF2" fill-opacity="0.4"/>
<path d="M47.743 38.8798C47.743 38.8798 47.7716 38.8511 47.8003 38.7938C47.8289 38.7365 47.8576 38.6505 47.9149 38.5932C48.0009 38.45 48.0868 38.278 48.0868 38.278L46.3963 37.4185C46.3963 37.4185 46.3103 37.5617 46.253 37.705C46.2244 37.7623 46.1671 37.8483 46.1384 37.9056C46.1098 37.9629 46.0811 37.9915 46.0811 37.9915L47.743 38.8798Z" fill="#27FFF2" fill-opacity="0.4"/>
<path d="M47.2273 39.8251C47.2273 39.8251 47.256 39.7964 47.2846 39.7391C47.3133 39.6818 47.3706 39.5959 47.3992 39.5386C47.4852 39.3953 47.5712 39.2234 47.5712 39.2234L45.9379 38.2778C45.9379 38.2778 45.852 38.4211 45.766 38.5644C45.7374 38.6217 45.6801 38.7076 45.6514 38.7649C45.6228 38.8222 45.5941 38.8509 45.5941 38.8509L47.2273 39.8251Z" fill="#27FFF2" fill-opacity="0.4"/>
<path d="M46.6251 40.7134C46.6251 40.7134 46.6538 40.6847 46.6824 40.6274C46.7111 40.5701 46.7684 40.4841 46.8257 40.4268C46.9117 40.2836 47.0263 40.1403 47.0263 40.1403L45.4217 39.1375C45.4217 39.1375 45.3358 39.2807 45.2498 39.3953C45.1925 39.4526 45.1638 39.5386 45.1352 39.5672C45.1065 39.6246 45.0779 39.6532 45.0779 39.6532L46.6251 40.7134Z" fill="#27FFF2" fill-opacity="0.4"/>
<path d="M46.0237 41.5728L46.4249 40.9997L44.8776 39.9109L44.5051 40.4266L46.0237 41.5728Z" fill="#27FFF2" fill-opacity="0.4"/>
<path d="M45.3649 42.404L45.7947 41.8596L44.3047 40.6848L43.9036 41.2006L45.3649 42.404Z" fill="#27FFF2" fill-opacity="0.4"/>
<path d="M44.6768 43.2061L45.1353 42.6617L43.7026 41.4583L43.2728 41.9454L44.6768 43.2061Z" fill="#27FFF2" fill-opacity="0.4"/>
<path d="M43.9324 43.9802L44.4195 43.4644L43.0442 42.175L42.6144 42.6335L43.9324 43.9802Z" fill="#27FFF2" fill-opacity="0.4"/>
<path d="M43.1873 44.6959L43.6744 44.2088L42.3563 42.8621L41.8979 43.3205L43.1873 44.6959Z" fill="#27FFF2" fill-opacity="0.4"/>
<path d="M42.3852 45.4123L42.9009 44.9539L41.6689 43.5212L41.1818 43.951L42.3852 45.4123Z" fill="#27FFF2" fill-opacity="0.4"/>
<path d="M41.5538 46.0719L42.0982 45.6421L40.9234 44.1521L40.4077 44.5532L41.5538 46.0719Z" fill="#27FFF2" fill-opacity="0.4"/>
<path d="M40.6947 46.6734L41.2677 46.2723L40.1502 44.7537L39.6058 45.1262L40.6947 46.6734Z" fill="#27FFF2" fill-opacity="0.4"/>
<path d="M39.8061 47.2747L40.3791 46.8735L39.3476 45.2976L38.8032 45.6414L39.8061 47.2747Z" fill="#27FFF2" fill-opacity="0.4"/>
<path d="M38.8891 47.7908L39.4908 47.4469L38.5166 45.8137L37.9722 46.1576L38.8891 47.7908Z" fill="#27FFF2" fill-opacity="0.4"/>
<path d="M37.944 48.2781L38.5744 47.9629L37.6862 46.301L37.1131 46.5876L37.944 48.2781Z" fill="#27FFF2" fill-opacity="0.4"/>
<path d="M36.969 48.7362L37.6281 48.4496L36.7971 46.7305L36.2241 47.017L36.969 48.7362Z" fill="#27FFF2" fill-opacity="0.4"/>
<path d="M35.9954 49.1375L36.6544 48.8797L35.9094 47.1318L35.3077 47.3897L35.9954 49.1375Z" fill="#27FFF2" fill-opacity="0.4"/>
<path d="M34.9919 49.5099L35.6509 49.2806L35.0206 47.5042L34.3902 47.7047L34.9919 49.5099Z" fill="#27FFF2" fill-opacity="0.4"/>
<path d="M33.9899 49.7964L34.649 49.6245L34.1046 47.8193L33.4742 47.9913L33.9899 49.7964Z" fill="#27FFF2" fill-opacity="0.4"/>
<path d="M32.9576 50.0543C32.9576 50.0543 33.1295 50.0256 33.3015 49.9683C33.3874 49.9397 33.4734 49.9397 33.5307 49.911C33.588 49.911 33.6453 49.8824 33.6453 49.8824L33.1582 48.0486C33.1582 48.0486 33.1295 48.0486 33.0722 48.0772C33.0149 48.0772 32.929 48.1059 32.843 48.1345C32.6998 48.1632 32.5278 48.2205 32.5278 48.2205L32.9576 50.0543Z" fill="#27FFF2" fill-opacity="0.4"/>
<path d="M31.8977 50.2833C31.8977 50.2833 32.0696 50.2546 32.2415 50.226C32.3275 50.1973 32.4134 50.1973 32.4707 50.1687C32.528 50.14 32.5853 50.14 32.5853 50.14L32.1842 48.2776C32.1842 48.2776 32.1555 48.2776 32.0982 48.3062C32.0409 48.3062 31.955 48.3349 31.869 48.3349C31.6971 48.3635 31.5538 48.3922 31.5538 48.3922L31.8977 50.2833Z" fill="#27FFF2" fill-opacity="0.4"/>
<path d="M30.8667 50.4268C30.8667 50.4268 31.0386 50.3981 31.2105 50.3695C31.3824 50.3408 31.5543 50.3121 31.5543 50.3121L31.2678 48.4497C31.2678 48.4497 31.0959 48.4784 30.9526 48.507C30.7807 48.5357 30.6375 48.5357 30.6375 48.5357L30.8667 50.4268Z" fill="#27FFF2" fill-opacity="0.4"/>
<path d="M29.8063 50.5417C29.8063 50.5417 29.9782 50.5417 30.1501 50.513C30.2361 50.513 30.322 50.4844 30.3793 50.4844C30.4367 50.4844 30.494 50.4844 30.494 50.4844L30.2934 48.5933C30.2934 48.5933 30.2647 48.5933 30.2074 48.5933C30.1501 48.5933 30.0642 48.6219 29.9782 48.6219C29.8063 48.6219 29.663 48.6506 29.663 48.6506L29.8063 50.5417Z" fill="#27FFF2" fill-opacity="0.4"/>
<path d="M28.7463 50.5989C28.7463 50.5989 28.9182 50.5989 29.0902 50.5989C29.2621 50.5989 29.434 50.5703 29.434 50.5703L29.3194 48.6792C29.3194 48.6792 29.1475 48.6792 29.0042 48.7079C28.8323 48.7079 28.689 48.7079 28.689 48.7079L28.7463 50.5989Z" fill="#27FFF2" fill-opacity="0.4"/>
<path d="M27.6858 50.6272C27.6858 50.6272 27.7431 50.6272 27.8004 50.6272C27.8577 50.6272 27.9437 50.6272 28.0296 50.6272C28.2015 50.6272 28.3735 50.6272 28.3735 50.6272L28.3448 48.7361C28.3448 48.7361 28.1729 48.7361 28.0296 48.7361C27.9437 48.7361 27.8577 48.7361 27.8004 48.7361C27.7431 48.7361 27.6858 48.7361 27.6858 48.7361V50.6272Z" fill="#27FFF2" fill-opacity="0.4"/>
<path d="M26.6253 50.5989C26.6253 50.5989 26.7972 50.6275 26.9691 50.6275C27.1411 50.6275 27.313 50.6275 27.313 50.6275L27.3703 48.7364C27.3703 48.7364 27.1984 48.7364 27.0551 48.7364C26.8832 48.7364 26.7399 48.7078 26.7399 48.7078L26.6253 50.5989Z" fill="#27FFF2" fill-opacity="0.4"/>
<path d="M25.5656 50.5127C25.5656 50.5127 25.6229 50.5127 25.6802 50.5127C25.7375 50.5127 25.8234 50.5127 25.9094 50.5413C26.0813 50.5413 26.2532 50.57 26.2532 50.57L26.3965 48.6789C26.3965 48.6789 26.2246 48.6789 26.0813 48.6502C25.9953 48.6502 25.9094 48.6502 25.8521 48.6216C25.7948 48.6216 25.7661 48.6216 25.7661 48.6216L25.5656 50.5127Z" fill="#27FFF2" fill-opacity="0.4"/>
<path d="M24.5054 50.3695L25.2218 50.4555L25.451 48.593L24.792 48.5071L24.5054 50.3695Z" fill="#27FFF2" fill-opacity="0.4"/>
<path d="M23.4741 50.1974L24.1618 50.312L24.477 48.4496L23.8466 48.335L23.4741 50.1974Z" fill="#27FFF2" fill-opacity="0.4"/>
<path d="M22.4424 49.9395L23.1301 50.1114L23.5313 48.249L22.9009 48.1057L22.4424 49.9395Z" fill="#27FFF2" fill-opacity="0.4"/>
<path d="M21.4111 49.6819L22.0988 49.8539L22.5859 48.0487L21.9555 47.8481L21.4111 49.6819Z" fill="#27FFF2" fill-opacity="0.4"/>
<path d="M20.4079 49.3382L21.0669 49.5675L21.64 47.7623L21.0383 47.5618L20.4079 49.3382Z" fill="#27FFF2" fill-opacity="0.4"/>
<path d="M19.4055 48.9654L20.0645 49.2232L20.7235 47.4467L20.1218 47.2175L19.4055 48.9654Z" fill="#27FFF2" fill-opacity="0.4"/>
<path d="M18.431 48.5358L19.0614 48.8224L19.8064 47.0745L19.2333 46.8167L18.431 48.5358Z" fill="#27FFF2" fill-opacity="0.4"/>
<path d="M17.4858 48.0772L18.1162 48.3924L18.9185 46.6732L18.3454 46.3867L17.4858 48.0772Z" fill="#27FFF2" fill-opacity="0.4"/>
<path d="M16.5399 47.5614L17.1703 47.9053L18.0585 46.2434L17.5141 45.9282L16.5399 47.5614Z" fill="#27FFF2" fill-opacity="0.4"/>
<path d="M15.652 46.9883L16.2537 47.3607L17.2279 45.7562L16.6835 45.4124L15.652 46.9883Z" fill="#27FFF2" fill-opacity="0.4"/>
<path d="M14.7633 46.3869C14.7633 46.3869 14.9066 46.5015 15.0498 46.5874C15.1358 46.6447 15.1931 46.702 15.2504 46.7307C15.3077 46.7593 15.3364 46.788 15.3364 46.788L16.3965 45.2121C16.3965 45.2121 16.3679 45.1834 16.3106 45.1548C16.2533 45.1261 16.1959 45.0688 16.1386 45.0402C15.9954 44.9542 15.8808 44.8396 15.8808 44.8396L14.7633 46.3869Z" fill="#27FFF2" fill-opacity="0.4"/>
<path d="M13.9323 45.7565C13.9323 45.7565 14.0755 45.8712 14.2188 45.9858C14.2761 46.0431 14.362 46.1004 14.4194 46.129C14.4767 46.1577 14.5053 46.1863 14.5053 46.1863L15.6228 44.6677C15.6228 44.6677 15.5941 44.6391 15.5368 44.6104C15.4795 44.5818 15.4222 44.5245 15.3649 44.4672C15.2503 44.3812 15.107 44.2666 15.107 44.2666L13.9323 45.7565Z" fill="#27FFF2" fill-opacity="0.4"/>
<path d="M13.1016 45.0684C13.1016 45.0684 13.2449 45.183 13.3595 45.2976C13.4168 45.3549 13.5028 45.4122 13.5314 45.4409C13.5887 45.4695 13.6174 45.4982 13.6174 45.4982L14.8208 44.0369C14.8208 44.0369 14.7921 44.0082 14.7348 43.9796C14.6775 43.9509 14.6202 43.8936 14.5629 43.8363C14.4483 43.7217 14.3337 43.6357 14.3337 43.6357L13.1016 45.0684Z" fill="#27FFF2" fill-opacity="0.4"/>
<path d="M12.3278 44.3521C12.3278 44.3521 12.4424 44.4667 12.5857 44.5813C12.643 44.6386 12.7003 44.6959 12.7576 44.7532C12.8149 44.8105 12.8436 44.8392 12.8436 44.8392L14.1043 43.4352C14.1043 43.4352 14.0756 43.4065 14.0183 43.3779C13.961 43.3492 13.9037 43.2919 13.8464 43.2346C13.7318 43.12 13.6172 43.0054 13.6172 43.0054L12.3278 44.3521Z" fill="#27FFF2" fill-opacity="0.4"/>
<path d="M8.94684 40.2835C8.94684 40.2835 9.0328 40.4267 9.14741 40.57C9.20471 40.6559 9.23337 40.7132 9.29067 40.7706C9.31933 40.8279 9.34798 40.8565 9.34798 40.8565L10.8952 39.7677C10.8952 39.7677 10.8666 39.7391 10.8379 39.6817C10.8093 39.6244 10.752 39.5671 10.7233 39.5098C10.6374 39.3666 10.5514 39.252 10.5514 39.252L8.94684 40.2835Z" fill="#27FFF2" fill-opacity="0.4"/>
<path d="M8.40253 39.367C8.40253 39.367 8.48849 39.5103 8.57445 39.6822C8.66041 39.8255 8.74637 39.9687 8.74637 39.9687L10.3509 38.9659C10.3509 38.9659 10.265 38.8226 10.179 38.6794C10.0931 38.5361 10.0071 38.3928 10.0071 38.3928L8.40253 39.367Z" fill="#27FFF2" fill-opacity="0.4"/>
<path d="M7.88708 38.4499C7.88708 38.4499 7.97304 38.5932 8.059 38.7651C8.14496 38.9084 8.23092 39.0803 8.23092 39.0803L9.89279 38.1634C9.89279 38.1634 9.80683 38.0201 9.72087 37.8769C9.63491 37.7336 9.57761 37.5903 9.57761 37.5903L7.88708 38.4499Z" fill="#27FFF2" fill-opacity="0.4"/>
<path d="M7.42816 37.5047C7.42816 37.5047 7.51412 37.6766 7.57143 37.8199C7.65739 37.9631 7.74335 38.135 7.74335 38.135L9.43387 37.2755C9.43387 37.2755 9.34791 37.1322 9.2906 36.9889C9.2333 36.8457 9.14734 36.7024 9.14734 36.7024L7.42816 37.5047Z" fill="#27FFF2" fill-opacity="0.4"/>
<path d="M6.99841 36.53C6.99841 36.53 7.05572 36.702 7.14168 36.8452C7.22764 37.0171 7.28494 37.1604 7.28494 37.1604L9.00412 36.3868C9.00412 36.3868 8.94681 36.2435 8.86085 36.1003C8.80355 35.957 8.74624 35.8137 8.74624 35.8137L6.99841 36.53Z" fill="#27FFF2" fill-opacity="0.4"/>
<path d="M6.62592 35.5273C6.62592 35.5273 6.68322 35.6993 6.74053 35.8712C6.79784 36.0431 6.85514 36.1864 6.85514 36.1864L8.63162 35.4987C8.63162 35.4987 8.57432 35.3554 8.51701 35.2122C8.45971 35.0689 8.4024 34.897 8.4024 34.897L6.62592 35.5273Z" fill="#27FFF2" fill-opacity="0.4"/>
<path d="M6.28192 34.5241C6.28192 34.5241 6.28192 34.5527 6.31058 34.6387C6.33923 34.696 6.33923 34.7819 6.36788 34.8679C6.42519 35.0398 6.48249 35.2117 6.48249 35.2117L8.28763 34.61C8.28763 34.61 8.23032 34.4667 8.17302 34.2948C8.14436 34.2089 8.11571 34.1516 8.11571 34.0943C8.08705 34.037 8.08706 34.0083 8.08706 34.0083L6.28192 34.5241Z" fill="#27FFF2" fill-opacity="0.4"/>
<path d="M6.02435 33.4931C6.02435 33.4931 6.053 33.665 6.11031 33.8369C6.16761 34.0089 6.19627 34.1808 6.19627 34.1808L8.0014 33.665C8.0014 33.665 7.9441 33.5218 7.91544 33.3499C7.85814 33.2066 7.82949 33.0347 7.82949 33.0347L6.02435 33.4931Z" fill="#27FFF2" fill-opacity="0.4"/>
<path d="M5.76648 32.4611C5.76648 32.4611 5.76648 32.5184 5.79513 32.5757C5.82379 32.633 5.82379 32.719 5.85244 32.8049C5.88109 32.9769 5.9384 33.1488 5.9384 33.1488L7.77219 32.719C7.77219 32.719 7.74353 32.5757 7.68623 32.4038C7.65757 32.3178 7.65757 32.2605 7.62892 32.1746C7.62892 32.1173 7.60027 32.0886 7.60027 32.0886L5.76648 32.4611Z" fill="#27FFF2" fill-opacity="0.4"/>
<path d="M5.59424 31.401C5.59424 31.401 5.59424 31.4583 5.62289 31.5157C5.62289 31.573 5.65154 31.6589 5.65154 31.7449C5.6802 31.9168 5.70885 32.0887 5.70885 32.0887L7.57129 31.7449C7.57129 31.7449 7.54264 31.573 7.51398 31.4297C7.51398 31.3437 7.48533 31.2578 7.48533 31.2005C7.48533 31.1432 7.45668 31.1145 7.45668 31.1145L5.59424 31.401Z" fill="#27FFF2" fill-opacity="0.4"/>
<path d="M5.45123 30.3695L5.53719 31.0572L7.42828 30.7993L7.34232 30.1689L5.45123 30.3695Z" fill="#27FFF2" fill-opacity="0.4"/>
<path d="M5.39435 29.3097L5.423 29.9973L7.3141 29.8254L7.25679 29.1951L5.39435 29.3097Z" fill="#27FFF2" fill-opacity="0.4"/>
<path d="M5.33673 28.2496L5.36539 28.9373L7.25648 28.88L7.22783 28.2209L5.33673 28.2496Z" fill="#27FFF2" fill-opacity="0.4"/>
<path d="M5.36545 27.2466L5.33679 27.9629H7.22789L7.25654 27.3325L5.36545 27.2466Z" fill="#27FFF2" fill-opacity="0.4"/>
<path d="M5.42291 26.1865L5.3656 26.9028L7.25669 26.9888L7.314 26.3584L5.42291 26.1865Z" fill="#27FFF2" fill-opacity="0.4"/>
<path d="M5.53725 25.1548C5.53725 25.1548 5.5086 25.3267 5.47994 25.4986C5.47994 25.5846 5.45129 25.6705 5.45129 25.7278C5.45129 25.7851 5.45129 25.8425 5.45129 25.8425L7.34239 26.0144C7.34239 26.0144 7.34239 25.9857 7.34239 25.9284C7.34239 25.8711 7.37104 25.7851 7.37104 25.6992C7.39969 25.5273 7.39969 25.384 7.39969 25.384L5.53725 25.1548Z" fill="#27FFF2" fill-opacity="0.4"/>
<path d="M5.90959 23.0632C5.90959 23.0632 5.88093 23.2351 5.82363 23.4071C5.79497 23.493 5.79497 23.579 5.76632 23.6363C5.76632 23.6936 5.73767 23.7509 5.73767 23.7509L7.60011 24.1234C7.60011 24.1234 7.60011 24.0947 7.62876 24.0374C7.62876 23.9801 7.65741 23.8942 7.68607 23.8082C7.71472 23.6649 7.77203 23.493 7.77203 23.493L5.90959 23.0632Z" fill="#27FFF2" fill-opacity="0.4"/>
<path d="M6.16789 22.0312C6.16789 22.0312 6.11058 22.2032 6.08193 22.3751C6.05328 22.547 5.99597 22.7189 5.99597 22.7189L7.82976 23.1774C7.82976 23.1774 7.85841 23.0341 7.91572 22.8622C7.97302 22.7189 8.00168 22.547 8.00168 22.547L6.16789 22.0312Z" fill="#27FFF2" fill-opacity="0.4"/>
<path d="M6.45411 21C6.45411 21 6.39681 21.1719 6.3395 21.3438C6.28219 21.5158 6.25354 21.6877 6.25354 21.6877L8.05868 22.2321C8.05868 22.2321 8.11598 22.0888 8.14464 21.9169C8.20194 21.7736 8.25925 21.6017 8.25925 21.6017L6.45411 21Z" fill="#27FFF2" fill-opacity="0.4"/>
<path d="M6.82712 19.9971C6.82712 19.9971 6.76982 20.169 6.71251 20.3123C6.6552 20.4842 6.5979 20.6561 6.5979 20.6561L8.37438 21.2865C8.37438 21.2865 8.43169 21.1432 8.48899 20.9713C8.5463 20.828 8.60361 20.6847 8.60361 20.6847L6.82712 19.9971Z" fill="#27FFF2" fill-opacity="0.4"/>
<path d="M7.22769 19.0232C7.22769 19.0232 7.19904 19.0518 7.17039 19.1091C7.14173 19.1665 7.11308 19.2524 7.08443 19.3384C7.02712 19.5103 6.94116 19.6536 6.94116 19.6536L8.68899 20.3412C8.68899 20.3412 8.7463 20.198 8.8036 20.0547C8.83226 19.9687 8.86091 19.9114 8.88956 19.8541C8.91822 19.7968 8.91821 19.7682 8.91821 19.7682L7.22769 19.0232Z" fill="#27FFF2" fill-opacity="0.4"/>
<path d="M7.65729 18.0491C7.65729 18.0491 7.62863 18.0777 7.59998 18.135C7.57133 18.1923 7.54267 18.2783 7.48537 18.3643C7.39941 18.5362 7.3421 18.6794 7.3421 18.6794L9.06128 19.4531C9.06128 19.4531 9.11858 19.3098 9.20454 19.1665C9.2332 19.0806 9.26185 19.0233 9.2905 18.966C9.31916 18.9087 9.34781 18.88 9.34781 18.88L7.65729 18.0491Z" fill="#27FFF2" fill-opacity="0.4"/>
<path d="M9.26228 15.2983C9.26228 15.2983 9.23363 15.327 9.20498 15.3843C9.17633 15.4416 9.11902 15.4989 9.06171 15.5849C8.97576 15.7281 8.86115 15.8714 8.86115 15.8714L10.4657 16.9029C10.4657 16.9029 10.5517 16.7596 10.6376 16.645C10.6949 16.5877 10.7236 16.5018 10.7522 16.4731C10.7809 16.4158 10.8095 16.3871 10.8095 16.3871L9.26228 15.2983Z" fill="#27FFF2" fill-opacity="0.4"/>
<path d="M9.89266 14.4387C9.89266 14.4387 9.864 14.4674 9.83535 14.5247C9.8067 14.582 9.74939 14.6393 9.69209 14.7253C9.57747 14.8685 9.49152 15.0118 9.49152 15.0118L11.0388 16.1006C11.0388 16.1006 11.1247 15.9573 11.2393 15.8427C11.2967 15.7854 11.3253 15.6994 11.354 15.6708C11.3826 15.6135 11.4113 15.5848 11.4113 15.5848L9.89266 14.4387Z" fill="#27FFF2" fill-opacity="0.4"/>
<path d="M10.5517 13.6077C10.5517 13.6077 10.5231 13.6363 10.4944 13.6936C10.4658 13.7509 10.4085 13.8082 10.3512 13.8942C10.2366 14.0375 10.1219 14.1807 10.1219 14.1807L11.6119 15.3555C11.6119 15.3555 11.6979 15.2409 11.8125 15.0976C11.8698 15.0403 11.8984 14.983 11.9557 14.9257C11.9844 14.8684 12.013 14.8397 12.013 14.8397L10.5517 13.6077Z" fill="#27FFF2" fill-opacity="0.4"/>
<path d="M11.2394 12.8049C11.2394 12.8049 11.2108 12.8336 11.1535 12.8909C11.0962 12.9482 11.0388 13.0055 10.9815 13.0628C10.8669 13.2061 10.7523 13.3207 10.7523 13.3207L12.185 14.5528C12.185 14.5528 12.2996 14.4382 12.3855 14.3235C12.4428 14.2662 12.5001 14.2089 12.5288 14.1516C12.5575 14.0943 12.5861 14.0657 12.5861 14.0657L11.2394 12.8049Z" fill="#27FFF2" fill-opacity="0.4"/>
<path d="M11.9844 12.0317C11.9844 12.0317 11.9557 12.0604 11.8984 12.1177C11.8411 12.175 11.7838 12.2323 11.7265 12.2896C11.6119 12.4042 11.4973 12.5475 11.4973 12.5475L12.8726 13.8369L13.331 13.3784L11.9844 12.0317Z" fill="#27FFF2" fill-opacity="0.4"/>
<path d="M12.7576 11.3152L12.2418 11.8023L13.5599 13.149L14.0183 12.7192L12.7576 11.3152Z" fill="#27FFF2" fill-opacity="0.4"/>
<path d="M13.56 10.6279L13.0156 11.0864L14.2763 12.4904L14.7634 12.0892L13.56 10.6279Z" fill="#27FFF2" fill-opacity="0.4"/>
<path d="M14.3914 9.96826L13.847 10.3981L15.0218 11.8594L15.5089 11.4869L14.3914 9.96826Z" fill="#27FFF2" fill-opacity="0.4"/>
<path d="M15.2507 9.33789L14.6776 9.73903L15.7951 11.2863L16.3108 10.9138L15.2507 9.33789Z" fill="#27FFF2" fill-opacity="0.4"/>
<path d="M16.1392 8.76514L15.5375 9.13763L16.5976 10.7422L17.142 10.3697L16.1392 8.76514Z" fill="#27FFF2" fill-opacity="0.4"/>
<path d="M17.0556 8.24927L16.4539 8.5931L17.3994 10.2263L17.9725 9.88248L17.0556 8.24927Z" fill="#27FFF2" fill-opacity="0.4"/>
<path d="M18.0013 7.76221L17.371 8.07739L18.2592 9.73926L18.8323 9.45273L18.0013 7.76221Z" fill="#27FFF2" fill-opacity="0.4"/>
<path d="M18.9755 7.3042L18.3165 7.59073L19.1188 9.30991L19.7205 9.05203L18.9755 7.3042Z" fill="#27FFF2" fill-opacity="0.4"/>
<path d="M19.95 6.90308L19.291 7.16095L20.0073 8.90878L20.609 8.67956L19.95 6.90308Z" fill="#27FFF2" fill-opacity="0.4"/>
<path d="M24.0473 5.78516C24.0473 5.78516 23.8754 5.81381 23.7035 5.84247C23.6175 5.87112 23.5315 5.87112 23.4742 5.89977C23.4169 5.89977 23.3596 5.92842 23.3596 5.92842L23.7321 7.79086L24.3625 7.67625L24.0473 5.78516Z" fill="#27FFF2" fill-opacity="0.4"/>
<path d="M25.1074 5.64209C25.1074 5.64209 24.9355 5.67075 24.7636 5.6994C24.6776 5.6994 24.5917 5.72805 24.5343 5.72805C24.477 5.72805 24.4197 5.7567 24.4197 5.7567L24.7063 7.61915C24.7063 7.61915 24.7349 7.61914 24.7922 7.59049C24.8495 7.59049 24.9355 7.56184 25.0214 7.56184C25.1934 7.53319 25.3366 7.53319 25.3366 7.53319L25.1074 5.64209Z" fill="#27FFF2" fill-opacity="0.4"/>
<path d="M26.1384 5.52759C26.1384 5.52759 25.9664 5.52759 25.7945 5.55624C25.6226 5.55624 25.4507 5.58489 25.4507 5.58489L25.6513 7.47599C25.6513 7.47599 25.8232 7.44733 25.9664 7.44733C26.1384 7.44733 26.2816 7.41868 26.2816 7.41868L26.1384 5.52759Z" fill="#27FFF2" fill-opacity="0.4"/>
<path d="M27.1985 5.47021C27.1985 5.47021 27.0266 5.47021 26.8546 5.47021C26.7687 5.47021 26.6827 5.47021 26.6254 5.47021C26.5681 5.47021 26.5108 5.47021 26.5108 5.47021L26.6254 7.36131C26.6254 7.36131 26.6541 7.36131 26.7114 7.36131C26.7687 7.36131 26.8546 7.36131 26.9406 7.36131C27.1125 7.36131 27.2558 7.36131 27.2558 7.36131L27.1985 5.47021Z" fill="#27FFF2" fill-opacity="0.4"/>
<path d="M28.2593 5.47021C28.2593 5.47021 28.0874 5.47021 27.9155 5.47021C27.7436 5.47021 27.5717 5.47021 27.5717 5.47021L27.6003 7.36131C27.6003 7.36131 27.7722 7.36131 27.9155 7.36131C28.0874 7.36131 28.2307 7.36131 28.2307 7.36131L28.2593 5.47021Z" fill="#27FFF2" fill-opacity="0.4"/>
<path d="M29.3195 5.49878C29.3195 5.49878 29.2622 5.49878 29.2049 5.49878C29.1476 5.49878 29.0616 5.49878 28.9757 5.49878C28.8038 5.49878 28.6318 5.49878 28.6318 5.49878L28.5745 7.38988C28.5745 7.38988 28.7464 7.38988 28.8897 7.38988C28.9757 7.38988 29.0616 7.38988 29.1189 7.38988C29.1762 7.38988 29.2049 7.38988 29.2049 7.38988L29.3195 5.49878Z" fill="#27FFF2" fill-opacity="0.4"/>
<path d="M30.3795 5.58489C30.3795 5.58489 30.2076 5.55624 30.0357 5.55624C29.8638 5.55624 29.6918 5.52759 29.6918 5.52759L29.5486 7.41868C29.5486 7.41868 29.7205 7.41868 29.8638 7.44733C30.0357 7.44733 30.1789 7.47599 30.1789 7.47599L30.3795 5.58489Z" fill="#27FFF2" fill-opacity="0.4"/>
<path d="M31.4398 5.72814C31.4398 5.72814 31.3825 5.72814 31.3252 5.69949C31.2679 5.69949 31.182 5.67083 31.096 5.67083C30.9241 5.64218 30.7522 5.61353 30.7522 5.61353L30.5229 7.47597C30.5229 7.47597 30.6949 7.50462 30.8381 7.50462C30.9241 7.50462 31.01 7.53327 31.0674 7.53327C31.1247 7.53327 31.1533 7.56193 31.1533 7.56193L31.4398 5.72814Z" fill="#27FFF2" fill-opacity="0.4"/>
<path d="M32.4714 5.89977L31.7837 5.78516L31.4685 7.6476L32.0989 7.76221L32.4714 5.89977Z" fill="#27FFF2" fill-opacity="0.4"/>
<path d="M33.5026 6.15751L32.8436 5.9856L32.4138 7.84804L33.0441 7.9913L33.5026 6.15751Z" fill="#27FFF2" fill-opacity="0.4"/>
<path d="M34.5341 6.44422L33.8751 6.24365L33.3593 8.07744L33.9897 8.24936L34.5341 6.44422Z" fill="#27FFF2" fill-opacity="0.4"/>
<path d="M35.5366 6.75965L34.8776 6.55908L34.3045 8.33556L34.9062 8.53613L35.5366 6.75965Z" fill="#27FFF2" fill-opacity="0.4"/>
<path d="M36.5393 7.16095L35.8803 6.90308L35.2213 8.6509L35.823 8.90878L36.5393 7.16095Z" fill="#27FFF2" fill-opacity="0.4"/>
<path d="M37.5139 7.59073L36.8835 7.3042L36.1099 9.02338L36.7116 9.28125L37.5139 7.59073Z" fill="#27FFF2" fill-opacity="0.4"/>
<path d="M38.4595 8.04907L37.8292 7.73389L36.9982 9.42441L37.5713 9.73959L38.4595 8.04907Z" fill="#27FFF2" fill-opacity="0.4"/>
<path d="M39.376 8.56479L38.7742 8.22095L37.8574 9.88282L38.4304 10.198L39.376 8.56479Z" fill="#27FFF2" fill-opacity="0.4"/>
<path d="M40.2931 9.13763L39.6914 8.76514L38.7172 10.3697L39.2616 10.7135L40.2931 9.13763Z" fill="#27FFF2" fill-opacity="0.4"/>
<path d="M41.153 9.73903L40.5799 9.33789L39.5198 10.8851L40.0642 11.2576L41.153 9.73903Z" fill="#27FFF2" fill-opacity="0.4"/>
<path d="M42.0122 10.3697L41.4678 9.93994L40.3217 11.4585L40.8374 11.8597L42.0122 10.3697Z" fill="#27FFF2" fill-opacity="0.4"/>
<path d="M42.8146 11.0576L42.2988 10.5991L41.0954 12.0604L41.5825 12.4902L42.8146 11.0576Z" fill="#27FFF2" fill-opacity="0.4"/>
<path d="M43.5884 11.7737C43.5884 11.7737 43.4738 11.6591 43.3305 11.5445C43.2732 11.4872 43.2159 11.4299 43.1586 11.3726C43.1013 11.3153 43.0726 11.2866 43.0726 11.2866L41.8119 12.6906C41.8119 12.6906 41.8405 12.7193 41.8978 12.7479C41.9552 12.7766 42.0125 12.8339 42.0698 12.8912C42.1844 13.0058 42.299 13.1204 42.299 13.1204L43.5884 11.7737Z" fill="#27FFF2" fill-opacity="0.4"/>
<path d="M44.3337 12.5189C44.3337 12.5189 44.2191 12.4043 44.1044 12.261C44.0471 12.2037 43.9898 12.1464 43.9325 12.0891C43.8752 12.0318 43.8466 12.0032 43.8466 12.0032L42.4999 13.3499C42.4999 13.3499 42.5285 13.3785 42.5572 13.4072C42.5858 13.4645 42.6431 13.5218 42.7005 13.5791C42.8151 13.6937 42.9297 13.8083 42.9297 13.8083L44.3337 12.5189Z" fill="#27FFF2" fill-opacity="0.4"/>
<path d="M45.0494 13.3207C45.0494 13.3207 44.9348 13.1774 44.8202 13.0628C44.7629 13.0055 44.7056 12.9195 44.6483 12.8909C44.591 12.8336 44.5623 12.8049 44.5623 12.8049L43.1583 14.0943C43.1583 14.0943 43.187 14.123 43.2156 14.1803C43.2443 14.2376 43.3016 14.2949 43.3589 14.3522C43.4735 14.4668 43.5595 14.5814 43.5595 14.5814L45.0494 13.3207Z" fill="#27FFF2" fill-opacity="0.4"/>
<path d="M45.7371 14.1234C45.7371 14.1234 45.6225 13.9801 45.5079 13.8368C45.4506 13.7795 45.3933 13.6936 45.3646 13.6363C45.336 13.5789 45.3073 13.5503 45.3073 13.5503L43.846 14.7537C43.846 14.7537 43.8747 14.7824 43.9033 14.8397C43.932 14.897 43.9893 14.9543 44.0466 15.0116C44.1325 15.1262 44.2471 15.2695 44.2471 15.2695L45.7371 14.1234Z" fill="#27FFF2" fill-opacity="0.4"/>
<path d="M46.3673 14.9832C46.3673 14.9832 46.2527 14.84 46.1667 14.6967C46.1094 14.6394 46.0521 14.5534 46.0235 14.4961C45.9948 14.4388 45.9662 14.4102 45.9662 14.4102L44.4476 15.5563C44.4476 15.5563 44.4762 15.5849 44.5049 15.6422C44.5335 15.6995 44.5908 15.7568 44.6481 15.8141C44.7341 15.9574 44.8487 16.072 44.8487 16.072L46.3673 14.9832Z" fill="#27FFF2" fill-opacity="0.4"/>
<path d="M46.9698 15.8714C46.9698 15.8714 46.8839 15.7281 46.7692 15.5849C46.6833 15.4416 46.5687 15.2983 46.5687 15.2983L45.0214 16.3585C45.0214 16.3585 45.1074 16.5018 45.1933 16.6164C45.2793 16.7596 45.3653 16.8743 45.3653 16.8743L46.9698 15.8714Z" fill="#27FFF2" fill-opacity="0.4"/>
<path d="M47.5138 16.7592C47.5138 16.7592 47.4278 16.6159 47.3418 16.444C47.2559 16.3007 47.1699 16.1575 47.1699 16.1575L45.5654 17.1603C45.5654 17.1603 45.6513 17.3036 45.7373 17.4469C45.8232 17.5901 45.9092 17.7334 45.9092 17.7334L47.5138 16.7592Z" fill="#27FFF2" fill-opacity="0.4"/>
<path d="M48.0296 17.7052C48.0296 17.7052 47.9437 17.562 47.8577 17.39C47.8291 17.3041 47.7718 17.2468 47.7431 17.1895C47.7144 17.1322 47.6858 17.1035 47.6858 17.1035L46.0239 18.0204C46.0239 18.0204 46.0526 18.0491 46.0812 18.1064C46.1099 18.1637 46.1385 18.221 46.1958 18.3069C46.2818 18.4502 46.3391 18.5935 46.3391 18.5935L48.0296 17.7052Z" fill="#27FFF2" fill-opacity="0.4"/>
<path d="M48.4878 18.6506C48.4878 18.6506 48.4019 18.4787 48.3446 18.3354C48.3159 18.2495 48.2586 18.1635 48.2299 18.1062C48.2013 18.0489 48.1726 18.0203 48.1726 18.0203L46.4821 18.8512C46.4821 18.8512 46.5108 18.8799 46.5394 18.9372C46.5681 18.9945 46.5967 19.0518 46.6254 19.1377C46.6827 19.281 46.7686 19.4243 46.7686 19.4243L48.4878 18.6506Z" fill="#27FFF2" fill-opacity="0.4"/>
<path d="M48.8891 19.6247C48.8891 19.6247 48.8318 19.4528 48.7458 19.3096C48.6885 19.1377 48.6025 18.9944 48.6025 18.9944L46.8834 19.7394C46.8834 19.7394 46.9407 19.8826 47.0266 20.0259C47.0839 20.1692 47.1412 20.3124 47.1412 20.3124L48.8891 19.6247Z" fill="#27FFF2" fill-opacity="0.4"/>
<path d="M49.2616 20.6278C49.2616 20.6278 49.2043 20.4559 49.147 20.2839C49.0896 20.112 49.0323 19.9688 49.0323 19.9688L47.2559 20.6564C47.2559 20.6564 47.3132 20.7997 47.3705 20.943C47.4278 21.0862 47.4851 21.2581 47.4851 21.2581L49.2616 20.6278Z" fill="#27FFF2" fill-opacity="0.4"/>
<path d="M49.6052 21.6303C49.6052 21.6303 49.5479 21.4584 49.5192 21.2865C49.4619 21.1145 49.4046 20.9426 49.4046 20.9426L47.5995 21.5443C47.5995 21.5443 47.6568 21.6876 47.7141 21.8595C47.7714 22.0028 47.8001 22.1747 47.8001 22.1747L49.6052 21.6303Z" fill="#27FFF2" fill-opacity="0.4"/>
<path d="M49.8635 22.6618C49.8635 22.6618 49.8348 22.4899 49.7775 22.318C49.7202 22.146 49.6916 21.9741 49.6916 21.9741L47.8578 22.4899C47.8578 22.4899 47.9151 22.6331 47.9437 22.8051C47.9724 22.9483 48.0297 23.1202 48.0297 23.1202L49.8635 22.6618Z" fill="#27FFF2" fill-opacity="0.4"/>
<path d="M50.0922 23.6933C50.0922 23.6933 50.0922 23.636 50.0635 23.5787C50.0635 23.5214 50.0349 23.4354 50.0062 23.3494C49.9776 23.1775 49.9203 23.0056 49.9203 23.0056L48.0865 23.4354C48.0865 23.4354 48.1151 23.5787 48.1725 23.7506C48.2011 23.8366 48.2011 23.8939 48.2298 23.9798C48.2298 24.0371 48.2584 24.0658 48.2584 24.0658L50.0922 23.6933Z" fill="#27FFF2" fill-opacity="0.4"/>
<path d="M50.2934 24.7536C50.2934 24.7536 50.2647 24.5817 50.2361 24.4098C50.2074 24.2378 50.1788 24.0659 50.1788 24.0659L48.3163 24.4098C48.3163 24.4098 48.345 24.5817 48.3736 24.7249C48.4023 24.8969 48.431 25.0401 48.431 25.0401L50.2934 24.7536Z" fill="#27FFF2" fill-opacity="0.4"/>
<path d="M50.4081 25.8139C50.4081 25.8139 50.4081 25.7566 50.4081 25.6993C50.4081 25.642 50.3795 25.556 50.3795 25.4701C50.3508 25.2981 50.3222 25.1262 50.3222 25.1262L48.4597 25.3554C48.4597 25.3554 48.4884 25.5274 48.4884 25.6706C48.4884 25.7566 48.517 25.8425 48.517 25.8999C48.517 25.9572 48.517 25.9858 48.517 25.9858L50.4081 25.8139Z" fill="#27FFF2" fill-opacity="0.4"/>
<path d="M50.4938 26.874L50.4365 26.1577L48.5454 26.3296L48.6027 26.96L50.4938 26.874Z" fill="#27FFF2" fill-opacity="0.4"/>
<path d="M50.5228 27.9341L50.4942 27.2178L48.6031 27.3037L48.6317 27.9341H50.5228Z" fill="#27FFF2" fill-opacity="0.4"/>
</g>
<path d="M28.002 49.2809C39.7597 49.2809 49.2912 39.7494 49.2912 27.9918C49.2912 16.2341 39.7597 6.70264 28.002 6.70264C16.2444 6.70264 6.71289 16.2341 6.71289 27.9918C6.71289 39.7494 16.2444 49.2809 28.002 49.2809Z" fill="#08032D"/>
<path d="M42 42C49.732 34.268 49.732 21.732 42 14C34.268 6.26801 21.732 6.26802 14 14C6.26801 21.732 6.26801 34.268 14 42C21.732 49.732 34.268 49.732 42 42Z" stroke="#87C5FF" stroke-miterlimit="10"/>
<path d="M40.0548 31.1352V31.1388C40.0548 33.771 37.897 35.8999 35.1856 35.8999H21.4692C18.7578 35.8999 16.5999 33.771 16.5999 31.1388V24.8609C16.5999 22.2287 18.7578 20.0999 21.4692 20.0999H35.2307C37.9415 20.0999 40.099 22.2278 40.0999 24.8592C40.0999 24.8598 40.0999 24.8603 40.0999 24.8609L40.0548 31.1352ZM26.4868 31.955L26.5022 31.9487L26.5172 31.9414L32.4276 29.0423C32.4277 29.0422 32.4278 29.0422 32.4278 29.0422C32.7815 28.8688 32.9107 28.5107 32.9107 28.2302C32.9107 27.9521 32.7836 27.5975 32.4365 27.4226L26.5315 24.2867L26.524 24.2827L26.5165 24.279C26.1351 24.0927 25.6859 24.0674 25.3098 24.2823C24.9204 24.5048 24.7141 24.9238 24.7141 25.4068V30.8348C24.7141 31.2605 24.8556 31.6964 25.248 31.9373C25.6292 32.1714 26.0856 32.1197 26.4868 31.955Z" stroke="white"/>
</svg>
