<svg width="138" height="138" viewBox="0 0 138 138" fill="none" xmlns="http://www.w3.org/2000/svg">
<path d="M68.5003 41.9032C72.8137 41.9032 76.3229 38.394 76.3229 34.0806C76.3229 29.7673 72.8137 26.2581 68.5003 26.2581C64.1869 26.2581 60.6777 29.7673 60.6777 34.0806C60.6777 38.394 64.1869 41.9032 68.5003 41.9032ZM68.5003 29.3871C71.088 29.3871 73.1939 31.4929 73.1939 34.0806C73.1939 36.6683 71.088 38.7742 68.5003 38.7742C65.9126 38.7742 63.8068 36.6683 63.8068 34.0806C63.8068 31.4929 65.9126 29.3871 68.5003 29.3871Z" fill="#1DE9B6"/>
<path d="M68.5006 56.9241L79.496 43.1799C81.4861 40.6939 82.5812 37.5695 82.5812 34.3842V34.0806C82.5812 26.3175 76.2637 20 68.5006 20C60.7374 20 54.4199 26.3175 54.4199 34.0806V34.3842C54.4199 37.5695 55.5151 40.6939 57.5051 43.1799L68.5006 56.9241ZM57.549 34.0806C57.549 28.0416 62.4615 23.129 68.5006 23.129C74.5396 23.129 79.4522 28.0416 79.4522 34.0806V34.3842C79.4522 36.8608 78.5995 39.2921 77.0522 41.2258L68.5006 51.9146L59.9489 41.2242C58.4016 39.2921 57.549 36.8608 57.549 34.3842V34.0806Z" fill="#1DE9B6"/>
<path d="M102.919 26.2581C98.6059 26.2581 95.0967 29.7673 95.0967 34.0806C95.0967 38.394 98.6059 41.9032 102.919 41.9032C107.233 41.9032 110.742 38.394 110.742 34.0806C110.742 29.7673 107.233 26.2581 102.919 26.2581ZM102.919 38.7742C100.332 38.7742 98.2257 36.6683 98.2257 34.0806C98.2257 31.4929 100.332 29.3871 102.919 29.3871C105.507 29.3871 107.613 31.4929 107.613 34.0806C107.613 36.6683 105.507 38.7742 102.919 38.7742Z" fill="#1DE9B6"/>
<path d="M102.92 20C95.1564 20 88.8389 26.3175 88.8389 34.0806V34.3842C88.8389 37.5695 89.934 40.6939 91.9241 43.1799L102.92 56.9241L113.915 43.1799C115.905 40.6939 117 37.5695 117 34.3842V34.0806C117 26.3175 110.683 20 102.92 20V20ZM113.871 34.3842C113.871 36.8608 113.018 39.2921 111.471 41.2258L102.92 51.9146L94.3679 41.2242C92.8206 39.2921 91.9679 36.8608 91.9679 34.3842V34.0806C91.9679 28.0416 96.8805 23.129 102.92 23.129C108.959 23.129 113.871 28.0416 113.871 34.0806V34.3842Z" fill="#1DE9B6"/>
<path d="M34.0814 41.9032C38.3947 41.9032 41.9039 38.394 41.9039 34.0806C41.9039 29.7673 38.3947 26.2581 34.0814 26.2581C29.768 26.2581 26.2588 29.7673 26.2588 34.0806C26.2588 38.394 29.768 41.9032 34.0814 41.9032ZM34.0814 29.3871C36.6691 29.3871 38.7749 31.4929 38.7749 34.0806C38.7749 36.6683 36.6691 38.7742 34.0814 38.7742C31.4937 38.7742 29.3878 36.6683 29.3878 34.0806C29.3878 31.4929 31.4937 29.3871 34.0814 29.3871Z" fill="#1DE9B6"/>
<path d="M34.0806 56.9241L45.0761 43.1799C47.0661 40.6939 48.1613 37.5695 48.1613 34.3842V34.0806C48.1613 26.3175 41.8438 20 34.0806 20C26.3175 20 20 26.3175 20 34.0806V34.3842C20 37.5695 21.0952 40.6939 23.0852 43.1799L34.0806 56.9241ZM23.129 34.0806C23.129 28.0416 28.0416 23.129 34.0806 23.129C40.1197 23.129 45.0323 28.0416 45.0323 34.0806V34.3842C45.0323 36.8608 44.1796 39.292 42.6323 41.2258L34.0806 51.9146L25.529 41.2242C23.9817 39.292 23.129 36.8608 23.129 34.3842V34.0806Z" fill="#1DE9B6"/>
<path d="M113.871 82.6964V64.9704C113.871 63.0085 112.541 61.3689 110.742 60.8573V54.4193H107.613V61.0779L104.484 62.0166V59.1129H101.355V62.9553L95.0264 64.8546C93.1974 65.4038 91.9677 67.0559 91.9677 68.9662V70.0645H82.5806V66.9354C82.5806 65.2098 81.1773 63.8064 79.4516 63.8064H76.3226V60.6774H73.1935V63.8064H70.0645V57.5483H66.9355V63.8064H63.8064V60.6774H60.6774V63.8064H57.5484C55.8227 63.8064 54.4193 65.2098 54.4193 66.9354V70.0645H45.0323V68.9662C45.0323 67.0559 43.8025 65.4038 41.9721 64.8531L35.6452 62.9553V59.1129H32.5161V62.0166L29.3871 61.0779V54.4193H26.2581V60.8589C24.4589 61.3705 23.129 63.0101 23.129 64.972V82.6964C21.3392 83.1157 20 84.7162 20 86.6311C20 87.3164 20.1752 87.997 20.51 88.5977L20.6461 88.8434C30.2961 106.211 48.6322 117 68.5 117C88.3678 117 106.704 106.211 116.354 88.8434L116.492 88.5962C116.825 87.9954 117 87.3164 117 86.6296C117 84.7146 115.661 83.1157 113.871 82.6964V82.6964ZM95.0968 68.9662C95.0968 68.4483 95.43 67.9993 95.926 67.8507L109.245 63.8549C109.971 63.6406 110.742 64.2163 110.742 64.9704V82.5806H101.355V73.1935C101.355 71.4678 99.9515 70.0645 98.2258 70.0645H95.0968V68.9662ZM98.2258 73.1935V82.5806H82.5806V73.1935H98.2258ZM57.5484 66.9354H79.4516V73.1935V82.5806H57.5484V73.1935V66.9354ZM54.4193 82.5806H38.7742V73.1935H54.4193V82.5806ZM27.7569 63.8565L41.0725 67.8507C41.57 67.9993 41.9032 68.4483 41.9032 68.9662V70.0645H38.7742C37.0485 70.0645 35.6452 71.4678 35.6452 73.1935V82.5806H26.2581V64.9704C26.2581 64.2163 27.0278 63.6343 27.7569 63.8565ZM113.755 87.077L113.619 87.3226C104.52 103.698 87.2319 113.871 68.5 113.871C49.768 113.871 32.4801 103.698 23.3809 87.3226L23.2448 87.077C23.1681 86.9409 23.129 86.786 23.129 86.6296C23.129 86.1227 23.5421 85.7096 24.049 85.7096H112.949C113.458 85.7096 113.871 86.1227 113.871 86.6296C113.871 86.786 113.832 86.9409 113.755 87.077Z" fill="#1DE9B6"/>
<path d="M41.9033 76.3226H45.0324V79.4517H41.9033V76.3226Z" fill="#1DE9B6"/>
<path d="M48.1611 76.3226H51.2902V79.4517H48.1611V76.3226Z" fill="#1DE9B6"/>
<path d="M60.6777 70.0646H63.8068V73.1936H60.6777V70.0646Z" fill="#1DE9B6"/>
<path d="M66.9355 70.0646H70.0646V73.1936H66.9355V70.0646Z" fill="#1DE9B6"/>
<path d="M60.6777 76.3226H63.8068V79.4517H60.6777V76.3226Z" fill="#1DE9B6"/>
<path d="M66.9355 76.3226H70.0646V79.4517H66.9355V76.3226Z" fill="#1DE9B6"/>
<path d="M73.1934 70.0646H76.3224V73.1936H73.1934V70.0646Z" fill="#1DE9B6"/>
<path d="M73.1934 76.3226H76.3224V79.4517H73.1934V76.3226Z" fill="#1DE9B6"/>
<path d="M29.3867 76.3226H32.5158V79.4517H29.3867V76.3226Z" fill="#1DE9B6"/>
<path d="M29.3867 70.0646H32.5158V73.1936H29.3867V70.0646Z" fill="#1DE9B6"/>
<path d="M91.9678 76.3226H95.0968V79.4517H91.9678V76.3226Z" fill="#1DE9B6"/>
<path d="M85.71 76.3226H88.839V79.4517H85.71V76.3226Z" fill="#1DE9B6"/>
<path d="M104.483 76.3226H107.612V79.4517H104.483V76.3226Z" fill="#1DE9B6"/>
<path d="M104.483 70.0646H107.612V73.1936H104.483V70.0646Z" fill="#1DE9B6"/>
</svg>
