<svg width="138" height="138" viewBox="0 0 138 138" fill="none" xmlns="http://www.w3.org/2000/svg">
<g clip-path="url(#clip0_2488_38030)">
<path d="M114.891 63.1511C114.21 62.7753 113.502 62.4569 112.738 62.2655L105.127 60.3611V59.4958C108.494 57.146 110.548 53.2641 110.548 49.129V45.9713C110.548 38.9536 105.05 33.0809 98.2913 32.8763C97.9482 32.8674 97.6104 32.8798 97.2708 32.8965L99.2439 28.2772L89.678 18.714L84.0391 22.3842C81.8965 21.1775 79.6305 20.2382 77.2772 19.5793L75.8844 13H62.1173L60.7245 19.581C58.3712 20.2399 56.1035 21.1793 53.9627 22.386L48.3237 18.7157L38.7658 28.2737L40.7054 32.8965C40.6313 32.893 40.5607 32.8798 40.4866 32.878C37.0272 32.7775 33.7689 34.0397 31.2938 36.4424C28.8153 38.8434 27.4516 42.0655 27.4516 45.5161V49.129C27.4516 53.2641 29.5042 57.1443 32.871 59.4941V60.3611L27.9068 61.6022L18.9089 56.3548H13V93.7867L30.7717 99.7097H34.2329L34.6651 98.1961L40.1126 101.466C40.2017 104.428 42.5771 106.811 45.5364 106.915C45.6405 109.862 48.0088 112.23 50.9558 112.335C51.0599 115.282 53.4282 117.65 56.3751 117.754C56.4827 120.77 58.9525 123.194 61.9929 123.194C63.122 123.194 64.229 122.842 65.1595 122.214L66.7596 123.628C67.7625 124.51 69.0538 125 70.3945 125H70.7288C73.7349 125 76.1808 122.57 76.2188 119.574C79.1922 119.536 81.6002 117.128 81.6381 114.154C84.6133 114.116 87.0231 111.705 87.0575 108.73C90.06 108.659 92.4839 106.206 92.4839 103.187C92.4839 103.005 92.4751 102.826 92.4565 102.645L125 86.3747V59.9677H120.941L114.891 63.1511ZM106.935 45.9713V49.129C106.935 52.3353 105.203 55.3308 102.414 56.9458L101.511 57.468L101.518 63.1846L110.543 65.4391L90.6774 75.895V71.0287C90.6774 68.6004 89.6966 66.3768 88.0903 64.7335L94.2903 63.1846V57.4636L93.3889 56.9423C90.6016 55.3308 88.871 52.3353 88.871 49.129V45.5161C88.871 43.0525 89.8448 40.7486 91.615 39.033C93.3836 37.3183 95.7298 36.3939 98.1828 36.4892C103.009 36.6338 106.935 40.888 106.935 45.9713ZM71.7238 74.4749L63.5462 71.8614C59.8196 70.6671 55.7859 70.4889 51.971 71.3339L50.9355 71.5633V71.0287C50.9355 68.5378 52.6246 66.375 55.0397 65.7699L65.3871 63.1846V57.4636L64.4856 56.9423C61.6983 55.3308 59.9677 52.3353 59.9677 49.129V45.5161C59.9677 43.0525 60.9415 40.7486 62.7118 39.033C64.4803 37.3183 66.8416 36.3939 69.2796 36.4892C74.1053 36.6338 78.0323 40.888 78.0323 45.9713V49.129C78.0323 52.3353 76.2999 55.3308 73.5108 56.9458L72.6076 57.468L72.6147 63.1846L82.9603 65.7699C85.3754 66.375 87.0645 68.5378 87.0645 71.0287V77.7976L86.6182 78.0323H85.5112L74.4052 74.8586C73.5302 74.6108 72.6288 74.5093 71.7238 74.4749ZM51.3403 40.0368C54.7327 33.4637 61.5607 29.2581 69 29.2581C76.3687 29.2581 83.1676 33.4073 86.5856 39.8913C85.7255 41.6157 85.2581 43.5253 85.2581 45.5161V49.129C85.2581 53.2641 87.3106 57.1443 90.6774 59.4941V60.3611L83.4516 62.1702L76.224 60.3611V59.4958C79.5909 57.146 81.6452 53.2641 81.6452 49.129V45.9713C81.6452 38.9536 76.1464 33.0809 69.3881 32.8763C65.9304 32.7748 62.6704 34.0379 60.1953 36.4406C57.7185 38.8434 56.3548 42.0655 56.3548 45.5161V49.129C56.3548 53.2641 58.4074 57.1443 61.7742 59.4941V60.3611L54.5484 62.1702L47.3208 60.3611V59.4958C50.6876 57.146 52.7419 53.2641 52.7419 49.129V45.9713C52.7419 43.8455 52.2303 41.8274 51.3403 40.0368ZM43.0323 29.1116L48.8036 23.3403L53.8833 26.6463L54.8553 26.05C57.2907 24.5576 59.9228 23.4647 62.6774 22.8058L63.7888 22.5394L65.0457 16.6129H72.956L74.2094 22.5377L75.3208 22.8032C78.0755 23.463 80.7075 24.5558 83.1429 26.0483L84.1149 26.6445L89.1947 23.3386L94.9589 29.1046L92.9099 33.9021C91.5154 34.5019 90.2223 35.346 89.0968 36.4371C89.0227 36.5094 88.9592 36.5871 88.8868 36.6612C84.6309 29.8958 77.107 25.6452 69 25.6452C60.8348 25.6452 53.2897 29.9355 49.0444 36.7697C47.9083 35.5806 46.557 34.6174 45.0592 33.9444L43.0323 29.1116ZM36.4839 63.1846V57.4636L35.5824 56.9423C32.7951 55.3308 31.0645 52.3353 31.0645 49.129V45.5161C31.0645 43.0525 32.0383 40.7486 33.8086 39.033C35.5771 37.3183 37.9287 36.3939 40.3764 36.4892C45.2021 36.6338 49.129 40.888 49.129 45.9713V49.129C49.129 52.3353 47.3967 55.3308 44.6076 56.9458L43.7044 57.468L43.7114 63.1846L49.9097 64.7335C48.3034 66.3768 47.3226 68.6004 47.3226 71.0287V72.3668L41.688 73.6193L41.8344 73.1077L41.9032 69.7691L32.3761 64.2113L36.4839 63.1846ZM16.6129 59.9677H17.9298L30.9216 67.5455L24.3662 93.7664L16.6129 91.1811V59.9677ZM31.3574 96.0968L27.8018 94.9122L34.1702 69.441L38.2903 71.8438V72.3598L31.5091 96.0968H31.3574ZM43.7097 101.297C43.7097 100.765 43.9249 100.242 44.3024 99.8649L47.4778 96.6895C47.8553 96.312 48.3775 96.0968 48.9103 96.0968C50.027 96.0968 50.9355 97.0053 50.9355 98.122C50.9355 98.6547 50.7203 99.1769 50.3427 99.5544L47.1673 102.73C46.7898 103.107 46.2676 103.323 45.7349 103.323C44.6182 103.323 43.7097 102.414 43.7097 101.297ZM49.129 106.717C49.129 106.184 49.3442 105.662 49.7218 105.284L52.8972 102.109C53.2747 101.731 53.7969 101.516 54.3296 101.516C55.4463 101.516 56.3548 102.425 56.3548 103.541C56.3548 104.074 56.1396 104.596 55.7621 104.974L52.5867 108.149C52.2092 108.527 51.687 108.742 51.1542 108.742C50.0375 108.742 49.129 107.833 49.129 106.717ZM54.5484 112.136C54.5484 111.603 54.7636 111.081 55.1411 110.704L58.3165 107.528C58.6941 107.151 59.2162 106.935 59.749 106.935C60.8657 106.935 61.7742 107.844 61.7742 108.961C61.7742 109.493 61.559 110.016 61.1814 110.393L58.006 113.569C57.6285 113.946 57.1063 114.161 56.5736 114.161C55.4569 114.161 54.5484 113.253 54.5484 112.136ZM61.9929 119.581C60.8763 119.581 59.9677 118.672 59.9677 117.555C59.9677 117.023 60.183 116.5 60.5605 116.123L63.7359 112.948C64.1134 112.57 64.6356 112.355 65.1683 112.355C66.285 112.355 67.1935 113.263 67.1935 114.38C67.1935 114.913 66.9783 115.435 66.6008 115.812L63.4254 118.988C63.0479 119.365 62.5257 119.581 61.9929 119.581ZM70.7288 121.387H70.3945C69.9341 121.387 69.4931 121.219 69.1499 120.915L67.7986 119.724L69.1552 118.367C69.6395 117.883 70.0152 117.307 70.2931 116.688L71.9355 118.056C72.365 118.414 72.6129 118.941 72.6129 119.503C72.6129 120.542 71.7679 121.387 70.7288 121.387ZM86.9287 105.129H86.6164C86.1631 105.129 85.7203 104.968 85.3736 104.677L75.5775 96.514L73.263 99.2907L82.776 107.217C83.2038 107.575 83.4516 108.102 83.4516 108.664C83.4516 109.703 82.6066 110.548 81.5675 110.548H81.1733C80.7349 110.548 80.3062 110.393 79.9684 110.111L70.1564 101.935L67.8419 104.712L77.3548 112.639C77.7844 112.994 78.0323 113.522 78.0323 114.084C78.0323 115.123 77.1872 115.968 76.1482 115.968C75.4549 115.968 74.7792 115.722 74.2474 115.28L70.2155 111.919C69.3272 110.104 67.5023 108.838 65.365 108.762C65.261 105.815 62.8926 103.447 59.9457 103.343C59.8416 100.396 57.4733 98.0276 54.5263 97.9235C54.4205 94.9078 51.9507 92.4839 48.9103 92.4839C47.4258 92.4839 45.973 93.0854 44.9234 94.1351L41.748 97.3105C41.5583 97.5001 41.4013 97.7153 41.2417 97.9288L35.6927 94.599L40.5572 77.5736L52.7525 74.8621C55.9517 74.1468 59.3247 74.302 62.4446 75.3005L65.1057 76.1517L56.084 80.6626C54.0227 81.6954 52.7419 83.7691 52.7419 86.0748V86.4321C52.7419 89.7689 55.4569 92.4839 58.7937 92.4839C59.8901 92.4839 60.9689 92.1857 61.9065 91.6203L68.6331 87.5867C69.9844 86.777 71.7979 86.9543 72.9648 88.0039L88.2279 101.74C88.6363 102.111 88.871 102.636 88.871 103.187C88.871 104.258 88.0004 105.129 86.9287 105.129ZM121.387 84.1414L90.9535 99.3595C90.8547 99.2545 90.7515 99.1549 90.643 99.0578L75.3826 85.3216C74.0454 84.1149 72.3165 83.4516 70.5154 83.4516C69.1985 83.4516 67.9054 83.8097 66.7728 84.4889L60.0436 88.5243C59.6661 88.7519 59.2348 88.871 58.7937 88.871C57.4477 88.871 56.3548 87.7781 56.3548 86.4321V86.0748C56.3548 85.1443 56.8717 84.3099 57.7026 83.8944L67.7792 78.8561C69.5037 77.9926 71.5509 77.7994 73.4094 78.3339L84.7615 81.5764L87.5108 81.6452L121.387 63.8153V84.1414Z" fill="#1DE9B6"/>
</g>
<defs>
<clipPath id="clip0_2488_38030">
<rect width="112" height="112" fill="white" transform="translate(13 13)"/>
</clipPath>
</defs>
</svg>
