<svg width="38" height="38" viewBox="0 0 38 38" fill="none" xmlns="http://www.w3.org/2000/svg">
<path fillRule="evenodd" clipRule="evenodd" d="M9.71042 13.7808C10.9743 10.4852 14.1725 7.3125 19 7.3125C24.2023 7.3125 28.5657 11.0371 29.5083 16.9663C30.8616 17.1685 32.2882 17.6806 33.4662 18.5815C34.9412 19.7094 36 21.4341 36 23.7812C36 26.084 35.1292 27.8637 33.6486 29.0424C32.2025 30.1937 30.2833 30.6875 28.2969 30.6875H11.0312C6.1604 30.6875 2 27.2512 2 22.1875C2 19.6203 2.98685 17.5746 4.57109 16.1296C5.96968 14.8539 7.78904 14.0843 9.71042 13.7808ZM19 9.4375C14.9852 9.4375 12.3785 12.2294 11.5164 15.0596C11.3915 15.4697 11.0323 15.7646 10.6057 15.8072C8.79138 15.9887 7.16217 16.6424 6.00313 17.6996C4.86471 18.738 4.125 20.2118 4.125 22.1875C4.125 25.8894 7.13648 28.5625 11.0312 28.5625H28.2969C29.9628 28.5625 31.3639 28.1452 32.325 27.38C33.2516 26.6423 33.875 25.5001 33.875 23.7812C33.875 22.156 33.1741 21.0332 32.1754 20.2695C31.1424 19.4796 29.7673 19.0642 28.5072 18.9986C27.9829 18.9712 27.5571 18.565 27.5052 18.0425C26.9629 12.5808 23.2441 9.4375 19 9.4375Z" fill="white"/>
</svg>
