<svg width="38" height="38" viewBox="0 0 38 38" fill="none" xmlns="http://www.w3.org/2000/svg">
<path d="M14.8602 23.0861L10.6795 27.2668C10.2142 27.732 9.6214 28.0488 8.97607 28.1771C8.33074 28.3055 7.66185 28.2396 7.05396 27.9878C6.44607 27.736 5.92649 27.3097 5.56089 26.7626C5.19529 26.2156 5.0001 25.5724 5 24.9144V23.0861L6.91148 13.5301C7.16678 12.2528 7.85674 11.1034 8.86397 10.2775C9.8712 9.45157 11.1335 9.00014 12.436 9H25.7361C27.0386 9.00014 28.3009 9.45157 29.3082 10.2775C30.3154 11.1034 31.0053 12.2528 31.2606 13.5301L33.1721 23.0861V24.913C33.172 25.571 32.9768 26.2142 32.6112 26.7612C32.2456 27.3082 31.726 27.7346 31.1182 27.9864C30.5103 28.2382 29.8414 28.3041 29.196 28.1757C28.5507 28.0474 27.9579 27.7306 27.4926 27.2654L23.3119 23.0861H14.8602Z" stroke="white" stroke-width="2" stroke-linecap="round" stroke-linejoin="round"/>
<path d="M14.8594 9L16.268 11.8172H21.9024L23.311 9" stroke="white" stroke-width="2" stroke-linecap="round" stroke-linejoin="round"/>
</svg>
