<svg width="138" height="138" viewBox="0 0 138 138" fill="none" xmlns="http://www.w3.org/2000/svg">
<path d="M68.5355 68.552C76.4671 68.552 82.8975 62.1224 82.8975 54.1908C82.8975 46.2591 76.4671 39.8288 68.5355 39.8288C60.6039 39.8288 54.1743 46.2591 54.1743 54.1908C54.183 62.1185 60.607 68.5433 68.5355 68.552ZM68.5355 44.3562C73.9668 44.3562 78.3701 48.7594 78.3701 54.1908C78.3701 59.6221 73.9668 64.0245 68.5355 64.0245C63.1042 64.0245 58.7017 59.6221 58.7017 54.1908C58.7072 48.7618 63.1057 44.3617 68.5355 44.3562Z" fill="#1DE9B6"/>
<path d="M106.104 61.9871H99.9921C91.9834 61.9871 84.7419 66.8203 81.4957 74.0319C78.4782 72.3121 75.0645 71.4082 71.5919 71.4114H65.4799C62.0238 71.4082 58.6259 72.3035 55.6202 74.0068C52.3771 66.7307 45.1726 62.028 37.2064 61.9879H31.0951C20.0014 61.9997 11.0126 70.9885 11 82.0815V101.36C11 102.611 12.014 103.624 13.2637 103.624H45.3864V110.784C45.3864 112.036 46.3988 113.048 47.6501 113.048H89.421C90.6708 113.048 91.6847 112.036 91.6847 110.784V103.624H123.934C125.184 103.624 126.198 102.61 126.198 101.36V82.0815C126.185 70.9885 117.197 61.9997 106.104 61.9871ZM106.104 66.5145C106.217 66.5145 106.328 66.5216 106.44 66.5232L103.709 78.241C103.603 78.7653 103.175 79.1654 102.644 79.2353C102.613 79.2369 102.574 79.2369 102.553 79.2377C101.982 79.2062 101.507 78.7928 101.397 78.2332L98.681 66.5711C99.1149 66.5342 99.5519 66.5153 99.9928 66.5145H106.104ZM71.5919 75.9388C72.0062 75.9388 72.4157 75.96 72.8213 75.9915L69.1019 88.1117L65.3667 75.9419C65.4045 75.9419 65.4406 75.9388 65.4784 75.9388H71.5919ZM37.2056 66.5145C37.3596 66.5145 37.5121 66.52 37.6654 66.524L33.8886 80.2508L30.1189 66.5476C30.4412 66.5279 30.7666 66.5145 31.0936 66.5145H37.2056ZM15.5274 82.0815C15.5353 75.5741 19.5832 69.7568 25.6811 67.4868L31.6249 89.0903V99.0962H15.5274V82.0815ZM36.1523 99.0962V89.0903L42.1386 67.3296C46.6267 68.8529 50.1944 72.3129 51.8537 76.7531C47.7295 80.5495 45.3832 85.8991 45.3848 91.5049V99.0962H36.1523ZM49.9138 91.5057C49.9216 84.6957 54.3477 78.6788 60.8472 76.6431L66.8382 96.1668V108.52H49.9138V91.5057ZM87.1573 108.52H71.3656V96.1668L77.2457 77.007C83.217 79.3414 87.1494 85.0935 87.1573 91.5049V108.52ZM85.2497 76.7845C86.8382 72.5975 90.1127 69.2695 94.2746 67.6126L96.9895 79.2605C97.3935 81.0486 98.6165 82.5413 100.291 83.2888V99.0978H91.6847V91.5049C91.6871 85.9148 89.3534 80.5794 85.2497 76.7845ZM121.67 99.0954H104.818V83.2817C106.483 82.5303 107.703 81.0471 108.118 79.2683L110.913 67.2778C117.322 69.3678 121.662 75.3406 121.67 82.0815V99.0954Z" fill="#1DE9B6"/>
<path d="M102.921 59.2557C109.42 59.2572 115.111 54.8933 116.794 48.6139C118.476 42.336 115.729 35.7108 110.1 32.4622V30.2881C110.1 26.8147 107.285 24 103.812 24C100.339 24 97.5239 26.8147 97.5239 30.2881V31.5874C91.1572 34.1694 87.5109 40.9 88.8267 47.6432C90.1425 54.3871 96.0501 59.2549 102.921 59.2549V59.2557ZM102.921 54.7283C98.8177 54.7235 95.1486 52.1753 93.7078 48.3341C95.5235 48.0267 97.2968 47.5056 98.9922 46.7833C101.094 45.8864 103.033 44.6445 104.727 43.1079C106.33 44.9047 108.835 47.0466 112.243 48.0794C110.911 52.0873 107.143 54.7746 102.921 54.7283ZM112.644 43.4152C110.397 42.483 108.739 40.867 107.722 39.64C108.238 38.8776 108.701 38.0814 109.109 37.2568C111.013 38.7974 112.274 40.9943 112.644 43.4152ZM102.051 30.2881C102.051 29.3158 102.839 28.5274 103.812 28.5274C104.785 28.5274 105.573 29.3158 105.573 30.2881V30.7801C104.699 30.6151 103.81 30.5317 102.921 30.531C102.629 30.531 102.339 30.5427 102.051 30.5593V30.2881ZM102.921 35.0584C103.63 35.0592 104.339 35.1362 105.031 35.2895C101.952 41.4463 96.2977 43.2965 93.1411 43.8515C93.6795 38.8548 97.8941 35.0654 102.921 35.0584Z" fill="#1DE9B6"/>
<path d="M34.1496 59.2557C42.0513 59.2557 48.3606 52.9653 48.5116 44.9362C48.5116 44.922 48.5116 44.9071 48.5116 44.8929C48.5116 36.9613 42.082 30.5317 34.1496 30.5317C26.2179 30.5317 19.7876 36.9613 19.7876 44.8929C19.7876 52.8253 26.2179 59.2557 34.1496 59.2557ZM34.1496 35.0592C39.5707 35.0662 43.9661 39.4522 43.9841 44.8725C43.8694 50.4013 39.5526 54.7291 34.1496 54.7291C28.7182 54.7291 24.315 50.3258 24.315 44.8945C24.315 39.4632 28.7182 35.0592 34.1496 35.0592Z" fill="#1DE9B6"/>
<path d="M115.131 78.8322H110.855C109.605 78.8322 108.591 79.8461 108.591 81.0959C108.591 82.3456 109.605 83.3596 110.855 83.3596H115.131C116.381 83.3596 117.395 82.3456 117.395 81.0959C117.395 79.8461 116.381 78.8322 115.131 78.8322Z" fill="#1DE9B6"/>
<path d="M77.4019 88.8929C76.1521 88.8929 75.1382 89.9069 75.1382 91.1567C75.1382 92.4064 76.1521 93.4204 77.4019 93.4204H81.6778C82.9276 93.4204 83.9415 92.4064 83.9415 91.1567C83.9415 89.9069 82.9276 88.8929 81.6778 88.8929H77.4019Z" fill="#1DE9B6"/>
<path d="M47.2186 80.3412C47.2186 79.0915 46.2046 78.0775 44.9549 78.0775H41.6851C40.4353 78.0775 39.4214 79.0915 39.4214 80.3412C39.4214 81.591 40.4353 82.605 41.6851 82.605H44.9549C46.2046 82.605 47.2186 81.591 47.2186 80.3412Z" fill="#1DE9B6"/>
</svg>
