<svg width="38" height="38" viewBox="0 0 38 38" fill="none" xmlns="http://www.w3.org/2000/svg">
<path fillRule="evenodd" clipRule="evenodd" d="M14.1442 5.36742C13.0716 5.36742 12.202 6.23935 12.202 7.31492V30.6849C12.202 31.7605 13.0716 32.6324 14.1442 32.6324H23.8553C24.928 32.6324 25.7975 31.7605 25.7975 30.6849V7.31492C25.7975 6.23935 24.928 5.36742 23.8553 5.36742H14.1442ZM10.2598 7.31492C10.2598 5.16377 11.9989 3.41992 14.1442 3.41992H23.8553C26.0006 3.41992 27.7398 5.16377 27.7398 7.31492V30.6849C27.7398 32.8361 26.0006 34.5799 23.8553 34.5799H14.1442C11.9989 34.5799 10.2598 32.8361 10.2598 30.6849V7.31492Z" fill="white"/>
<path fillRule="evenodd" clipRule="evenodd" d="M13.2998 4.39706C13.2998 3.8574 13.7251 3.41992 14.2498 3.41992H15.6748C16.0527 3.41992 16.4152 3.57434 16.6824 3.84922C16.9497 4.1241 17.0998 4.49691 17.0998 4.88564H20.8998C20.8998 4.49691 21.0499 4.1241 21.3172 3.84922C21.5844 3.57434 21.9469 3.41992 22.3248 3.41992H23.7498C24.2745 3.41992 24.6998 3.8574 24.6998 4.39706C24.6998 4.93673 24.2745 5.37421 23.7498 5.37421H22.7395C22.6553 5.70938 22.4853 6.01858 22.2433 6.26752C21.887 6.63403 21.4037 6.83992 20.8998 6.83992H17.0998C16.5959 6.83992 16.1126 6.63402 15.7563 6.26752C15.5143 6.01858 15.3443 5.70938 15.2601 5.37421H14.2498C13.7251 5.37421 13.2998 4.93673 13.2998 4.39706Z" fill="white"/>
</svg>
