<svg width="138" height="138" viewBox="0 0 138 138" fill="none" xmlns="http://www.w3.org/2000/svg">
<path d="M89.4981 36.1864C88.5426 35.2318 87.2727 34.7052 85.9219 34.7052C84.5712 34.7052 83.3013 35.2318 82.3466 36.1864C81.3912 37.1419 80.8646 38.4118 80.8646 39.7626C80.8646 41.1133 81.3912 42.3833 82.3458 43.3379L90.9609 51.953C91.9155 52.9076 93.1863 53.4342 94.537 53.4342C95.8878 53.4342 97.1569 52.9076 98.1124 51.953L116.519 33.5465C117.474 32.5911 118 31.3211 118 29.9712C118 28.6204 117.474 27.3505 116.519 26.395C115.564 25.4396 114.293 24.9138 112.943 24.9138C111.592 24.9138 110.322 25.4396 109.367 26.395L107.338 28.4244C105.834 27.2769 104.184 26.3566 102.436 25.6909V23.3902C102.436 20.6015 100.167 18.3329 97.3794 18.3329H81.5224V16.5773C81.5224 13.0139 78.6232 10.1147 75.0599 10.1147H57.376C53.8127 10.1147 50.9135 13.0139 50.9135 16.5773V23.8792C50.9135 25.8589 52.5243 27.4697 54.5041 27.4697H77.9318C79.9116 27.4697 81.5224 25.8589 81.5224 23.8792V21.4105H97.3786C98.47 21.4105 99.3583 22.2988 99.3583 23.3902V24.8074C98.0916 24.5514 96.7952 24.4153 95.4837 24.4153C84.7056 24.4153 75.9369 33.184 75.9369 43.9621C75.9369 54.7401 84.7056 63.5088 95.4837 63.5088C96.7984 63.5088 98.0947 63.3768 99.3583 63.1231V109.943C99.3583 111.035 98.47 111.922 97.3786 111.922H35.0565C33.965 111.922 33.0776 111.035 33.0776 109.943V23.3902C33.0776 22.2988 33.965 21.4105 35.0565 21.4105H45.2856C46.1355 21.4105 46.8244 20.7215 46.8244 19.8717C46.8244 19.0219 46.1355 18.3329 45.2856 18.3329H35.0565C32.2686 18.3329 30 20.6015 30 23.3902V109.943C30 112.731 32.2686 115 35.0565 115H97.3794C100.167 115 102.436 112.731 102.436 109.943V62.2333C104.886 61.301 107.146 59.8783 109.079 58.0066C112.735 54.4672 114.845 49.722 115.019 44.6446C115.048 43.7956 114.384 43.0834 113.534 43.0538C112.691 43.0258 111.973 43.6892 111.943 44.539C111.698 51.6857 106.998 57.5865 100.544 59.6454C100.455 59.6662 100.369 59.6934 100.287 59.7294C98.7685 60.1863 97.1561 60.4312 95.4837 60.4312C86.4029 60.4312 79.0145 53.0429 79.0145 43.9621C79.0145 34.8813 86.4029 27.4929 95.4837 27.4929C98.9718 27.4929 102.343 28.5956 105.14 30.6226L94.537 41.2261L89.4981 36.1864ZM78.4448 23.8792C78.4448 24.1624 78.2151 24.3921 77.9318 24.3921H54.5041C54.2208 24.3921 53.9911 24.1624 53.9911 23.8792V16.5773C53.9911 14.7104 55.5091 13.1924 57.376 13.1924H75.0599C76.926 13.1924 78.4448 14.7104 78.4448 16.5773V23.8792ZM111.544 28.5716C111.918 28.1971 112.415 27.9915 112.943 27.9915C113.472 27.9915 113.969 28.1979 114.343 28.5716C115.114 29.343 115.114 30.5993 114.343 31.3708L95.9358 49.7772C95.5621 50.1509 95.0652 50.3574 94.5362 50.3574C94.0073 50.3574 93.5103 50.1509 93.1366 49.7772L84.5216 41.1621C84.1479 40.7884 83.9422 40.2915 83.9422 39.7626C83.9422 39.2336 84.1479 38.7367 84.5224 38.363C84.8961 37.9893 85.393 37.7828 85.9219 37.7828C86.4501 37.7828 86.9478 37.9893 87.3215 38.363L93.4487 44.4902C94.0497 45.0912 95.0235 45.0912 95.6245 44.4902L111.544 28.5716Z" fill="#1DE9B6"/>
<path d="M71.88 48.7393H53.1303C52.2805 48.7393 51.5923 49.4283 51.5923 50.2781C51.5923 51.1271 52.2805 51.8161 53.1303 51.8161H71.88C72.7299 51.8161 73.4188 51.1271 73.4188 50.2781C73.4188 49.4283 72.7299 48.7393 71.88 48.7393Z" fill="#1DE9B6"/>
<path d="M50.1925 32.856H39.8386C38.9888 32.856 38.2998 33.545 38.2998 34.3948C38.2998 35.2446 38.9888 35.9336 39.8386 35.9336H50.1925C51.0424 35.9336 51.7313 35.2446 51.7313 34.3948C51.7313 33.545 51.0424 32.856 50.1925 32.856Z" fill="#1DE9B6"/>
<path d="M53.1303 58.9547H71.88C72.7299 58.9547 73.4188 58.2658 73.4188 57.4159C73.4188 56.5669 72.7299 55.8779 71.88 55.8779H53.1303C52.2805 55.8779 51.5923 56.5669 51.5923 57.4159C51.5923 58.2658 52.2805 58.9547 53.1303 58.9547Z" fill="#1DE9B6"/>
<path d="M78.3569 67.4018H53.1303C52.2805 67.4018 51.5923 68.0908 51.5923 68.9406C51.5923 69.7904 52.2805 70.4794 53.1303 70.4794H78.3569C79.2068 70.4794 79.8957 69.7904 79.8957 68.9406C79.8957 68.0908 79.2068 67.4018 78.3569 67.4018Z" fill="#1DE9B6"/>
<path d="M53.1303 77.6183H65.744C66.5938 77.6183 67.282 76.9293 67.282 76.0795C67.282 75.2296 66.5938 74.5406 65.744 74.5406H53.1303C52.2805 74.5406 51.5923 75.2296 51.5923 76.0795C51.5923 76.9293 52.2805 77.6183 53.1303 77.6183Z" fill="#1DE9B6"/>
<path d="M53.1303 89.1619H71.88C72.7299 89.1619 73.4188 88.4729 73.4188 87.6231C73.4188 86.7733 72.7299 86.0843 71.88 86.0843H53.1303C52.2805 86.0843 51.5923 86.7733 51.5923 87.6231C51.5923 88.4729 52.2805 89.1619 53.1303 89.1619Z" fill="#1DE9B6"/>
<path d="M53.1303 96.3H78.3569C79.2068 96.3 79.8957 95.611 79.8957 94.7611C79.8957 93.9121 79.2068 93.2231 78.3569 93.2231H53.1303C52.2805 93.2231 51.5923 93.9121 51.5923 94.7611C51.5923 95.611 52.2805 96.3 53.1303 96.3Z" fill="#1DE9B6"/>
<path d="M43.1044 47.4053C39.6771 47.4053 36.8892 50.1932 36.8892 53.6205C36.8892 57.0478 39.6771 59.8358 43.1044 59.8358C46.5317 59.8358 49.3196 57.0478 49.3196 53.6205C49.3196 50.1932 46.5317 47.4053 43.1044 47.4053ZM43.1044 56.7581C41.3743 56.7581 39.9668 55.3506 39.9668 53.6205C39.9668 51.8905 41.3743 50.4829 43.1044 50.4829C44.8345 50.4829 46.242 51.8905 46.242 53.6205C46.242 55.3506 44.8345 56.7581 43.1044 56.7581Z" fill="#1DE9B6"/>
<path d="M43.1044 66.2943C39.6771 66.2943 36.8892 69.083 36.8892 72.5096C36.8892 75.9369 39.6771 78.7248 43.1044 78.7248C46.5317 78.7248 49.3196 75.9369 49.3196 72.5096C49.3196 69.083 46.5317 66.2943 43.1044 66.2943ZM43.1044 75.648C41.3743 75.648 39.9668 74.2404 39.9668 72.5104C39.9668 70.7795 41.3743 69.3719 43.1044 69.3719C44.8345 69.3719 46.242 70.7795 46.242 72.5104C46.242 74.2404 44.8345 75.648 43.1044 75.648Z" fill="#1DE9B6"/>
<path d="M43.1044 84.9768C39.6771 84.9768 36.8892 87.7647 36.8892 91.192C36.8892 94.6193 39.6771 97.4073 43.1044 97.4073C46.5317 97.4073 49.3196 94.6193 49.3196 91.192C49.3196 87.7647 46.5317 84.9768 43.1044 84.9768ZM43.1044 94.3297C41.3743 94.3297 39.9668 92.9221 39.9668 91.192C39.9668 89.462 41.3743 88.0544 43.1044 88.0544C44.8345 88.0544 46.242 89.462 46.242 91.192C46.242 92.9221 44.8345 94.3297 43.1044 94.3297Z" fill="#1DE9B6"/>
</svg>
