<svg width="38" height="38" viewBox="0 0 38 38" fill="none" xmlns="http://www.w3.org/2000/svg">
<path d="M19 4C16.0333 4 13.1332 4.87973 10.6665 6.52795C8.19971 8.17618 6.27713 10.5189 5.14181 13.2597C4.0065 16.0006 3.70945 19.0166 4.28823 21.9263C4.86701 24.8361 6.29562 27.5088 8.3934 29.6066C10.4912 31.7044 13.1639 33.133 16.0736 33.7118C18.9834 34.2905 21.9994 33.9935 24.7402 32.8582C27.4811 31.7229 29.8238 29.8003 31.472 27.3335C33.1203 24.8668 34 21.9667 34 19C33.9955 15.0231 32.4137 11.2104 29.6016 8.39837C26.7896 5.5863 22.9769 4.0045 19 4ZM19 32C16.935 32 14.773 29.338 13.7 25H24.3C23.227 29.338 21.065 32 19 32ZM13.294 23C12.902 20.3477 12.902 17.6523 13.294 15H24.706C24.9043 16.3241 25.0026 17.6612 25 19C25.0026 20.3388 24.9043 21.6759 24.706 23H13.294ZM6.00001 19C6.00073 17.6415 6.21536 16.2917 6.63601 15H11.286C10.9047 17.653 10.9047 20.347 11.286 23H6.63601C6.21536 21.7083 6.00073 20.3584 6.00001 19ZM19 6C21.065 6 23.227 8.662 24.3 13H13.7C14.773 8.662 16.935 6 19 6ZM26.714 15H31.364C32.2118 17.5993 32.2118 20.4007 31.364 23H26.714C26.9036 21.6751 26.9992 20.3384 27 19C26.9992 17.6616 26.9036 16.3249 26.714 15ZM30.521 13H26.354C25.909 10.825 25.0364 8.76007 23.787 6.925C26.6851 8.0808 29.0739 10.2358 30.521 13ZM14.213 6.925C12.9636 8.76007 12.091 10.825 11.646 13H7.479C8.92613 10.2358 11.3149 8.0808 14.213 6.925ZM7.479 25H11.646C12.091 27.175 12.9636 29.2399 14.213 31.075C11.3149 29.9192 8.92613 27.7642 7.479 25ZM23.787 31.075C25.0364 29.2399 25.909 27.175 26.354 25H30.521C29.0739 27.7642 26.6851 29.9192 23.787 31.075Z" fill="white"/>
</svg>
