<svg width="64" height="64" viewBox="0 0 64 64" fill="none" xmlns="http://www.w3.org/2000/svg">
<path d="M20.625 16.5625C20.625 14.3188 18.8062 12.5 16.5625 12.5C14.3188 12.5 12.5 14.3188 12.5 16.5625C12.5 18.8062 14.3188 20.625 16.5625 20.625C18.8062 20.625 20.625 18.8062 20.625 16.5625Z" stroke="#1DE9B6" stroke-width="3" stroke-miterlimit="10"/>
<path d="M36.0625 16.5625C36.0625 14.3188 34.2437 12.5 32 12.5C29.7563 12.5 27.9375 14.3188 27.9375 16.5625C27.9375 18.8062 29.7563 20.625 32 20.625C34.2437 20.625 36.0625 18.8062 36.0625 16.5625Z" stroke="#1DE9B6" stroke-width="3" stroke-miterlimit="10"/>
<path d="M51.5 16.5625C51.5 14.3188 49.6812 12.5 47.4375 12.5C45.1938 12.5 43.375 14.3188 43.375 16.5625C43.375 18.8062 45.1938 20.625 47.4375 20.625C49.6812 20.625 51.5 18.8062 51.5 16.5625Z" stroke="#1DE9B6" stroke-width="3" stroke-miterlimit="10"/>
<path d="M20.625 32C20.625 29.7563 18.8062 27.9375 16.5625 27.9375C14.3188 27.9375 12.5 29.7563 12.5 32C12.5 34.2437 14.3188 36.0625 16.5625 36.0625C18.8062 36.0625 20.625 34.2437 20.625 32Z" stroke="#1DE9B6" stroke-width="3" stroke-miterlimit="10"/>
<path d="M36.0625 32C36.0625 29.7563 34.2437 27.9375 32 27.9375C29.7563 27.9375 27.9375 29.7563 27.9375 32C27.9375 34.2437 29.7563 36.0625 32 36.0625C34.2437 36.0625 36.0625 34.2437 36.0625 32Z" stroke="#1DE9B6" stroke-width="3" stroke-miterlimit="10"/>
<path d="M51.5 32C51.5 29.7563 49.6812 27.9375 47.4375 27.9375C45.1938 27.9375 43.375 29.7563 43.375 32C43.375 34.2437 45.1938 36.0625 47.4375 36.0625C49.6812 36.0625 51.5 34.2437 51.5 32Z" stroke="#1DE9B6" stroke-width="3" stroke-miterlimit="10"/>
<path d="M20.625 47.4375C20.625 45.1938 18.8062 43.375 16.5625 43.375C14.3188 43.375 12.5 45.1938 12.5 47.4375C12.5 49.6812 14.3188 51.5 16.5625 51.5C18.8062 51.5 20.625 49.6812 20.625 47.4375Z" stroke="#1DE9B6" stroke-width="3" stroke-miterlimit="10"/>
<path d="M36.0625 47.4375C36.0625 45.1938 34.2437 43.375 32 43.375C29.7563 43.375 27.9375 45.1938 27.9375 47.4375C27.9375 49.6812 29.7563 51.5 32 51.5C34.2437 51.5 36.0625 49.6812 36.0625 47.4375Z" stroke="#1DE9B6" stroke-width="3" stroke-miterlimit="10"/>
<path d="M51.5 47.4375C51.5 45.1938 49.6812 43.375 47.4375 43.375C45.1938 43.375 43.375 45.1938 43.375 47.4375C43.375 49.6812 45.1938 51.5 47.4375 51.5C49.6812 51.5 51.5 49.6812 51.5 47.4375Z" stroke="#1DE9B6" stroke-width="3" stroke-miterlimit="10"/>
</svg>
