<svg width="64" height="64" viewBox="0 0 64 64" fill="none" xmlns="http://www.w3.org/2000/svg">
<path d="M43.12 18.9803C43.12 25.3147 37.9612 30.4607 31.5839 30.4607C25.2067 30.4607 20.0479 25.3147 20.0479 18.9803C20.0479 12.646 25.2067 7.5 31.5839 7.5C37.9612 7.5 43.12 12.646 43.12 18.9803Z" stroke="#1DE9B6" stroke-width="3"/>
<path d="M19.9985 57.9211H31.5861H43.1732C50.1258 57.9211 51.8639 53.1136 51.8639 50.7098C52.4433 36.8641 45.3459 33.8835 41.7248 34.1239C34.1928 41.0467 25.0679 37.0084 21.4469 34.1239C14.2046 33.4027 10.5835 43.4986 11.3077 50.7098C11.8871 56.4789 17.343 57.9211 19.9985 57.9211Z" stroke="#1DE9B6" stroke-width="3"/>
</svg>
