<svg width="220" height="220" viewBox="0 0 220 220" fill="none" xmlns="http://www.w3.org/2000/svg">
<path opacity="0.5" fillRule="evenodd" clipRule="evenodd" d="M109.951 210.627L109.951 206.343C100.214 206.015 91.4924 205.539 82.5412 202.437L79.1725 210.627C53.0062 202.568 29.3085 183.38 16.5935 158.611L25.7411 153.194C20.2264 142.853 14.8099 126.521 14.8099 111.617L11.357 111.453C11.2425 103.869 12.1425 92.2974 14.5153 86.1749C14.5644 86.06 6.20991 83.3164 6.20991 83.3164C12.3137 57.0208 31.6813 30.5798 57.7495 16.4308L61.3005 22.6518C73.8354 13.5419 93.3579 7.30446 116.137 8.56835L116.022 11.8676C123.599 11.408 134.023 13.7553 141.321 16.2502L145.281 8.42063C171.857 18.105 192.394 36.1607 205.076 60.7164L199.185 64.4588C204.536 76.2935 210.427 92.6257 209.544 105.839L212.816 106.332C210.885 162.058 172.61 211.776 109.951 210.627ZM18.1482 109.007C18.1482 58.008 59.5004 16.6606 110.508 16.6606C161.515 16.6606 202.867 58.008 202.867 109.007C202.867 160.006 161.515 201.354 110.508 201.354C59.5004 201.354 18.1482 160.006 18.1482 109.007Z" fill="#26266E"/>
<path opacity="0.5" d="M220 110.025C220 140.391 207.694 167.885 187.779 187.795C167.88 207.689 140.372 220 110 220C79.6281 220 52.1363 207.689 32.2211 187.795C12.3222 167.901 -6.13525e-06 140.407 -4.80718e-06 110.025C-3.47982e-06 79.6582 12.3059 52.1644 32.2211 32.2539C52.1199 12.3599 79.6281 0.0492187 110 0.04922C140.372 0.0492214 167.864 12.3599 187.779 32.254C207.694 52.148 220 79.6418 220 110.025ZM184.342 184.332C203.358 165.308 215.123 139.045 215.123 110.008C215.123 80.9878 203.358 54.7086 184.342 35.6845C165.311 16.6768 139.03 4.92425 110 4.92425C80.97 4.92425 54.6891 16.6933 35.6739 35.7009C16.6587 54.725 4.8929 80.9878 4.89289 110.025C4.89289 139.045 16.6587 165.324 35.6739 184.348C54.6891 203.372 80.9699 215.125 110 215.125C139.03 215.125 165.311 203.356 184.342 184.332Z" fill="#26266E"/>
<path opacity="0.5" d="M200.33 172.809C196.632 178.078 192.492 183.002 187.959 187.533C168.06 207.427 140.552 220 110.18 220C79.8079 220 52.1361 207.689 32.2373 187.795C14.2858 170.15 2.50356 145.463 0.359858 118.823L5.22001 118.215C7.34734 143.69 18.6386 167.294 35.6901 184.348C54.7053 203.372 81.1662 215.125 110.196 215.125C139.226 215.125 165.507 203.11 184.522 184.086C188.793 179.818 192.688 175.189 196.174 170.232L200.33 172.809ZM72.5913 6.56569C84.3081 2.3144 96.9412 -4.51927e-06 110.114 -3.94345e-06C140.486 -2.61585e-06 167.88 12.3435 187.779 32.254C192.083 36.5545 195.519 40.4939 199.054 45.4674L194.93 48.0937C191.624 43.5141 188.384 39.7717 184.408 35.783C165.393 16.7589 139.144 4.89144 110.114 4.89144C97.5794 4.89144 85.5681 7.09094 74.4241 11.1124L72.5913 6.56569Z" fill="#26266E"/>
<path opacity="0.5" fillRule="evenodd" clipRule="evenodd" d="M91.5666 28.8144C73.4484 33.0663 57.6534 43.0309 46.4302 56.7228L51.2455 60.3753C66.1973 42.2067 90.1427 30.931 116.243 32.4669C136.797 33.6844 156.245 44.2858 169.099 57.6594L173.727 53.4637C163.309 42.0569 149.35 33.5533 133.424 29.3951L134.548 25.3306C128.796 23.7385 122.782 22.727 116.561 22.3712C107.549 21.8467 98.7802 22.7083 90.5174 24.7687L91.5666 28.8144Z" fill="#26266E"/>
<path opacity="0.5" fillRule="evenodd" clipRule="evenodd" d="M91.0723 190.014C72.8409 185.742 56.9473 175.728 45.654 161.968L50.6125 158.486C65.6577 176.744 89.6395 187.887 115.884 186.344C136.566 185.12 156.136 174.467 169.07 161.027L173.727 165.243C163.244 176.707 149.198 185.252 133.172 189.431L134.304 193.515C128.516 195.115 122.464 196.132 116.204 196.489C107.136 197.016 98.3121 196.151 89.9977 194.08L91.0723 190.014Z" fill="#26266E"/>
</svg>
