<svg width="220" height="220" viewBox="0 0 220 220" fill="none" xmlns="http://www.w3.org/2000/svg">
<path d="M110 220C170.751 220 220 170.751 220 110C220 49.2487 170.751 0 110 0C49.2487 0 0 49.2487 0 110C0 170.751 49.2487 220 110 220Z" fill="url(#paint0_radial_9900_265068)" fill-opacity="0.5"/>
<path d="M111.122 190.173C156.021 190.173 192.418 153.776 192.418 108.877C192.418 63.9792 156.021 27.582 111.122 27.582C66.2243 27.582 29.8271 63.9792 29.8271 108.877C29.8271 153.776 66.2243 190.173 111.122 190.173Z" fill="url(#paint1_linear_9900_265068)"/>
<path d="M111.123 190.289C156.052 190.289 192.475 153.866 192.475 108.937C192.475 64.0074 156.052 27.585 111.123 27.585C66.1935 27.585 29.771 64.0074 29.771 108.937C29.771 153.866 66.1935 190.289 111.123 190.289Z" fill="url(#paint2_radial_9900_265068)"/>
<path d="M214.207 109.28C214.207 109.458 214.354 109.606 214.533 109.606C214.711 109.606 214.859 109.458 214.859 109.28C214.859 109.101 214.711 108.953 214.533 108.953C214.354 108.953 214.207 109.101 214.207 109.28ZM214.207 109.062C214.207 109.24 214.354 109.388 214.533 109.388C214.711 109.388 214.859 109.24 214.859 109.062C214.859 108.884 214.711 108.736 214.533 108.736C214.35 108.736 214.207 108.884 214.207 109.062ZM213.128 94.2504C213.154 94.4287 213.319 94.5504 213.498 94.5243C213.676 94.4982 213.798 94.333 213.772 94.1547C213.746 93.9764 213.58 93.8546 213.402 93.8807C213.228 93.9068 213.106 94.0721 213.128 94.2504ZM209.958 79.7429C210.01 79.9169 210.188 80.0126 210.362 79.9647C210.536 79.9169 210.632 79.7342 210.584 79.5603C210.532 79.3863 210.354 79.2907 210.18 79.3385C210.006 79.3907 209.906 79.569 209.958 79.7429ZM204.739 65.8357C204.813 66.0009 205.009 66.0705 205.17 65.9966C205.335 65.9227 205.405 65.727 205.331 65.5661C205.257 65.4008 205.061 65.3312 204.9 65.4052C204.735 65.4791 204.661 65.6748 204.739 65.8357ZM197.59 52.8286C197.686 52.9808 197.89 53.0243 198.042 52.9243C198.194 52.8286 198.238 52.6242 198.138 52.472C198.042 52.3198 197.838 52.2763 197.686 52.3763C197.533 52.4764 197.49 52.6764 197.59 52.8286ZM188.662 40.9609C188.779 41.0957 188.988 41.1131 189.123 40.9913C189.258 40.8739 189.275 40.6652 189.153 40.5304C189.036 40.3956 188.827 40.3782 188.692 40.4999C188.558 40.6217 188.545 40.8261 188.662 40.9609ZM178.142 30.4761C178.277 30.5935 178.486 30.5805 178.603 30.4413C178.721 30.3065 178.708 30.0977 178.569 29.9803C178.434 29.8629 178.225 29.876 178.108 30.0151C177.99 30.1543 178.003 30.3587 178.142 30.4761ZM166.24 21.5829C166.392 21.6786 166.592 21.6351 166.692 21.4829C166.788 21.3307 166.744 21.1306 166.592 21.0306C166.44 20.9349 166.24 20.9784 166.14 21.1306C166.044 21.2872 166.088 21.4872 166.24 21.5829ZM153.194 14.4727C153.359 14.5467 153.55 14.4771 153.624 14.3118C153.698 14.1466 153.629 13.9552 153.463 13.8813C153.298 13.8074 153.107 13.8769 153.033 14.0422C152.955 14.2074 153.029 14.3988 153.194 14.4727ZM139.26 9.30207C139.434 9.35426 139.613 9.25424 139.665 9.08029C139.717 8.90635 139.617 8.72804 139.443 8.67585C139.269 8.62367 139.091 8.72369 139.039 8.89764C138.986 9.07159 139.086 9.24989 139.26 9.30207ZM124.74 6.18403C124.918 6.21013 125.084 6.08401 125.11 5.90571C125.136 5.72741 125.01 5.56215 124.831 5.53606C124.653 5.50997 124.488 5.63609 124.462 5.81439C124.436 5.99269 124.562 6.15794 124.74 6.18403ZM109.924 5.16208C110.102 5.16208 110.25 5.01422 110.25 4.83592C110.25 4.65762 110.102 4.50977 109.924 4.50977C109.746 4.50977 109.598 4.65762 109.598 4.83592C109.598 5.01422 109.741 5.16208 109.924 5.16208ZM95.1077 6.22751C95.286 6.20142 95.4077 6.03618 95.386 5.85788C95.3599 5.67958 95.1946 5.55781 95.0163 5.57955C94.838 5.60564 94.7163 5.7709 94.738 5.9492C94.7641 6.13184 94.9294 6.2536 95.1077 6.22751ZM80.6002 9.3934C80.7742 9.34122 80.8699 9.16291 80.822 8.98896C80.7699 8.81501 80.5916 8.71935 80.4176 8.76718C80.2437 8.81937 80.148 8.99766 80.1958 9.17161C80.2437 9.34556 80.4263 9.44559 80.6002 9.3934ZM66.693 14.6075C66.8582 14.5336 66.9278 14.3379 66.8539 14.177C66.78 14.0118 66.5843 13.9422 66.4234 14.0161C66.2581 14.09 66.1885 14.2857 66.2625 14.4466C66.332 14.6075 66.5277 14.6815 66.693 14.6075ZM53.6772 21.7482C53.8294 21.6525 53.8729 21.4481 53.7729 21.2959C53.6772 21.1437 53.4728 21.1002 53.3206 21.2002C53.1684 21.2959 53.1249 21.5003 53.2249 21.6525C53.325 21.8003 53.525 21.8438 53.6772 21.7482ZM41.8095 30.6718C41.9443 30.5544 41.9617 30.3456 41.84 30.2108C41.7225 30.076 41.5138 30.0586 41.379 30.1804C41.2442 30.2978 41.2268 30.5065 41.3485 30.6413C41.4703 30.7761 41.6703 30.7892 41.8095 30.6718ZM31.316 41.187C31.4334 41.0522 31.4204 40.8435 31.2812 40.7261C31.1464 40.6086 30.9377 40.6217 30.8202 40.7608C30.7028 40.8957 30.7159 41.1044 30.855 41.2218C30.9942 41.3349 31.1986 41.3218 31.316 41.187ZM22.4185 53.0808C22.5142 52.9286 22.4707 52.7286 22.3185 52.6286C22.1663 52.5329 21.9662 52.5764 21.8662 52.7286C21.7705 52.8808 21.814 53.0808 21.9662 53.1808C22.1184 53.2765 22.3228 53.233 22.4185 53.0808ZM15.2996 66.1271C15.3735 65.9618 15.304 65.7704 15.1387 65.6965C14.9734 65.6226 14.7821 65.6922 14.7082 65.8574C14.6342 66.0227 14.7038 66.214 14.8691 66.288C15.0343 66.3619 15.2257 66.288 15.2996 66.1271ZM10.1203 80.0561C10.1724 79.8821 10.0724 79.7038 9.89846 79.6516C9.72451 79.5994 9.54622 79.6995 9.49403 79.8734C9.44185 80.0474 9.54187 80.2257 9.71582 80.2779C9.88977 80.3257 10.0724 80.23 10.1203 80.0561ZM6.99351 94.5722C7.0196 94.3939 6.89349 94.2286 6.71519 94.2025C6.5369 94.1764 6.37164 94.3025 6.34555 94.4808C6.31946 94.6591 6.44556 94.8244 6.62386 94.8505C6.80651 94.8766 6.97176 94.7505 6.99351 94.5722ZM5.96286 109.388C5.96286 109.21 5.815 109.062 5.6367 109.062C5.4584 109.062 5.31055 109.21 5.31055 109.388C5.31055 109.567 5.4584 109.714 5.6367 109.714C5.81935 109.714 5.96286 109.571 5.96286 109.388ZM7.02395 124.204C6.99786 124.026 6.8326 123.904 6.65431 123.926C6.47601 123.952 6.35425 124.117 6.37599 124.296C6.40209 124.474 6.56733 124.596 6.74563 124.574C6.92827 124.548 7.05004 124.383 7.02395 124.204ZM10.1811 138.716C10.129 138.542 9.95065 138.447 9.7767 138.494C9.60275 138.547 9.50708 138.725 9.55492 138.899C9.6071 139.073 9.7854 139.168 9.95935 139.121C10.1333 139.068 10.2333 138.89 10.1811 138.716ZM15.3866 152.628C15.3127 152.463 15.1169 152.393 14.956 152.467C14.7908 152.541 14.7212 152.737 14.7951 152.897C14.8691 153.063 15.0648 153.132 15.2257 153.058C15.3866 152.984 15.4605 152.789 15.3866 152.628ZM22.5228 165.644C22.4272 165.491 22.2228 165.448 22.0706 165.548C21.9184 165.644 21.8749 165.848 21.9749 166C22.0706 166.152 22.275 166.196 22.4272 166.096C22.575 165.996 22.6185 165.796 22.5228 165.644ZM31.4378 177.52C31.3203 177.385 31.1116 177.368 30.9768 177.49C30.842 177.607 30.8246 177.811 30.9464 177.951C31.0638 178.085 31.2682 178.103 31.4073 177.981C31.5421 177.859 31.5552 177.655 31.4378 177.52ZM41.9487 188.014C41.8139 187.896 41.6051 187.909 41.4877 188.048C41.3703 188.183 41.3833 188.392 41.5225 188.509C41.6573 188.627 41.866 188.614 41.9835 188.474C42.1009 188.34 42.0835 188.131 41.9487 188.014ZM53.8425 196.92C53.6903 196.824 53.4902 196.868 53.3902 197.02C53.2945 197.172 53.338 197.372 53.4902 197.472C53.6424 197.568 53.8425 197.524 53.9425 197.376C54.0338 197.22 53.9903 197.015 53.8425 196.92ZM66.88 204.043C66.7147 203.969 66.5234 204.039 66.4495 204.204C66.3755 204.369 66.4451 204.56 66.6104 204.634C66.7756 204.708 66.967 204.639 67.0409 204.473C67.1148 204.308 67.0452 204.117 66.88 204.043ZM80.809 209.231C80.6351 209.179 80.4568 209.279 80.4046 209.453C80.3524 209.627 80.4524 209.805 80.6263 209.857C80.8003 209.909 80.9786 209.809 81.0308 209.635C81.0786 209.461 80.9786 209.279 80.809 209.231ZM95.3251 212.362C95.1468 212.336 94.9815 212.462 94.9554 212.64C94.9293 212.819 95.0555 212.984 95.2338 213.01C95.4121 213.036 95.5773 212.91 95.6034 212.732C95.6251 212.553 95.5034 212.388 95.3251 212.362ZM110.141 213.401C109.963 213.401 109.815 213.549 109.815 213.728C109.815 213.906 109.963 214.054 110.141 214.054C110.32 214.054 110.467 213.906 110.467 213.728C110.467 213.549 110.32 213.401 110.141 213.401ZM124.953 212.349C124.775 212.375 124.653 212.54 124.675 212.719C124.701 212.897 124.866 213.019 125.044 212.997C125.223 212.971 125.344 212.806 125.323 212.627C125.301 212.449 125.131 212.323 124.953 212.349ZM139.469 209.201C139.295 209.253 139.2 209.431 139.247 209.605C139.3 209.779 139.478 209.875 139.652 209.827C139.826 209.775 139.921 209.596 139.874 209.422C139.821 209.248 139.643 209.148 139.469 209.201ZM153.381 204.004C153.216 204.078 153.146 204.273 153.22 204.434C153.294 204.6 153.489 204.669 153.65 204.595C153.816 204.521 153.885 204.326 153.811 204.165C153.737 203.999 153.546 203.926 153.381 204.004ZM166.401 196.872C166.249 196.968 166.205 197.172 166.305 197.324C166.401 197.476 166.605 197.52 166.757 197.42C166.91 197.324 166.953 197.12 166.853 196.968C166.753 196.82 166.553 196.776 166.401 196.872ZM178.282 187.961C178.147 188.079 178.129 188.283 178.247 188.422C178.364 188.557 178.569 188.575 178.708 188.457C178.843 188.34 178.86 188.135 178.743 187.996C178.625 187.861 178.416 187.844 178.282 187.961ZM188.784 177.459C188.666 177.594 188.679 177.803 188.819 177.92C188.953 178.037 189.162 178.024 189.28 177.885C189.397 177.75 189.384 177.542 189.245 177.424C189.106 177.307 188.901 177.324 188.784 177.459ZM197.694 165.57C197.599 165.722 197.642 165.922 197.79 166.022C197.942 166.118 198.142 166.074 198.242 165.926C198.338 165.774 198.295 165.574 198.147 165.474C197.994 165.378 197.79 165.422 197.694 165.57ZM204.826 152.536C204.752 152.702 204.822 152.893 204.987 152.967C205.152 153.041 205.344 152.971 205.418 152.806C205.492 152.641 205.422 152.45 205.257 152.376C205.092 152.302 204.9 152.371 204.826 152.536ZM210.019 138.612C209.967 138.786 210.067 138.964 210.241 139.016C210.414 139.068 210.593 138.968 210.645 138.794C210.697 138.621 210.597 138.442 210.423 138.39C210.249 138.338 210.071 138.438 210.019 138.612ZM213.163 124.096C213.137 124.274 213.263 124.439 213.441 124.465C213.619 124.491 213.785 124.365 213.811 124.187C213.837 124.009 213.711 123.844 213.533 123.817C213.35 123.796 213.185 123.917 213.163 124.096Z" fill="white"/>
<path d="M203.233 108.876H203.181C203.181 134.299 192.879 157.312 176.218 173.972C159.558 190.632 136.545 200.935 111.122 200.935C85.6995 200.935 62.686 190.632 46.0259 173.972C29.3659 157.312 19.0638 134.299 19.0638 108.876C19.0638 83.4534 29.3659 60.4399 46.0259 43.7799C62.686 27.1199 85.6995 16.8177 111.122 16.8177C136.545 16.8177 159.558 27.1199 176.218 43.7799C192.879 60.4399 203.181 83.4534 203.181 108.876H203.233H203.285C203.285 57.9742 162.02 16.709 111.118 16.709C60.2159 16.709 18.9507 57.9742 18.9507 108.876C18.9507 159.778 60.2159 201.043 111.118 201.043C162.02 201.043 203.285 159.778 203.285 108.876H203.233Z" fill="white"/>
<path d="M195.07 108.877H194.54C194.54 131.917 185.203 152.764 170.108 167.863C155.01 182.962 134.157 192.295 111.122 192.295C88.0824 192.295 67.2346 182.958 52.1358 167.863C37.0369 152.764 27.7046 131.912 27.7046 108.877C27.7046 85.8374 37.0413 64.9895 52.1358 49.8907C67.2346 34.7919 88.0868 25.4595 111.122 25.4595C134.162 25.4595 155.01 34.7962 170.108 49.8907C185.207 64.9895 194.54 85.8417 194.54 108.877H195.07H195.601C195.601 62.2194 157.78 24.3984 111.118 24.394C64.4601 24.394 26.6391 62.215 26.6348 108.877C26.6348 155.535 64.4601 193.356 111.118 193.36C157.775 193.36 195.596 155.539 195.601 108.877H195.07Z" fill="white"/>
<defs>
<radialGradient id="paint0_radial_9900_265068" cx="0" cy="0" r="1" gradientUnits="userSpaceOnUse" gradientTransform="translate(109.998 110.001) scale(109.998)">
<stop offset="0.614" stop-color="#82FFE4"/>
<stop offset="0.6931" stop-color="#6CCEB9"/>
<stop offset="0.869792" stop-color="#334F49"/>
<stop offset="1" stop-color="#1C1C1C" stop-opacity="0.1"/>
</radialGradient>
<linearGradient id="paint1_linear_9900_265068" x1="29.8235" y1="108.879" x2="192.418" y2="108.879" gradientUnits="userSpaceOnUse">
<stop stop-color="#051A23"/>
<stop offset="1" stop-color="#07181F"/>
</linearGradient>
<radialGradient id="paint2_radial_9900_265068" cx="0" cy="0" r="1" gradientUnits="userSpaceOnUse" gradientTransform="translate(110.492 109.387) scale(80.5917 80.5917)">
<stop/>
<stop offset="0.4604" stop-color="#010202"/>
<stop offset="0.6262" stop-color="#040908"/>
<stop offset="0.7444" stop-color="#081414"/>
<stop offset="0.84" stop-color="#0F2525"/>
<stop offset="0.9209" stop-color="#183B3A"/>
<stop offset="0.9922" stop-color="#235654"/>
<stop offset="1" stop-color="#245957"/>
</radialGradient>
</defs>
</svg>
