<svg width="16" height="16" viewBox="0 0 16 16" fill="none" xmlns="http://www.w3.org/2000/svg">
<path d="M13.3338 5.87807H10.2636L10.9573 2.7536C11.0426 2.36792 11.0151 1.96582 10.878 1.59537C10.7409 1.22491 10.5001 0.901761 10.1842 0.664532L9.70652 0.306259C9.53418 0.176469 9.33622 0.0847962 9.12576 0.0373177C8.9153 -0.0101608 8.69716 -0.0123604 8.48579 0.030865C8.27441 0.0740903 8.07464 0.161753 7.89972 0.288041C7.7248 0.41433 7.57872 0.576358 7.47117 0.763386C6.52689 2.48203 5.45095 4.12498 4.25299 5.6775C4.20693 5.57994 4.13418 5.49742 4.04317 5.43948C3.95217 5.38154 3.84661 5.35054 3.73873 5.35008H0.571409C0.419862 5.35008 0.274522 5.41029 0.167362 5.51744C0.0602018 5.6246 0 5.76995 0 5.92149V14.9006C0 15.0522 0.0602018 15.1975 0.167362 15.3047C0.274522 15.4118 0.419862 15.472 0.571409 15.472H3.74044C3.87719 15.471 4.00893 15.4204 4.11118 15.3296C4.21344 15.2388 4.27926 15.114 4.29642 14.9783C4.59194 15.2992 4.95053 15.5555 5.34973 15.7313C5.74894 15.9071 6.18014 15.9986 6.61634 16H9.75338C10.2727 16.0006 10.784 15.8726 11.2419 15.6276C11.6997 15.3825 12.0898 15.0279 12.3773 14.5955L15.496 9.91735C15.7567 9.52599 15.9062 9.07125 15.9288 8.60159C15.9514 8.13192 15.8461 7.66494 15.6242 7.25038C15.4023 6.83583 15.0721 6.48926 14.6687 6.24759C14.2654 6.00591 13.804 5.8782 13.3338 5.87807V5.87807ZM3.16903 14.3292H1.14282V6.49233H3.16903V14.3292ZM14.5452 9.28423L11.4265 13.9618C11.2431 14.2374 10.9943 14.4634 10.7024 14.6197C10.4105 14.7759 10.0845 14.8575 9.75338 14.8572H6.61634C6.30421 14.8565 5.99649 14.7835 5.71731 14.6439C5.43814 14.5043 5.1951 14.3019 5.00725 14.0526L4.31185 13.1258V7.25745C5.50552 6.25005 7.20489 3.52386 8.46199 1.33251C8.48842 1.28585 8.52461 1.24545 8.56811 1.21409C8.6116 1.18273 8.66136 1.16114 8.71398 1.1508C8.76715 1.13966 8.82209 1.14002 8.87511 1.15184C8.92813 1.16367 8.97801 1.18669 9.0214 1.21937L9.49853 1.57764C9.63867 1.68313 9.74551 1.82671 9.8063 1.99125C9.86709 2.15579 9.87927 2.33434 9.84137 2.50561L8.99454 6.32548C8.97598 6.409 8.9764 6.49563 8.99579 6.57896C9.01518 6.6623 9.05304 6.74022 9.10657 6.80697C9.1601 6.87371 9.22794 6.92759 9.30507 6.96461C9.38221 7.00164 9.46668 7.02087 9.55224 7.02088H13.3355C13.5989 7.02111 13.8574 7.09276 14.0833 7.22822C14.3092 7.36367 14.4941 7.55786 14.6184 7.7901C14.7427 8.02234 14.8017 8.28394 14.7891 8.54705C14.7765 8.81016 14.6928 9.06493 14.5469 9.28423H14.5452Z" fill="#F8F8F8"/>
</svg>
