<svg width="16" height="16" viewBox="0 0 16 16" fill="none" xmlns="http://www.w3.org/2000/svg">
<path d="M11.3066 4.11328C12.64 5.03995 13.56 6.51328 13.7466 8.21328" stroke="#1DE9B6" stroke-linecap="round" stroke-linejoin="round"/>
<path d="M2.32715 8.24661C2.50048 6.55327 3.40715 5.07994 4.72715 4.14661" stroke="#1DE9B6" stroke-linecap="round" stroke-linejoin="round"/>
<path d="M5.45996 13.96C6.23329 14.3533 7.11329 14.5733 8.03996 14.5733C8.93329 14.5733 9.77329 14.3733 10.5266 14.0066" stroke="#1DE9B6" stroke-linecap="round" stroke-linejoin="round"/>
<path d="M8.03986 5.1333C9.06343 5.1333 9.89319 4.30354 9.89319 3.27997C9.89319 2.2564 9.06343 1.42664 8.03986 1.42664C7.01629 1.42664 6.18652 2.2564 6.18652 3.27997C6.18652 4.30354 7.01629 5.1333 8.03986 5.1333Z" stroke="#1DE9B6" stroke-linecap="round" stroke-linejoin="round"/>
<path d="M3.21954 13.28C4.24311 13.28 5.07288 12.4503 5.07288 11.4267C5.07288 10.4031 4.24311 9.57336 3.21954 9.57336C2.19598 9.57336 1.36621 10.4031 1.36621 11.4267C1.36621 12.4503 2.19598 13.28 3.21954 13.28Z" stroke="#1DE9B6" stroke-linecap="round" stroke-linejoin="round"/>
<path d="M12.7801 13.28C13.8037 13.28 14.6334 12.4503 14.6334 11.4267C14.6334 10.4031 13.8037 9.57336 12.7801 9.57336C11.7565 9.57336 10.9268 10.4031 10.9268 11.4267C10.9268 12.4503 11.7565 13.28 12.7801 13.28Z" stroke="#1DE9B6" stroke-linecap="round" stroke-linejoin="round"/>
</svg>
