<svg width="16" height="16" viewBox="0 0 16 16" fill="none" xmlns="http://www.w3.org/2000/svg">
<path d="M2.78025 10.2L5.80025 13.22C7.04025 14.46 9.05359 14.46 10.3003 13.22L13.2269 10.2934C14.4669 9.05337 14.4669 7.04003 13.2269 5.79337L10.2003 2.78003C9.56692 2.1467 8.69359 1.8067 7.80025 1.85337L4.46692 2.01337C3.13359 2.07337 2.07359 3.13337 2.00692 4.46003L1.84692 7.79337C1.80692 8.69337 2.14692 9.5667 2.78025 10.2Z" stroke="#F8F8F8" stroke-linecap="round" stroke-linejoin="round"/>
<path d="M6.33366 8.00008C7.25413 8.00008 8.00033 7.25389 8.00033 6.33341C8.00033 5.41294 7.25413 4.66675 6.33366 4.66675C5.41318 4.66675 4.66699 5.41294 4.66699 6.33341C4.66699 7.25389 5.41318 8.00008 6.33366 8.00008Z" stroke="#F8F8F8" stroke-linecap="round"/>
</svg>
