<svg width="208" height="41" viewBox="0 0 208 41" fill="none" xmlns="http://www.w3.org/2000/svg">
<g clip-path="url(#clip0_7794_109716)">
<path d="M36.5751 40.2359H4.99171C2.8716 40.2359 1.15479 38.5079 1.15479 36.378V4.62183C1.15479 2.49012 2.87345 0.763916 4.99171 0.763916H36.5733C38.6934 0.763916 40.4102 2.49198 40.4102 4.62183V36.3762C40.4121 38.5079 38.6934 40.2359 36.5751 40.2359Z" fill="white"/>
<path d="M36.538 0.764003C38.6785 0.764003 40.4119 2.50881 40.4119 4.65912V36.3409C40.4119 38.4931 38.6766 40.236 36.538 40.236H5.0286C2.88813 40.236 1.15467 38.4912 1.15467 36.3409V4.65912C1.15467 2.50695 2.88813 0.764003 5.0286 0.764003H36.538ZM36.538 0.00878906H5.0286C2.47743 0.00878906 0.403564 2.094 0.403564 4.65912V36.3409C0.403564 38.9042 2.47743 40.9912 5.0286 40.9912H36.538C39.0873 40.9912 41.1631 38.9042 41.1631 36.3409V4.65912C41.1631 2.094 39.0873 0.00878906 36.538 0.00878906Z" fill="#BFBFBF"/>
<path d="M71.1331 25.6898C71.1331 27.4979 70.4855 28.9395 69.1887 30.0128C67.8918 31.0879 66.0529 31.6255 63.6682 31.6255C61.5296 31.6255 59.6186 31.2163 57.9351 30.3978V26.3743C58.9008 26.7929 59.8979 27.1779 60.9302 27.5295C61.9607 27.881 62.9874 28.0577 64.0105 28.0577C65.0706 28.0577 65.8217 27.8531 66.2675 27.4439C66.7115 27.0347 66.9354 26.5157 66.9354 25.8888C66.9354 25.3754 66.7596 24.9383 66.41 24.5756C66.0603 24.2147 65.5904 23.8762 65.0058 23.5618C64.4194 23.2474 63.7478 22.9108 62.9911 22.548C62.5175 22.3192 62.0069 22.0477 61.4575 21.7352C60.908 21.4208 60.3826 21.032 59.8813 20.5651C59.3799 20.0982 58.9674 19.5328 58.6473 18.8668C58.3254 18.2009 58.1645 17.401 58.1645 16.4691C58.1645 14.6425 58.7787 13.2213 60.0089 12.202C61.2392 11.1845 62.9134 10.6748 65.0336 10.6748C66.0936 10.6748 67.0963 10.7994 68.0417 11.045C68.987 11.2924 69.9897 11.6439 71.0498 12.1015L69.6586 15.4684C68.7317 15.0889 67.8992 14.7931 67.1611 14.5829C66.4229 14.3746 65.6663 14.2686 64.8911 14.2686C64.0771 14.2686 63.4536 14.4583 63.017 14.8396C62.5823 15.221 62.364 15.7158 62.364 16.324C62.364 17.0476 62.6859 17.6187 63.3297 18.0372C63.9735 18.4557 64.9281 18.9691 66.1972 19.5793C67.2369 20.0741 68.1231 20.5875 68.852 21.1213C69.5809 21.6533 70.1433 22.282 70.541 23.0056C70.9332 23.7292 71.1331 24.6239 71.1331 25.6898Z" fill="white"/>
<path d="M86.7732 25.6898C86.7732 27.4979 86.1257 28.9395 84.8288 30.0128C83.532 31.0879 81.6931 31.6255 79.3084 31.6255C77.1698 31.6255 75.2587 31.2163 73.5752 30.3978V26.3743C74.5409 26.7929 75.5381 27.1779 76.5704 27.5295C77.6008 27.881 78.6276 28.0577 79.6506 28.0577C80.7107 28.0577 81.4618 27.8531 81.9077 27.4439C82.3517 27.0347 82.5755 26.5157 82.5755 25.8888C82.5755 25.3754 82.3998 24.9383 82.0501 24.5756C81.7005 24.2147 81.2305 23.8762 80.6459 23.5618C80.0595 23.2474 79.3879 22.9108 78.6313 22.548C78.1577 22.3192 77.6471 22.0477 77.0976 21.7352C76.5482 21.4208 76.0228 21.032 75.5214 20.5651C75.0201 20.0982 74.6075 19.5328 74.2875 18.8668C73.9655 18.2009 73.8046 17.401 73.8046 16.4691C73.8046 14.6425 74.4188 13.2213 75.6491 12.202C76.8793 11.1845 78.5536 10.6748 80.6737 10.6748C81.7338 10.6748 82.7365 10.7994 83.6818 11.045C84.6272 11.2924 85.6299 11.6439 86.6899 12.1015L85.2987 15.4684C84.3719 15.0889 83.5394 14.7931 82.8012 14.5829C82.0631 14.3746 81.3064 14.2686 80.5312 14.2686C79.7172 14.2686 79.0938 14.4583 78.6572 14.8396C78.2224 15.221 78.0041 15.7158 78.0041 16.324C78.0041 17.0476 78.326 17.6187 78.9698 18.0372C79.6136 18.4557 80.5682 18.9691 81.8374 19.5793C82.8771 20.0741 83.7632 20.5875 84.4921 21.1213C85.221 21.6533 85.7834 22.282 86.1812 23.0056C86.5734 23.7292 86.7732 24.6239 86.7732 25.6898Z" fill="white"/>
<path d="M102.413 25.6898C102.413 27.4979 101.763 28.9395 100.468 30.0128C99.1716 31.0879 97.3327 31.6255 94.948 31.6255C92.8094 31.6255 90.8984 31.2163 89.2148 30.3978V26.3743C90.1806 26.7929 91.1777 27.1779 92.21 27.5295C93.2405 27.881 94.2672 28.0577 95.2903 28.0577C96.3503 28.0577 97.1014 27.8531 97.5473 27.4439C97.9913 27.0347 98.2152 26.5157 98.2152 25.8888C98.2152 25.3754 98.0394 24.9383 97.6898 24.5756C97.3401 24.2147 96.8702 23.8762 96.2856 23.5618C95.6991 23.2474 95.0276 22.9108 94.2709 22.548C93.7973 22.3192 93.2867 22.0477 92.7373 21.7352C92.1878 21.4208 91.6624 21.032 91.1611 20.5651C90.6597 20.0982 90.2472 19.5328 89.9271 18.8668C89.6052 18.2009 89.4442 17.401 89.4442 16.4691C89.4442 14.6425 90.0584 13.2213 91.2887 12.202C92.519 11.1845 94.1932 10.6748 96.3133 10.6748C97.3734 10.6748 98.3761 10.7994 99.3215 11.045C100.267 11.2924 101.27 11.6439 102.33 12.1015L100.938 15.4684C100.012 15.0889 99.179 14.7931 98.4409 14.5829C97.7027 14.3746 96.9461 14.2686 96.169 14.2686C95.355 14.2686 94.7316 14.4583 94.295 14.8396C93.8602 15.221 93.6419 15.7158 93.6419 16.324C93.6419 17.0476 93.9638 17.6187 94.6076 18.0372C95.2514 18.4557 96.206 18.9691 97.4752 19.5793C98.5149 20.0741 99.401 20.5875 100.13 21.1213C100.859 21.6533 101.421 22.282 101.819 23.0056C102.213 23.7292 102.413 24.6239 102.413 25.6898Z" fill="white"/>
<path d="M123.957 15.4721C125.716 15.4721 127.046 15.9241 127.945 16.8281C128.844 17.7321 129.294 19.183 129.294 21.1808V31.3409H125.065V22.2374C125.065 19.9922 124.288 18.8705 122.737 18.8705C121.62 18.8705 120.826 19.2705 120.353 20.0685C119.879 20.8683 119.642 22.0197 119.642 23.5227V31.3427H115.413V22.2392C115.413 19.9941 114.636 18.8724 113.086 18.8724C111.913 18.8724 111.103 19.3151 110.659 20.1987C110.215 21.0841 109.991 22.3527 109.991 24.0082V31.3427H105.762V15.7567H108.997L109.565 17.7545H109.793C110.266 16.9546 110.914 16.3742 111.737 16.0134C112.561 15.6525 113.417 15.4702 114.305 15.4702C115.441 15.4702 116.401 15.6562 117.186 16.0264C117.97 16.3966 118.58 16.9732 119.017 17.7526H119.387C119.861 16.9527 120.517 16.3724 121.359 16.0115C122.201 15.6525 123.067 15.4721 123.957 15.4721Z" fill="white"/>
<path d="M139.994 15.4424C142.076 15.4424 143.67 15.8944 144.777 16.7984C145.883 17.7024 146.438 19.0864 146.438 20.9502V31.3391H143.485L142.662 29.2278H142.549C141.887 30.0649 141.186 30.6732 140.45 31.0545C139.713 31.4358 138.699 31.6255 137.412 31.6255C136.03 31.6255 134.885 31.2256 133.976 30.4276C133.068 29.6278 132.615 28.3833 132.615 26.6887C132.615 25.0332 133.192 23.8167 134.346 23.0354C135.501 22.2561 137.232 21.8189 139.541 21.7222L142.239 21.6366V20.9521C142.239 20.1336 142.026 19.5347 141.6 19.1533C141.175 18.7739 140.583 18.5823 139.826 18.5823C139.069 18.5823 138.331 18.692 137.612 18.9097C136.892 19.1292 136.174 19.3989 135.455 19.7225L134.063 16.8393C134.877 16.4208 135.795 16.0823 136.816 15.8256C137.837 15.5707 138.897 15.4424 139.994 15.4424ZM142.237 24.1199L140.59 24.1776C139.229 24.2166 138.281 24.4622 137.752 24.9198C137.221 25.3774 136.957 25.9763 136.957 26.7185C136.957 27.3658 137.145 27.8271 137.525 28.1024C137.902 28.3777 138.394 28.5154 139.001 28.5154C139.909 28.5154 140.675 28.2438 141.301 27.7025C141.926 27.1594 142.237 26.3948 142.237 25.4053V24.1199Z" fill="white"/>
<path d="M159.438 15.4722C159.645 15.4722 159.893 15.4815 160.176 15.5001C160.459 15.5187 160.687 15.5484 160.857 15.5856L160.544 19.5812C160.392 19.544 160.195 19.5105 159.948 19.4808C159.702 19.4529 159.484 19.438 159.295 19.438C158.576 19.438 157.886 19.5663 157.223 19.823C156.561 20.0797 156.026 20.4945 155.619 21.0637C155.212 21.6348 155.009 22.4142 155.009 23.4038V31.3372H150.78V15.7568H153.988L154.613 18.3833H154.811C155.266 17.5834 155.89 16.8989 156.685 16.3278C157.479 15.7568 158.396 15.4722 159.438 15.4722Z" fill="white"/>
<path d="M167.896 9.6499V19.3542C167.896 19.9439 167.872 20.5298 167.826 21.1102C167.778 21.6905 167.726 22.2765 167.67 22.8661H167.728C168.011 22.4662 168.305 22.0663 168.608 21.6682C168.91 21.2683 169.234 20.8795 169.574 20.4982L173.916 15.7604H178.685L172.527 22.5239L179.055 31.3428H174.173L169.717 25.0351L167.9 26.4915V31.3428H163.667V9.6499H167.896Z" fill="white"/>
<path d="M187.652 15.4722C189.791 15.4722 191.484 16.086 192.732 17.3137C193.981 18.5414 194.606 20.2862 194.606 22.55V24.6054H184.615C184.652 25.8033 185.007 26.7464 185.678 27.431C186.35 28.1155 187.282 28.4578 188.474 28.4578C189.458 28.4578 190.361 28.3573 191.184 28.1583C192.007 27.9592 192.854 27.6486 193.724 27.2301V30.5113C192.947 30.8927 192.144 31.1736 191.312 31.354C190.479 31.5344 189.467 31.6256 188.274 31.6256C186.722 31.6256 185.351 31.3354 184.158 30.755C182.966 30.1747 182.028 29.3004 181.347 28.1285C180.667 26.9585 180.326 25.4704 180.326 23.6623C180.326 21.8543 180.633 20.342 181.249 19.1236C181.864 17.9071 182.72 16.9938 183.819 16.3836C184.918 15.7754 186.194 15.4722 187.652 15.4722ZM187.68 18.4967C186.847 18.4967 186.167 18.7627 185.636 19.2966C185.105 19.8305 184.794 20.6564 184.7 21.7799H190.633C190.614 20.848 190.362 20.0667 189.88 19.4398C189.397 18.813 188.664 18.4967 187.68 18.4967Z" fill="white"/>
<path d="M204.569 28.2289C205.042 28.2289 205.496 28.1862 205.932 28.1006C206.367 28.015 206.802 27.896 207.238 27.7434V30.9113C206.783 31.1214 206.221 31.2926 205.549 31.4246C204.878 31.5567 204.145 31.6237 203.35 31.6237C202.423 31.6237 201.594 31.4711 200.867 31.1679C200.138 30.8629 199.561 30.3402 199.135 29.598C198.71 28.8558 198.497 27.8104 198.497 26.4581V18.9525H196.482V17.1537L198.81 15.727L200.031 12.4438H202.728V15.7549H207.07V18.9506H202.728V26.4562C202.728 27.0459 202.898 27.4886 203.239 27.7825C203.575 28.082 204.019 28.2289 204.569 28.2289Z" fill="white"/>
<path d="M12.8911 26.5381C13.8587 25.5671 14.7707 24.6482 15.6976 23.7163C15.7142 23.7256 15.7549 23.7386 15.7753 23.7647C17.2423 25.7997 20.3818 26.1717 22.2318 25.5337C22.6074 25.4034 22.9866 25.1877 23.2715 24.9142C24.08 24.1367 23.8783 22.8737 22.8479 22.4477C22.0986 22.1389 21.292 21.9715 20.5039 21.765C19.5049 21.5046 18.4819 21.3223 17.4976 21.0117C14.8336 20.1709 13.3222 17.8011 13.6348 15.0499C13.9216 12.5369 15.7198 10.6433 18.4023 10.0313C21.0941 9.41746 24.82 10.448 26.8236 12.3434C25.893 13.2735 24.9606 14.2036 23.9986 15.1616C23.2974 14.624 22.4575 14.1943 21.5085 13.999C20.5132 13.7962 19.5327 13.7851 18.5855 14.2073C17.7326 14.5886 17.3811 15.3457 17.6456 16.1828C17.8158 16.7203 18.2303 17.0105 18.7279 17.1538C19.59 17.403 20.4651 17.602 21.3327 17.8234C22.1486 18.0317 22.9774 18.2029 23.7784 18.4633C26.1557 19.2352 27.5266 20.9838 27.6894 23.3833C27.8503 25.7513 26.6682 27.8123 24.524 28.9079C21.2643 30.5728 16.7613 29.9645 13.8772 27.4645C13.5368 27.1706 13.2223 26.8506 12.8911 26.5381Z" fill="black"/>
<path d="M31.3523 25.8592C32.4253 25.8629 33.2948 26.7371 33.3022 27.8197C33.3096 28.9098 32.4216 29.8082 31.3338 29.8082C30.2515 29.8082 29.3506 28.9023 29.358 27.8235C29.3654 26.7297 30.2552 25.8536 31.3523 25.8592Z" fill="#FE2400"/>
</g>
<defs>
<clipPath id="clip0_7794_109716">
<rect width="206.833" height="40.9825" fill="white" transform="translate(0.403564 0.00878906)"/>
</clipPath>
</defs>
</svg>
