<svg width="175" height="175" viewBox="0 0 175 175" fill="none" xmlns="http://www.w3.org/2000/svg">
<path d="M70.1651 125.48C70.1651 122.666 70.1316 119.885 70.1651 117.07C70.2321 111.34 68.1882 106.482 64.1004 102.461C57.198 95.6257 53.8474 87.3495 53.9814 77.6661C54.1824 62.2866 65.9433 48.5153 81.1553 45.8013C99.4834 42.5512 116.471 53.8094 120.157 72.037C122.502 83.6638 119.219 93.8833 110.876 102.361C107.726 105.577 105.582 109.229 104.912 113.686C104.744 114.825 104.71 116.031 104.71 117.17C104.677 123.369 104.71 129.534 104.71 135.733C104.71 137.811 104.174 138.414 102.13 138.313C101.058 138.246 100.69 138.682 100.422 139.62C99.852 141.63 99.1484 143.574 98.5117 145.584C98.1767 146.656 97.473 147.159 96.3673 147.159C90.4031 147.159 84.4725 147.159 78.5083 147.159C77.3355 147.159 76.6319 146.656 76.2968 145.517C75.6602 143.44 74.9566 141.396 74.3199 139.318C74.1189 138.615 73.8173 138.347 73.0132 138.347C70.4667 138.347 70.0981 137.945 70.0981 135.432C70.1651 132.114 70.1651 128.797 70.1651 125.48ZM73.7838 119.952C82.9311 119.952 91.9779 119.952 101.326 119.952C101.326 117.774 101.125 115.663 101.36 113.619C101.996 108.157 104.61 103.634 108.463 99.747C115.567 92.5766 118.515 83.8984 116.907 73.9804C114.26 57.4951 99.584 46.8735 82.9311 49.0849C69.0259 50.9278 57.8347 63.3588 57.4661 77.3646C57.2315 86.2103 60.2471 93.8163 66.5464 100.049C70.2656 103.734 72.6781 108.09 73.3482 113.284C73.6833 115.428 73.6833 117.64 73.7838 119.952ZM101.125 123.604C91.9444 123.604 82.8976 123.604 73.7838 123.604C73.7838 127.356 73.7838 131.042 73.7838 134.694C82.9647 134.694 92.0115 134.694 101.125 134.694C101.125 131.009 101.125 127.39 101.125 123.604ZM77.7376 138.38C78.2737 140.089 78.7428 141.63 79.3124 143.138C79.3794 143.339 79.815 143.574 80.0496 143.574C85.1426 143.607 90.2691 143.607 95.4291 143.607C95.9987 141.865 96.5348 140.19 97.1045 138.38C90.6042 138.38 84.3049 138.38 77.7376 138.38Z" fill="url(#paint0_linear_10602_280252)"/>
<path d="M57.739 111.02C56.5781 112.181 55.4645 113.341 54.2799 114.479C53.3085 115.403 52.2186 115.45 51.5078 114.692C50.8207 113.957 50.8918 112.939 51.7921 112.038C54.1377 109.645 56.507 107.276 58.9 104.931C59.7766 104.054 60.7007 104.03 61.4351 104.717C62.217 105.452 62.2407 106.471 61.3877 107.371C60.1794 108.627 58.9474 109.811 57.739 111.02Z" fill="url(#paint1_linear_10602_280252)"/>
<path d="M117.256 110.638C116.095 109.477 114.934 108.363 113.797 107.178C112.873 106.207 112.825 105.117 113.583 104.406C114.318 103.719 115.337 103.79 116.237 104.691C118.63 107.036 120.999 109.405 123.345 111.798C124.221 112.675 124.245 113.599 123.558 114.334C122.824 115.116 121.805 115.139 120.904 114.286C119.649 113.078 118.464 111.846 117.256 110.638Z" fill="url(#paint2_linear_10602_280252)"/>
<path d="M119.725 49.0332C118.564 50.1942 117.451 51.3551 116.266 52.4924C115.295 53.4164 114.205 53.4638 113.494 52.7056C112.807 51.9711 112.878 50.9523 113.778 50.052C116.124 47.659 118.493 45.2898 120.886 42.9442C121.763 42.0675 122.687 42.0439 123.421 42.7309C124.203 43.4654 124.227 44.4842 123.374 45.3845C122.166 46.6403 120.934 47.8249 119.725 49.0332Z" fill="url(#paint3_linear_10602_280252)"/>
<path d="M55.2676 48.6501C54.1066 47.4892 52.9457 46.3756 51.8084 45.191C50.8844 44.2196 50.837 43.1297 51.5952 42.4189C52.3297 41.7318 53.3485 41.8029 54.2488 42.7033C56.6418 45.0488 59.0111 47.4181 61.3566 49.8111C62.2333 50.6877 62.257 51.6117 61.5699 52.3462C60.8354 53.128 59.8166 53.1517 58.9163 52.2988C57.6605 51.0905 56.4759 49.8584 55.2676 48.6501Z" fill="url(#paint4_linear_10602_280252)"/>
<path d="M89.1969 34.9117C89.1969 36.5535 89.1969 38.1618 89.1969 39.8037C89.1969 41.1439 88.5268 41.8811 87.3876 41.8811C86.3153 41.8476 85.6787 41.1439 85.6787 39.8372C85.6787 36.5535 85.6787 33.2364 85.6787 29.9527C85.6787 28.6459 86.4159 27.8083 87.4881 27.8418C88.4933 27.8753 89.1634 28.6795 89.1969 29.9192C89.1969 31.561 89.1969 33.2364 89.1969 34.9117Z" fill="url(#paint5_linear_10602_280252)"/>
<path d="M131.213 80.3467C129.571 80.3467 127.963 80.3802 126.321 80.3467C124.981 80.3132 124.176 79.5761 124.21 78.5374C124.243 77.5322 125.014 76.862 126.287 76.862C129.638 76.8285 132.989 76.8285 136.339 76.862C137.579 76.862 138.249 77.4987 138.283 78.5039C138.316 79.5761 137.613 80.3132 136.373 80.3467C134.631 80.3802 132.922 80.3467 131.213 80.3467Z" fill="url(#paint6_linear_10602_280252)"/>
<path d="M43.5937 80.3466C41.9519 80.3466 40.3436 80.3801 38.7017 80.3466C37.328 80.3131 36.5908 79.6764 36.5908 78.5707C36.5908 77.465 37.328 76.8619 38.7352 76.8284C41.9854 76.8284 45.269 76.7949 48.5192 76.8284C49.8595 76.8284 50.6971 77.532 50.6636 78.5707C50.6636 79.6094 49.8595 80.3131 48.4857 80.3131C46.8774 80.3801 45.2355 80.3466 43.5937 80.3466Z" fill="url(#paint7_linear_10602_280252)"/>
<path d="M100.119 98.8764C99.6164 98.5749 99.1138 98.3403 98.7117 98.0052C98.1086 97.5026 97.5055 96.933 97.0364 96.3299C96.2658 95.2912 95.4616 95.1907 94.2889 95.7603C93.4847 96.1624 93.1161 96.4974 93.1832 97.4021C93.2502 98.4408 93.2167 99.4795 93.1832 100.552C93.1496 101.624 92.5465 102.294 91.4408 102.294C88.7603 102.328 86.0797 102.328 83.3992 102.294C82.2265 102.294 81.6569 101.59 81.6234 100.451C81.5899 99.379 81.5563 98.2733 81.6234 97.2011C81.6569 96.4304 81.4223 96.0283 80.6852 95.8608C79.881 95.6933 79.1439 94.7216 78.2727 95.8608C77.6361 96.6985 76.8319 97.3686 76.0613 98.0723C75.0896 98.9769 74.2519 98.9769 73.3137 98.0723C71.4708 96.2964 69.6615 94.487 67.8856 92.6777C66.981 91.773 67.0145 90.8683 67.8856 89.9301C68.4217 89.3605 68.9579 88.7239 69.5945 88.2548C70.7002 87.4506 70.8007 86.6465 70.1976 85.4067C69.829 84.6696 69.494 84.301 68.6563 84.368C67.7516 84.435 66.8134 84.4015 65.9087 84.368C64.3004 84.3345 63.6638 83.7314 63.6638 82.1901C63.6303 79.7776 63.6303 77.3316 63.6638 74.9192C63.6973 73.4449 64.3004 72.8753 65.7412 72.8417C66.7799 72.8082 67.8521 72.8082 68.8908 72.8417C69.5945 72.8753 70.0301 72.6407 70.1306 71.9371C70.2646 71.1329 71.4038 70.4293 70.2311 69.5246C69.4269 68.888 68.7233 68.0838 67.9862 67.3131C67.048 66.3415 67.0145 65.4033 67.9527 64.4651C69.695 62.6557 71.4708 60.9134 73.2802 59.1375C74.2519 58.1993 75.1566 58.1993 76.1283 59.104C76.9324 59.8412 77.6361 60.6788 78.4737 61.3825C78.8088 61.6505 79.5124 61.751 79.8475 61.5835C80.5176 61.2149 81.7574 61.483 81.6904 60.1092C81.6234 59.037 81.6569 57.9313 81.6904 56.8591C81.7239 55.4853 82.327 54.8487 83.6673 54.8152C86.2138 54.7817 88.7938 54.7817 91.3403 54.8152C92.6135 54.8152 93.2167 55.4853 93.2502 56.7921C93.2837 57.5962 93.3172 58.4004 93.2502 59.171C93.1161 60.4108 93.4177 61.1479 94.758 61.55C95.6626 61.8181 96.1987 61.8516 96.8019 61.1144C97.405 60.3773 98.1421 59.7406 98.8458 59.0705C99.784 58.1993 100.622 58.1323 101.493 58.97C103.403 60.8129 105.246 62.6557 107.088 64.5656C107.893 65.3698 107.859 66.308 107.088 67.1456C106.519 67.7822 105.983 68.4189 105.313 68.9215C104.207 69.7256 104.106 70.5298 104.709 71.7695C105.112 72.5737 105.48 72.9088 106.385 72.8417C107.356 72.7747 108.295 72.8082 109.266 72.8417C110.573 72.8753 111.243 73.4449 111.277 74.7181C111.31 77.2981 111.31 79.9116 111.277 82.4917C111.243 83.6979 110.54 84.3345 109.367 84.368C108.228 84.4015 107.088 84.301 105.983 84.435C105.581 84.4686 105.011 84.9041 104.877 85.2727C104.676 86.0099 103.604 86.68 104.642 87.5847C105.48 88.3218 106.284 89.1595 107.055 89.9636C107.893 90.8348 107.893 91.773 107.055 92.6442C105.246 94.487 103.403 96.3299 101.526 98.1393C101.158 98.4408 100.655 98.5749 100.119 98.8764ZM67.2155 80.8833C68.4553 80.8833 69.561 80.9168 70.6332 80.8833C71.8729 80.8498 72.5431 81.3524 72.9116 82.5587C73.2802 83.7314 73.7828 84.9041 74.3524 86.0099C74.9555 87.1491 74.855 88.0873 73.8833 88.8914C73.0457 89.6286 72.1745 90.3322 71.4373 90.9353C72.7441 92.2756 73.7158 93.3478 74.8215 94.487C75.6257 93.6494 76.3963 92.8452 77.167 92.0075C77.9711 91.1364 78.8088 91.0359 79.881 91.572C81.0537 92.1751 82.2935 92.6777 83.5667 93.1133C84.706 93.4818 85.2086 94.1855 85.1751 95.3247C85.1416 96.4304 85.1751 97.5697 85.1751 98.7424C86.7499 98.7424 88.1572 98.7424 89.6985 98.7424C89.6985 97.5026 89.6985 96.3299 89.6985 95.1907C89.6985 94.1185 90.2011 93.5153 91.2063 93.1803C92.5465 92.7112 93.8533 92.1416 95.1265 91.5385C96.0312 91.1029 96.8354 91.1699 97.5055 91.907C98.3432 92.7782 99.1808 93.6494 100.019 94.5541C101.158 93.4148 102.163 92.3761 103.369 91.1699C102.565 90.4327 101.694 89.6286 100.856 88.8244C99.985 88.0203 99.918 87.1826 100.454 86.1439C101.024 85.0047 101.56 83.7984 101.928 82.5587C102.297 81.4194 102.9 80.8833 104.106 80.9168C105.246 80.9504 106.418 80.9168 107.625 80.9168C107.625 79.342 107.625 77.9348 107.625 76.3934C106.385 76.3934 105.246 76.3934 104.073 76.3934C103.001 76.3934 102.297 75.9244 101.928 74.8186C101.493 73.5119 100.957 72.2386 100.354 71.0324C99.8845 70.0607 99.9515 69.29 100.722 68.5529C101.593 67.7487 102.464 66.9111 103.235 66.2074C102.029 65.0012 101.024 63.9625 99.8845 62.7898C99.1808 63.5269 98.4102 64.3311 97.7065 65.1352C96.8354 66.1069 95.9307 66.2074 94.7915 65.6043C93.6858 65.0347 92.513 64.5656 91.3403 64.197C90.2011 63.8285 89.5979 63.1583 89.6314 61.9186C89.665 60.7794 89.6314 59.6066 89.6314 58.5009C88.0231 58.5009 86.6159 58.5009 85.1081 58.5009C85.1081 59.6736 85.0745 60.8129 85.1081 61.9186C85.1416 63.0913 84.6055 63.7614 83.4997 64.13C82.2265 64.5656 81.0202 65.0682 79.814 65.6378C78.8088 66.1069 77.9711 66.1069 77.2005 65.2692C76.3963 64.3981 75.6257 63.5604 74.922 62.8233C73.7493 64.0295 72.7106 65.0682 71.5714 66.2074C72.275 66.8776 73.0457 67.6482 73.8498 68.3519C74.8215 69.223 74.855 70.1277 74.2519 71.2669C73.6823 72.3391 73.1797 73.4449 72.8446 74.6176C72.476 75.9579 71.6719 76.4605 70.3651 76.427C69.2929 76.3935 68.2207 76.427 67.115 76.427C67.2155 77.9013 67.2155 79.3085 67.2155 80.8833Z" fill="url(#paint8_linear_10602_280252)"/>
<path d="M97.741 78.6045C97.741 84.2672 93.1171 88.8911 87.4544 88.9246C81.7583 88.9581 77.0674 84.3007 77.0674 78.571C77.0674 72.8749 81.6913 68.2845 87.3539 68.251C93.1506 68.251 97.741 72.8414 97.741 78.6045ZM80.6191 78.4705C80.5856 82.2568 83.6347 85.3729 87.3874 85.3729C91.1067 85.3729 94.1893 82.3573 94.2228 78.638C94.2563 74.8183 91.2407 71.7692 87.4544 71.7692C83.7017 71.7692 80.6526 74.7513 80.6191 78.4705Z" fill="url(#paint9_linear_10602_280252)"/>
<defs>
<linearGradient id="paint0_linear_10602_280252" x1="87.4364" y1="45.2441" x2="87.4364" y2="177.401" gradientUnits="userSpaceOnUse">
<stop stop-color="#1DE9B6"/>
<stop offset="1" stop-color="#1DE9B6" stop-opacity="0"/>
</linearGradient>
<linearGradient id="paint1_linear_10602_280252" x1="55.281" y1="108.514" x2="58.5129" y2="111.746" gradientUnits="userSpaceOnUse">
<stop stop-color="#1DE9B6"/>
<stop offset="1" stop-color="#1DE9B6" stop-opacity="0"/>
</linearGradient>
<linearGradient id="paint2_linear_10602_280252" x1="119.761" y1="108.179" x2="116.529" y2="111.411" gradientUnits="userSpaceOnUse">
<stop stop-color="#1DE9B6"/>
<stop offset="1" stop-color="#1DE9B6" stop-opacity="0"/>
</linearGradient>
<linearGradient id="paint3_linear_10602_280252" x1="117.267" y1="46.5277" x2="120.989" y2="50.2496" gradientUnits="userSpaceOnUse">
<stop stop-color="#1DE9B6"/>
<stop offset="1" stop-color="#1DE9B6" stop-opacity="0"/>
</linearGradient>
<linearGradient id="paint4_linear_10602_280252" x1="57.7731" y1="46.192" x2="54.0513" y2="49.914" gradientUnits="userSpaceOnUse">
<stop stop-color="#1DE9B6"/>
<stop offset="1" stop-color="#1DE9B6" stop-opacity="0"/>
</linearGradient>
<linearGradient id="paint5_linear_10602_280252" x1="87.4378" y1="27.8408" x2="87.4378" y2="48.8076" gradientUnits="userSpaceOnUse">
<stop stop-color="#1DE9B6"/>
<stop offset="1" stop-color="#1DE9B6" stop-opacity="0"/>
</linearGradient>
<linearGradient id="paint6_linear_10602_280252" x1="131.246" y1="76.8369" x2="131.246" y2="82.1005" gradientUnits="userSpaceOnUse">
<stop stop-color="#1DE9B6"/>
<stop offset="1" stop-color="#1DE9B6" stop-opacity="0"/>
</linearGradient>
<linearGradient id="paint7_linear_10602_280252" x1="43.6277" y1="76.8135" x2="43.6277" y2="82.1118" gradientUnits="userSpaceOnUse">
<stop stop-color="#1DE9B6"/>
<stop offset="1" stop-color="#1DE9B6" stop-opacity="0"/>
</linearGradient>
<linearGradient id="paint8_linear_10602_280252" x1="87.4703" y1="54.79" x2="87.4703" y2="125.767" gradientUnits="userSpaceOnUse">
<stop stop-color="#1DE9B6"/>
<stop offset="1" stop-color="#1DE9B6" stop-opacity="0"/>
</linearGradient>
<linearGradient id="paint9_linear_10602_280252" x1="87.4042" y1="68.251" x2="87.4042" y2="99.1238" gradientUnits="userSpaceOnUse">
<stop stop-color="#1DE9B6"/>
<stop offset="1" stop-color="#1DE9B6" stop-opacity="0"/>
</linearGradient>
</defs>
</svg>
