<svg width="220" height="220" viewBox="0 0 220 220" fill="none" xmlns="http://www.w3.org/2000/svg">
<path d="M88.208 157.747C88.208 154.208 88.1659 150.712 88.208 147.174C88.2922 139.971 85.7228 133.863 80.5838 128.808C71.9065 120.215 67.6943 109.811 67.8628 97.6377C68.1155 78.3034 82.9006 60.991 102.024 57.5791C125.065 53.4932 146.421 67.6464 151.055 90.5611C154.004 105.178 149.876 118.025 139.387 128.682C135.427 132.726 132.732 137.317 131.889 142.92C131.679 144.352 131.636 145.868 131.636 147.3C131.594 155.093 131.636 162.844 131.636 170.636C131.636 173.248 130.962 174.006 128.393 173.88C127.045 173.795 126.582 174.343 126.245 175.523C125.529 178.05 124.644 180.493 123.844 183.02C123.423 184.368 122.538 185 121.148 185C113.65 185 106.194 185 98.6965 185C97.2222 185 96.3377 184.368 95.9164 182.936C95.1161 180.324 94.2315 177.755 93.4312 175.143C93.1785 174.259 92.7994 173.922 91.7884 173.922C88.5871 173.922 88.1238 173.416 88.1238 170.257C88.208 166.087 88.208 161.917 88.208 157.747ZM92.7572 150.797C104.257 150.797 115.63 150.797 127.382 150.797C127.382 148.059 127.129 145.405 127.424 142.835C128.225 135.969 131.51 130.283 136.354 125.397C145.284 116.382 148.991 105.473 146.969 93.0042C143.641 72.2799 125.192 58.927 104.257 61.7071C86.7758 64.0239 72.7069 79.6514 72.2435 97.2586C71.9487 108.379 75.7397 117.941 83.6588 125.776C88.3344 130.409 91.3672 135.885 92.2097 142.414C92.6309 145.11 92.6309 147.89 92.7572 150.797ZM127.129 155.388C115.588 155.388 104.215 155.388 92.7572 155.388C92.7572 160.106 92.7572 164.739 92.7572 169.33C104.299 169.33 115.672 169.33 127.129 169.33C127.129 164.697 127.129 160.148 127.129 155.388ZM97.7277 173.964C98.4017 176.112 98.9914 178.05 99.7075 179.945C99.7917 180.198 100.339 180.493 100.634 180.493C107.037 180.535 113.482 180.535 119.968 180.535C120.685 178.345 121.359 176.239 122.075 173.964C113.903 173.964 105.984 173.964 97.7277 173.964Z" fill="url(#paint0_linear_2059_38388)"/>
<path d="M72.5868 139.567C71.1273 141.027 69.7274 142.486 68.2381 143.916C67.0169 145.078 65.6468 145.137 64.7532 144.184C63.8894 143.261 63.9788 141.98 65.1107 140.848C68.0594 137.84 71.0379 134.861 74.0463 131.913C75.1483 130.811 76.3099 130.781 77.2333 131.645C78.2162 132.568 78.246 133.849 77.1737 134.98C75.6547 136.559 74.1058 138.048 72.5868 139.567Z" fill="url(#paint1_linear_2059_38388)"/>
<path d="M147.407 139.087C145.947 137.628 144.488 136.228 143.058 134.739C141.897 133.517 141.837 132.147 142.79 131.254C143.713 130.39 144.994 130.479 146.126 131.611C149.134 134.56 152.113 137.538 155.061 140.547C156.164 141.649 156.193 142.811 155.33 143.734C154.406 144.717 153.125 144.747 151.994 143.674C150.415 142.155 148.926 140.606 147.407 139.087Z" fill="url(#paint2_linear_2059_38388)"/>
<path d="M150.512 61.642C149.053 63.1015 147.653 64.561 146.163 65.9907C144.942 67.1523 143.572 67.2119 142.679 66.2588C141.815 65.3354 141.904 64.0546 143.036 62.9228C145.985 59.9145 148.963 56.936 151.971 53.9872C153.074 52.8852 154.235 52.8554 155.159 53.7192C156.141 54.6425 156.171 55.9233 155.099 57.0551C153.58 58.6337 152.031 60.123 150.512 61.642Z" fill="url(#paint3_linear_2059_38388)"/>
<path d="M69.4795 61.1602C68.0201 59.7007 66.5606 58.3008 65.1309 56.8115C63.9693 55.5904 63.9097 54.2202 64.8628 53.3267C65.7862 52.4629 67.0669 52.5523 68.1988 53.6841C71.2071 56.6328 74.1856 59.6113 77.1344 62.6196C78.2365 63.7217 78.2662 64.8833 77.4025 65.8066C76.4791 66.7896 75.1983 66.8193 74.0665 65.7471C72.4879 64.228 70.9986 62.6792 69.4795 61.1602Z" fill="url(#paint4_linear_2059_38388)"/>
<path d="M112.133 43.8891C112.133 45.9531 112.133 47.975 112.133 50.039C112.133 51.7239 111.291 52.6506 109.859 52.6506C108.511 52.6085 107.71 51.7239 107.71 50.0811C107.71 45.9531 107.71 41.783 107.71 37.6549C107.71 36.0122 108.637 34.9591 109.985 35.0012C111.249 35.0433 112.091 36.0543 112.133 37.6128C112.133 39.6768 112.133 41.783 112.133 43.8891Z" fill="url(#paint5_linear_2059_38388)"/>
<path d="M164.954 101.007C162.89 101.007 160.868 101.049 158.804 101.007C157.119 100.965 156.108 100.038 156.15 98.7325C156.192 97.4688 157.161 96.6263 158.762 96.6263C162.974 96.5842 167.186 96.5842 171.399 96.6263C172.957 96.6263 173.8 97.4267 173.842 98.6903C173.884 100.038 172.999 100.965 171.441 101.007C169.25 101.049 167.102 101.007 164.954 101.007Z" fill="url(#paint6_linear_2059_38388)"/>
<path d="M54.8036 101.007C52.7396 101.007 50.7177 101.049 48.6537 101.007C46.9267 100.965 46 100.165 46 98.7748C46 97.3847 46.9267 96.6265 48.6958 96.5844C52.7817 96.5844 56.9098 96.5423 60.9957 96.5844C62.6806 96.5844 63.7336 97.469 63.6915 98.7748C63.6915 100.081 62.6806 100.965 60.9535 100.965C58.9317 101.049 56.8676 101.007 54.8036 101.007Z" fill="url(#paint7_linear_2059_38388)"/>
<path d="M125.864 124.302C125.232 123.922 124.6 123.628 124.095 123.206C123.337 122.575 122.578 121.858 121.989 121.1C121.02 119.794 120.009 119.668 118.535 120.384C117.524 120.89 117.06 121.311 117.145 122.448C117.229 123.754 117.187 125.06 117.145 126.408C117.102 127.756 116.344 128.598 114.954 128.598C111.584 128.64 108.215 128.64 104.845 128.598C103.37 128.598 102.654 127.713 102.612 126.281C102.57 124.933 102.528 123.543 102.612 122.195C102.654 121.227 102.36 120.721 101.433 120.51C100.422 120.3 99.4952 119.078 98.4 120.51C97.5997 121.564 96.5887 122.406 95.6199 123.291C94.3983 124.428 93.3453 124.428 92.1658 123.291C89.8491 121.058 87.5745 118.783 85.342 116.509C84.2047 115.372 84.2468 114.234 85.342 113.055C86.0159 112.339 86.6899 111.538 87.4902 110.949C88.8803 109.938 89.0066 108.927 88.2484 107.368C87.7851 106.442 87.3639 105.978 86.3108 106.062C85.1735 106.147 83.994 106.105 82.8567 106.062C80.8349 106.02 80.0345 105.262 80.0345 103.324C79.9924 100.292 79.9924 97.2167 80.0345 94.1838C80.0766 92.3304 80.8349 91.6144 82.6461 91.5722C83.9519 91.5301 85.2999 91.5301 86.6057 91.5722C87.4902 91.6144 88.0378 91.3195 88.1642 90.4349C88.3327 89.424 89.7649 88.5394 88.2906 87.4021C87.2796 86.6018 86.395 85.5908 85.4683 84.622C84.2889 83.4004 84.2468 82.221 85.4262 81.0416C87.6166 78.767 89.8491 76.5766 92.1237 74.3441C93.3453 73.1646 94.4826 73.1646 95.7041 74.302C96.7151 75.2287 97.5997 76.2817 98.6527 77.1663C99.074 77.5033 99.9585 77.6296 100.38 77.419C101.222 76.9557 102.781 77.2927 102.697 75.5656C102.612 74.2177 102.654 72.8277 102.697 71.4797C102.739 69.7527 103.497 68.9524 105.182 68.9103C108.383 68.8681 111.626 68.8681 114.828 68.9103C116.428 68.9103 117.187 69.7527 117.229 71.3955C117.271 72.4064 117.313 73.4174 117.229 74.3862C117.06 75.9447 117.439 76.8714 119.124 77.3769C120.262 77.7139 120.936 77.756 121.694 76.8293C122.452 75.9026 123.379 75.1023 124.263 74.2598C125.443 73.1646 126.496 73.0804 127.591 74.1335C129.992 76.4502 132.309 78.767 134.625 81.1679C135.636 82.1789 135.594 83.3583 134.625 84.4114C133.909 85.2117 133.235 86.012 132.393 86.6439C131.003 87.6548 130.877 88.6658 131.635 90.2243C132.14 91.2353 132.604 91.6565 133.741 91.5722C134.962 91.488 136.142 91.5301 137.363 91.5722C139.006 91.6144 139.849 92.3304 139.891 93.9311C139.933 97.1745 139.933 100.46 139.891 103.704C139.849 105.22 138.964 106.02 137.49 106.062C136.058 106.105 134.625 105.978 133.235 106.147C132.73 106.189 132.014 106.736 131.845 107.2C131.593 108.126 130.245 108.969 131.551 110.106C132.604 111.033 133.615 112.086 134.583 113.097C135.636 114.192 135.636 115.372 134.583 116.467C132.309 118.783 129.992 121.1 127.633 123.375C127.17 123.754 126.538 123.922 125.864 124.302ZM84.4995 101.682C86.0581 101.682 87.4481 101.724 88.796 101.682C90.3546 101.64 91.197 102.271 91.6604 103.788C92.1237 105.262 92.7556 106.736 93.4716 108.126C94.2298 109.559 94.1035 110.738 92.8819 111.749C91.8289 112.676 90.7337 113.56 89.807 114.318C91.4498 116.003 92.6713 117.351 94.0614 118.783C95.0723 117.73 96.0411 116.719 97.0099 115.666C98.0209 114.571 99.074 114.445 100.422 115.119C101.896 115.877 103.455 116.509 105.055 117.056C106.488 117.52 107.119 118.404 107.077 119.837C107.035 121.227 107.077 122.659 107.077 124.133C109.057 124.133 110.826 124.133 112.764 124.133C112.764 122.575 112.764 121.1 112.764 119.668C112.764 118.32 113.396 117.562 114.659 117.141C116.344 116.551 117.987 115.835 119.588 115.077C120.725 114.529 121.736 114.613 122.578 115.54C123.631 116.635 124.685 117.73 125.738 118.868C127.17 117.436 128.433 116.13 129.95 114.613C128.939 113.687 127.844 112.676 126.791 111.665C125.695 110.654 125.611 109.601 126.285 108.295C127.001 106.863 127.675 105.346 128.139 103.788C128.602 102.356 129.36 101.682 130.877 101.724C132.309 101.766 133.783 101.724 135.299 101.724C135.299 99.744 135.299 97.9749 135.299 96.0372C133.741 96.0372 132.309 96.0372 130.834 96.0372C129.486 96.0372 128.602 95.4475 128.139 94.0575C127.591 92.4147 126.917 90.814 126.159 89.2976C125.569 88.0761 125.653 87.1072 126.622 86.1805C127.717 85.1696 128.813 84.1165 129.781 83.232C128.265 81.7155 127.001 80.4097 125.569 78.9354C124.685 79.8621 123.716 80.8731 122.831 81.884C121.736 83.1056 120.599 83.232 119.166 82.4737C117.776 81.7577 116.302 81.1679 114.828 80.7046C113.396 80.2412 112.637 79.3988 112.68 77.8403C112.722 76.4081 112.68 74.9338 112.68 73.5437C110.658 73.5437 108.889 73.5437 106.993 73.5437C106.993 75.018 106.951 76.4502 106.993 77.8403C107.035 79.3145 106.361 80.157 104.971 80.6203C103.37 81.1679 101.854 81.7998 100.338 82.5159C99.074 83.1056 98.0209 83.1056 97.0521 82.0525C96.0411 80.9573 95.0723 79.9043 94.1877 78.9776C92.7134 80.494 91.4076 81.7998 89.9755 83.232C90.86 84.0744 91.8289 85.0432 92.8398 85.9278C94.0614 87.023 94.1035 88.1603 93.3453 89.5925C92.6292 90.9404 91.9973 92.3304 91.5761 93.8047C91.1128 95.4896 90.1018 96.1215 88.4591 96.0794C87.1111 96.0372 85.7632 96.0794 84.3732 96.0794C84.4995 97.9328 84.4995 99.7019 84.4995 101.682Z" fill="url(#paint8_linear_2059_38388)"/>
<path d="M122.874 98.8174C122.874 105.936 117.061 111.749 109.942 111.791C102.781 111.833 96.8843 105.978 96.8843 98.7753C96.8843 91.6144 102.697 85.8436 109.816 85.8015C117.103 85.8015 122.874 91.5723 122.874 98.8174ZM101.349 98.6489C101.307 103.409 105.14 107.326 109.858 107.326C114.534 107.326 118.409 103.535 118.451 98.8595C118.493 94.0576 114.702 90.2244 109.942 90.2244C105.225 90.2244 101.391 93.9733 101.349 98.6489Z" fill="url(#paint9_linear_2059_38388)"/>
<defs>
<linearGradient id="paint0_linear_2059_38388" x1="109.92" y1="56.8787" x2="109.92" y2="248.207" gradientUnits="userSpaceOnUse">
<stop stop-color="#1DE9B6"/>
<stop offset="1" stop-color="#1DE9B6" stop-opacity="0"/>
</linearGradient>
<linearGradient id="paint1_linear_2059_38388" x1="69.4966" y1="136.418" x2="74.1756" y2="141.097" gradientUnits="userSpaceOnUse">
<stop stop-color="#1DE9B6"/>
<stop offset="1" stop-color="#1DE9B6" stop-opacity="0"/>
</linearGradient>
<linearGradient id="paint2_linear_2059_38388" x1="150.557" y1="135.997" x2="145.878" y2="140.676" gradientUnits="userSpaceOnUse">
<stop stop-color="#1DE9B6"/>
<stop offset="1" stop-color="#1DE9B6" stop-opacity="0"/>
</linearGradient>
<linearGradient id="paint3_linear_2059_38388" x1="147.422" y1="58.4922" x2="152.101" y2="63.1712" gradientUnits="userSpaceOnUse">
<stop stop-color="#1DE9B6"/>
<stop offset="1" stop-color="#1DE9B6" stop-opacity="0"/>
</linearGradient>
<linearGradient id="paint4_linear_2059_38388" x1="72.6294" y1="58.07" x2="67.9505" y2="62.749" gradientUnits="userSpaceOnUse">
<stop stop-color="#1DE9B6"/>
<stop offset="1" stop-color="#1DE9B6" stop-opacity="0"/>
</linearGradient>
<linearGradient id="paint5_linear_2059_38388" x1="109.922" y1="35" x2="109.922" y2="61.3582" gradientUnits="userSpaceOnUse">
<stop stop-color="#1DE9B6"/>
<stop offset="1" stop-color="#1DE9B6" stop-opacity="0"/>
</linearGradient>
<linearGradient id="paint6_linear_2059_38388" x1="164.996" y1="96.5947" x2="164.996" y2="103.212" gradientUnits="userSpaceOnUse">
<stop stop-color="#1DE9B6"/>
<stop offset="1" stop-color="#1DE9B6" stop-opacity="0"/>
</linearGradient>
<linearGradient id="paint7_linear_2059_38388" x1="54.8464" y1="96.5657" x2="54.8464" y2="103.226" gradientUnits="userSpaceOnUse">
<stop stop-color="#1DE9B6"/>
<stop offset="1" stop-color="#1DE9B6" stop-opacity="0"/>
</linearGradient>
<linearGradient id="paint8_linear_2059_38388" x1="109.963" y1="68.8787" x2="109.963" y2="158.107" gradientUnits="userSpaceOnUse">
<stop stop-color="#1DE9B6"/>
<stop offset="1" stop-color="#1DE9B6" stop-opacity="0"/>
</linearGradient>
<linearGradient id="paint9_linear_2059_38388" x1="109.879" y1="85.8015" x2="109.879" y2="124.613" gradientUnits="userSpaceOnUse">
<stop stop-color="#1DE9B6"/>
<stop offset="1" stop-color="#1DE9B6" stop-opacity="0"/>
</linearGradient>
</defs>
</svg>
