<svg width="175" height="175" viewBox="0 0 175 175" fill="none" xmlns="http://www.w3.org/2000/svg">
<g clip-path="url(#clip0_4069_99586)">
<path d="M139.602 103.089V46.1271C139.602 42.0294 137.349 39.7727 133.269 39.7727H41.6708C37.6805 39.7727 35.3975 42.069 35.3975 46.0578C35.3975 65.3091 35.3975 85.2136 35.457 104.683C35.457 108.662 37.7599 110.938 41.7601 110.938H82.3679V116.59C81.8518 116.629 81.4746 116.778 81.1966 117.065C80.74 117.53 80.7003 118.272 80.7202 118.787C80.74 119.757 80.7301 120.737 80.7301 121.746C80.7301 122.182 80.7202 122.617 80.7202 123.053C79.7077 123.053 78.7151 123.053 77.7324 123.063C75.638 123.063 73.5932 123.073 71.5385 123.053H71.3201C70.5657 123.053 69.7816 123.043 69.2952 123.538C69.0272 123.805 68.8783 124.191 68.8585 124.706H53.4531C51.994 124.736 51.4976 125.23 51.4976 126.666V131.337C51.4976 133.129 51.9046 133.535 53.6715 133.535H68.8585C68.9577 135.029 70.0297 135.247 71.1812 135.247C78.1791 135.227 85.3061 135.237 92.2047 135.237C95.7186 135.237 99.2225 135.247 102.736 135.247H102.965C103.044 135.247 103.114 135.247 103.193 135.247C103.908 135.247 104.622 135.207 105.079 134.752C105.357 134.475 105.506 134.089 105.545 133.564H121.527C123.164 133.564 123.611 133.129 123.611 131.516V126.844C123.611 125.211 123.154 124.765 121.467 124.765H105.466C105.406 124.221 105.228 123.825 104.92 123.548C104.563 123.221 104.027 123.083 103.302 123.122C102.369 123.142 101.396 123.132 100.463 123.132C99.9868 123.132 99.5203 123.122 99.0538 123.122H94.3091C94.3091 122.687 94.3091 122.271 94.2991 121.855C94.2892 120.915 94.2892 120.034 94.3091 119.133C94.3289 118.381 94.3091 117.599 93.8227 117.104C93.5547 116.827 93.1676 116.679 92.6613 116.649V111.037C93.1378 111.037 93.505 111.027 93.8525 110.948H133.567C136.882 110.948 139.284 108.879 139.533 105.811C139.592 105.009 139.602 104.207 139.582 103.257H139.334L139.582 103.238C139.592 103.178 139.602 103.139 139.602 103.089ZM85.3755 116.639V111.057H89.6537V116.639H85.3755ZM93.3859 126.012H102.409C102.409 128.131 102.409 130.14 102.439 132.199H71.9157V126.042H75.3402C76.0549 126.042 76.7696 126.042 77.4843 126.052C78.9136 126.062 80.343 126.062 81.7724 126.042C83.1521 126.012 83.6385 125.508 83.6385 124.112V119.688H91.3709V124.023C91.3709 125.567 91.8176 126.012 93.3859 126.012ZM136.624 46.1568V104.465C136.624 107.207 135.84 107.998 133.11 107.998H41.8594C39.219 107.998 38.3753 107.177 38.3753 104.584V46.1271C38.3753 43.6032 39.2587 42.7124 41.77 42.7124C71.7569 42.7124 102.756 42.7124 133.239 42.7421C135.771 42.7421 136.624 43.6032 136.624 46.1568ZM68.7493 127.754V130.555H54.406V127.754H68.7493ZM105.486 130.555V127.784H120.593V130.555H105.486Z" fill="url(#paint0_linear_4069_99586)"/>
<path d="M130.173 47.097H44.9171C42.7631 47.097 42.4355 47.4237 42.4355 49.5715V97.1701C42.4355 99.4466 42.6936 99.7039 44.9469 99.7039H87.391C101.417 99.7039 115.909 99.7039 130.232 99.7336C132.337 99.7336 132.654 99.4169 132.654 97.3186V49.6012C132.654 47.4435 132.307 47.097 130.173 47.097ZM129.587 50.0961V96.7148H45.3836V50.0961H129.587Z" fill="url(#paint1_linear_4069_99586)"/>
<path d="M62.9722 69.2979C60.7587 72.584 60.3319 76.5926 61.791 80.3043C62.9722 83.2935 65.6225 85.8669 68.7095 87.0249C69.722 87.4109 71.0322 87.7277 72.5112 87.7277C73.9704 87.7277 75.6181 87.4109 77.3353 86.53C79.3702 85.4809 81.5341 84.1447 83.9759 82.4521C85.3854 81.4723 86.6957 80.3934 88.0754 79.2551C88.6114 78.8097 89.1573 78.3643 89.7033 77.9288C89.7728 77.9882 89.8423 78.0575 89.9217 78.1169C90.1103 78.2852 90.3088 78.4534 90.5073 78.6019C91.4503 79.2848 92.3833 79.9876 93.3164 80.6804C95.5796 82.373 97.9321 84.1348 100.384 85.659C102.19 86.7775 104.324 87.5 106.25 87.6485C111.64 88.0444 116.712 84.2238 118.042 78.7603C119.373 73.4253 116.772 67.7737 111.848 65.3289C107.987 63.4384 104.126 63.6958 100.374 66.1009C97.7633 67.7836 95.2718 69.5553 92.6414 71.4359C91.5793 72.1881 90.5073 72.9502 89.4154 73.7223C89.3856 73.6926 89.3559 73.6629 89.3162 73.6332C89.1176 73.455 88.8695 73.2175 88.5916 73.0096C87.6287 72.3168 86.6659 71.6239 85.713 70.9212C83.4498 69.2682 81.1073 67.5658 78.7349 65.9921C76.8192 64.7152 74.7347 64.062 72.6601 64.0917C68.7095 64.1412 65.1758 66.0317 62.9722 69.2979ZM64.4016 72.9403C65.6721 69.4464 68.9477 67.0907 72.5509 67.0907C73.8711 67.0907 75.1317 67.546 75.9655 67.9221C80.3628 69.9314 83.9759 72.97 87.4699 75.9394C83.8568 79.0176 80.5117 81.7296 76.5412 83.7389C72.9976 85.4908 69.6426 85.085 66.8434 82.5511C64.1435 80.1558 63.1608 76.2957 64.4016 72.9403ZM91.8771 75.9295C95.1825 73.069 98.7559 70.1195 102.965 68.0409C106.826 66.1603 111.005 67.1006 113.615 70.4461C116.186 73.7421 116.097 78.4534 113.407 81.6405C111.223 84.2041 107.233 85.9065 103.243 83.9269C99.1033 81.8682 95.6391 79.0869 91.8771 75.9295Z" fill="url(#paint2_linear_4069_99586)"/>
<path d="M50.5344 66.9719C50.5641 66.9719 50.584 66.9719 50.6138 66.9719C51.4277 66.9719 51.9339 66.477 52.0431 65.5763C52.0928 65.2793 52.0828 64.9725 52.0828 64.6756V56.5692C52.5494 56.5692 52.9265 56.5693 53.3037 56.5989H65.7015C66.7934 56.5989 67.4485 56.0546 67.4485 55.1341C67.4485 54.1839 66.843 53.6692 65.7313 53.6692H50.8222C49.7204 53.6692 49.1348 54.273 49.1348 55.4112V65.4575C49.1745 66.3978 49.6708 66.9323 50.5344 66.9719Z" fill="url(#paint3_linear_4069_99586)"/>
</g>
<defs>
<linearGradient id="paint0_linear_4069_99586" x1="87.4997" y1="39.7727" x2="87.4997" y2="163.578" gradientUnits="userSpaceOnUse">
<stop stop-color="#1DE9B6"/>
<stop offset="1" stop-color="#1DE9B6" stop-opacity="0"/>
</linearGradient>
<linearGradient id="paint1_linear_4069_99586" x1="87.5449" y1="47.097" x2="87.5449" y2="115.353" gradientUnits="userSpaceOnUse">
<stop stop-color="#1DE9B6"/>
<stop offset="1" stop-color="#1DE9B6" stop-opacity="0"/>
</linearGradient>
<linearGradient id="paint2_linear_4069_99586" x1="89.6633" y1="64.0809" x2="89.6633" y2="94.7447" gradientUnits="userSpaceOnUse">
<stop stop-color="#1DE9B6"/>
<stop offset="1" stop-color="#1DE9B6" stop-opacity="0"/>
</linearGradient>
<linearGradient id="paint3_linear_4069_99586" x1="58.2916" y1="53.6692" x2="58.2916" y2="70.9193" gradientUnits="userSpaceOnUse">
<stop stop-color="#1DE9B6"/>
<stop offset="1" stop-color="#1DE9B6" stop-opacity="0"/>
</linearGradient>
<clipPath id="clip0_4069_99586">
<rect width="104.205" height="95.4546" fill="white" transform="translate(35.3975 39.7727)"/>
</clipPath>
</defs>
</svg>
