<svg width="175" height="175" viewBox="0 0 175 175" fill="none" xmlns="http://www.w3.org/2000/svg">
<g clip-path="url(#clip0_10602_280275)">
<path d="M139.602 103.089V46.1269C139.602 42.0292 137.349 39.7725 133.27 39.7725H41.6713C37.681 39.7725 35.3979 42.0688 35.3979 46.0576C35.3979 65.3088 35.3979 85.2133 35.4575 104.682C35.4575 108.661 37.7604 110.938 41.7606 110.938H82.3684V116.589C81.8523 116.629 81.4751 116.777 81.1971 117.065C80.7405 117.53 80.7008 118.272 80.7207 118.787C80.7405 119.757 80.7306 120.737 80.7306 121.746C80.7306 122.182 80.7207 122.617 80.7207 123.053C79.7082 123.053 78.7156 123.053 77.7329 123.063C75.6385 123.063 73.5937 123.072 71.539 123.053H71.3206C70.5662 123.053 69.7821 123.043 69.2957 123.538C69.0277 123.805 68.8788 124.191 68.8589 124.706H53.4536C51.9944 124.735 51.4981 125.23 51.4981 126.665V131.337C51.4981 133.129 51.9051 133.534 53.672 133.534H68.8589C68.9582 135.029 70.0302 135.247 71.1817 135.247C78.1796 135.227 85.3065 135.237 92.2052 135.237C95.7191 135.237 99.223 135.247 102.737 135.247H102.965C103.045 135.247 103.114 135.247 103.193 135.247C103.908 135.247 104.623 135.207 105.079 134.752C105.357 134.475 105.506 134.089 105.546 133.564H121.527C123.165 133.564 123.611 133.129 123.611 131.515V126.844C123.611 125.21 123.155 124.765 121.467 124.765H105.467C105.407 124.221 105.228 123.825 104.921 123.548C104.563 123.221 104.027 123.082 103.303 123.122C102.37 123.142 101.397 123.132 100.464 123.132C99.9873 123.132 99.5208 123.122 99.0542 123.122H94.3095C94.3095 122.686 94.3095 122.271 94.2996 121.855C94.2897 120.915 94.2897 120.034 94.3095 119.133C94.3294 118.381 94.3096 117.599 93.8232 117.104C93.5552 116.827 93.168 116.678 92.6618 116.649V111.037C93.1383 111.037 93.5055 111.027 93.8529 110.948H133.567C136.883 110.948 139.285 108.879 139.533 105.811C139.593 105.009 139.602 104.207 139.583 103.257H139.334L139.583 103.237C139.593 103.178 139.602 103.138 139.602 103.089ZM85.376 116.639V111.057H89.6542V116.639H85.376ZM93.3864 126.012H102.409C102.409 128.13 102.409 130.14 102.439 132.198H71.9162V126.042H75.3407C76.0554 126.042 76.7701 126.042 77.4848 126.052C78.9141 126.062 80.3435 126.062 81.7728 126.042C83.1526 126.012 83.639 125.507 83.639 124.112V119.687H91.3714V124.023C91.3714 125.567 91.8181 126.012 93.3864 126.012ZM136.625 46.1566V104.465C136.625 107.206 135.84 107.998 133.111 107.998H41.8599C39.2195 107.998 38.3758 107.177 38.3758 104.583V46.1269C38.3758 43.6029 39.2592 42.7121 41.7705 42.7121C71.7574 42.7121 102.757 42.7121 133.24 42.7418C135.771 42.7418 136.625 43.6029 136.625 46.1566ZM68.7498 127.754V130.555H54.4065V127.754H68.7498ZM105.486 130.555V127.784H120.594V130.555H105.486Z" fill="url(#paint0_linear_10602_280275)"/>
<path d="M130.173 47.0967H44.9171C42.7631 47.0967 42.4355 47.4233 42.4355 49.5711V97.1697C42.4355 99.4462 42.6936 99.7036 44.9469 99.7036H87.391C101.417 99.7036 115.909 99.7036 130.232 99.7333C132.337 99.7333 132.654 99.4165 132.654 97.3182V49.6008C132.654 47.4431 132.307 47.0967 130.173 47.0967ZM129.587 50.0957V96.7144H45.3836V50.0957H129.587Z" fill="url(#paint1_linear_10602_280275)"/>
<path d="M62.9727 69.2981C60.7592 72.5841 60.3323 76.5928 61.7915 80.3044C62.9727 83.2936 65.623 85.867 68.71 87.0251C69.7225 87.4111 71.0327 87.7278 72.5117 87.7278C73.9709 87.7278 75.6186 87.4111 77.3358 86.5302C79.3707 85.481 81.5346 84.1448 83.9764 82.4523C85.3859 81.4724 86.6962 80.3935 88.0759 79.2553C88.6119 78.8099 89.1578 78.3645 89.7038 77.929C89.7733 77.9883 89.8427 78.0576 89.9221 78.117C90.1107 78.2853 90.3093 78.4535 90.5078 78.602C91.4508 79.285 92.3838 79.9877 93.3169 80.6806C95.58 82.3731 97.9325 84.1349 100.384 85.6592C102.191 86.7776 104.325 87.5001 106.251 87.6486C111.641 88.0445 116.713 84.224 118.043 78.7604C119.373 73.4254 116.772 67.7738 111.849 65.329C107.988 63.4386 104.126 63.6959 100.374 66.1011C97.7638 67.7837 95.2723 69.5554 92.6419 71.436C91.5798 72.1882 90.5078 72.9504 89.4159 73.7224C89.3861 73.6927 89.3564 73.663 89.3167 73.6333C89.1181 73.4551 88.87 73.2176 88.592 73.0097C87.6292 72.3169 86.6664 71.624 85.7135 70.9213C83.4503 69.2684 81.1077 67.5659 78.7354 65.9922C76.8197 64.7154 74.7352 64.0621 72.6606 64.0918C68.71 64.1413 65.1763 66.0318 62.9727 69.2981ZM64.4021 72.9405C65.6726 69.4465 68.9482 67.0908 72.5514 67.0908C73.8716 67.0908 75.1322 67.5461 75.966 67.9223C80.3633 69.9315 83.9764 72.9702 87.4704 75.9395C83.8573 79.0177 80.5122 81.7297 76.5417 83.739C72.9981 85.4909 69.6431 85.0851 66.8439 82.5512C64.144 80.156 63.1613 76.2958 64.4021 72.9405ZM91.8776 75.9296C95.183 73.0691 98.7564 70.1196 102.965 68.041C106.826 66.1605 111.005 67.1007 113.616 70.4462C116.187 73.7422 116.097 78.4535 113.407 81.6406C111.224 84.2042 107.233 85.9066 103.243 83.927C99.1038 81.8683 95.6396 79.087 91.8776 75.9296Z" fill="url(#paint2_linear_10602_280275)"/>
<path d="M50.5353 66.9716C50.5651 66.9716 50.585 66.9716 50.6147 66.9716C51.4287 66.9716 51.9349 66.4767 52.0441 65.576C52.0937 65.2791 52.0838 64.9723 52.0838 64.6753V56.569C52.5503 56.569 52.9275 56.569 53.3047 56.5987H65.7025C66.7943 56.5987 67.4495 56.0543 67.4495 55.1338C67.4495 54.1836 66.844 53.6689 65.7322 53.6689H50.8232C49.7214 53.6689 49.1357 54.2727 49.1357 55.411V65.4572C49.1754 66.3975 49.6718 66.932 50.5353 66.9716Z" fill="url(#paint3_linear_10602_280275)"/>
</g>
<defs>
<linearGradient id="paint0_linear_10602_280275" x1="87.5002" y1="39.7725" x2="87.5002" y2="163.578" gradientUnits="userSpaceOnUse">
<stop stop-color="#1DE9B6"/>
<stop offset="1" stop-color="#1DE9B6" stop-opacity="0"/>
</linearGradient>
<linearGradient id="paint1_linear_10602_280275" x1="87.5449" y1="47.0967" x2="87.5449" y2="115.353" gradientUnits="userSpaceOnUse">
<stop stop-color="#1DE9B6"/>
<stop offset="1" stop-color="#1DE9B6" stop-opacity="0"/>
</linearGradient>
<linearGradient id="paint2_linear_10602_280275" x1="89.6638" y1="64.0811" x2="89.6638" y2="94.7448" gradientUnits="userSpaceOnUse">
<stop stop-color="#1DE9B6"/>
<stop offset="1" stop-color="#1DE9B6" stop-opacity="0"/>
</linearGradient>
<linearGradient id="paint3_linear_10602_280275" x1="58.2926" y1="53.6689" x2="58.2926" y2="70.9191" gradientUnits="userSpaceOnUse">
<stop stop-color="#1DE9B6"/>
<stop offset="1" stop-color="#1DE9B6" stop-opacity="0"/>
</linearGradient>
<clipPath id="clip0_10602_280275">
<rect width="104.205" height="95.4546" fill="white" transform="translate(35.3979 39.7725)"/>
</clipPath>
</defs>
</svg>
