<svg width="220" height="220" viewBox="0 0 220 220" fill="none" xmlns="http://www.w3.org/2000/svg">
<path d="M143.61 139.152C144.877 138.292 146.053 137.523 147.23 136.754C153.476 132.59 159.722 128.381 166.013 124.308C174.069 119.058 184.478 123.176 186.831 132.454C188.189 137.84 185.926 143.542 180.948 146.846C172.847 152.277 164.7 157.663 156.553 163.094C150.806 166.896 145.103 170.788 139.31 174.499C138.179 175.223 136.73 175.676 135.418 175.676C118.717 175.767 102.062 175.721 85.3618 175.721C84.6829 175.721 84.004 175.721 83.2347 175.721C82.6915 178.663 80.5644 180.202 78.3467 181.741C76.0385 183.325 73.7756 185.045 71.4674 186.674C68.073 189.027 64.1808 188.439 61.7368 185.09C52.2326 172.236 42.864 159.292 33.4955 146.348C31.0063 142.909 31.6852 139.107 35.0796 136.527C37.7046 134.581 40.3748 132.635 42.9998 130.734C46.7563 127.974 49.7886 128.155 53.4093 131.504C54.767 130.101 56.1248 128.698 57.4825 127.34C62.1442 122.633 67.711 119.51 74.1829 118.198C84.1851 116.116 93.4178 118.107 101.564 124.262C103.375 125.62 105.185 126.208 107.448 126.163C114.78 126.073 122.157 126.118 129.489 126.118C137.907 126.118 142.523 130.282 143.338 138.564C143.428 138.7 143.474 138.79 143.61 139.152ZM56.7132 136.301C56.8942 136.663 56.9394 136.844 57.0752 136.98C64.7239 147.616 72.3726 158.251 80.1118 168.842C80.5191 169.385 81.5148 169.657 82.239 169.702C99.4825 169.747 116.726 169.747 133.969 169.702C134.92 169.702 135.961 169.34 136.775 168.842C142.75 164.95 148.633 161.012 154.562 157.075C162.166 152.006 169.814 146.937 177.418 141.868C180.314 139.922 181.31 137.161 180.631 133.767C180.088 130.915 177.734 128.788 174.702 128.2C172.484 127.792 170.629 128.562 168.819 129.784C158.862 136.482 148.95 143.135 138.948 149.743C137.862 150.467 136.368 150.92 135.056 150.965C123.469 151.055 111.883 151.01 100.252 151.01C99.7088 151.01 99.1204 151.01 98.5773 150.92C96.948 150.603 95.9523 149.381 95.9976 147.842C95.9976 146.303 97.0385 145.081 98.6678 144.855C99.2562 144.764 99.8898 144.764 100.523 144.764C110.299 144.764 120.075 144.764 129.896 144.764C130.892 144.764 131.978 144.764 132.929 144.493C135.87 143.678 137.635 140.782 137.228 137.659C136.866 134.762 134.332 132.499 131.254 132.454C123.56 132.409 115.866 132.228 108.172 132.499C104.054 132.635 100.795 131.549 97.4911 129.014C87.8963 121.683 74.6808 121.683 65.1312 128.833C62.0537 131.006 59.4287 133.812 56.7132 136.301ZM76.8532 174.907C76.5816 174.454 76.4459 174.137 76.2648 173.911C67.0774 161.239 57.9351 148.611 48.7477 135.939C48.0235 134.943 47.4352 134.898 46.53 135.577C44.086 137.387 41.6421 139.198 39.1076 140.917C37.9309 141.687 37.8403 142.275 38.7003 143.452C43.4071 149.879 48.0688 156.305 52.7304 162.777C57.0752 168.797 61.4653 174.861 65.8554 180.835C66.1722 181.288 67.2131 181.831 67.4847 181.65C70.6528 179.478 73.7304 177.215 76.8532 174.907Z" fill="url(#paint0_linear_2059_38365)"/>
<path d="M149.685 73.5743C149.685 75.8825 149.73 78.1906 149.685 80.4988C149.639 82.807 148.553 83.8932 146.245 83.9837C145.159 84.029 144.118 83.9837 143.032 83.9837C141.538 83.9837 140.407 84.5721 139.818 85.9751C139.185 87.3781 139.547 88.6001 140.633 89.6863C141.448 90.5462 142.308 91.3609 143.122 92.2208C144.389 93.6238 144.48 95.2984 143.167 96.6109C139.683 100.186 136.152 103.671 132.622 107.156C131.355 108.378 129.68 108.288 128.323 107.111C127.372 106.296 126.512 105.391 125.652 104.531C124.611 103.535 123.48 103.128 122.077 103.716C120.674 104.305 119.995 105.391 119.95 106.885C119.905 108.016 119.95 109.147 119.95 110.279C119.905 112.497 118.773 113.628 116.601 113.673C111.803 113.719 107.006 113.719 102.163 113.673C100.081 113.673 98.9498 112.451 98.8593 110.415C98.8141 109.238 98.8593 108.061 98.8593 106.839C98.8593 105.391 98.1804 104.395 96.8227 103.807C95.4649 103.219 94.2882 103.535 93.2473 104.531C92.4326 105.301 91.6632 106.115 90.8033 106.885C89.1287 108.423 87.4542 108.469 85.8701 106.885C82.521 103.581 79.2171 100.277 75.9132 96.9277C74.2387 95.2079 74.2839 93.6691 75.9585 91.904C76.7279 91.0893 77.5425 90.3199 78.3119 89.46C79.2624 88.4643 79.6697 87.1518 78.9456 86.0656C78.3119 85.1605 77.1805 84.3458 76.1395 84.029C74.9176 83.6669 73.5598 83.9837 72.2473 83.8932C70.2559 83.8027 69.0339 82.6712 69.0339 80.7251C68.9887 75.8825 68.9887 70.9945 69.0339 66.1519C69.0792 64.1152 70.3012 62.9385 72.3831 62.848C73.6051 62.8027 74.8723 62.848 76.0943 62.8027C77.4973 62.7575 78.6288 62.0786 78.9003 60.7661C79.0813 59.7252 78.9003 58.4127 78.3572 57.5075C77.7688 56.4213 76.5921 55.6066 75.7322 54.6562C74.2839 53.0722 74.2839 51.4881 75.7775 49.9946C79.2171 46.5549 82.702 43.1605 86.2322 39.8114C87.8162 38.2726 89.4455 38.3631 90.9843 39.9019C91.7537 40.6713 92.4326 41.486 93.202 42.2554C94.1977 43.2963 95.4197 43.6131 96.7774 43.0248C98.0899 42.4817 98.8141 41.4407 98.8141 39.9924C98.8141 38.8157 98.8141 37.639 98.8141 36.417C98.8593 34.4256 99.9455 33.1131 101.892 33.0679C106.87 32.9774 111.849 32.9774 116.827 33.0679C118.818 33.1131 119.814 34.3351 119.905 36.3718C119.95 37.3674 119.95 38.4084 119.905 39.4041C119.859 41.0334 120.448 42.3006 121.986 42.9342C123.48 43.5226 124.747 43.07 125.833 41.9386C126.603 41.1239 127.417 40.3093 128.277 39.5851C129.726 38.3179 131.31 38.2726 132.667 39.6304C136.198 43.1605 139.683 46.6907 143.122 50.2661C144.48 51.6691 144.389 53.389 142.986 54.792C142.172 55.6519 141.267 56.4213 140.407 57.2359C139.411 58.1864 139.185 59.4084 139.683 60.6756C140.18 61.9428 141.176 62.667 142.534 62.7122C143.846 62.7575 145.159 62.667 146.426 62.7575C148.463 62.848 149.639 64.0247 149.685 66.1066C149.685 68.7316 149.685 71.1756 149.685 73.5743ZM113.659 39.5399C110.762 39.5399 108.002 39.5399 105.15 39.5399C104.924 43.7942 103.204 47.1433 99.1761 48.8179C95.1029 50.4924 91.4822 49.361 88.4499 46.5097C86.368 48.5916 84.3766 50.5829 82.34 52.6196C85.2365 55.6066 86.3227 59.1821 84.6934 63.2101C83.0641 67.3286 79.6244 69.0484 75.3701 69.2295C75.3701 72.1713 75.3701 74.9773 75.3701 77.7381C79.8055 77.9644 83.0641 79.7747 84.6481 83.848C86.2322 87.876 85.1007 91.4514 82.3852 94.3027C84.4218 96.4298 86.4132 98.4212 88.4046 100.458C91.4369 97.6066 95.0576 96.4751 99.0856 98.1497C103.204 99.8242 104.924 103.219 105.06 107.518C108.002 107.518 110.808 107.518 113.659 107.518C113.84 103.173 115.56 99.8695 119.588 98.1949C123.706 96.4751 127.327 97.6518 130.269 100.413C132.351 98.3307 134.342 96.3846 136.424 94.3479C133.573 91.3156 132.441 87.7402 134.116 83.7122C135.79 79.6389 139.185 77.8738 143.484 77.6928C143.484 74.8415 143.484 72.0807 143.484 69.2747C139.185 69.0937 135.836 67.3739 134.116 63.3458C132.396 59.2726 133.527 55.6519 136.424 52.5743C134.342 50.5377 132.351 48.5463 130.269 46.5549C127.146 49.4062 123.48 50.5829 119.316 48.7273C115.514 47.0528 113.84 43.8394 113.659 39.5399Z" fill="url(#paint1_linear_2059_38365)"/>
<path d="M90.0007 73.3913C90.0912 62.3029 98.9619 53.6133 110.095 53.7038C120.912 53.7943 129.783 62.7555 129.692 73.5723C129.602 84.5701 120.505 93.4861 109.552 93.305C98.7356 93.2145 89.9102 84.1628 90.0007 73.3913ZM123.447 73.5723C123.492 66.0594 117.427 59.9042 110.005 59.859C102.447 59.8137 96.2464 65.8784 96.2011 73.4365C96.1559 80.9947 102.266 87.1046 109.824 87.1046C117.382 87.1046 123.401 81.0852 123.447 73.5723Z" fill="url(#paint2_linear_2059_38365)"/>
<defs>
<linearGradient id="paint0_linear_2059_38365" x1="109.61" y1="117.401" x2="109.61" y2="209.076" gradientUnits="userSpaceOnUse">
<stop stop-color="#1DE9B6"/>
<stop offset="1" stop-color="#1DE9B6" stop-opacity="0"/>
</linearGradient>
<linearGradient id="paint1_linear_2059_38365" x1="109.352" y1="33" x2="109.352" y2="137.657" gradientUnits="userSpaceOnUse">
<stop stop-color="#1DE9B6"/>
<stop offset="1" stop-color="#1DE9B6" stop-opacity="0"/>
</linearGradient>
<linearGradient id="paint2_linear_2059_38365" x1="109.847" y1="53.7031" x2="109.847" y2="105.06" gradientUnits="userSpaceOnUse">
<stop stop-color="#1DE9B6"/>
<stop offset="1" stop-color="#1DE9B6" stop-opacity="0"/>
</linearGradient>
</defs>
</svg>
