<svg width="220" height="220" viewBox="0 0 220 220" fill="none" xmlns="http://www.w3.org/2000/svg">
<path d="M131.142 128.564C131.923 128.034 132.648 127.559 133.374 127.085C137.222 124.519 141.071 121.925 144.948 119.415C149.913 116.18 156.328 118.718 157.778 124.436C158.615 127.755 157.22 131.269 154.152 133.305C149.16 136.652 144.139 139.971 139.119 143.318C135.577 145.661 132.063 148.059 128.493 150.346C127.795 150.792 126.903 151.071 126.094 151.071C115.802 151.127 105.539 151.099 95.2468 151.099C94.8284 151.099 94.4101 151.099 93.9359 151.099C93.6012 152.912 92.2904 153.86 90.9237 154.809C89.5013 155.785 88.1068 156.845 86.6843 157.849C84.5925 159.299 82.1939 158.937 80.6878 156.873C74.8307 148.952 69.0573 140.975 63.2839 132.998C61.7499 130.878 62.1683 128.536 64.2601 126.946C65.8778 125.747 67.5233 124.547 69.141 123.376C71.4559 121.674 73.3246 121.786 75.5559 123.85C76.3926 122.985 77.2293 122.121 78.0661 121.284C80.9388 118.383 84.3694 116.459 88.3578 115.65C94.5216 114.367 100.211 115.594 105.232 119.387C106.347 120.224 107.463 120.587 108.858 120.559C113.376 120.503 117.922 120.531 122.44 120.531C127.628 120.531 130.473 123.097 130.975 128.201C131.031 128.285 131.059 128.34 131.142 128.564ZM77.5919 126.806C77.7035 127.03 77.7314 127.141 77.815 127.225C82.5286 133.779 87.2421 140.333 92.0115 146.86C92.2625 147.195 92.8761 147.362 93.3223 147.39C103.949 147.418 114.575 147.418 125.202 147.39C125.787 147.39 126.429 147.167 126.931 146.86C130.612 144.461 134.238 142.035 137.892 139.608C142.578 136.485 147.291 133.361 151.977 130.237C153.762 129.038 154.375 127.336 153.957 125.244C153.622 123.487 152.172 122.177 150.303 121.814C148.937 121.563 147.793 122.037 146.677 122.79C140.541 126.918 134.433 131.018 128.27 135.09C127.6 135.536 126.68 135.815 125.871 135.843C118.731 135.899 111.591 135.871 104.423 135.871C104.088 135.871 103.726 135.871 103.391 135.815C102.387 135.62 101.773 134.867 101.801 133.919C101.801 132.97 102.443 132.217 103.447 132.078C103.809 132.022 104.2 132.022 104.59 132.022C110.615 132.022 116.639 132.022 122.691 132.022C123.305 132.022 123.974 132.022 124.56 131.855C126.373 131.353 127.461 129.568 127.21 127.643C126.987 125.858 125.425 124.464 123.528 124.436C118.787 124.408 114.045 124.296 109.304 124.464C106.766 124.547 104.758 123.878 102.722 122.316C96.8087 117.798 88.6646 117.798 82.7796 122.204C80.883 123.543 79.2654 125.272 77.5919 126.806ZM90.0033 150.597C89.836 150.318 89.7523 150.123 89.6408 149.984C83.9789 142.174 78.345 134.393 72.6831 126.583C72.2369 125.97 71.8743 125.942 71.3165 126.36C69.8104 127.476 68.3043 128.591 66.7424 129.651C66.0172 130.125 65.9614 130.488 66.4914 131.213C69.392 135.174 72.2648 139.134 75.1375 143.123C77.815 146.832 80.5205 150.569 83.2259 154.251C83.4211 154.53 84.0626 154.865 84.2299 154.753C86.1823 153.414 88.0789 152.02 90.0033 150.597Z" fill="url(#paint0_linear_9900_265068)"/>
<path d="M134.886 88.1506C134.886 89.573 134.914 90.9955 134.886 92.4179C134.859 93.8403 134.189 94.5097 132.767 94.5655C132.097 94.5934 131.456 94.5655 130.786 94.5655C129.866 94.5655 129.169 94.9281 128.806 95.7927C128.416 96.6573 128.639 97.4104 129.308 98.0797C129.81 98.6097 130.34 99.1117 130.842 99.6416C131.623 100.506 131.679 101.538 130.87 102.347C128.723 104.55 126.547 106.698 124.372 108.846C123.591 109.599 122.559 109.543 121.722 108.818C121.136 108.316 120.606 107.758 120.076 107.228C119.435 106.614 118.738 106.363 117.873 106.726C117.008 107.088 116.59 107.758 116.562 108.678C116.534 109.376 116.562 110.073 116.562 110.77C116.534 112.137 115.837 112.834 114.498 112.862C111.542 112.89 108.585 112.89 105.601 112.862C104.318 112.862 103.621 112.109 103.565 110.854C103.537 110.129 103.565 109.403 103.565 108.65C103.565 107.758 103.147 107.144 102.31 106.782C101.473 106.419 100.748 106.614 100.107 107.228C99.6045 107.702 99.1304 108.204 98.6005 108.678C97.5685 109.627 96.5365 109.654 95.5604 108.678C93.4964 106.642 91.4604 104.606 89.4244 102.542C88.3924 101.482 88.4203 100.534 89.4523 99.4464C89.9264 98.9443 90.4285 98.4702 90.9026 97.9403C91.4883 97.3267 91.7393 96.5178 91.2931 95.8485C90.9026 95.2907 90.2053 94.7886 89.5638 94.5934C88.8108 94.3703 87.9741 94.5655 87.1652 94.5097C85.938 94.4539 85.185 93.7567 85.185 92.5573C85.1571 89.573 85.1571 86.5608 85.185 83.5765C85.2129 82.3214 85.9659 81.5963 87.2489 81.5405C88.002 81.5126 88.7829 81.5405 89.5359 81.5126C90.4006 81.4847 91.0978 81.0663 91.2652 80.2575C91.3767 79.616 91.2652 78.8072 90.9305 78.2494C90.5679 77.58 89.8427 77.0779 89.3128 76.4922C88.4203 75.5161 88.4203 74.5399 89.3407 73.6195C91.4604 71.4998 93.608 69.408 95.7835 67.3441C96.7597 66.3958 97.7637 66.4515 98.712 67.3998C99.1862 67.874 99.6045 68.376 100.079 68.8502C100.692 69.4916 101.445 69.6869 102.282 69.3243C103.091 68.9896 103.537 68.3481 103.537 67.4556C103.537 66.7305 103.537 66.0053 103.537 65.2522C103.565 64.025 104.234 63.2162 105.434 63.1883C108.502 63.1325 111.57 63.1325 114.638 63.1883C115.865 63.2162 116.478 63.9693 116.534 65.2244C116.562 65.8379 116.562 66.4794 116.534 67.093C116.506 68.0971 116.869 68.878 117.817 69.2685C118.738 69.6311 119.519 69.3522 120.188 68.6549C120.662 68.1529 121.164 67.6509 121.694 67.2046C122.587 66.4237 123.563 66.3958 124.399 67.2325C126.575 69.408 128.723 71.5835 130.842 73.7868C131.679 74.6514 131.623 75.7113 130.759 76.5759C130.257 77.1058 129.699 77.58 129.169 78.082C128.555 78.6677 128.416 79.4208 128.723 80.2017C129.029 80.9827 129.643 81.4289 130.48 81.4568C131.288 81.4847 132.097 81.4289 132.878 81.4847C134.133 81.5405 134.859 82.2656 134.886 83.5486C134.886 85.1663 134.886 86.6724 134.886 88.1506ZM112.685 67.1767C110.9 67.1767 109.199 67.1767 107.442 67.1767C107.302 69.7984 106.243 71.8624 103.76 72.8943C101.25 73.9263 99.0188 73.229 97.1501 71.4719C95.8672 72.7549 94.64 73.9821 93.3849 75.2372C95.1699 77.0779 95.8393 79.2813 94.8352 81.7636C93.8311 84.3017 91.7114 85.3615 89.0897 85.4731C89.0897 87.286 89.0897 89.0152 89.0897 90.7166C91.823 90.856 93.8311 91.9716 94.8073 94.4818C95.7835 96.9641 95.0862 99.1675 93.4128 100.925C94.6679 102.235 95.8951 103.463 97.1222 104.718C98.9909 102.961 101.222 102.263 103.704 103.295C106.243 104.327 107.302 106.419 107.386 109.069C109.199 109.069 110.928 109.069 112.685 109.069C112.797 106.391 113.857 104.355 116.339 103.323C118.877 102.263 121.108 102.989 122.921 104.69C124.204 103.407 125.431 102.208 126.714 100.952C124.957 99.0838 124.26 96.8804 125.292 94.3981C126.324 91.888 128.416 90.8002 131.065 90.6887C131.065 88.9315 131.065 87.2302 131.065 85.501C128.416 85.3894 126.352 84.3296 125.292 81.8473C124.232 79.3371 124.929 77.1058 126.714 75.2093C125.431 73.9542 124.204 72.727 122.921 71.4998C120.997 73.2569 118.738 73.9821 116.172 72.8385C113.829 71.8066 112.797 69.8263 112.685 67.1767Z" fill="url(#paint1_linear_9900_265068)"/>
<path d="M98.1059 88.0382C98.1617 81.205 103.628 75.8499 110.489 75.9057C117.155 75.9615 122.622 81.4839 122.566 88.1498C122.51 94.9272 116.904 100.422 110.155 100.31C103.489 100.254 98.0501 94.6762 98.1059 88.0382ZM118.717 88.1498C118.745 83.5199 115.008 79.7267 110.434 79.6989C105.776 79.671 101.955 83.4083 101.927 88.0661C101.899 92.7239 105.664 96.4891 110.322 96.4891C114.98 96.4891 118.689 92.7796 118.717 88.1498Z" fill="url(#paint2_linear_9900_265068)"/>
<defs>
<linearGradient id="paint0_linear_9900_265068" x1="110.19" y1="115.159" x2="110.19" y2="171.655" gradientUnits="userSpaceOnUse">
<stop stop-color="#1DE9B6"/>
<stop offset="1" stop-color="#1DE9B6" stop-opacity="0"/>
</linearGradient>
<linearGradient id="paint1_linear_9900_265068" x1="110.031" y1="63.1465" x2="110.031" y2="127.642" gradientUnits="userSpaceOnUse">
<stop stop-color="#1DE9B6"/>
<stop offset="1" stop-color="#1DE9B6" stop-opacity="0"/>
</linearGradient>
<linearGradient id="paint2_linear_9900_265068" x1="110.336" y1="75.9053" x2="110.336" y2="107.554" gradientUnits="userSpaceOnUse">
<stop stop-color="#1DE9B6"/>
<stop offset="1" stop-color="#1DE9B6" stop-opacity="0"/>
</linearGradient>
</defs>
</svg>
