<svg width="220" height="220" viewBox="0 0 220 220" fill="none" xmlns="http://www.w3.org/2000/svg">
<path d="M111.014 187.067C108.788 186.339 106.804 185.206 105.185 183.425C103.607 181.725 101.948 180.106 100.167 178.244C97.7787 181.037 95.067 183.02 91.3029 182.494C87.6198 181.968 85.3532 179.701 84.22 176.139C81.4677 176.949 78.7964 176.787 76.4085 175.128C73.98 173.428 72.9277 170.999 72.7658 168.206C66.9376 167.073 64.9139 165.05 64.1044 159.626C63.1735 159.424 62.2426 159.302 61.3117 159.019C55.443 157.076 53.7026 149.791 58.0738 145.258C61.7164 141.494 65.4805 137.811 69.2446 134.127C69.6493 133.723 70.135 133.48 70.4588 133.277C65.4805 128.34 60.7451 123.685 56.0501 119.031C56.1715 118.909 56.2524 118.747 56.3739 118.626C56.1715 118.788 56.0096 118.95 55.8072 119.112C53.824 120.731 51.8003 120.731 49.979 118.909C44.7983 113.729 39.5772 108.548 34.437 103.367C32.4942 101.384 32.5347 99.2389 34.4775 97.2556C43.9888 87.7443 53.5002 78.2329 63.0116 68.762C64.9139 66.8597 67.1399 66.8192 69.0422 68.7215C74.2634 73.8617 79.444 79.0424 84.5842 84.2635C86.6484 86.3681 86.527 87.9871 84.1795 90.9012C88.1459 94.8677 92.1124 98.7936 96.2407 102.922C96.9693 102.193 97.8597 101.344 98.7096 100.453C104.174 94.7462 110.568 93.2082 118.056 95.8795C122.63 97.4985 126.839 96.4866 130.401 93.2082C132.101 91.6298 133.72 89.9703 135.743 87.9061C135.136 87.5419 134.57 87.3395 134.205 86.9752C132.343 85.073 132.343 82.8874 134.246 80.9851C138.617 76.5734 143.029 72.2023 147.44 67.7906C148.29 66.9406 149.14 66.0502 150.031 65.2407C151.771 63.6622 153.957 63.6218 155.616 65.2812C160.311 69.8952 164.925 74.5497 169.58 79.2042C170.672 80.297 170.713 81.6327 169.782 82.5636C168.811 83.535 167.475 83.4945 166.301 82.3207C162.092 78.1519 157.923 73.9831 153.754 69.8143C153.471 69.531 153.188 69.2881 152.945 69.0858C147.885 74.145 142.907 79.1638 138.01 84.0611C147.238 93.2892 156.587 102.598 165.856 111.907C170.794 106.969 175.772 101.991 180.872 96.8509C178.889 94.9081 167.105 83.176 165 81.0309C164.555 80.5857 163.907 79.9786 163.948 79.4524C163.988 78.6429 164.271 77.5097 164.838 77.1454C165.486 76.7406 166.902 76.7406 167.428 77.1859C170.221 79.7357 182.572 92.0345 185.122 94.8272C186.538 96.3652 186.174 98.4294 184.514 100.129C181.317 103.367 178.079 106.565 174.882 109.762C173.06 111.583 171.239 113.405 169.418 115.226C166.949 117.655 165.046 117.655 162.537 115.186C162.335 114.983 162.092 114.781 161.97 114.659C155.656 120.973 149.383 127.247 142.948 133.642C143.676 134.37 144.567 135.301 145.457 136.192C146.793 137.568 148.169 138.903 149.545 140.279C152.459 143.275 153.43 146.755 151.933 150.681C150.476 154.526 147.481 156.388 143.433 156.712C143.19 156.712 142.948 156.752 142.583 156.793C142.502 159.545 141.774 162.054 139.75 164.038C137.727 166.021 135.258 166.871 132.343 166.871C132.384 169.704 131.574 172.173 129.591 174.197C127.608 176.22 125.099 177.03 122.549 176.989C122.063 178.77 121.78 180.47 121.051 182.008C119.756 184.882 117.206 186.298 114.292 187.108C113.24 187.067 112.107 187.067 111.014 187.067ZM103.445 175.128C105.55 177.232 107.452 179.337 109.516 181.239C112.349 183.829 116.761 182.291 117.57 178.568C117.935 176.868 117.328 175.411 116.194 174.116C115.304 173.104 115.263 171.971 116.235 170.999C117.206 170.028 118.299 170.109 119.392 170.918C119.594 171.08 119.797 171.242 119.999 171.404C121.699 172.578 123.48 172.74 125.301 171.768C127.122 170.797 128.053 169.137 127.729 167.114C127.568 165.98 126.839 164.928 126.272 163.916C125.625 162.823 125.544 161.812 126.434 160.881C127.325 159.95 128.418 159.95 129.429 160.719C129.672 160.881 129.875 161.124 130.158 161.285C133.112 163.431 137.079 161.933 137.888 158.371C138.293 156.631 137.686 155.214 136.553 153.919C135.662 152.907 135.581 151.774 136.553 150.803C137.524 149.831 138.617 149.872 139.669 150.681C139.953 150.884 140.195 151.126 140.519 151.329C142.138 152.341 143.879 152.462 145.538 151.572C147.238 150.641 148.047 149.143 148.047 147.201C148.047 145.582 147.238 144.327 146.105 143.234C136.917 134.208 127.649 125.264 118.582 116.076C115.952 113.445 112.187 113.405 109.719 116.157C107.816 118.262 105.752 120.204 103.728 122.147C99.8429 125.871 94.0551 125.79 90.372 122.066C86.7293 118.383 86.7293 112.676 90.372 108.831C91.1815 107.981 92.0719 107.253 92.8409 106.605C88.6721 102.436 84.6652 98.4294 80.4559 94.1796C79.4845 95.2724 78.4727 96.4462 77.3394 97.539C76.4894 98.3889 75.4371 98.4294 74.4253 97.7008C73.4539 96.9318 73.292 95.92 73.8181 94.8677C74.0205 94.4225 74.4253 94.0582 74.7895 93.7344C76.9346 91.5893 79.0798 89.4846 81.063 87.5014C75.9633 82.4017 70.985 77.4234 66.0471 72.4856C56.7786 81.7541 47.4291 91.1036 38.3225 100.21C43.2198 105.108 48.2386 110.126 53.2978 115.186C57.4667 111.017 75.7308 92.8306 80.0615 88.4999C81.4376 87.1642 82.7328 86.9619 83.7447 87.9737C84.797 89.026 84.6756 90.2807 83.2994 91.6568C81.8829 93.0734 66.4924 108.426 65.0758 109.843C63.2544 111.664 61.4331 113.445 59.5308 115.347C64.5091 120.204 69.3255 124.94 74.1824 129.716C79.8083 127.449 83.2486 129.149 86.527 135.949C89.7244 135.463 92.5171 136.273 94.6622 138.822C96.7669 141.372 96.9288 144.286 96.0384 147.362C98.6287 148.212 100.531 149.669 101.624 152.098C102.717 154.526 102.514 156.955 101.502 159.343C108.181 161.65 110.204 169.947 103.445 175.128ZM139.588 129.756C145.74 123.645 152.014 117.371 158.206 111.179C151.731 104.743 145.174 98.1865 138.496 91.5488C137.322 92.763 135.986 94.0987 134.691 95.4343C129.308 100.939 123.034 102.396 115.709 99.846C111.014 98.1865 106.723 99.1174 103.081 102.598C99.9238 105.593 96.8883 108.71 93.8527 111.786C91.7076 113.971 91.6672 116.966 93.6504 118.95C95.6741 120.933 98.5882 120.852 100.814 118.666C102.878 116.643 104.902 114.578 106.926 112.555C110.488 109.074 115.142 108.426 119.432 110.855C121.173 111.867 122.873 112.069 124.815 111.502C127.406 110.693 130.036 109.964 132.667 109.236C133.881 108.912 135.096 108.507 136.31 108.265C137.605 108.062 138.496 108.71 138.819 109.964C139.103 111.138 138.576 112.029 137.484 112.555C136.877 112.838 136.229 112.96 135.622 113.162C132.303 114.133 128.984 115.064 125.746 115.995C130.36 120.569 134.974 125.183 139.588 129.756ZM72.8063 163.714C73.6158 163.269 74.6276 163.026 75.2752 162.419C80.5368 157.238 85.7984 152.057 90.8982 146.755C91.5862 146.027 91.9505 144.691 91.991 143.639C92.0314 142.182 91.06 141.089 89.6435 140.603C88.0245 140.037 86.5674 140.441 85.3532 141.696C80.7797 146.27 76.2061 150.843 71.6325 155.417C70.985 156.064 70.2969 156.671 69.7303 157.359C68.7184 158.614 68.5161 160.031 69.2446 161.447C69.9326 162.783 71.1064 163.512 72.8063 163.714ZM64.4282 154.971C64.9543 154.688 66.0067 154.445 66.6543 153.798C71.3492 149.224 76.0037 144.57 80.6178 139.915C81.6296 138.903 82.0748 137.608 81.7106 136.151C80.982 133.237 77.5013 132.347 75.2347 134.613C71.5111 138.256 67.8685 141.939 64.1853 145.622C63.133 146.674 62.0807 147.686 61.1093 148.779C60.0975 149.953 59.976 151.329 60.5832 152.745C61.2307 154.122 62.445 154.81 64.4282 154.971ZM81.7915 172.092C82.3177 171.768 83.4105 171.363 84.139 170.635C88.2673 166.628 92.3147 162.54 96.4026 158.452C98.2644 156.59 98.3454 154.283 96.6859 152.705C95.067 151.126 92.8814 151.288 91.0196 153.11C88.8745 155.255 86.7293 157.4 84.5842 159.545C82.5605 161.569 80.4963 163.592 78.4726 165.657C77.2989 166.871 77.0156 168.328 77.7036 169.825C78.4322 171.323 79.6464 172.011 81.7915 172.092ZM92.8814 178.001C93.2052 177.88 94.0551 177.758 94.5813 177.313C97.2526 174.763 99.9238 172.213 102.393 169.502C103.647 168.126 103.283 165.98 101.948 164.685C100.652 163.431 98.4668 163.107 97.1311 164.361C94.4599 166.83 91.91 169.421 89.4411 172.052C88.3888 173.185 88.4292 174.642 89.1578 176.018C89.8458 177.354 90.9791 178.001 92.8814 178.001Z" fill="url(#paint0_linear_2059_38390)"/>
<path fillRule="evenodd" clipRule="evenodd" d="M85.2746 69.1509C82.2997 62.5816 82.1339 56.0907 84.4805 49.8392C87.5763 40.7476 95.5237 33.6971 105.267 32.2964C118.664 30.3536 131.13 38.1246 134.934 50.8334C134.957 50.9102 134.98 50.9856 135.003 51.06C135.1 51.3779 135.192 51.6792 135.258 52.0072C135.288 52.1947 135.303 52.375 135.303 52.5476C136.501 57.5069 136.255 62.7784 134.421 67.7492C133.949 69.0538 133.377 70.3089 132.697 71.507C132.562 71.7593 132.429 72.0015 132.268 72.2437C132.254 72.2632 132.24 72.2824 132.225 72.3014C131.458 73.5374 130.569 74.7084 129.551 75.8059C128.057 77.4184 126.497 78.8287 124.873 80.0295C124.673 80.3276 124.391 80.6 124.025 80.8295C120.19 83.348 115.983 84.8649 111.404 85.0366C102.481 85.3772 95.143 82.5834 89.8617 76.4409C87.9473 74.3413 86.421 71.902 85.2746 69.1509ZM87.7738 55.8422C87.6722 56.6964 87.62 57.5643 87.62 58.4426C87.62 69.3705 95.8767 78.9224 106.4 80.1771C117.895 81.5532 128.094 74.7131 130.846 63.7446C130.86 63.6914 130.873 63.6371 130.886 63.582C130.913 63.4743 130.94 63.3639 130.969 63.2533C132.835 54.6399 129.361 45.5401 121.85 40.4762C113.15 34.5806 101.473 35.6681 94.0323 43.1091C90.5104 46.631 88.4035 51.1635 87.7738 55.8422Z" fill="url(#paint1_linear_2059_38390)"/>
<path d="M107.857 62.4511C111.54 58.768 115.102 55.2063 118.664 51.6446C119.028 51.2803 119.352 50.9161 119.756 50.5923C120.728 49.8637 121.78 49.8637 122.671 50.7137C123.601 51.6041 123.682 52.6565 122.954 53.7088C122.752 53.9921 122.468 54.2349 122.225 54.4778C118.137 58.5656 114.09 62.613 110.002 66.6604C108.343 68.3199 107.331 68.2794 105.631 66.62C102.595 63.5844 99.5599 60.5489 96.5244 57.5133C95.2697 56.2586 95.1888 54.9635 96.2411 53.9516C97.2124 53.0207 98.5481 53.1421 99.7218 54.3159C102.393 57.0276 105.024 59.6584 107.857 62.4511Z" fill="url(#paint2_linear_2059_38390)"/>
<defs>
<linearGradient id="paint0_linear_2059_38390" x1="109.5" y1="70.6659" x2="109.5" y2="262.394" gradientUnits="userSpaceOnUse">
<stop stop-color="#1DE9B6"/>
<stop offset="1" stop-color="#1DE9B6" stop-opacity="0"/>
</linearGradient>
<linearGradient id="paint1_linear_2059_38390" x1="126.067" y1="41.7821" x2="67.6411" y2="100.208" gradientUnits="userSpaceOnUse">
<stop stop-color="#1DE9B6"/>
<stop offset="1" stop-color="#1DE9B6" stop-opacity="0"/>
</linearGradient>
<linearGradient id="paint2_linear_2059_38390" x1="109.477" y1="51.0189" x2="109.477" y2="78.7898" gradientUnits="userSpaceOnUse">
<stop stop-color="#1DE9B6"/>
<stop offset="1" stop-color="#1DE9B6" stop-opacity="0"/>
</linearGradient>
</defs>
</svg>
