<svg width="175" height="175" viewBox="0 0 175 175" fill="none" xmlns="http://www.w3.org/2000/svg">
<path d="M88.2082 143.796C86.5813 143.263 85.1319 142.435 83.9487 141.133C82.7951 139.891 81.5823 138.708 80.2808 137.347C78.5355 139.388 76.5537 140.838 73.8027 140.453C71.1109 140.068 69.4544 138.412 68.6262 135.809C66.6147 136.401 64.6624 136.282 62.9172 135.069C61.1424 133.827 60.3733 132.052 60.255 130.011C55.9955 129.183 54.5165 127.704 53.9248 123.74C53.2445 123.592 52.5642 123.504 51.8838 123.297C47.5947 121.877 46.3227 116.552 49.5174 113.239C52.1796 110.488 54.9306 107.797 57.6815 105.105C57.9773 104.809 58.3323 104.631 58.5689 104.484C54.9306 100.875 51.4697 97.4731 48.0384 94.0714C48.1271 93.9826 48.1863 93.8643 48.275 93.7756C48.1271 93.8939 48.0088 94.0122 47.8609 94.1305C46.4115 95.3137 44.9325 95.3137 43.6014 93.9826C39.8151 90.1964 35.9993 86.4101 32.2426 82.6238C30.8227 81.1744 30.8523 79.6067 32.2722 78.1572C39.2235 71.2059 46.1748 64.2546 53.1262 57.3328C54.5164 55.9425 56.1434 55.913 57.5336 57.3032C61.3495 61.0599 65.1357 64.8462 68.8924 68.662C70.401 70.2002 70.3123 71.3834 68.5966 73.5132C71.4955 76.412 74.3943 79.2813 77.4115 82.2985C77.9439 81.766 78.5947 81.1448 79.2159 80.4941C83.2092 76.3233 87.8829 75.1992 93.3552 77.1515C96.6977 78.3347 99.7741 77.5952 102.377 75.1992C103.62 74.0456 104.803 72.8328 106.282 71.3242C105.838 71.058 105.424 70.9101 105.158 70.6439C103.797 69.2536 103.797 67.6563 105.187 66.266C108.382 63.0418 111.606 59.8471 114.83 56.6229C115.452 56.0017 116.073 55.3509 116.724 54.7593C117.995 53.6057 119.593 53.5761 120.806 54.7889C124.237 58.1611 127.609 61.5628 131.011 64.9645C131.809 65.7631 131.839 66.7393 131.159 67.4196C130.449 68.1296 129.473 68.1 128.615 67.2422C125.538 64.1954 122.492 61.1486 119.445 58.1019C119.238 57.8948 119.031 57.7173 118.853 57.5694C115.156 61.267 111.517 64.9349 107.938 68.5141C114.682 75.2584 121.515 82.0618 128.289 88.8652C131.898 85.2565 135.536 81.6181 139.264 77.8614C137.814 76.4416 129.202 67.8672 127.664 66.2995C127.338 65.9741 126.865 65.5304 126.895 65.1459C126.924 64.5542 127.131 63.726 127.545 63.4598C128.019 63.164 129.054 63.164 129.439 63.4894C131.48 65.3529 140.506 74.3414 142.37 76.3824C143.405 77.5065 143.139 79.0151 141.926 80.2574C139.589 82.6238 137.223 84.9607 134.886 87.2975C133.555 88.6286 132.224 89.9597 130.892 91.2908C129.088 93.0656 127.698 93.0656 125.864 91.2612C125.716 91.1133 125.538 90.9654 125.45 90.8767C120.835 95.4912 116.25 100.076 111.547 104.75C112.079 105.282 112.73 105.963 113.381 106.613C114.357 107.619 115.363 108.595 116.369 109.601C118.498 111.79 119.208 114.334 118.114 117.203C117.049 120.013 114.86 121.374 111.902 121.61C111.724 121.61 111.547 121.64 111.281 121.67C111.222 123.681 110.689 125.515 109.21 126.964C107.731 128.414 105.927 129.035 103.797 129.035C103.827 131.106 103.235 132.91 101.786 134.389C100.336 135.868 98.5021 136.46 96.6386 136.43C96.2836 137.732 96.0766 138.974 95.5441 140.098C94.5976 142.198 92.734 143.234 90.6042 143.825C89.8352 143.796 89.0069 143.796 88.2082 143.796ZM82.6768 135.069C84.2149 136.608 85.6052 138.146 87.1138 139.536C89.1844 141.429 92.4086 140.305 93.0002 137.584C93.2664 136.341 92.8228 135.277 91.9945 134.33C91.3437 133.59 91.3142 132.762 92.0241 132.052C92.734 131.342 93.5327 131.402 94.3313 131.993C94.4792 132.111 94.6271 132.23 94.775 132.348C96.0174 133.206 97.3189 133.324 98.65 132.614C99.9812 131.904 100.661 130.692 100.425 129.213C100.307 128.384 99.7741 127.615 99.36 126.876C98.8867 126.077 98.8275 125.338 99.4783 124.657C100.129 123.977 100.928 123.977 101.667 124.539C101.845 124.657 101.993 124.835 102.2 124.953C104.359 126.521 107.258 125.426 107.849 122.823C108.145 121.551 107.702 120.516 106.873 119.569C106.223 118.83 106.163 118.002 106.873 117.292C107.583 116.582 108.382 116.611 109.151 117.203C109.358 117.351 109.536 117.528 109.772 117.676C110.955 118.416 112.227 118.505 113.44 117.854C114.682 117.173 115.274 116.079 115.274 114.659C115.274 113.476 114.682 112.559 113.854 111.76C107.14 105.164 100.366 98.6267 93.7397 91.912C91.817 89.9893 89.0661 89.9597 87.2617 91.9712C85.8714 93.5093 84.3628 94.9292 82.8838 96.349C80.0441 99.0704 75.8142 99.0112 73.1224 96.2899C70.4602 93.5981 70.4602 89.4273 73.1224 86.6172C73.714 85.996 74.3647 85.4635 74.9268 84.9902C71.88 81.9435 68.9516 79.0151 65.8752 75.9091C65.1653 76.7078 64.4258 77.5656 63.5976 78.3643C62.9764 78.9855 62.2073 79.0151 61.4678 78.4826C60.7579 77.9206 60.6395 77.1811 61.0241 76.412C61.172 76.0866 61.4678 75.8204 61.734 75.5838C63.3018 74.016 64.8695 72.4778 66.3189 71.0284C62.5918 67.3013 58.9535 63.663 55.3447 60.0542C48.5708 66.828 41.7378 73.6611 35.0823 80.3166C38.6615 83.8958 42.3294 87.5637 46.0269 91.2612C49.0737 88.2145 62.422 74.9232 65.587 71.7581C66.5928 70.782 67.5393 70.6341 68.2788 71.3736C69.0479 72.1427 68.9592 73.0597 67.9534 74.0654C66.9181 75.1007 55.6701 86.3214 54.6348 87.3567C53.3037 88.6878 51.9726 89.9893 50.5823 91.3796C54.2206 94.9292 57.7407 98.3901 61.2903 101.881C65.4019 100.224 67.9163 101.466 70.3123 106.436C72.6491 106.081 74.6901 106.672 76.2579 108.536C77.796 110.4 77.9144 112.529 77.2636 114.777C79.1567 115.399 80.547 116.464 81.3457 118.238C82.1443 120.013 81.9964 121.788 81.2569 123.533C86.1376 125.219 87.6166 131.283 82.6768 135.069ZM109.092 101.91C113.588 97.4435 118.173 92.8586 122.699 88.3328C117.966 83.6296 113.174 78.8376 108.293 73.9864C107.435 74.8738 106.459 75.85 105.513 76.8261C101.578 80.849 96.9936 81.9139 91.6395 80.0504C88.2082 78.8376 85.0728 79.5179 82.4105 82.0618C80.1033 84.2507 77.8848 86.5284 75.6663 88.7765C74.0985 90.3738 74.0689 92.5628 75.5184 94.0122C76.9974 95.4616 79.1271 95.4025 80.7541 93.8051C82.2626 92.3261 83.7416 90.8175 85.2206 89.3385C87.8237 86.7946 91.2254 86.3214 94.3609 88.0962C95.6329 88.8357 96.8752 88.9836 98.2951 88.5694C100.188 87.9778 102.111 87.4454 104.034 86.913C104.921 86.6763 105.808 86.3805 106.696 86.203C107.642 86.0551 108.293 86.5284 108.53 87.4454C108.737 88.3032 108.352 88.954 107.554 89.3385C107.11 89.5456 106.637 89.6343 106.193 89.7822C103.767 90.4922 101.342 91.1725 98.9754 91.8528C102.348 95.1954 105.72 98.5675 109.092 101.91ZM60.2846 126.728C60.8762 126.402 61.6157 126.225 62.089 125.781C65.9344 121.995 69.7798 118.209 73.5069 114.334C74.0098 113.801 74.276 112.825 74.3056 112.056C74.3352 110.991 73.6252 110.193 72.5899 109.838C71.4067 109.423 70.3418 109.719 69.4544 110.636C66.1119 113.979 62.7693 117.321 59.4268 120.664C58.9535 121.137 58.4506 121.581 58.0365 122.084C57.297 123.001 57.1491 124.036 57.6815 125.071C58.1844 126.047 59.0422 126.58 60.2846 126.728ZM54.1615 120.339C54.546 120.131 55.3151 119.954 55.7884 119.481C59.2197 116.138 62.6214 112.736 65.9936 109.335C66.7331 108.595 67.0584 107.649 66.7922 106.584C66.2598 104.454 63.7159 103.803 62.0594 105.46C59.338 108.122 56.6758 110.814 53.984 113.506C53.2149 114.275 52.4458 115.014 51.7359 115.813C50.9964 116.671 50.9077 117.676 51.3514 118.712C51.8247 119.717 52.7121 120.22 54.1615 120.339ZM66.8514 132.851C67.2359 132.614 68.0346 132.318 68.567 131.786C71.5842 128.858 74.5422 125.87 77.5298 122.882C78.8905 121.522 78.9497 119.836 77.7369 118.682C76.5537 117.528 74.9563 117.647 73.5956 118.978C72.0279 120.546 70.4602 122.113 68.8924 123.681C67.4134 125.16 65.9048 126.639 64.4258 128.148C63.568 129.035 63.3609 130.1 63.8638 131.194C64.3962 132.289 65.2836 132.792 66.8514 132.851ZM74.9563 137.17C75.193 137.081 75.8142 136.992 76.1987 136.667C78.151 134.803 80.1033 132.94 81.9077 130.958C82.8247 129.952 82.5584 128.384 81.5823 127.438C80.6357 126.521 79.0384 126.284 78.0623 127.201C76.11 129.006 74.2464 130.899 72.442 132.821C71.6729 133.65 71.7025 134.714 72.235 135.72C72.7378 136.696 73.5661 137.17 74.9563 137.17Z" fill="url(#paint0_linear_10602_280216)"/>
<path fill-rule="evenodd" clip-rule="evenodd" d="M69.3972 57.6173C67.223 52.8162 67.1019 48.0724 68.8169 43.5035C71.0793 36.859 76.8877 31.7062 84.0083 30.6824C93.7994 29.2626 102.91 34.942 105.691 44.2301C105.707 44.2862 105.724 44.3413 105.741 44.3957C105.812 44.628 105.879 44.8483 105.927 45.088C105.949 45.225 105.96 45.3567 105.96 45.4829C106.836 49.1076 106.656 52.9604 105.315 56.5935C104.97 57.5467 104.552 58.4637 104.056 59.3392C103.957 59.5236 103.86 59.7006 103.742 59.8777C103.732 59.8919 103.721 59.906 103.711 59.9199C103.15 60.8232 102.501 61.679 101.756 62.4811C100.665 63.6596 99.5242 64.6903 98.3373 65.5679C98.1914 65.7858 97.9852 65.9849 97.718 66.1526C94.9152 67.9932 91.8405 69.1018 88.4939 69.2273C81.9724 69.4762 76.6094 67.4344 72.7497 62.9451C71.3505 61.4107 70.2351 59.6279 69.3972 57.6173ZM71.2237 47.8908C71.1495 48.5151 71.1114 49.1493 71.1114 49.7912C71.1114 57.7778 77.1457 64.7588 84.8366 65.6757C93.2373 66.6815 100.692 61.6824 102.703 53.6662C102.713 53.6273 102.722 53.5876 102.732 53.5473C102.752 53.4686 102.771 53.3879 102.793 53.307C104.157 47.012 101.617 40.3615 96.1284 36.6606C89.7698 32.3518 81.236 33.1466 75.7977 38.5849C73.2238 41.1588 71.684 44.4714 71.2237 47.8908Z" fill="url(#paint1_linear_10602_280216)"/>
<path d="M85.9011 52.7209C88.5929 50.0291 91.1959 47.4261 93.799 44.823C94.0652 44.5568 94.3019 44.2906 94.5977 44.0539C95.3076 43.5215 96.0767 43.5215 96.7274 44.1427C97.4078 44.7934 97.4669 45.5625 96.9345 46.3316C96.7866 46.5387 96.5795 46.7161 96.4021 46.8936C93.4145 49.8812 90.4564 52.8392 87.4688 55.7972C86.2561 57.01 85.5166 56.9804 84.2742 55.7677C82.0557 53.5491 79.8372 51.3306 77.6187 49.1121C76.7017 48.1951 76.6425 47.2486 77.4116 46.5091C78.1215 45.8287 79.0977 45.9175 79.9555 46.7753C81.9078 48.7572 83.8305 50.6799 85.9011 52.7209Z" fill="url(#paint2_linear_10602_280216)"/>
<defs>
<linearGradient id="paint0_linear_10602_280216" x1="87.102" y1="53.8867" x2="87.102" y2="170.514" gradientUnits="userSpaceOnUse">
<stop stop-color="#1DE9B6"/>
<stop offset="1" stop-color="#1DE9B6" stop-opacity="0"/>
</linearGradient>
<linearGradient id="paint1_linear_10602_280216" x1="99.2098" y1="37.615" x2="56.5099" y2="80.3149" gradientUnits="userSpaceOnUse">
<stop stop-color="#1DE9B6"/>
<stop offset="1" stop-color="#1DE9B6" stop-opacity="0"/>
</linearGradient>
<linearGradient id="paint2_linear_10602_280216" x1="87.0851" y1="44.3657" x2="87.0851" y2="64.6619" gradientUnits="userSpaceOnUse">
<stop stop-color="#1DE9B6"/>
<stop offset="1" stop-color="#1DE9B6" stop-opacity="0"/>
</linearGradient>
</defs>
</svg>
