<svg width="176" height="176" viewBox="0 0 176 176" fill="none" xmlns="http://www.w3.org/2000/svg">
<path d="M88 176C136.601 176 176 136.601 176 88C176 39.3989 136.601 0 88 0C39.3989 0 0 39.3989 0 88C0 136.601 39.3989 176 88 176Z" fill="url(#paint0_radial_9900_252606)" fill-opacity="0.5"/>
<path d="M88 145.941C120 145.941 145.941 120 145.941 88C145.941 55.9998 120 30.0586 88 30.0586C55.9998 30.0586 30.0586 55.9998 30.0586 88C30.0586 120 55.9998 145.941 88 145.941Z" fill="url(#paint1_linear_9900_252606)"/>
<path d="M88.0002 146.024C120.023 146.024 145.982 120.065 145.982 88.0422C145.982 56.0198 120.023 30.0605 88.0002 30.0605C55.9778 30.0605 30.0186 56.0198 30.0186 88.0422C30.0186 120.065 55.9778 146.024 88.0002 146.024Z" fill="url(#paint2_radial_9900_252606)"/>
<path d="M162.059 88.0043C162.059 88.1314 162.164 88.2368 162.291 88.2368C162.418 88.2368 162.524 88.1314 162.524 88.0043C162.524 87.8773 162.418 87.7719 162.291 87.7719C162.164 87.7719 162.059 87.8773 162.059 88.0043ZM162.059 87.8494C162.059 87.9764 162.164 88.0818 162.291 88.0818C162.418 88.0818 162.524 87.9764 162.524 87.8494C162.524 87.7223 162.418 87.6169 162.291 87.6169C162.161 87.6169 162.059 87.7223 162.059 87.8494ZM161.29 77.2926C161.309 77.4197 161.426 77.5065 161.554 77.4879C161.681 77.4693 161.767 77.3515 161.749 77.2244C161.73 77.0973 161.612 77.0105 161.485 77.0291C161.361 77.0477 161.275 77.1655 161.29 77.2926ZM159.031 66.9528C159.068 67.0767 159.195 67.1449 159.319 67.1108C159.443 67.0767 159.511 66.9466 159.477 66.8226C159.44 66.6986 159.313 66.6304 159.189 66.6645C159.065 66.7017 158.993 66.8288 159.031 66.9528ZM155.311 57.0407C155.364 57.1585 155.503 57.208 155.618 57.1554C155.736 57.1027 155.785 56.9632 155.733 56.8485C155.68 56.7307 155.541 56.6811 155.426 56.7338C155.308 56.7865 155.255 56.926 155.311 57.0407ZM150.216 47.7702C150.284 47.8787 150.43 47.9097 150.538 47.8384C150.647 47.7702 150.678 47.6245 150.606 47.516C150.538 47.4075 150.392 47.3766 150.284 47.4478C150.175 47.5191 150.144 47.6617 150.216 47.7702ZM143.852 39.3117C143.936 39.4078 144.085 39.4202 144.181 39.3334C144.277 39.2498 144.29 39.101 144.203 39.0049C144.119 38.9088 143.97 38.8964 143.874 38.9832C143.778 39.07 143.769 39.2157 143.852 39.3117ZM136.355 31.8389C136.451 31.9226 136.6 31.9133 136.683 31.8141C136.767 31.7181 136.758 31.5693 136.659 31.4856C136.563 31.4019 136.414 31.4112 136.33 31.5104C136.246 31.6096 136.256 31.7552 136.355 31.8389ZM127.872 25.5005C127.98 25.5687 128.123 25.5377 128.194 25.4292C128.262 25.3208 128.231 25.1782 128.123 25.1069C128.014 25.0387 127.872 25.0697 127.8 25.1782C127.732 25.2898 127.763 25.4323 127.872 25.5005ZM118.573 20.4329C118.691 20.4856 118.827 20.436 118.88 20.3182C118.933 20.2004 118.883 20.0641 118.765 20.0114C118.648 19.9587 118.511 20.0083 118.459 20.1261C118.403 20.2438 118.455 20.3802 118.573 20.4329ZM108.643 16.7476C108.767 16.7848 108.894 16.7136 108.931 16.5896C108.968 16.4656 108.897 16.3385 108.773 16.3013C108.649 16.2641 108.522 16.3354 108.484 16.4594C108.447 16.5834 108.519 16.7104 108.643 16.7476ZM98.2934 14.5253C98.4205 14.5439 98.5383 14.454 98.5569 14.327C98.5755 14.1999 98.4856 14.0821 98.3585 14.0635C98.2315 14.0449 98.1137 14.1348 98.0951 14.2619C98.0765 14.3889 98.1664 14.5067 98.2934 14.5253ZM87.7336 13.797C87.8607 13.797 87.966 13.6916 87.966 13.5645C87.966 13.4374 87.8607 13.332 87.7336 13.332C87.6065 13.332 87.5011 13.4374 87.5011 13.5645C87.5011 13.6916 87.6034 13.797 87.7336 13.797ZM77.1737 14.5563C77.3008 14.5377 77.3876 14.4199 77.3721 14.2929C77.3535 14.1658 77.2357 14.079 77.1086 14.0945C76.9815 14.1131 76.8947 14.2309 76.9102 14.358C76.9288 14.4881 77.0466 14.5749 77.1737 14.5563ZM66.8339 16.8127C66.9579 16.7755 67.026 16.6485 66.992 16.5245C66.9548 16.4005 66.8277 16.3323 66.7037 16.3664C66.5797 16.4036 66.5115 16.5307 66.5456 16.6547C66.5797 16.7786 66.7099 16.8499 66.8339 16.8127ZM56.9218 20.529C57.0396 20.4763 57.0892 20.3368 57.0365 20.2221C56.9838 20.1044 56.8443 20.0548 56.7296 20.1075C56.6118 20.1601 56.5623 20.2996 56.615 20.4143C56.6645 20.529 56.804 20.5817 56.9218 20.529ZM47.6451 25.6183C47.7536 25.5501 47.7846 25.4044 47.7133 25.296C47.6451 25.1875 47.4994 25.1565 47.3909 25.2278C47.2825 25.296 47.2515 25.4416 47.3228 25.5501C47.394 25.6555 47.5366 25.6865 47.6451 25.6183ZM39.1867 31.9784C39.2827 31.8947 39.2951 31.746 39.2084 31.6499C39.1247 31.5538 38.9759 31.5414 38.8798 31.6282C38.7837 31.7119 38.7713 31.8606 38.8581 31.9567C38.9449 32.0528 39.0875 32.0621 39.1867 31.9784ZM31.7076 39.4729C31.7913 39.3768 31.782 39.2281 31.6829 39.1444C31.5868 39.0607 31.438 39.07 31.3543 39.1692C31.2706 39.2652 31.2799 39.414 31.3791 39.4977C31.4783 39.5783 31.624 39.569 31.7076 39.4729ZM25.3661 47.95C25.4343 47.8415 25.4033 47.6989 25.2949 47.6276C25.1864 47.5594 25.0438 47.5904 24.9725 47.6989C24.9043 47.8074 24.9353 47.9499 25.0438 48.0212C25.1523 48.0894 25.298 48.0584 25.3661 47.95ZM20.2923 57.2483C20.345 57.1306 20.2954 56.9942 20.1776 56.9415C20.0599 56.8888 19.9235 56.9384 19.8708 57.0562C19.8181 57.174 19.8677 57.3103 19.9855 57.363C20.1033 57.4157 20.2396 57.363 20.2923 57.2483ZM16.6009 67.1759C16.6381 67.052 16.5668 66.9249 16.4428 66.8877C16.3188 66.8505 16.1917 66.9218 16.1545 67.0458C16.1173 67.1697 16.1886 67.2968 16.3126 67.334C16.4366 67.3681 16.5668 67.2999 16.6009 67.1759ZM14.3723 77.5219C14.3909 77.3949 14.3011 77.2771 14.174 77.2585C14.0469 77.2399 13.9291 77.3298 13.9105 77.4569C13.8919 77.5839 13.9818 77.7017 14.1089 77.7203C14.2391 77.7389 14.3568 77.649 14.3723 77.5219ZM13.6378 88.0818C13.6378 87.9547 13.5324 87.8494 13.4053 87.8494C13.2782 87.8494 13.1729 87.9547 13.1729 88.0818C13.1729 88.2089 13.2782 88.3143 13.4053 88.3143C13.5355 88.3143 13.6378 88.212 13.6378 88.0818ZM14.394 98.6417C14.3754 98.5146 14.2577 98.4278 14.1306 98.4433C14.0035 98.4619 13.9167 98.5797 13.9322 98.7068C13.9508 98.8339 14.0686 98.9207 14.1957 98.9052C14.3258 98.8866 14.4126 98.7688 14.394 98.6417ZM16.6443 108.985C16.6071 108.861 16.48 108.792 16.356 108.827C16.232 108.864 16.1638 108.991 16.1979 109.115C16.2351 109.239 16.3622 109.307 16.4862 109.273C16.6102 109.236 16.6814 109.109 16.6443 108.985ZM20.3543 118.9C20.3016 118.782 20.1621 118.732 20.0475 118.785C19.9297 118.838 19.8801 118.977 19.9328 119.092C19.9855 119.21 20.1249 119.259 20.2396 119.207C20.3543 119.154 20.407 119.014 20.3543 118.9ZM25.4405 128.176C25.3723 128.068 25.2267 128.037 25.1182 128.108C25.0097 128.176 24.9787 128.322 25.05 128.431C25.1182 128.539 25.2639 128.57 25.3723 128.499C25.4777 128.428 25.5087 128.285 25.4405 128.176ZM31.7944 136.641C31.7107 136.545 31.562 136.533 31.4659 136.619C31.3698 136.703 31.3574 136.849 31.4442 136.948C31.5279 137.044 31.6736 137.056 31.7727 136.97C31.8688 136.883 31.8781 136.737 31.7944 136.641ZM39.2858 144.12C39.1898 144.036 39.041 144.046 38.9573 144.145C38.8736 144.241 38.8829 144.39 38.9821 144.473C39.0782 144.557 39.2269 144.548 39.3106 144.449C39.3943 144.353 39.3819 144.204 39.2858 144.12ZM47.7629 150.468C47.6544 150.4 47.5118 150.431 47.4405 150.539C47.3723 150.648 47.4033 150.79 47.5118 150.861C47.6203 150.93 47.7629 150.899 47.8342 150.793C47.8993 150.682 47.8683 150.536 47.7629 150.468ZM57.0551 155.545C56.9373 155.492 56.8009 155.542 56.7482 155.659C56.6955 155.777 56.7451 155.914 56.8629 155.966C56.9807 156.019 57.1171 155.969 57.1698 155.852C57.2224 155.734 57.1728 155.597 57.0551 155.545ZM66.9827 159.242C66.8587 159.205 66.7316 159.277 66.6944 159.401C66.6572 159.524 66.7285 159.652 66.8525 159.689C66.9765 159.726 67.1035 159.655 67.1407 159.531C67.1748 159.407 67.1035 159.277 66.9827 159.242ZM77.3287 161.474C77.2016 161.455 77.0838 161.545 77.0652 161.672C77.0466 161.799 77.1365 161.917 77.2636 161.936C77.3907 161.954 77.5084 161.865 77.527 161.737C77.5425 161.61 77.4558 161.493 77.3287 161.474ZM87.8886 162.215C87.7615 162.215 87.6561 162.32 87.6561 162.447C87.6561 162.574 87.7615 162.68 87.8886 162.68C88.0156 162.68 88.121 162.574 88.121 162.447C88.121 162.32 88.0156 162.215 87.8886 162.215ZM98.4453 161.465C98.3183 161.483 98.2315 161.601 98.247 161.728C98.2656 161.855 98.3833 161.942 98.5104 161.927C98.6375 161.908 98.7243 161.79 98.7088 161.663C98.6933 161.536 98.5724 161.446 98.4453 161.465ZM108.791 159.221C108.667 159.258 108.599 159.385 108.633 159.509C108.67 159.633 108.798 159.701 108.922 159.667C109.046 159.63 109.114 159.503 109.08 159.379C109.042 159.255 108.915 159.184 108.791 159.221ZM118.707 155.517C118.589 155.57 118.539 155.709 118.592 155.824C118.645 155.942 118.784 155.991 118.899 155.938C119.016 155.886 119.066 155.746 119.013 155.632C118.961 155.514 118.824 155.461 118.707 155.517ZM127.986 150.434C127.878 150.502 127.847 150.648 127.918 150.756C127.986 150.865 128.132 150.896 128.24 150.824C128.349 150.756 128.38 150.61 128.309 150.502C128.237 150.397 128.095 150.366 127.986 150.434ZM136.454 144.083C136.358 144.167 136.346 144.312 136.429 144.411C136.513 144.508 136.659 144.52 136.758 144.436C136.854 144.353 136.866 144.207 136.783 144.108C136.699 144.012 136.55 143.999 136.454 144.083ZM143.939 136.598C143.856 136.694 143.865 136.843 143.964 136.926C144.06 137.01 144.209 137.001 144.293 136.902C144.376 136.805 144.367 136.657 144.268 136.573C144.169 136.489 144.023 136.502 143.939 136.598ZM150.29 128.124C150.222 128.232 150.253 128.375 150.358 128.446C150.467 128.514 150.609 128.483 150.681 128.378C150.749 128.269 150.718 128.127 150.612 128.056C150.504 127.987 150.358 128.018 150.29 128.124ZM155.373 118.835C155.321 118.952 155.37 119.089 155.488 119.142C155.606 119.194 155.742 119.145 155.795 119.027C155.847 118.909 155.798 118.773 155.68 118.72C155.562 118.667 155.426 118.717 155.373 118.835ZM159.074 108.91C159.037 109.034 159.108 109.161 159.232 109.198C159.356 109.236 159.483 109.164 159.52 109.04C159.557 108.916 159.486 108.789 159.362 108.752C159.238 108.715 159.111 108.786 159.074 108.91ZM161.315 98.5642C161.296 98.6913 161.386 98.8091 161.513 98.8277C161.64 98.8463 161.758 98.7564 161.777 98.6293C161.795 98.5022 161.705 98.3844 161.578 98.3658C161.448 98.3504 161.33 98.4371 161.315 98.5642Z" fill="white"/>
<path d="M174.143 88.0045C174.143 88.1315 174.249 88.2369 174.376 88.2369C174.503 88.2369 174.608 88.1315 174.608 88.0045C174.608 87.8774 174.503 87.772 174.376 87.772C174.249 87.772 174.143 87.8774 174.143 88.0045ZM174.143 87.8526C174.143 87.9797 174.249 88.0851 174.376 88.0851C174.503 88.0851 174.608 87.9797 174.608 87.8526C174.608 87.7255 174.503 87.6201 174.376 87.6201C174.245 87.6201 174.143 87.7255 174.143 87.8526ZM172.891 73.2727C172.913 73.3998 173.034 73.4835 173.161 73.4618C173.288 73.4401 173.371 73.3192 173.35 73.1921C173.328 73.065 173.207 72.9814 173.08 73.0031C172.953 73.0248 172.869 73.1456 172.891 73.2727ZM169.187 59.1144C169.231 59.2352 169.364 59.2972 169.485 59.2569C169.606 59.2135 169.668 59.0803 169.627 58.9594C169.584 58.8385 169.451 58.7765 169.33 58.8168C169.209 58.8633 169.144 58.9935 169.187 59.1144ZM163.134 45.7991C163.196 45.9106 163.338 45.9509 163.45 45.8889C163.562 45.827 163.602 45.6844 163.54 45.5728C163.478 45.4612 163.335 45.4209 163.224 45.4829C163.112 45.5449 163.072 45.6875 163.134 45.7991ZM154.914 33.6956C154.995 33.7948 155.14 33.8103 155.24 33.7297C155.339 33.6491 155.354 33.5035 155.274 33.4043C155.193 33.3051 155.047 33.2896 154.948 33.3702C154.849 33.4508 154.834 33.5965 154.914 33.6956ZM144.77 23.1451C144.866 23.2287 145.011 23.2194 145.098 23.1234C145.182 23.0273 145.172 22.8816 145.076 22.7948C144.98 22.7111 144.835 22.7204 144.748 22.8165C144.661 22.9126 144.673 23.0614 144.77 23.1451ZM132.998 14.4511C133.106 14.5192 133.249 14.4852 133.317 14.3736C133.385 14.2651 133.351 14.1225 133.24 14.0543C133.131 13.9861 132.989 14.0202 132.92 14.1318C132.852 14.2403 132.886 14.3829 132.998 14.4511ZM119.921 7.8678C120.039 7.91429 120.175 7.8585 120.222 7.73762C120.268 7.61984 120.213 7.48347 120.092 7.43698C119.974 7.39049 119.837 7.44627 119.791 7.56715C119.745 7.68493 119.8 7.82131 119.921 7.8678ZM105.915 3.60603C106.039 3.63393 106.163 3.55335 106.191 3.42627C106.218 3.30229 106.138 3.17831 106.011 3.15041C105.887 3.12252 105.763 3.20311 105.735 3.33019C105.707 3.45416 105.788 3.57814 105.915 3.60603ZM91.3937 1.78355C91.5208 1.78975 91.6293 1.68746 91.6354 1.56038C91.6416 1.43331 91.5394 1.32483 91.4123 1.31863C91.2852 1.31243 91.1767 1.41471 91.1705 1.54179C91.1674 1.66887 91.2666 1.77735 91.3937 1.78355ZM76.7735 2.41584C76.9006 2.40034 76.9905 2.28256 76.975 2.15549C76.9595 2.02841 76.8417 1.93853 76.7146 1.95402C76.5875 1.96952 76.4977 2.0873 76.5132 2.21438C76.5318 2.34146 76.6464 2.43134 76.7735 2.41584ZM62.4726 5.5029C62.5966 5.46571 62.6648 5.33553 62.6276 5.21155C62.5904 5.08758 62.4602 5.01939 62.3362 5.05658C62.2122 5.09377 62.144 5.22395 62.1812 5.34793C62.2184 5.47191 62.3486 5.5401 62.4726 5.5029ZM48.9 10.9797C49.0147 10.9208 49.0612 10.7813 49.0023 10.6666C48.9434 10.5519 48.8039 10.5054 48.6893 10.5643C48.5746 10.6232 48.5281 10.7627 48.587 10.8774C48.6459 10.9921 48.7853 11.0386 48.9 10.9797ZM36.4588 18.6756C36.5611 18.5981 36.5828 18.4525 36.5053 18.3502C36.4278 18.2479 36.2821 18.2262 36.1798 18.3037C36.0775 18.3812 36.0558 18.5269 36.1333 18.6291C36.2077 18.7314 36.3534 18.7531 36.4588 18.6756ZM25.4867 28.3615C25.5766 28.2685 25.5735 28.1228 25.4805 28.0329C25.3875 27.943 25.2418 27.9461 25.1519 28.0391C25.062 28.1321 25.0651 28.2778 25.1581 28.3677C25.2511 28.4575 25.3968 28.4513 25.4867 28.3615ZM16.2968 39.752C16.368 39.6466 16.3402 39.5009 16.2348 39.4296C16.1294 39.3584 15.9837 39.3863 15.9124 39.4916C15.8411 39.597 15.869 39.7427 15.9744 39.814C16.0798 39.8853 16.2224 39.8574 16.2968 39.752ZM9.15869 52.5342C9.21138 52.4164 9.15869 52.28 9.04401 52.2273C8.92623 52.1747 8.78985 52.2273 8.73716 52.342C8.68447 52.4598 8.73716 52.5962 8.85184 52.6489C8.96962 52.7016 9.106 52.6489 9.15869 52.5342ZM4.29564 66.3423C4.32663 66.2183 4.25224 66.0913 4.12826 66.0603C4.00428 66.0293 3.8772 66.1037 3.84621 66.2276C3.81521 66.3516 3.8896 66.4787 4.01358 66.5097C4.13756 66.5407 4.26464 66.4663 4.29564 66.3423ZM1.85326 80.7703C1.86255 80.6432 1.76957 80.5286 1.63939 80.5193C1.51231 80.51 1.39763 80.6029 1.38834 80.7331C1.37904 80.8602 1.47202 80.9749 1.6022 80.9842C1.72928 80.9935 1.84396 80.8974 1.85326 80.7703ZM1.86565 95.4029C1.85325 95.2758 1.74167 95.1797 1.61459 95.1921C1.48751 95.2045 1.39143 95.3161 1.40383 95.4432C1.41623 95.5703 1.52781 95.6663 1.65488 95.6539C1.78196 95.6416 1.87804 95.53 1.86565 95.4029ZM4.33592 109.825C4.30493 109.701 4.17785 109.626 4.05387 109.657C3.92989 109.688 3.85551 109.815 3.8865 109.939C3.9175 110.063 4.04458 110.138 4.16856 110.107C4.29563 110.076 4.37001 109.949 4.33592 109.825ZM9.22378 123.62C9.17109 123.503 9.03161 123.453 8.91693 123.506C8.79915 123.558 8.74956 123.698 8.80225 123.813C8.85494 123.93 8.99442 123.98 9.1091 123.927C9.22378 123.875 9.27647 123.735 9.22378 123.62ZM16.3773 136.381C16.3061 136.276 16.1604 136.248 16.055 136.319C15.9496 136.39 15.9217 136.536 15.993 136.641C16.0643 136.747 16.21 136.775 16.3154 136.703C16.4207 136.632 16.4486 136.486 16.3773 136.381ZM25.5859 147.756C25.496 147.663 25.3503 147.66 25.2573 147.75C25.1643 147.84 25.1612 147.985 25.2511 148.078C25.341 148.171 25.4867 148.174 25.5797 148.084C25.6695 147.995 25.6726 147.846 25.5859 147.756ZM36.5735 157.423C36.4712 157.346 36.3255 157.367 36.248 157.473C36.1705 157.575 36.1922 157.721 36.2976 157.798C36.3999 157.876 36.5456 157.854 36.623 157.749C36.7005 157.643 36.6788 157.498 36.5735 157.423ZM49.0364 165.101C48.9217 165.042 48.7823 165.088 48.7234 165.203C48.6645 165.318 48.711 165.457 48.8256 165.516C48.9403 165.575 49.0798 165.528 49.1387 165.414C49.1976 165.299 49.1511 165.159 49.0364 165.101ZM62.6214 170.556C62.4974 170.518 62.3672 170.587 62.33 170.711C62.2928 170.835 62.361 170.965 62.485 171.002C62.609 171.039 62.7391 170.971 62.7763 170.847C62.8135 170.723 62.7453 170.593 62.6214 170.556ZM76.9316 173.615C76.8045 173.599 76.6867 173.689 76.6712 173.816C76.6557 173.943 76.7456 174.061 76.8727 174.077C76.9998 174.092 77.1176 174.002 77.1331 173.875C77.1486 173.748 77.0587 173.633 76.9316 173.615ZM91.5549 174.222C91.4278 174.228 91.3255 174.337 91.3317 174.464C91.3379 174.591 91.4464 174.69 91.5735 174.687C91.7005 174.681 91.8028 174.573 91.7966 174.445C91.7904 174.315 91.6819 174.216 91.5549 174.222ZM106.07 172.372C105.946 172.4 105.865 172.524 105.89 172.648C105.918 172.772 106.042 172.852 106.166 172.828C106.29 172.8 106.37 172.676 106.346 172.552C106.318 172.425 106.194 172.347 106.07 172.372ZM120.061 168.088C119.943 168.135 119.884 168.271 119.93 168.392C119.977 168.51 120.113 168.569 120.234 168.522C120.352 168.476 120.411 168.34 120.364 168.219C120.315 168.098 120.178 168.039 120.061 168.088ZM133.116 161.49C133.007 161.558 132.973 161.7 133.041 161.809C133.109 161.917 133.252 161.952 133.36 161.883C133.469 161.815 133.503 161.673 133.435 161.564C133.367 161.456 133.224 161.421 133.116 161.49ZM144.872 152.777C144.776 152.861 144.766 153.01 144.85 153.106C144.934 153.202 145.083 153.211 145.179 153.127C145.275 153.044 145.284 152.895 145.2 152.799C145.117 152.7 144.968 152.69 144.872 152.777ZM154.998 142.208C154.917 142.307 154.933 142.453 155.032 142.533C155.131 142.614 155.277 142.598 155.357 142.499C155.438 142.4 155.422 142.254 155.323 142.174C155.224 142.093 155.078 142.109 154.998 142.208ZM163.205 130.089C163.143 130.201 163.183 130.343 163.295 130.405C163.407 130.467 163.549 130.427 163.611 130.315C163.673 130.204 163.633 130.061 163.521 129.999C163.41 129.934 163.267 129.974 163.205 130.089ZM169.24 116.749C169.196 116.87 169.262 117.003 169.382 117.046C169.503 117.09 169.637 117.025 169.68 116.904C169.723 116.783 169.658 116.65 169.537 116.606C169.417 116.566 169.283 116.628 169.24 116.749ZM172.916 102.587C172.894 102.715 172.978 102.835 173.105 102.854C173.232 102.876 173.353 102.789 173.371 102.665C173.393 102.538 173.306 102.417 173.182 102.398C173.058 102.377 172.938 102.46 172.916 102.587Z" fill="white"/>
<path d="M153.65 87.9996H153.612C153.612 106.119 146.27 122.521 134.396 134.396C122.522 146.27 106.119 153.612 87.9998 153.612C69.8803 153.612 53.478 146.27 41.6039 134.396C29.7299 122.521 22.3872 106.119 22.3872 87.9996C22.3872 69.8802 29.7299 53.4778 41.6039 41.6037C53.478 29.7297 69.8803 22.3871 87.9998 22.3871C106.119 22.3871 122.522 29.7297 134.396 41.6037C146.27 53.4778 153.612 69.8802 153.612 87.9996H153.65H153.687C153.687 51.7204 124.276 22.3096 87.9967 22.3096C51.7175 22.3096 22.3066 51.7204 22.3066 87.9996C22.3066 124.279 51.7175 153.69 87.9967 153.69C124.276 153.69 153.687 124.279 153.687 87.9996H153.65Z" fill="white"/>
<path d="M147.832 88.0004H147.454C147.454 104.421 140.799 119.28 130.041 130.042C119.279 140.803 104.417 147.454 87.9996 147.454C71.5786 147.454 56.7198 140.8 45.9585 130.042C35.1971 119.28 28.5457 104.418 28.5457 88.0004C28.5457 71.5795 35.2002 56.7206 45.9585 45.9593C56.7198 35.1979 71.5817 28.5465 87.9996 28.5465C104.421 28.5465 119.279 35.201 130.041 45.9593C140.802 56.7206 147.454 71.5826 147.454 88.0004H147.832H148.21C148.21 54.7463 121.254 27.7902 87.9965 27.7871C54.7423 27.7871 27.7863 54.7432 27.7832 88.0004C27.7832 121.255 54.7423 148.211 87.9965 148.214C121.251 148.214 148.207 121.258 148.21 88.0004H147.832Z" fill="white"/>
<path d="M95.6249 71.9419H80.9771L71.001 61.9199H95.6249C103.891 61.9199 110.582 68.6418 110.582 76.9461C110.582 84.5065 105.036 90.7685 97.7925 91.8234C103.501 90.9849 107.836 86.8868 107.836 81.9638C107.836 76.4321 102.37 71.9419 95.6249 71.9419ZM95.6249 71.9419C98.3849 71.9419 100.606 74.187 100.606 76.9596C100.606 79.7322 98.3714 81.9638 95.6249 81.9638H88.7319C80.479 81.9638 73.7744 88.6856 73.7744 96.9899V101.994C73.7744 96.4624 80.479 91.9722 88.7588 91.9722C89.0684 91.9722 89.3915 91.9857 89.7012 91.9857H95.6519C95.6923 91.9857 95.7192 91.9857 95.7596 91.9857C95.8404 91.9857 95.9077 91.9857 95.9884 91.9857C96.0288 91.9857 96.0692 91.9857 96.1096 91.9857C96.1365 91.9857 96.1769 91.9857 96.2039 91.9857C96.2173 91.9857 96.2308 91.9857 96.2308 91.9857C96.3116 91.9857 96.3923 91.9722 96.4866 91.9722C96.5539 91.9722 96.6212 91.9587 96.702 91.9587C96.7558 91.9587 96.7962 91.9451 96.8501 91.9451C96.9174 91.9451 96.9847 91.9316 97.0386 91.9316C97.1597 91.9181 97.2809 91.9046 97.4021 91.891H97.4155C97.5367 91.8775 97.6713 91.864 97.7925 91.8369H97.806C103.514 90.9984 107.849 86.9004 107.849 81.9773C107.836 76.4186 102.37 71.9419 95.6249 71.9419ZM73.7744 101.981L83.7505 112.003V96.9764C83.7505 94.2173 85.9854 91.9722 88.7319 91.9722H89.6877C89.3781 91.9587 89.0684 91.9587 88.7453 91.9587C80.479 91.9587 73.7744 96.4354 73.7744 101.981Z" stroke="#1DE9B6" stroke-width="3" stroke-miterlimit="10"/>
<path d="M72.9542 77.8192C58.6458 91.2508 52.695 107.893 59.6926 116.519C67.3088 125.908 87.3799 122.247 104.523 108.341C121.666 94.4349 129.388 75.5506 121.772 66.1615C120.423 64.4988 118.684 63.2454 116.64 62.3856" stroke="#1DE9B6" stroke-width="3.2"/>
<path d="M123.105 61.9189H116.441V68.5829" stroke="#1DE9B6" stroke-width="2.8"/>
<defs>
<radialGradient id="paint0_radial_9900_252606" cx="0" cy="0" r="1" gradientUnits="userSpaceOnUse" gradientTransform="translate(87.9987 88.001) scale(87.9985)">
<stop offset="0.614" stop-color="#82FFE4"/>
<stop offset="0.6931" stop-color="#6CCEB9"/>
<stop offset="0.869792" stop-color="#334F49"/>
<stop offset="1" stop-color="#1C1C1C" stop-opacity="0.1"/>
</radialGradient>
<linearGradient id="paint1_linear_9900_252606" x1="30.056" y1="88.001" x2="145.941" y2="88.001" gradientUnits="userSpaceOnUse">
<stop stop-color="#051A23"/>
<stop offset="1" stop-color="#07181F"/>
</linearGradient>
<radialGradient id="paint2_radial_9900_252606" cx="0" cy="0" r="1" gradientUnits="userSpaceOnUse" gradientTransform="translate(87.5503 88.3632) scale(57.4399 57.4399)">
<stop/>
<stop offset="0.4604" stop-color="#010202"/>
<stop offset="0.6262" stop-color="#040908"/>
<stop offset="0.7444" stop-color="#081414"/>
<stop offset="0.84" stop-color="#0F2525"/>
<stop offset="0.9209" stop-color="#183B3A"/>
<stop offset="0.9922" stop-color="#235654"/>
<stop offset="1" stop-color="#245957"/>
</radialGradient>
</defs>
</svg>
