<svg width="176" height="176" viewBox="0 0 176 176" fill="none" xmlns="http://www.w3.org/2000/svg">
<path opacity="0.5" fillRule="evenodd" clipRule="evenodd" d="M87.9617 168.502L87.9617 165.075C80.1724 164.812 73.1947 164.431 66.0337 161.95L63.3388 168.502C42.4057 162.054 23.4476 146.704 13.2756 126.889L20.5937 122.555C16.1819 114.283 11.8486 101.217 11.8486 89.2935L9.08638 89.1622C8.99473 83.0955 9.71478 73.8379 11.613 68.9399C11.6523 68.848 4.9687 66.6531 4.9687 66.6531C9.85177 45.6166 25.3458 24.4639 46.2003 13.1446L49.0412 18.1214C59.0691 10.8335 74.6871 5.84357 92.9103 6.85468L92.8186 9.49409C98.8799 9.12641 107.219 11.0042 113.058 13.0002L116.226 6.7365C137.486 14.484 153.916 28.9285 164.062 48.5731L159.349 51.5671C163.63 61.0348 168.343 74.1005 167.636 84.6713L170.254 85.0652C168.709 129.646 138.088 169.421 87.9617 168.502ZM14.5193 87.2056C14.5193 46.4064 47.6011 13.3285 88.4068 13.3285C129.213 13.3285 162.294 46.4064 162.294 87.2056C162.294 128.005 129.213 161.083 88.4068 161.083C47.6011 161.083 14.5193 128.005 14.5193 87.2056Z" fill="#26266E"/>
<path opacity="0.5" d="M176 88.0196C176 112.313 166.155 134.308 150.223 150.236C134.304 166.151 112.298 176 88 176C63.7025 176 41.709 166.151 25.7768 150.236C9.85777 134.321 -4.9082e-06 112.326 -3.84574e-06 88.0196C-2.78386e-06 63.7265 9.84468 41.7315 25.7769 25.8031C41.6959 9.88784 63.7025 0.0393017 88 0.0393028C112.298 0.0393039 134.291 9.88785 150.223 25.8031C166.155 41.7183 176 63.7134 176 88.0196ZM147.474 147.465C162.686 132.246 172.099 111.236 172.099 88.0065C172.099 64.7902 162.686 43.7668 147.474 28.5475C132.249 13.3414 111.224 3.93933 88 3.93933C64.776 3.93933 43.7513 13.3545 28.5391 28.5607C13.327 43.7799 3.9143 64.7902 3.9143 88.0196C3.9143 111.236 13.327 132.259 28.5391 147.479C43.7512 162.698 64.7759 172.1 88 172.1C111.224 172.1 132.249 162.685 147.474 147.465Z" fill="#26266E"/>
<path opacity="0.5" d="M160.264 138.247C157.305 142.462 153.993 146.402 150.367 150.026C134.448 165.941 112.441 176 88.1435 176C63.846 176 41.7085 166.151 25.7894 150.236C11.4282 136.12 2.00247 116.37 0.287502 95.0581L4.17562 94.5723C5.8775 114.952 14.9105 133.835 28.5517 147.479C43.7638 162.698 64.9325 172.1 88.1566 172.1C111.381 172.1 132.405 162.488 147.617 147.269C151.034 143.854 154.15 140.151 156.938 136.186L160.264 138.247ZM58.0727 5.25255C67.4461 1.85152 77.5526 -3.61542e-06 88.0911 -3.15476e-06C112.389 -2.09268e-06 134.304 9.8748 150.223 25.8032C153.666 29.2436 156.415 32.3951 159.243 36.3739L155.944 38.475C153.299 34.8113 150.707 31.8174 147.526 28.6264C132.314 13.4071 111.315 3.91315 88.0911 3.91315C78.0632 3.91315 68.4541 5.67275 59.5389 8.88994L58.0727 5.25255Z" fill="#26266E"/>
<path opacity="0.5" fillRule="evenodd" clipRule="evenodd" d="M73.2535 23.0516C58.7589 26.453 46.1229 34.4247 37.1443 45.3783L40.9966 48.3002C52.958 33.7654 72.1143 24.7448 92.9944 25.9735C109.438 26.9475 124.996 35.4287 135.279 46.1275L138.981 42.771C130.647 33.6455 119.48 26.8426 106.74 23.5161L107.639 20.2645C103.037 18.9908 98.2256 18.1817 93.2492 17.897C86.0393 17.4774 79.0244 18.1667 72.4141 19.815L73.2535 23.0516Z" fill="#26266E"/>
<path opacity="0.5" fillRule="evenodd" clipRule="evenodd" d="M72.8581 152.012C58.2729 148.593 45.558 140.582 36.5234 129.575L40.4902 126.789C52.5263 141.395 71.7118 150.31 92.7071 149.075C109.253 148.096 124.909 139.573 135.256 128.822L138.981 132.195C130.595 141.365 119.359 148.202 106.538 151.545L107.443 154.812C102.813 156.092 97.9711 156.905 92.9635 157.192C85.7087 157.613 78.6499 156.921 71.9983 155.264L72.8581 152.012Z" fill="#26266E"/>
<path d="M95.1048 62.2796H75.7577L62.5811 49.0424H95.1048C106.023 49.0424 114.861 57.9208 114.861 68.8892C114.861 78.8751 107.535 87.1461 97.9677 88.5395C105.507 87.4319 111.233 82.0192 111.233 75.5167C111.233 68.2104 104.014 62.2796 95.1048 62.2796ZM95.1048 62.2796C98.7502 62.2796 101.684 65.245 101.684 68.9071C101.684 72.5692 98.7324 75.5167 95.1048 75.5167H86.0003C75.0998 75.5167 66.2442 84.3951 66.2442 95.3635V101.973C66.2442 94.6668 75.0998 88.736 86.0359 88.736C86.4449 88.736 86.8716 88.7538 87.2806 88.7538H95.1404C95.1937 88.7538 95.2293 88.7538 95.2826 88.7538C95.3893 88.7538 95.4782 88.7538 95.5849 88.7538C95.6383 88.7538 95.6916 88.7538 95.745 88.7538C95.7805 88.7538 95.8339 88.7538 95.8694 88.7538C95.8872 88.7538 95.905 88.7538 95.905 88.7538C96.0117 88.7538 96.1184 88.736 96.2429 88.736C96.3318 88.736 96.4207 88.7181 96.5274 88.7181C96.5985 88.7181 96.6519 88.7003 96.723 88.7003C96.8119 88.7003 96.9008 88.6824 96.972 88.6824C97.132 88.6645 97.292 88.6467 97.4521 88.6288H97.4699C97.6299 88.6109 97.8077 88.5931 97.9678 88.5573H97.9855C105.525 87.4498 111.251 82.037 111.251 75.5346C111.233 68.1925 104.014 62.2796 95.1048 62.2796ZM66.2442 101.955L79.4209 115.192V95.3456C79.4209 91.7014 82.3727 88.736 86.0003 88.736H87.2628C86.8538 88.7181 86.4449 88.7181 86.0181 88.7181C75.0998 88.7181 66.2442 94.6311 66.2442 101.955Z" stroke="#1DE9B6" stroke-width="3" stroke-miterlimit="10"/>
<path d="M65.16 70.0438C46.2612 87.7845 38.4014 109.765 47.6438 121.159C57.7034 133.56 84.2137 128.724 106.856 110.357C129.499 91.99 139.699 67.0473 129.64 54.6461C127.858 52.4499 125.561 50.7944 122.861 49.6588" stroke="#1DE9B6" stroke-width="3.2"/>
<path d="M131.401 49.0424H122.6V57.8443" stroke="#1DE9B6" stroke-width="2.8"/>
</svg>
