<svg width="176" height="176" viewBox="0 0 176 176" fill="none" xmlns="http://www.w3.org/2000/svg">
<path opacity="0.5" fillRule="evenodd" clipRule="evenodd" d="M87.9617 168.502L87.9617 165.075C80.1724 164.812 73.1947 164.431 66.0337 161.95L63.3388 168.502C42.4057 162.054 23.4476 146.704 13.2756 126.889L20.5937 122.555C16.1819 114.283 11.8486 101.217 11.8486 89.2935L9.08638 89.1622C8.99473 83.0955 9.71478 73.8379 11.613 68.9399C11.6523 68.848 4.9687 66.6531 4.9687 66.6531C9.85177 45.6166 25.3458 24.4639 46.2003 13.1446L49.0412 18.1214C59.0691 10.8335 74.6871 5.84357 92.9103 6.85468L92.8186 9.49409C98.8799 9.12641 107.219 11.0042 113.058 13.0002L116.226 6.7365C137.486 14.484 153.916 28.9285 164.062 48.5731L159.349 51.5671C163.63 61.0348 168.343 74.1005 167.636 84.6713L170.254 85.0652C168.709 129.646 138.088 169.421 87.9617 168.502ZM14.5193 87.2056C14.5193 46.4064 47.6011 13.3285 88.4068 13.3285C129.213 13.3285 162.294 46.4064 162.294 87.2056C162.294 128.005 129.213 161.083 88.4068 161.083C47.6011 161.083 14.5193 128.005 14.5193 87.2056Z" fill="#26266E"/>
<path opacity="0.5" d="M176 88.0195C176 112.313 166.155 134.308 150.223 150.236C134.304 166.151 112.298 176 88 176C63.7025 176 41.709 166.151 25.7768 150.236C9.85777 134.321 -4.92531e-06 112.326 -3.85915e-06 88.0195C-2.79356e-06 63.7265 9.84468 41.7314 25.7769 25.803C41.6959 9.88778 63.7025 0.0392407 88 0.0392418C112.298 0.0392428 134.291 9.88779 150.223 25.803C166.155 41.7183 176 63.7133 176 88.0195ZM147.474 147.465C162.686 132.246 172.099 111.236 172.099 88.0064C172.099 64.7901 162.686 43.7668 147.474 28.5475C132.249 13.3413 111.224 3.93927 88 3.93927C64.776 3.93926 43.7513 13.3545 28.5391 28.5606C13.327 43.7799 3.9143 64.7901 3.9143 88.0195C3.9143 111.236 13.327 132.259 28.5391 147.478C43.7512 162.698 64.7759 172.1 88 172.1C111.224 172.1 132.249 162.685 147.474 147.465Z" fill="#26266E"/>
<path opacity="0.5" d="M160.264 138.247C157.305 142.462 153.993 146.402 150.367 150.026C134.448 165.941 112.441 176 88.1435 176C63.846 176 41.7085 166.151 25.7894 150.236C11.4282 136.12 2.00247 116.37 0.287502 95.0581L4.17562 94.5723C5.8775 114.952 14.9105 133.835 28.5517 147.479C43.7638 162.698 64.9325 172.1 88.1566 172.1C111.381 172.1 132.405 162.488 147.617 147.269C151.034 143.854 154.15 140.151 156.938 136.186L160.264 138.247ZM58.0727 5.25255C67.4461 1.85152 77.5526 -3.60286e-06 88.0911 -3.1438e-06C112.389 -2.08541e-06 134.304 9.8748 150.223 25.8032C153.666 29.2436 156.415 32.3951 159.243 36.3739L155.944 38.475C153.299 34.8113 150.707 31.8174 147.526 28.6264C132.314 13.4071 111.315 3.91315 88.0911 3.91315C78.0632 3.91315 68.4541 5.67275 59.5389 8.88994L58.0727 5.25255Z" fill="#26266E"/>
<path opacity="0.5" fillRule="evenodd" clipRule="evenodd" d="M73.2525 23.0516C58.7579 26.453 46.1219 34.4247 37.1434 45.3783L40.9956 48.3002C52.9571 33.7654 72.1133 24.7448 92.9934 25.9735C109.437 26.9475 124.995 35.4287 135.278 46.1275L138.98 42.771C130.646 33.6455 119.479 26.8426 106.739 23.5161L107.638 20.2645C103.036 18.9908 98.2246 18.1817 93.2482 17.897C86.0384 17.4774 79.0234 18.1667 72.4131 19.815L73.2525 23.0516Z" fill="#26266E"/>
<path opacity="0.5" fillRule="evenodd" clipRule="evenodd" d="M72.8571 152.012C58.2719 148.593 45.5571 140.582 36.5224 129.575L40.4892 126.789C52.5254 141.395 71.7108 150.31 92.7062 149.075C109.252 148.096 124.908 139.573 135.255 128.822L138.98 132.195C130.594 141.365 119.358 148.202 106.537 151.545L107.442 154.812C102.812 156.092 97.9701 156.905 92.9626 157.192C85.7077 157.613 78.6489 156.921 71.9974 155.264L72.8571 152.012Z" fill="#26266E"/>
<path d="M83.9049 48L116.322 68.2178M83.9049 48L68.0264 58.4918L68 58.5182V77.5302L83.8961 68.1738M83.9049 48L83.8961 68.1738M83.9049 48V68.1738H83.8961M83.8961 68.1738L100.276 78.1639M100.276 78.1639L116.322 68.2178M100.276 78.1639L68 98.1705V117.772M116.322 68.2178L116.322 87.9516L85.1108 107.21M68 117.772L85.1108 107.21M68 117.772L85.1108 128V107.21" stroke="#1DE9B6" stroke-width="3" stroke-miterlimit="10"/>
</svg>
