<svg width="176" height="176" viewBox="0 0 176 176" fill="none" xmlns="http://www.w3.org/2000/svg">
<path opacity="0.5" fillRule="evenodd" clipRule="evenodd" d="M87.9608 168.502L87.9608 165.075C80.1714 164.812 73.1937 164.431 66.0328 161.949L63.3378 168.502C42.4047 162.054 23.4466 146.704 13.2747 126.889L20.5927 122.555C16.1809 114.283 11.8477 101.217 11.8477 89.2935L9.08542 89.1622C8.99377 83.0955 9.71382 73.8379 11.6121 68.9399C11.6513 68.848 4.96774 66.6531 4.96774 66.6531C9.85081 45.6166 25.3449 24.4639 46.1994 13.1446L49.0402 18.1214C59.0682 10.8335 74.6861 5.84357 92.9093 6.85468L92.8176 9.49409C98.8789 9.12641 107.218 11.0042 113.057 13.0002L116.225 6.7365C137.485 14.484 153.915 28.9285 164.061 48.5731L159.348 51.5671C163.629 61.0348 168.342 74.1005 167.635 84.6713L170.253 85.0652C168.708 129.646 138.088 169.421 87.9608 168.502ZM14.5183 87.2056C14.5183 46.4064 47.6002 13.3285 88.4059 13.3285C129.212 13.3285 162.293 46.4064 162.293 87.2056C162.293 128.005 129.212 161.083 88.4059 161.083C47.6002 161.083 14.5183 128.005 14.5183 87.2056Z" fill="#26266E"/>
<path opacity="0.5" d="M176 88.0195C176 112.313 166.155 134.308 150.223 150.236C134.304 166.151 112.298 176 88 176C63.7025 176 41.709 166.151 25.7768 150.236C9.85777 134.321 -4.92278e-06 112.326 -3.85716e-06 88.0195C-2.79213e-06 63.7265 9.84468 41.7314 25.7769 25.803C41.6959 9.88778 63.7025 0.0392407 88 0.0392418C112.298 0.0392428 134.291 9.88779 150.223 25.803C166.155 41.7183 176 63.7133 176 88.0195ZM147.474 147.465C162.686 132.246 172.099 111.236 172.099 88.0064C172.099 64.7901 162.686 43.7668 147.474 28.5475C132.249 13.3413 111.224 3.93927 88 3.93926C64.776 3.93926 43.7513 13.3545 28.5391 28.5606C13.327 43.7799 3.9143 64.7901 3.9143 88.0195C3.9143 111.236 13.327 132.259 28.5391 147.478C43.7512 162.698 64.7759 172.1 88 172.1C111.224 172.1 132.249 162.685 147.474 147.465Z" fill="#26266E"/>
<path opacity="0.5" d="M160.264 138.247C157.305 142.462 153.993 146.402 150.367 150.026C134.448 165.941 112.441 176 88.1435 176C63.846 176 41.7085 166.151 25.7894 150.236C11.4282 136.12 2.00247 116.37 0.287502 95.0581L4.17562 94.5723C5.8775 114.952 14.9105 133.835 28.5517 147.479C43.7638 162.698 64.9325 172.1 88.1566 172.1C111.381 172.1 132.405 162.488 147.617 147.269C151.034 143.854 154.15 140.151 156.938 136.186L160.264 138.247ZM58.0727 5.25255C67.4461 1.85152 77.5526 -3.61542e-06 88.0911 -3.15476e-06C112.389 -2.09268e-06 134.304 9.8748 150.223 25.8032C153.666 29.2436 156.415 32.3951 159.243 36.3739L155.944 38.475C153.299 34.8113 150.707 31.8174 147.526 28.6264C132.314 13.4071 111.315 3.91315 88.0911 3.91315C78.0632 3.91315 68.4541 5.67275 59.5389 8.88994L58.0727 5.25255Z" fill="#26266E"/>
<path opacity="0.5" fillRule="evenodd" clipRule="evenodd" d="M73.2535 23.0516C58.7589 26.453 46.1229 34.4247 37.1443 45.3783L40.9966 48.3002C52.958 33.7654 72.1143 24.7448 92.9944 25.9735C109.438 26.9475 124.996 35.4287 135.279 46.1275L138.981 42.771C130.647 33.6455 119.48 26.8426 106.74 23.5161L107.639 20.2645C103.037 18.9908 98.2256 18.1817 93.2492 17.897C86.0393 17.4774 79.0244 18.1667 72.4141 19.815L73.2535 23.0516Z" fill="#26266E"/>
<path opacity="0.5" fillRule="evenodd" clipRule="evenodd" d="M72.8581 152.011C58.2729 148.593 45.558 140.582 36.5234 129.575L40.4902 126.789C52.5263 141.395 71.7118 150.31 92.7071 149.075C109.253 148.096 124.909 139.573 135.256 128.822L138.981 132.195C130.595 141.365 119.359 148.202 106.538 151.545L107.443 154.812C102.813 156.092 97.9711 156.905 92.9635 157.192C85.7087 157.613 78.6499 156.92 71.9983 155.264L72.8581 152.011Z" fill="#26266E"/>
<path d="M114.832 72.6895L95.0171 66.0846V55.3011M114.832 72.6895H114.865L130.4 77.0703M114.832 72.6895L114.832 72.8243L97.3086 78.6541L95.0508 79.4292V90.2464L130.4 77.0703M130.4 77.0703V68.3761L95.0171 55.3011M95.0171 55.3011L67.0137 114.071H62.8014M95.0171 55.3011L82.5824 55.2M82.5824 55.2H78.4038L50.4004 114.037L62.8014 114.071M82.5824 55.2L54.6127 114.037L62.8014 114.071" stroke="#1DE9B6" stroke-width="3" stroke-miterlimit="10"/>
</svg>
