<svg width="176" height="176" viewBox="0 0 176 176" fill="none" xmlns="http://www.w3.org/2000/svg">
<path opacity="0.5" fillRule="evenodd" clipRule="evenodd" d="M87.9608 168.501L87.9608 165.075C80.1714 164.812 73.1937 164.431 66.0328 161.949L63.3378 168.501C42.4048 162.054 23.4466 146.704 13.2747 126.889L20.5927 122.555C16.1809 114.282 11.8477 101.217 11.8477 89.2935L9.08543 89.1621C8.99379 83.0954 9.71383 73.8378 11.6121 68.9398C11.6513 68.8479 4.96776 66.653 4.96776 66.653C9.85083 45.6166 25.3449 24.4638 46.1994 13.1446L49.0402 18.1214C59.0682 10.8334 74.6861 5.8435 92.9093 6.85462L92.8177 9.49403C98.8789 9.12635 107.218 11.0041 113.057 13.0001L116.225 6.73644C137.485 14.484 153.915 28.9285 164.061 48.573L159.348 51.567C163.629 61.0347 168.342 74.1005 167.635 84.6712L170.253 85.0652C168.708 129.646 138.088 169.421 87.9608 168.501ZM14.5183 87.2056C14.5183 46.4064 47.6002 13.3284 88.4059 13.3284C129.212 13.3284 162.293 46.4064 162.293 87.2056C162.293 128.005 129.212 161.083 88.4059 161.083C47.6002 161.083 14.5183 128.005 14.5183 87.2056Z" fill="#26266E"/>
<path opacity="0.5" d="M176 88.0197C176 112.313 166.155 134.308 150.223 150.236C134.304 166.151 112.298 176 88 176C63.7025 176 41.709 166.151 25.7769 150.236C9.85779 134.321 8.03077e-06 112.326 9.09707e-06 88.0196C1.01628e-05 63.7266 9.8447 41.7315 25.7769 25.8031C41.6959 9.8879 63.7025 0.0393628 88 0.0393638C112.298 0.0393649 134.291 9.88791 150.223 25.8031C166.155 41.7184 176 63.7135 176 88.0197ZM147.474 147.465C162.686 132.246 172.099 111.236 172.099 88.0065C172.099 64.7902 162.686 43.7669 147.474 28.5476C132.249 13.3415 111.224 3.93939 88 3.93939C64.776 3.93939 43.7513 13.3546 28.5391 28.5607C13.327 43.78 3.91432 64.7902 3.91432 88.0196C3.91432 111.236 13.327 132.259 28.5391 147.479C43.7513 162.698 64.776 172.1 88 172.1C111.224 172.1 132.249 162.685 147.474 147.465Z" fill="#26266E"/>
<path opacity="0.5" d="M160.264 138.247C157.305 142.462 153.993 146.402 150.367 150.026C134.448 165.941 112.441 176 88.1435 176C63.846 176 41.7085 166.151 25.7894 150.236C11.4282 136.12 2.00249 116.37 0.287521 95.0581L4.17564 94.5722C5.87752 114.952 14.9105 133.835 28.5517 147.479C43.7638 162.698 64.9325 172.1 88.1566 172.1C111.381 172.1 132.405 162.488 147.617 147.269C151.034 143.854 154.15 140.151 156.938 136.186L160.264 138.247ZM58.0727 5.25255C67.4461 1.85152 77.5526 -3.60238e-06 88.0911 -3.14339e-06C112.389 -2.08514e-06 134.304 9.8748 150.223 25.8032C153.666 29.2436 156.415 32.3951 159.243 36.3739L155.944 38.475C153.299 34.8113 150.707 31.8174 147.526 28.6264C132.314 13.4071 111.315 3.91315 88.0911 3.91315C78.0632 3.91315 68.4541 5.67275 59.5389 8.88994L58.0727 5.25255Z" fill="#26266E"/>
<path opacity="0.5" fillRule="evenodd" clipRule="evenodd" d="M73.2535 23.0515C58.7589 26.453 46.1229 34.4246 37.1444 45.3782L40.9966 48.3002C52.958 33.7653 72.1143 24.7447 92.9944 25.9735C109.438 26.9474 124.996 35.4286 135.279 46.1274L138.981 42.771C130.647 33.6455 119.48 26.8426 106.74 23.516L107.639 20.2644C103.037 18.9907 98.2256 18.1816 93.2492 17.8969C86.0393 17.4773 79.0244 18.1666 72.4141 19.8149L73.2535 23.0515Z" fill="#26266E"/>
<path opacity="0.5" fillRule="evenodd" clipRule="evenodd" d="M72.8581 152.011C58.2729 148.593 45.558 140.582 36.5234 129.575L40.4902 126.789C52.5263 141.395 71.7118 150.31 92.7071 149.075C109.253 148.096 124.909 139.573 135.256 128.822L138.981 132.195C130.595 141.365 119.359 148.202 106.538 151.545L107.443 154.812C102.813 156.092 97.9711 156.905 92.9636 157.192C85.7087 157.613 78.6499 156.92 71.9983 155.264L72.8581 152.011Z" fill="#26266E"/>
<path d="M98.7141 65.6086H75.2088L59.2002 49.6H98.7141C111.979 49.6 122.716 60.3372 122.716 73.6021C122.716 85.6788 113.815 95.6815 102.192 97.3666C111.353 96.0272 118.309 89.4811 118.309 81.6173C118.309 72.7812 109.538 65.6086 98.7141 65.6086ZM98.7141 65.6086C103.143 65.6086 106.708 69.1949 106.708 73.6237C106.708 78.0526 103.121 81.6173 98.7141 81.6173H87.6528C74.4095 81.6173 63.6507 92.3545 63.6507 105.619V113.613C63.6507 104.777 74.4095 97.6043 87.696 97.6043C88.1929 97.6043 88.7114 97.6259 89.2083 97.6259H98.7573C98.8221 97.6259 98.8654 97.6259 98.9302 97.6259C99.0598 97.6259 99.1678 97.6259 99.2974 97.6259C99.3622 97.6259 99.4271 97.6259 99.4919 97.6259C99.5351 97.6259 99.5999 97.6259 99.6431 97.6259C99.6647 97.6259 99.6863 97.6259 99.6863 97.6259C99.8159 97.6259 99.9456 97.6043 100.097 97.6043C100.205 97.6043 100.313 97.5827 100.442 97.5827C100.529 97.5827 100.594 97.5611 100.68 97.5611C100.788 97.5611 100.896 97.5395 100.983 97.5395C101.177 97.5179 101.371 97.4963 101.566 97.4747H101.587C101.782 97.4531 101.998 97.4315 102.192 97.3883H102.214C111.374 96.0488 118.331 89.5028 118.331 81.6389C118.309 72.7596 109.538 65.6086 98.7141 65.6086ZM63.6507 113.591L79.6593 129.6V105.598C79.6593 101.191 83.2456 97.6043 87.6528 97.6043H89.1867C88.6898 97.5827 88.1929 97.5827 87.6744 97.5827C74.4095 97.5827 63.6507 104.734 63.6507 113.591Z" stroke="#1DE9B6" stroke-width="3" stroke-miterlimit="10"/>
</svg>
