<svg width="1440" height="74" viewBox="0 0 1440 74" fill="none" xmlns="http://www.w3.org/2000/svg">
<path fillRule="evenodd" clipRule="evenodd" d="M1080.44 29H1067L721.488 29L707 44L1067 44L1080.44 29Z" fill="url(#paint0_linear_5580_90657)"/>
<path fillRule="evenodd" clipRule="evenodd" d="M404 29H390.813V44L404 29ZM1.41394e-05 44L390.459 44V29L16.5783 29L1.41394e-05 44Z" fill="url(#paint1_linear_5580_90657)"/>
<path fillRule="evenodd" clipRule="evenodd" d="M708.957 44L708.962 43.9999V43.9949L723 29H708.962H708.957L384.176 29L370 44L708.957 44Z" fill="url(#paint2_linear_5580_90657)"/>
<path d="M1429 29L1437.8 36.5L1429 44L1066.2 44L1079.69 29L1429 29Z" fill="url(#paint3_linear_5580_90657)"/>
<path d="M1397.94 0H1374.69L1416.75 36.6063H1440L1397.94 0Z" fill="url(#paint4_linear_5580_90657)"/>
<path d="M1374.69 73.2126L1416.75 36.6063H1440L1397.94 73.2126H1374.69Z" fill="url(#paint5_linear_5580_90657)"/>
<defs>
<linearGradient id="paint0_linear_5580_90657" x1="1044.7" y1="36.4999" x2="742.34" y2="36.4999" gradientUnits="userSpaceOnUse">
<stop offset="0.00853585" stop-color="#07CBCB"/>
<stop offset="1" stop-color="#0C5A78"/>
</linearGradient>
<linearGradient id="paint1_linear_5580_90657" x1="412.5" y1="46.4999" x2="7.50006" y2="46.624" gradientUnits="userSpaceOnUse">
<stop offset="0.0686852" stop-color="#052A72"/>
<stop offset="1" stop-color="#0F103C"/>
</linearGradient>
<linearGradient id="paint2_linear_5580_90657" x1="726" y1="46.3296" x2="390.345" y2="46.3728" gradientUnits="userSpaceOnUse">
<stop stop-color="#0095AC"/>
<stop offset="1" stop-color="#061A61"/>
</linearGradient>
<linearGradient id="paint3_linear_5580_90657" x1="1423" y1="33.3123" x2="1112.56" y2="33.1981" gradientUnits="userSpaceOnUse">
<stop stop-color="#3AEECA"/>
<stop offset="1" stop-color="#0D99B4"/>
</linearGradient>
<linearGradient id="paint4_linear_5580_90657" x1="1438.74" y1="36.7179" x2="1280.28" y2="35.4537" gradientUnits="userSpaceOnUse">
<stop offset="0.00189594" stop-color="#84FFF8"/>
<stop offset="0.193904" stop-color="#1CE6B7"/>
<stop offset="1" stop-color="#0F103C" stop-opacity="0"/>
</linearGradient>
<linearGradient id="paint5_linear_5580_90657" x1="1438.74" y1="36.7179" x2="1280.28" y2="35.4537" gradientUnits="userSpaceOnUse">
<stop offset="0.00189594" stop-color="#84FFF8"/>
<stop offset="0.193904" stop-color="#1CE6B7"/>
<stop offset="1" stop-color="#0F103C" stop-opacity="0"/>
</linearGradient>
</defs>
</svg>
