<svg width="135" height="135" viewBox="0 0 135 135" fill="none" xmlns="http://www.w3.org/2000/svg">
<path d="M102.688 82.0312C102.685 81.1121 102.318 80.2314 101.668 79.5815C101.019 78.9316 100.138 78.5652 99.2188 78.5625H77.4928C80.897 76.8163 83.7544 74.166 85.7512 70.9025C87.7481 67.639 88.8072 63.8884 88.8125 60.0625C88.8063 58.9345 88.7057 57.809 88.5119 56.6978L102.075 49.5175C102.264 49.4153 102.421 49.2623 102.528 49.0757C102.636 48.8891 102.689 48.6762 102.681 48.4611C102.674 48.2461 102.607 48.0373 102.488 47.8582C102.368 47.6792 102.201 47.5371 102.005 47.4478L68.4741 32.4165C68.3254 32.348 68.1637 32.3125 68 32.3125C67.8363 32.3125 67.6746 32.348 67.5259 32.4165L33.9947 47.4478C33.7989 47.5371 33.6319 47.6792 33.5124 47.8582C33.393 48.0373 33.3259 48.2461 33.3187 48.4611C33.3115 48.6762 33.3645 48.8891 33.4716 49.0757C33.5788 49.2623 33.7359 49.4153 33.9253 49.5175L37.9375 51.645V56.7556C36.9472 57.0113 36.0696 57.588 35.442 58.3956C34.8143 59.2031 34.4721 60.196 34.4688 61.2187V64.6875C34.4688 64.9941 34.5906 65.2882 34.8074 65.5051C35.0242 65.7219 35.3183 65.8437 35.625 65.8437H42.5625C42.8692 65.8437 43.1633 65.7219 43.3801 65.5051C43.5969 65.2882 43.7188 64.9941 43.7188 64.6875V61.2187C43.7154 60.196 43.3732 59.2031 42.7455 58.3956C42.1179 57.588 41.2403 57.0113 40.25 56.7556V52.8706L47.4881 56.6978C47.2943 57.809 47.1937 58.9345 47.1875 60.0625C47.1928 63.8884 48.2519 67.639 50.2488 70.9025C52.2456 74.166 55.103 76.8163 58.5072 78.5625H44.875C41.8084 78.5625 38.8675 79.7807 36.6991 81.9491C34.5307 84.1175 33.3125 87.0584 33.3125 90.125C33.3125 93.1916 34.5307 96.1325 36.6991 98.3009C38.8675 100.469 41.8084 101.687 44.875 101.687H99.2188C100.139 101.687 101.021 101.322 101.672 100.672C102.322 100.021 102.688 99.1387 102.688 98.2187C102.688 97.2988 102.322 96.4165 101.672 95.766C101.021 95.1154 100.139 94.75 99.2188 94.75V85.5C100.138 85.4972 101.019 85.1309 101.668 84.481C102.318 83.8311 102.685 82.9504 102.688 82.0312V82.0312ZM68 78.5625C64.7505 78.559 61.5596 77.6975 58.75 76.065V66.3178L62.9009 62.1669L65.0516 61.0915C65.2846 60.9737 65.4709 60.7804 65.5801 60.5431C65.6892 60.3059 65.7149 60.0387 65.6528 59.785L64.4966 55.16C64.446 54.9558 64.3406 54.7693 64.1919 54.6206C64.0431 54.4719 63.8567 54.3665 63.6525 54.3159L59.0275 53.1597C58.8454 53.1134 58.6546 53.1134 58.4725 53.1597L54.0672 54.2581L50.6216 53.7725C51.6215 51.0243 53.2579 48.5518 55.3969 46.5575L59.2125 49.425C59.2649 49.468 59.3234 49.503 59.3859 49.529L64.0109 51.8415C64.1161 51.8971 64.2292 51.9361 64.3463 51.9572L71.2838 53.1134C71.3449 53.123 71.4069 53.1269 71.4688 53.125C71.6595 53.1257 71.8474 53.0784 72.0151 52.9874C72.1828 52.8965 72.3249 52.7649 72.4284 52.6047L74.5212 49.4712L77.62 48.4422C77.7888 48.3837 77.9427 48.289 78.0709 48.1647L80.1175 46.1181C81.1246 46.9904 82.032 47.9715 82.8231 49.0434L78.8456 52.2231C78.8109 52.2462 78.7763 52.2809 78.7416 52.3041L75.4462 55.6109L69.8847 57.8309C69.8104 57.8599 69.7404 57.8988 69.6766 57.9465L66.2078 60.259C66.0745 60.3465 65.9605 60.4603 65.873 60.5936C65.7855 60.7268 65.7263 60.8767 65.6991 61.0337L64.5428 67.9712C64.5033 68.2138 64.5426 68.4626 64.655 68.6811C64.7673 68.8997 64.9469 69.0764 65.1672 69.1853L69.1562 71.1856V73.9375C69.1562 74.2441 69.2781 74.5382 69.4949 74.7551C69.7117 74.9719 70.0058 75.0937 70.3125 75.0937H74.9375C75.1645 75.0943 75.3863 75.0257 75.5734 74.8972L78.6259 72.8737L80.7766 73.4056C77.3468 76.7152 72.7662 78.564 68 78.5625V78.5625ZM57.2353 45.0544C60.2825 42.8492 63.9325 41.6315 67.6933 41.5653C71.4541 41.4992 75.1447 42.5878 78.2675 44.6844L76.6256 46.3378L73.4113 47.4015C73.1671 47.4829 72.9587 47.6463 72.8216 47.864L70.9253 50.7084L64.8897 49.7025L60.5191 47.5172L57.2353 45.0544ZM82.5341 71.4631L78.6838 70.5034C78.5288 70.4632 78.367 70.4568 78.2094 70.4847C78.0517 70.5126 77.902 70.5742 77.7703 70.6653L74.5906 72.7812H71.4688V70.4687C71.4712 70.2546 71.4127 70.0441 71.3001 69.8619C71.1875 69.6797 71.0255 69.5333 70.8328 69.4397L66.9709 67.5087L67.9075 61.9009L70.8559 59.9353L76.5216 57.669C76.6672 57.6092 76.8004 57.523 76.9147 57.4147L80.3372 53.9922L84.095 50.9744C85.906 54.1563 86.725 57.8068 86.4468 61.4574C86.1687 65.108 84.8062 68.5923 82.5341 71.4631V71.4631ZM41.4062 61.2187V63.5312H36.7812V61.2187C36.7812 60.6054 37.0249 60.0172 37.4586 59.5836C37.8922 59.1499 38.4804 58.9062 39.0938 58.9062C39.7071 58.9062 40.2953 59.1499 40.7289 59.5836C41.1626 60.0172 41.4062 60.6054 41.4062 61.2187V61.2187ZM37.105 48.5809L68 34.7406L98.895 48.5809L88.0031 54.3622C86.7664 50.0104 84.1444 46.1807 80.5345 43.4538C76.9247 40.7269 72.524 39.2515 68 39.2515C63.476 39.2515 59.0753 40.7269 55.4655 43.4538C51.8556 46.1807 49.2336 50.0104 47.9969 54.3622L37.105 48.5809ZM56.7728 65.0228C56.5598 65.2433 56.4398 65.5372 56.4375 65.8437V74.4809C54.2737 72.7519 52.5266 70.5582 51.3257 68.0623C50.1248 65.5664 49.5008 62.8323 49.5 60.0625C49.5007 58.7004 49.6559 57.3428 49.9625 56.0156L53.9631 56.5822C54.1134 56.5706 54.2522 56.5706 54.4025 56.559L58.75 55.4722L62.4269 56.3856L63.19 59.4381L61.6984 60.1897C61.6059 60.259 61.5019 60.3284 61.3978 60.3978L56.7728 65.0228ZM47.1875 83.1875C45.3476 83.1875 43.583 83.9184 42.2819 85.2194C40.9809 86.5205 40.25 88.285 40.25 90.125C40.25 91.9649 40.9809 93.7295 42.2819 95.0305C43.583 96.3316 45.3476 97.0625 47.1875 97.0625H99.2188C99.5254 97.0625 99.8195 97.1843 100.036 97.4011C100.253 97.618 100.375 97.9121 100.375 98.2187C100.375 98.5254 100.253 98.8195 100.036 99.0363C99.8195 99.2532 99.5254 99.375 99.2188 99.375H44.875C42.4217 99.375 40.069 98.4004 38.3343 96.6657C36.5996 94.931 35.625 92.5782 35.625 90.125C35.625 87.6717 36.5996 85.319 38.3343 83.5843C40.069 81.8495 42.4217 80.875 44.875 80.875H99.2188C99.5254 80.875 99.8195 80.9968 100.036 81.2136C100.253 81.4305 100.375 81.7246 100.375 82.0312C100.375 82.3379 100.253 82.632 100.036 82.8488C99.8195 83.0657 99.5254 83.1875 99.2188 83.1875H47.1875ZM96.9062 85.5V94.75H47.1875C45.9609 94.75 44.7845 94.2627 43.9171 93.3954C43.0498 92.528 42.5625 91.3516 42.5625 90.125C42.5625 88.8984 43.0498 87.722 43.9171 86.8546C44.7845 85.9873 45.9609 85.5 47.1875 85.5H96.9062Z" fill="#1DE9B6"/>
<path d="M47.1875 87.8125V90.125H81.875V93.5938C81.8735 93.8033 81.93 94.0093 82.0381 94.1888C82.1462 94.3684 82.3019 94.5146 82.4878 94.6113C82.6706 94.7113 82.8775 94.7589 83.0857 94.7487C83.2938 94.7385 83.4951 94.6709 83.6672 94.5534L86.5 92.6688L89.3328 94.5534C89.5067 94.668 89.7083 94.7334 89.9163 94.7429C90.1243 94.7523 90.331 94.7054 90.5146 94.6071C90.6982 94.5088 90.8518 94.3628 90.9592 94.1844C91.0666 94.006 91.1239 93.802 91.125 93.5938V90.125H94.5938V87.8125H47.1875ZM88.8125 91.4316L87.1359 90.3216C86.9486 90.1936 86.7269 90.1251 86.5 90.1251C86.2731 90.1251 86.0514 90.1936 85.8641 90.3216L84.1875 91.4316V90.125H88.8125V91.4316Z" fill="#1DE9B6"/>
<path opacity="0.5" fillRule="evenodd" clipRule="evenodd" d="M67.47 129.248L67.47 126.62C61.4952 126.418 56.143 126.126 50.6502 124.223L48.583 129.248C32.5264 124.303 17.9847 112.529 10.1823 97.3294L15.7956 94.0055C12.4116 87.6599 9.08776 77.6379 9.08776 68.4922L6.96897 68.3915C6.89868 63.738 7.45098 56.637 8.90702 52.88C8.93715 52.8095 3.81053 51.126 3.81053 51.126C7.55607 34.99 19.4407 18.7649 35.4371 10.0825L37.6161 13.8999C45.308 8.30978 57.2877 4.48228 71.2657 5.25785L71.1954 7.2824C75.8447 7.00038 82.2412 8.44073 86.7198 9.97173L89.1499 5.1672C105.458 11.1099 118.06 22.1895 125.842 37.2578L122.227 39.5543C125.511 46.8165 129.126 56.8385 128.583 64.9467L130.592 65.2489C129.407 99.4446 105.919 129.953 67.47 129.248ZM11.1363 66.8907C11.1363 35.5958 36.5115 10.2235 67.8114 10.2235C99.1112 10.2235 124.486 35.5958 124.486 66.8907C124.486 98.1856 99.1112 123.558 67.8114 123.558C36.5115 123.558 11.1363 98.1856 11.1363 66.8907Z" fill="#26266E"/>
<path opacity="0.5" d="M135 67.515C135 86.1489 127.449 103.02 115.228 115.238C103.017 127.446 86.1373 135 67.5 135C48.8627 135 31.9927 127.446 19.772 115.238C7.56136 103.03 -4.07062e-06 86.1589 -3.25567e-06 67.515C-2.44115e-06 48.8811 7.55132 32.0099 19.772 19.7921C31.9827 7.58436 48.8627 0.0300866 67.5 0.0300874C86.1373 0.0300882 103.007 7.58437 115.228 19.7921C127.449 31.9998 135 48.871 135 67.515ZM113.119 113.113C124.788 101.439 132.008 85.3229 132.008 67.5049C132.008 49.6969 124.788 33.5711 113.119 21.8972C101.441 10.2334 85.3139 3.02158 67.5 3.02158C49.6861 3.02158 33.5592 10.2435 21.8908 21.9073C10.2224 33.5812 3.00245 49.6969 3.00245 67.515C3.00245 85.3229 10.2224 101.449 21.8908 113.123C33.5592 124.797 49.6861 132.008 67.5 132.008C85.3139 132.008 101.441 124.786 113.119 113.113Z" fill="#26266E"/>
<path opacity="0.5" d="M122.93 106.042C120.66 109.275 118.12 112.297 115.338 115.077C103.128 127.285 86.2475 135 67.6102 135C48.9729 135 31.9925 127.446 19.7818 115.238C8.76612 104.41 1.53614 89.2613 0.22068 72.9139L3.20305 72.5412C4.50846 88.1735 11.4372 102.658 21.9006 113.123C33.569 124.797 49.8064 132.009 67.6203 132.009C85.4341 132.009 101.561 124.636 113.229 112.962C115.85 110.343 118.24 107.502 120.379 104.461L122.93 106.042ZM44.5445 4.02895C51.7344 1.4202 59.4865 -2.77319e-06 67.5701 -2.41985e-06C86.2074 -1.60518e-06 103.017 7.57442 115.228 19.7922C117.869 22.4312 119.977 24.8485 122.146 27.9005L119.616 29.512C117.588 26.7019 115.599 24.4054 113.159 21.9578C101.491 10.2839 85.3839 3.00156 67.5701 3.00156C59.8781 3.00156 52.5076 4.35126 45.6692 6.81899L44.5445 4.02895Z" fill="#26266E"/>
<path opacity="0.5" fillRule="evenodd" clipRule="evenodd" d="M56.1891 17.6816C45.0711 20.2906 35.3788 26.4053 28.4918 34.8072L31.4466 37.0484C40.6216 25.8996 55.3153 18.9804 71.3313 19.9228C83.944 20.6699 95.8783 27.1754 103.766 35.3819L106.605 32.8073C100.213 25.8076 91.6473 20.5895 81.8744 18.0379L82.5643 15.5437C79.0346 14.5668 75.3439 13.9461 71.5267 13.7277C65.9965 13.4059 60.6157 13.9346 55.5453 15.1989L56.1891 17.6816Z" fill="#26266E"/>
<path opacity="0.5" fillRule="evenodd" clipRule="evenodd" d="M55.8858 116.6C44.6984 113.978 34.9455 107.833 28.0155 99.3896L31.0582 97.2528C40.2905 108.457 55.0066 115.295 71.111 114.347C83.8025 113.597 95.8114 107.059 103.748 98.8121L106.605 101.399C100.173 108.434 91.5539 113.677 81.72 116.242L82.4141 118.748C78.8624 119.73 75.1486 120.354 71.3077 120.573C65.7428 120.896 60.3284 120.365 55.2264 119.095L55.8858 116.6Z" fill="#26266E"/>
</svg>
