<svg width="888" height="850" viewBox="0 0 888 850" fill="none" xmlns="http://www.w3.org/2000/svg">
<g opacity="0.03">
<path d="M816.424 526.925C816.424 526.925 816.979 524.985 818.087 521.937C818.918 518.612 820.304 513.901 821.966 508.359C825.014 497.275 828.34 482.034 830.834 466.794C831.111 464.854 831.388 462.914 831.665 460.975C831.942 459.035 832.219 457.095 832.496 455.155C833.05 451.276 833.605 447.674 833.882 444.071C834.436 436.867 834.99 429.939 835.267 424.397C835.544 412.759 835.821 405 835.821 405C835.821 405 839.147 407.217 842.195 409.434C845.52 411.65 848.568 414.144 848.568 414.144C848.568 414.144 848.568 415.807 848.568 418.855C848.568 421.903 848.568 426.06 848.014 431.325C847.737 433.819 847.737 436.59 847.46 439.638C847.46 441.023 847.183 442.686 847.183 444.071C847.183 444.903 847.183 445.734 846.906 446.288C846.906 447.119 846.628 447.951 846.628 448.782C846.351 452.107 845.797 455.155 845.243 458.758C844.966 460.42 844.689 462.083 844.689 463.746C844.412 465.408 844.135 467.071 843.857 468.733C843.303 472.059 842.749 475.384 841.918 478.709C841.641 480.372 841.363 482.034 841.086 483.697C840.809 485.36 840.532 487.022 840.255 488.408C838.87 494.781 837.484 500.6 836.376 505.588C833.605 515.564 831.665 522.214 831.665 522.214C831.665 522.214 830.834 522.491 829.448 523.045C828.063 523.6 826.123 524.154 824.183 524.708C820.304 525.816 816.424 526.925 816.424 526.925Z" fill="#27FFF2"/>
<path d="M740.777 660.488C740.777 660.488 742.162 659.103 744.379 656.332C746.596 653.838 749.644 649.958 753.246 645.248C754.909 643.031 757.126 640.537 759.066 637.766C761.005 634.995 762.945 632.224 765.162 629.176C769.595 623.357 773.475 616.706 777.631 610.333L779.294 607.839L780.68 605.345C781.511 603.682 782.619 602.02 783.451 600.357C785.39 597.032 787.33 593.707 788.993 590.659C792.318 584.285 795.366 578.189 797.86 572.924C800.354 567.659 802.293 563.225 803.679 560.177C805.064 557.129 805.896 555.189 805.896 555.189C805.896 555.189 808.113 558.515 810.052 561.84C811.992 565.165 814.209 568.49 814.209 568.49C814.209 568.49 813.378 570.153 812.269 572.924C810.884 575.695 809.498 579.574 807.004 584.285C805.896 586.502 804.51 588.996 803.125 591.767C801.739 594.261 800.354 597.309 798.691 600.08C797.029 602.851 795.366 605.622 793.703 608.67C792.041 611.718 790.378 614.489 788.438 617.537C786.499 620.308 784.836 623.357 782.896 626.128C780.957 628.899 779.294 631.67 777.354 634.441C773.475 639.706 770.15 644.693 767.102 648.85C760.728 656.886 756.572 662.428 756.572 662.428C756.572 662.428 755.463 662.428 754.078 662.151C752.692 661.874 750.475 661.874 748.536 661.597C744.656 660.765 740.777 660.488 740.777 660.488Z" fill="#27FFF2"/>
<path d="M619.682 754.979C619.682 754.979 621.345 754.148 624.393 752.485C625.778 751.654 627.718 750.823 629.935 749.714C632.152 748.606 634.369 747.221 636.862 745.835C639.356 744.45 642.127 742.787 644.898 741.124C645.73 740.847 646.284 740.293 647.115 739.739C647.947 739.185 648.501 738.907 649.332 738.353C650.718 737.522 652.38 736.414 653.766 735.582C656.814 733.643 659.862 731.703 663.187 729.486C666.235 727.269 669.561 725.052 672.609 722.836C678.982 718.402 685.078 713.414 690.62 708.98C693.668 706.764 696.162 704.27 698.656 702.33C701.15 700.113 703.644 698.174 705.861 696.234C706.969 695.402 708.078 694.294 708.909 693.463C709.74 692.631 710.849 691.8 711.68 690.969C713.343 689.306 715.005 687.921 716.114 686.812C718.608 684.595 719.993 683.21 719.993 683.21C719.993 683.21 720.547 687.089 721.379 690.969C721.933 694.848 722.487 698.728 722.487 698.728C722.487 698.728 721.379 699.836 719.162 702.053C716.945 704.27 713.897 707.041 710.017 710.366C706.138 713.691 701.704 717.848 696.439 721.727C691.452 725.607 686.187 730.04 680.367 733.92C677.596 735.859 674.825 737.799 672.054 739.739C669.283 741.678 666.512 743.341 663.741 745.281C660.97 746.943 658.476 748.606 655.983 750.269C655.428 750.546 654.874 751.1 654.043 751.377C653.489 751.654 652.934 752.208 652.103 752.485C650.995 753.04 649.609 753.871 648.501 754.425C644.067 756.919 640.188 759.136 637.694 760.521C636.308 761.353 635.2 761.63 634.646 762.184C633.814 762.461 633.537 762.738 633.537 762.738C633.537 762.738 629.935 760.799 626.61 759.136C623.284 756.919 619.682 754.979 619.682 754.979Z" fill="#27FFF2"/>
<path d="M471.71 795.437C471.71 795.437 473.65 795.16 476.975 795.16C478.638 795.16 480.855 794.883 483.072 794.605C485.288 794.328 488.059 794.051 490.83 793.774C496.65 792.943 503.3 792.389 510.505 791.003C514.107 790.449 517.709 789.618 521.589 789.063C525.468 788.232 529.071 787.401 532.95 786.569C534.89 786.015 536.829 785.738 538.492 785.184C540.432 784.63 542.371 784.353 544.034 783.798C547.636 782.69 551.239 781.859 554.841 780.75C556.504 780.196 558.166 779.642 560.106 779.365C561.769 778.811 563.431 778.256 565.094 777.702C568.142 776.594 571.19 775.763 573.961 774.654C579.503 772.992 583.937 771.052 586.985 769.666C590.033 768.558 591.973 767.727 591.973 767.727C591.973 767.727 591.141 771.606 590.31 775.485C589.479 779.365 588.37 783.244 588.37 783.244C588.37 783.244 586.708 783.799 583.937 784.907C581.166 786.015 577.009 787.124 572.298 789.063C569.805 789.895 567.311 790.726 564.54 791.834C561.769 792.666 558.72 793.497 555.672 794.328C552.624 795.16 549.299 795.991 546.251 797.099C542.926 797.931 539.6 798.762 536.275 799.316C532.95 800.147 529.625 800.979 526.3 801.533C522.974 802.087 519.649 802.641 516.601 803.196C513.553 803.75 510.505 804.304 507.457 804.858C504.686 805.412 501.637 805.69 499.144 805.967C494.156 806.521 489.722 807.075 486.674 807.629C485.288 807.906 483.903 807.906 483.072 807.906C482.24 807.906 481.963 807.906 481.963 807.906C481.963 807.906 479.469 804.858 476.975 801.81C474.204 798.485 471.71 795.437 471.71 795.437Z" fill="#27FFF2"/>
<path d="M319.303 776.04C319.303 776.04 321.243 776.594 324.291 777.702C327.339 778.811 332.05 780.196 337.869 781.582C340.64 782.413 343.688 783.244 347.013 784.075C350.339 784.907 353.664 785.738 357.266 786.292C358.929 786.569 360.869 787.124 362.531 787.401C363.362 787.678 364.471 787.955 365.302 787.955C366.133 788.232 367.242 788.232 368.073 788.509C371.953 789.063 375.555 789.895 379.434 790.449C381.374 790.726 383.314 791.28 385.254 791.557C387.193 791.834 389.133 792.111 391.073 792.389C394.952 792.943 398.554 793.22 402.157 793.774C403.819 794.051 405.759 794.051 407.422 794.328C409.084 794.328 410.747 794.605 412.41 794.605C415.735 794.883 418.783 795.16 421.831 795.437C424.602 795.714 427.373 795.714 429.867 795.714C432.361 795.714 434.301 795.714 435.963 795.991C439.288 795.991 441.228 795.991 441.228 795.991C441.228 795.991 439.011 799.316 436.794 802.364C434.578 805.689 432.084 808.738 432.084 808.738C432.084 808.738 430.421 808.738 427.373 808.738C424.325 808.738 420.168 808.46 414.903 807.906C412.41 807.629 409.638 807.629 406.59 807.352C405.205 807.352 403.542 807.075 402.157 807.075C400.494 806.798 399.109 806.798 397.446 806.521C394.121 806.244 391.073 805.689 387.47 805.135C385.808 804.858 384.145 804.581 382.483 804.581C380.82 804.304 379.157 804.027 377.495 803.75C363.917 801.533 350.616 798.485 340.64 795.991C330.664 793.22 324.014 791.28 324.014 791.28C324.014 791.28 322.906 787.401 321.797 783.521C320.412 779.919 319.303 776.04 319.303 776.04Z" fill="#27FFF2"/>
<path d="M186.294 699.56C186.294 699.56 187.68 700.945 190.451 703.162C191.836 704.27 193.222 705.656 195.161 707.041C197.101 708.427 199.041 710.089 201.535 712.029C203.752 713.692 206.246 715.909 209.017 717.848C211.51 719.788 214.559 721.728 217.607 723.945C220.655 726.161 223.703 728.378 226.751 730.318C230.076 732.258 233.124 734.474 236.45 736.691C238.112 737.8 239.775 738.908 241.437 739.739C243.1 740.571 244.763 741.679 246.425 742.51C249.751 744.45 253.076 746.39 256.124 748.052C257.787 748.884 259.172 749.715 260.835 750.546C262.497 751.378 263.883 752.209 265.268 752.763C268.316 754.149 271.087 755.811 273.581 756.92C278.846 759.414 283.28 761.353 286.328 762.739C289.376 764.124 291.316 764.956 291.316 764.956C291.316 764.956 287.991 766.895 284.665 769.112C281.34 771.052 278.015 773.269 278.015 773.269C278.015 773.269 276.352 772.437 273.581 771.329C272.196 770.775 270.533 769.944 268.593 769.112C266.654 768.281 264.714 767.172 262.22 765.787C257.787 763.293 252.244 760.799 246.702 757.474C241.16 754.149 235.064 751.101 229.245 747.221C223.426 743.619 217.607 740.017 212.342 736.137C207.077 732.258 202.089 728.932 198.21 725.607C194.053 722.559 190.728 719.788 188.511 717.848C187.403 717.017 186.294 716.186 185.74 715.632C185.186 715.077 184.909 714.8 184.909 714.8C184.909 714.8 185.186 710.921 185.74 706.764C186.017 703.439 186.294 699.56 186.294 699.56Z" fill="#27FFF2"/>
<path d="M92.6336 577.912C92.6336 577.912 93.4649 579.574 95.1275 582.622C95.9588 584.008 96.7902 585.948 97.8986 588.164C98.4528 589.273 99.0069 590.381 99.5611 591.49C100.115 592.598 100.947 593.984 101.501 595.092C107.32 605.068 115.079 618.646 124.223 631.115C126.44 634.163 128.657 637.489 130.874 640.537C133.368 643.585 135.584 646.356 137.801 649.404C138.91 650.789 140.018 652.175 141.126 653.56C142.235 654.946 143.343 656.054 144.452 657.44C146.668 659.934 148.608 662.428 150.548 664.645C154.15 669.078 157.753 672.403 159.969 674.897C162.186 677.391 163.572 678.777 163.572 678.777C163.572 678.777 159.692 679.331 155.813 680.162C151.933 680.716 148.054 681.271 148.054 681.271C148.054 681.271 146.946 680.162 144.729 677.945C142.789 675.729 140.018 672.403 136.416 668.524C134.753 666.584 132.813 664.367 130.874 662.151C128.934 659.934 126.994 657.44 125.055 654.946C123.115 652.452 120.898 649.681 118.958 647.187C117.019 644.416 115.079 641.645 113.139 638.874C111.199 636.103 108.983 633.332 107.32 630.561C105.38 627.79 103.718 625.019 102.055 622.248C100.392 619.477 98.7299 616.983 97.0672 614.489C95.6817 611.995 94.2962 609.501 92.9107 607.284C91.5252 605.068 90.4168 603.128 89.3084 601.188C88.2 599.248 87.3687 597.863 86.8145 596.477C85.429 593.706 84.5977 592.321 84.5977 592.321C84.5977 592.321 86.5374 588.719 88.2 585.393C90.971 581.237 92.6336 577.912 92.6336 577.912Z" fill="#27FFF2"/>
<path d="M53.2858 429.385C53.2858 429.385 53.5629 431.325 53.5629 434.65C53.5629 436.313 53.84 438.53 54.1171 440.746C54.1171 441.855 54.3942 443.24 54.3942 444.626C54.3942 446.011 54.6713 447.397 54.9484 448.782C55.2255 451.553 55.7797 454.879 56.0568 458.204C56.611 461.529 56.8881 465.131 57.4423 468.457C57.9965 472.059 58.8278 475.661 59.382 479.541C59.6591 481.48 59.9362 483.42 60.4904 485.083C61.0446 487.023 61.3217 488.962 61.8759 490.625C62.7072 494.504 63.5385 498.107 64.3698 501.986C65.2011 505.588 66.3095 509.191 67.418 512.793C68.5264 516.395 69.3577 519.721 70.4661 522.769C71.5745 525.817 72.4058 528.865 73.5142 531.636C74.3455 534.407 75.1768 536.901 76.0081 539.118C76.8394 541.335 77.6707 543.274 78.2249 544.937C79.3333 547.985 80.1646 549.925 80.1646 549.925C80.1646 549.925 76.2852 549.093 72.4058 548.262C68.5264 547.431 64.6469 546.322 64.6469 546.322C64.6469 546.322 64.3698 546.045 64.0927 545.214C63.8156 544.383 63.5385 543.274 62.9843 541.889C62.153 539.118 60.7675 534.961 59.1049 529.973C57.4423 525.263 55.7797 519.166 54.1171 513.07C53.5629 511.407 53.2858 510.022 52.7316 508.359C52.4545 507.528 52.1773 506.697 52.1773 505.865C51.9002 505.034 51.9002 504.203 51.6231 503.372C50.7918 500.046 49.9605 496.721 49.4063 493.396C47.7437 486.745 46.6353 479.818 45.5269 473.722C44.9727 470.673 44.4185 467.625 43.8643 464.577C43.5872 461.529 43.033 458.758 42.7559 456.264C42.4788 453.77 42.2017 451.276 41.9246 449.337C41.9246 448.228 41.6475 447.397 41.6475 446.566C41.6475 445.734 41.6475 444.903 41.3704 444.072C41.0933 441.024 41.0933 439.361 41.0933 439.361C41.0933 439.361 44.1414 436.867 47.1895 434.373C50.2376 431.879 53.2858 429.385 53.2858 429.385Z" fill="#27FFF2"/>
<path d="M830.002 399.18C830.002 399.18 830.003 394.47 829.725 385.325C829.448 380.892 828.894 375.35 828.34 368.699C828.063 365.374 827.509 362.049 827.231 358.169C826.677 354.29 826.123 350.411 825.846 346.254C823.075 329.628 818.918 309.399 811.714 286.954C804.509 264.509 794.256 239.847 779.847 214.631C765.438 189.414 747.149 163.644 724.149 139.536C701.427 115.151 673.717 92.9827 642.681 74.1398C627.164 64.7183 610.538 56.4052 593.357 49.2006C576.177 41.9959 558.165 36.1768 539.599 31.189C521.034 26.4782 502.191 23.4301 483.071 21.2133C463.951 19.5507 444.553 18.9965 425.156 19.8278C405.759 20.9362 386.639 23.153 367.519 27.0324C348.676 30.9118 330.11 36.1768 312.099 42.5502C294.364 49.2006 276.907 56.9594 260.558 65.8267C244.209 74.9711 228.691 84.6696 214.005 95.4766C210.402 98.2476 206.8 101.019 203.198 103.79C201.535 105.175 199.595 106.561 197.933 107.946C196.27 109.332 194.607 110.994 192.945 112.38C191.282 113.765 189.62 115.428 187.957 116.814C186.294 118.199 184.632 119.585 182.969 121.247C179.644 124.295 176.596 127.343 173.548 130.391C161.355 142.861 149.717 155.331 139.464 168.632C118.682 194.679 103.164 222.389 91.2484 248.714C79.333 275.316 71.5742 300.809 66.5863 323.809C61.5985 346.808 59.6588 367.314 58.5504 384.217C58.2732 388.374 58.2733 392.53 58.2733 396.132C58.2733 400.012 57.9961 403.337 57.9961 406.662C58.2732 413.313 58.2732 418.855 58.5504 423.288C58.8275 427.722 59.1045 431.324 59.3816 433.541C59.6587 435.758 59.6588 437.143 59.6588 437.143L53.0083 437.698C53.0083 437.698 53.0083 436.589 52.7312 434.095C52.4541 431.601 52.177 428.276 51.8999 423.565C51.8999 418.855 51.6228 413.313 51.3457 406.662C51.3457 403.337 51.3457 399.735 51.6228 395.855C51.6228 391.976 51.6228 387.819 51.8999 383.663C53.0083 366.482 55.2251 345.7 60.213 322.146C65.2008 298.592 73.2368 272.545 85.1521 245.666C97.3446 218.787 113.139 190.8 134.199 164.198C144.452 150.62 156.367 137.873 168.837 125.404C172.162 122.356 175.21 119.307 178.536 116.259C180.198 114.597 181.861 113.211 183.523 111.826C185.186 110.44 186.849 108.778 188.788 107.392C190.451 106.007 192.114 104.344 194.053 102.958C195.716 101.573 197.656 100.187 199.318 98.8019C202.921 96.0309 206.523 92.9827 210.125 90.2117C225.089 79.1276 240.883 69.1519 257.51 60.0076C274.413 51.1403 291.87 43.1043 310.159 36.4539C328.448 29.8034 347.291 24.8156 366.411 20.6591C385.531 16.7797 405.205 14.5628 424.879 13.4544C444.554 12.6231 464.228 13.1773 483.902 14.8399C503.299 17.0568 522.696 20.382 541.539 25.0927C560.382 30.0806 578.671 36.1768 596.128 43.3814C613.586 50.8632 630.489 59.1763 646.284 68.8748C677.873 87.9949 705.861 110.717 729.137 135.379C752.691 159.764 771.257 186.089 785.943 211.859C800.63 237.63 811.159 262.569 818.364 285.569C825.569 308.568 829.725 329.074 832.773 345.977C833.328 350.133 833.882 354.29 834.436 358.169C834.99 362.049 835.544 365.651 835.544 368.976C836.099 375.627 836.376 381.446 836.93 385.88C837.207 395.024 837.207 400.012 837.207 400.012L830.002 399.18Z" fill="#27FFF2"/>
<path d="M77.3929 267.557C77.3929 267.557 77.1158 268.112 76.8387 268.943C76.5616 269.774 76.0074 271.16 75.4532 272.545C74.3448 275.87 72.6822 280.304 71.0196 285.846C69.9111 288.617 69.3569 291.665 68.2485 294.713C67.4172 298.039 66.3088 301.364 65.4775 304.689C64.9233 306.352 64.6462 308.291 64.092 309.954C63.5378 311.894 63.2607 313.556 62.7065 315.496C61.8752 319.098 61.0439 322.978 60.2126 326.857C59.6584 330.737 58.8271 334.616 58.2729 338.218C57.9958 340.158 57.7187 341.821 57.1645 343.76C56.8874 345.7 56.6102 347.363 56.3331 349.303C55.7789 352.905 55.5018 356.507 54.9476 359.555C54.6705 361.218 54.3934 362.88 54.3934 364.266C54.3934 365.929 54.1163 367.314 54.1163 368.7C53.5621 374.519 53.285 379.23 53.0079 382.832C52.7308 384.494 53.0079 385.88 52.7308 386.711C52.7308 387.543 52.7308 388.097 52.7308 388.097C52.7308 388.097 49.4056 385.88 46.3575 383.386C43.3093 380.892 40.2612 378.398 40.2612 378.398C40.2612 378.398 40.2612 376.736 40.5383 373.687C40.8154 370.639 41.0925 366.483 41.6467 361.218C42.2009 356.23 43.0322 350.134 43.8635 343.76C44.972 337.387 46.0804 330.737 47.4659 323.809C48.8514 317.159 50.514 310.508 51.8995 304.135C53.5621 298.039 55.2247 292.219 56.6102 287.232C56.8873 286.123 57.1644 284.738 57.7186 283.629C57.9957 282.521 58.55 281.412 58.8271 280.581C59.3813 278.641 60.2126 276.979 60.4897 275.316C61.321 272.545 61.8752 270.883 61.8752 270.883C61.8752 270.883 65.7546 269.774 69.3569 268.666C71.2967 268.112 73.2364 267.557 74.6219 267.28C76.2845 267.834 77.3929 267.557 77.3929 267.557Z" fill="#27FFF2"/>
<path d="M158.307 137.32C158.307 137.32 156.922 138.705 154.705 141.199C152.488 143.693 149.44 147.295 145.561 151.729C141.681 155.885 137.525 161.427 133.091 167.247C131.983 168.632 130.874 170.018 129.766 171.68C128.657 173.066 127.549 174.728 126.441 176.391C124.224 179.439 122.007 182.764 119.79 185.812C117.573 189.138 115.634 192.463 113.417 195.511C111.477 198.836 109.26 201.884 107.598 204.932C105.658 207.981 103.995 211.029 102.333 214.077C101.501 215.462 100.67 216.848 99.8388 218.233C99.0075 219.619 98.4533 221.004 97.8991 222.39C95.1281 227.655 92.9112 231.811 91.5257 234.86C90.1402 237.908 89.3089 239.57 89.3089 239.57C89.3089 239.57 87.3692 236.245 85.1524 232.643C83.2126 229.317 81.2729 225.715 81.2729 225.715C81.2729 225.715 82.1042 224.053 83.4897 221.559C84.8752 218.788 86.815 214.908 89.3089 210.475C91.8028 206.041 94.8509 200.776 98.1761 195.234C101.778 189.692 105.381 184.15 108.983 178.331C112.863 172.789 117.019 167.247 120.621 161.982C124.501 156.994 128.38 152.283 131.428 148.127C138.079 140.368 142.512 135.103 142.512 135.103C142.512 135.103 143.621 135.103 145.006 135.38C146.392 135.657 148.332 135.934 150.271 136.211C154.428 136.765 158.307 137.32 158.307 137.32Z" fill="#27FFF2"/>
<path d="M283.281 47.8155C283.281 47.8155 281.619 48.6468 278.293 50.0323C275.245 51.4178 270.812 53.6346 265.824 56.1286C263.33 57.5141 260.559 58.8996 257.511 60.2851C254.74 61.9477 251.692 63.6103 248.366 65.55C246.704 66.3813 245.318 67.4898 243.656 68.3211C242.824 68.8753 241.993 69.1524 241.162 69.7066C240.33 70.2608 239.499 70.815 238.668 71.3692C235.343 73.3089 232.294 75.5257 228.969 77.7425C225.644 79.6822 222.596 82.1761 219.548 84.393C216.5 86.6098 213.451 88.8266 210.403 90.7663C204.584 95.2 199.319 99.3565 194.886 102.959C190.452 106.838 186.85 109.886 184.356 112.103C182.97 113.212 182.139 114.043 181.308 114.597C180.753 115.151 180.199 115.428 180.199 115.428C180.199 115.428 179.922 114.32 179.922 112.934C179.645 111.549 179.368 109.609 179.368 107.67C178.814 103.79 178.537 99.9107 178.537 99.9107C178.537 99.9107 179.922 98.8023 182.139 96.8626C183.247 95.7542 184.633 94.6458 186.295 93.2603C187.958 91.8748 189.898 90.4892 191.838 88.8266C193.777 87.164 195.994 85.5014 198.488 83.5617C199.596 82.7304 200.705 81.622 202.09 80.7907C203.199 79.9594 204.584 78.851 205.97 78.0197C208.464 76.0799 211.235 74.1402 214.006 72.2005C215.391 71.0921 216.777 70.2608 218.162 69.1524C219.548 68.3211 220.933 67.2127 222.596 66.3814C233.957 58.8996 245.872 51.972 255.017 46.9842C259.728 44.7674 263.33 42.5506 266.101 41.4422C267.486 40.888 268.595 40.3338 269.149 39.7796C269.98 39.5025 270.257 39.2253 270.257 39.2253C270.257 39.2253 273.583 41.1651 277.185 43.3819C279.956 45.8758 283.281 47.8155 283.281 47.8155Z" fill="#27FFF2"/>
<path d="M432.914 13.4549C432.914 13.4549 430.974 13.4549 427.649 13.4549C424.324 13.4549 419.336 14.0091 413.517 14.2862C410.746 14.5633 407.421 14.8404 404.095 15.1176C400.77 15.6718 397.445 15.9489 393.842 16.5031C390.24 17.0573 386.638 17.3344 382.758 17.8886C378.879 18.4428 375.277 19.2741 371.397 19.8283C369.458 20.1054 367.518 20.3825 365.578 20.9367C363.638 21.2138 361.699 21.768 360.036 22.3222C356.434 23.1535 352.554 23.9848 349.229 24.8161C348.398 25.0932 347.566 25.0932 346.735 25.3703C345.904 25.6474 345.073 25.9245 344.241 26.2016C342.579 26.7558 340.916 27.0329 339.253 27.5871C335.928 28.4184 333.157 29.2498 330.109 30.0811C327.338 30.9124 324.844 31.7437 322.627 32.575C320.41 33.4063 318.471 33.9605 316.808 34.5147C313.483 35.6231 311.82 36.1773 311.82 36.1773C311.82 36.1773 312.929 32.2979 313.76 28.6956C314.868 24.8161 315.977 21.2138 315.977 21.2138C315.977 21.2138 317.639 20.6596 320.41 19.8283C323.181 18.7199 327.338 17.6115 332.326 16.226C337.314 14.8405 343.133 12.9007 349.229 11.7923C355.602 10.4068 362.253 8.74419 368.903 7.63578C375.554 6.52738 382.481 5.14187 388.855 4.31057C392.18 4.03347 395.228 3.47926 397.999 3.20216C399.385 2.92505 400.77 2.92506 402.156 2.64796C403.541 2.37086 404.927 2.37086 406.035 2.37086C416.288 1.53956 423.215 0.985352 423.215 0.985352C423.215 0.985352 425.709 4.31056 427.926 7.35869C430.42 10.4068 432.914 13.4549 432.914 13.4549Z" fill="#27FFF2"/>
<path d="M584.214 39.2252C584.214 39.2252 582.551 38.3939 579.226 37.2855C575.901 36.1771 571.467 34.5145 565.925 32.8518C554.841 29.2495 539.878 25.093 524.914 21.7678C521.035 20.9365 517.432 20.3822 513.553 19.5509C509.674 18.9967 506.071 18.1654 502.469 17.6112C495.264 16.7799 488.614 15.6715 482.795 15.1173C476.975 14.5631 472.265 14.286 468.662 14.0089C467 14.0089 465.614 13.7318 464.783 13.7318C463.952 13.7318 463.397 13.7318 463.397 13.7318C463.397 13.7318 463.952 12.9005 464.783 11.7921C465.614 10.6837 467 9.02105 468.108 7.63554C470.602 4.58742 473.096 1.53931 473.096 1.53931C473.096 1.53931 474.759 1.5393 477.807 1.8164C480.855 2.09351 485.011 2.37061 490.276 2.92482C495.264 3.75612 501.36 4.31034 507.734 5.14164C514.107 6.25005 520.758 7.35845 527.685 8.74396C534.336 10.4066 540.986 11.7921 547.359 13.4547C553.456 15.1173 559.275 16.7799 564.263 18.1654C573.961 21.4907 580.612 23.7075 580.612 23.7075C580.612 23.7075 580.889 24.5388 581.166 26.2014C581.443 27.5869 581.997 29.5266 582.551 31.4663C583.383 35.3458 584.214 39.2252 584.214 39.2252Z" fill="#27FFF2"/>
<path d="M713.897 121.247C713.897 121.247 712.512 119.862 710.018 117.645C707.524 115.151 703.922 112.103 699.488 108.223C697.271 106.284 695.054 104.344 692.283 102.127C689.79 100.188 687.018 97.9707 683.97 95.7539C678.428 91.0431 672.055 86.8866 665.682 82.1759C662.633 79.9591 659.308 78.0194 655.983 75.8025C652.658 73.8628 649.61 71.646 646.562 69.7063C640.188 66.104 634.369 62.7787 629.381 60.0077C624.116 57.2367 619.96 55.0199 616.912 53.6344C615.526 52.8031 614.141 52.2489 613.309 51.9718C612.478 51.6946 611.924 51.4176 611.924 51.4176C611.924 51.4176 612.755 50.8634 614.141 50.032C615.526 49.2007 617.189 48.3694 618.851 47.261C622.177 45.3213 625.779 43.3816 625.779 43.3816C625.779 43.3816 627.442 44.2129 629.935 45.5984C632.706 46.9839 636.586 48.9236 641.02 51.4176C643.236 52.8031 645.73 54.1886 648.224 55.5741C650.718 56.9596 653.489 58.6222 656.26 60.2848C659.031 61.9474 661.802 63.8871 664.573 65.5498C667.344 67.4895 670.392 69.1521 673.163 71.0918C675.934 73.0315 678.705 74.9712 681.476 76.9109C682.862 78.0193 684.247 78.8506 685.633 79.682C687.019 80.7904 688.127 81.6217 689.512 82.7301C692.006 84.6698 694.5 86.6095 696.717 88.5492C698.934 90.4889 701.151 92.1516 703.09 93.8142C710.849 100.465 716.114 105.175 716.114 105.175C716.114 105.175 715.56 109.055 715.006 113.211C714.729 117.368 713.897 121.247 713.897 121.247Z" fill="#27FFF2"/>
<path d="M802.571 246.775C802.571 246.775 801.74 245.112 800.354 241.787C799.523 240.124 798.691 238.462 797.86 236.245C797.029 234.028 795.643 231.811 794.258 229.04C791.487 223.775 788.716 217.679 784.836 211.583C782.897 208.535 781.234 205.21 779.294 201.884C777.355 198.559 775.138 195.511 773.198 192.186C769.041 185.535 764.608 179.439 760.174 173.343C758.235 170.295 756.018 167.524 753.801 165.03C751.861 162.536 749.922 160.042 747.982 157.548C746.319 155.331 744.379 153.391 742.994 151.452C741.331 149.789 740.223 148.127 739.115 146.741C736.898 144.247 735.512 142.584 735.512 142.584C735.512 142.584 739.392 142.03 743.271 141.753C747.15 141.199 751.03 140.922 751.03 140.922C751.03 140.922 752.138 142.307 754.078 144.524C756.018 146.741 758.789 150.066 761.837 154.223C763.5 156.162 765.162 158.379 767.102 160.873C767.933 161.982 769.042 163.367 769.873 164.476C770.704 165.861 771.813 166.969 772.644 168.355C774.584 170.849 776.523 173.62 778.463 176.391L779.849 178.331L781.234 180.547C782.065 181.933 783.174 183.318 784.005 184.981C785.945 187.752 787.607 190.8 789.547 193.571C791.487 196.342 792.872 199.39 794.535 202.161C796.198 204.932 797.583 207.703 799.246 210.197C800.631 212.691 802.017 215.185 803.125 217.679C805.342 222.39 807.559 225.992 808.667 228.763C810.053 231.534 810.607 232.92 810.607 232.92C810.607 232.92 808.667 236.245 806.45 239.847C804.511 243.45 802.571 246.775 802.571 246.775Z" fill="#27FFF2"/>
<path d="M835.544 399.458C835.544 399.458 835.544 397.518 835.544 394.193C835.544 392.53 835.544 390.313 835.267 388.096C835.267 386.988 835.267 385.603 835.267 384.217C835.267 382.831 834.99 381.446 834.99 380.06C834.158 368.422 832.773 352.904 830.002 337.664C829.448 333.784 828.616 329.905 828.062 326.303C827.231 322.7 826.4 318.821 825.568 315.496C824.737 311.893 824.183 308.568 823.074 305.243C822.243 301.918 821.412 299.147 820.58 296.099C819.749 293.328 819.195 290.834 818.364 288.34C817.532 286.123 816.978 284.183 816.424 282.521C815.315 279.195 814.761 277.533 814.761 277.533C814.761 277.533 818.641 278.641 822.243 279.749C826.122 280.858 830.002 281.966 830.002 281.966C830.002 281.966 830.002 282.243 830.279 283.075C830.556 283.906 830.833 285.014 831.387 286.4C832.219 289.171 833.327 293.328 834.713 298.315C836.375 303.303 837.484 309.122 838.869 315.496C839.146 317.158 839.7 318.544 839.978 320.206C840.255 321.869 840.809 323.532 841.086 325.194C841.64 328.519 842.194 331.845 842.749 335.17C843.026 336.833 843.303 338.495 843.58 340.158L844.134 342.652C844.134 343.483 844.411 344.314 844.411 345.146C844.965 348.471 845.242 351.796 845.797 355.121C846.074 358.447 846.628 361.495 846.905 364.266C847.182 367.314 847.459 370.085 847.459 372.579C847.736 377.844 848.291 382 848.291 385.048C848.291 388.096 848.291 389.759 848.291 389.759C848.291 389.759 844.965 392.253 841.917 394.47C838.869 397.241 835.544 399.458 835.544 399.458Z" fill="#27FFF2"/>
<path d="M58.8272 426.614C58.8272 426.614 59.1043 431.325 59.9356 439.915C60.2127 444.349 61.044 449.613 61.8753 455.987C62.1524 457.649 62.1524 459.312 62.4295 460.975C62.7066 462.637 62.9837 464.3 63.2608 466.24C63.815 469.842 64.6463 473.721 65.2005 477.601C68.2487 493.673 72.6823 512.793 80.4412 534.13C87.9229 555.466 98.4528 579.02 112.862 602.851L114.248 605.068L115.633 607.285C116.464 608.67 117.573 610.333 118.404 611.718C120.344 614.766 122.284 617.814 124.223 620.863C126.44 623.911 128.38 626.682 130.597 629.73C132.813 632.778 134.753 635.826 137.247 638.874C141.958 644.693 146.391 650.79 151.656 656.609C154.15 659.657 156.644 662.428 159.415 665.476C162.186 668.247 164.957 671.295 167.728 674.066C169.114 675.452 170.499 677.114 171.885 678.5C173.27 679.885 174.933 681.271 176.318 682.656C179.367 685.427 182.138 688.198 185.186 690.969C188.234 693.74 191.282 696.234 194.607 699.005C196.27 700.391 197.655 701.776 199.318 703.162C200.981 704.547 202.643 705.656 204.306 707.041C207.631 709.535 210.956 712.306 214.281 714.8C217.607 717.294 221.209 719.788 224.811 722.282C228.137 724.776 232.016 726.993 235.618 729.487C237.558 730.595 239.221 731.703 241.16 733.089C243.1 734.197 244.763 735.583 246.702 736.414C250.582 738.631 254.184 740.848 258.064 743.065C258.895 743.619 260.003 744.173 260.835 744.727L263.883 746.113C265.822 747.221 267.762 748.052 269.702 749.161C277.461 753.317 285.774 756.643 293.81 760.522C297.966 762.185 302.123 763.847 306.279 765.51C308.496 766.341 310.436 767.172 312.653 768.004L319.026 770.221L325.399 772.437C327.616 773.269 329.833 773.823 331.773 774.377C336.206 775.485 340.64 776.871 345.074 778.256C380.543 787.401 417.674 792.112 455.083 791.003C464.505 791.003 473.649 789.895 483.07 789.341C487.781 788.786 492.215 788.232 496.926 787.678C499.142 787.401 501.636 787.124 503.853 786.847L510.781 785.738C529.069 782.69 547.081 777.979 564.538 772.437C568.972 771.052 573.129 769.389 577.562 768.004C581.719 766.341 586.152 764.678 590.309 763.016C594.465 761.353 598.622 759.414 602.778 757.751C604.718 756.92 606.935 755.811 608.875 754.98L611.923 753.594L614.971 751.932C618.85 749.992 623.007 747.775 626.886 745.836C630.766 743.896 634.645 741.402 638.525 739.185C640.464 738.077 642.404 736.968 644.344 735.86C646.283 734.751 647.946 733.366 649.886 732.258C653.488 729.764 657.368 727.547 660.97 725.053C664.572 722.559 668.175 720.065 671.5 717.571C673.162 716.186 675.102 715.077 676.765 713.692C678.427 712.306 680.09 710.921 681.753 709.812C683.415 708.427 685.078 707.041 686.74 705.933C688.403 704.547 690.066 703.439 691.728 701.776C695.053 699.005 698.102 696.234 701.427 693.463C704.752 690.692 707.523 687.644 710.571 684.873C711.957 683.488 713.619 682.102 715.005 680.717C716.39 679.331 718.053 677.946 719.438 676.283C724.98 670.187 730.8 664.645 735.787 658.271C746.594 646.356 755.739 633.609 764.329 621.417C766.546 618.369 768.486 615.043 770.425 611.995C771.534 610.333 772.365 608.947 773.473 607.285L774.859 605.068L776.244 602.574C778.184 599.526 779.847 596.2 781.509 593.152C782.341 591.49 783.172 590.104 784.28 588.442C785.112 586.779 785.943 585.393 786.774 583.731C799.798 559.069 808.942 534.961 815.316 513.347C816.147 510.576 816.978 507.805 817.533 505.311C817.81 503.925 818.364 502.817 818.641 501.432C818.918 500.046 819.195 498.938 819.472 497.552C820.581 492.287 821.689 487.299 822.798 482.589C824.46 472.89 826.4 464.023 827.231 455.987C827.785 451.83 828.34 448.228 828.617 444.626C828.894 441.023 829.171 437.698 829.448 434.373C829.725 431.325 830.002 428.277 830.002 425.506C830.279 422.735 830.279 420.518 830.279 418.301C830.556 409.434 830.556 405 830.556 405H837.207C837.207 405 837.207 409.711 836.93 418.578C836.93 420.795 836.93 423.289 836.653 426.06C836.376 428.831 836.098 431.879 836.098 434.927C835.821 438.252 835.544 441.577 835.267 445.18C834.713 448.782 834.436 452.662 833.882 456.818C833.05 465.131 831.111 473.998 829.448 483.974C828.34 488.962 827.231 493.95 825.846 499.215C825.569 500.6 825.291 501.986 825.014 503.094C824.737 504.48 824.183 505.865 823.906 506.974C823.075 509.745 822.243 512.516 821.689 515.287C815.316 537.455 805.894 561.84 792.87 587.056C792.039 588.719 791.208 590.104 790.377 591.767C789.545 593.429 788.714 594.815 787.606 596.478C785.666 599.526 784.003 602.851 782.064 605.899L780.678 608.393L779.293 610.61C778.184 612.272 777.353 613.658 776.244 615.32C774.305 618.369 772.088 621.694 770.148 625.019C761.281 637.489 752.137 650.235 741.052 662.428C735.788 668.801 729.968 674.62 724.426 680.717C723.041 682.379 721.378 683.765 719.993 685.15C718.607 686.536 716.945 687.921 715.282 689.584C712.234 692.355 709.186 695.403 705.86 698.174C702.535 700.945 699.487 703.716 696.162 706.487C694.499 707.873 692.837 709.258 691.174 710.644C689.511 712.029 687.849 713.415 685.909 714.8C684.246 716.186 682.584 717.571 680.644 718.957C678.982 720.342 677.042 721.451 675.379 722.836C671.777 725.33 668.175 727.824 664.572 730.595C660.97 733.089 657.091 735.306 653.211 737.8C651.271 738.908 649.332 740.294 647.669 741.402C645.729 742.51 643.79 743.619 641.85 744.727C637.97 746.944 634.091 749.438 629.935 751.378C625.778 753.317 621.899 755.534 617.742 757.474L614.694 759.136L611.646 760.522C609.429 761.353 607.489 762.462 605.272 763.293C601.116 765.233 596.959 767.172 592.526 768.835C588.369 770.498 583.936 772.16 579.502 773.823C575.068 775.208 570.635 776.871 566.201 778.256C548.467 784.076 530.178 788.786 511.612 791.835L504.684 793.22C502.468 793.497 499.974 793.774 497.757 794.051C493.046 794.606 488.335 795.16 483.625 795.714C474.203 796.268 464.782 797.377 455.36 797.377C417.397 798.485 379.434 794.051 343.411 784.63C338.977 783.244 334.544 782.136 330.11 780.75C327.893 780.196 325.676 779.365 323.46 778.534L316.809 776.317C314.592 775.486 312.376 774.931 310.159 774.1C307.942 773.269 306.002 772.437 303.785 771.606C299.629 769.943 295.195 768.281 291.039 766.618C282.726 762.739 274.413 759.414 266.377 754.98C264.437 753.872 262.497 753.04 260.28 751.932L257.232 750.269C256.124 749.715 255.293 749.161 254.184 748.607C250.305 746.39 246.425 744.173 242.546 741.956C240.606 740.848 238.666 739.739 237.004 738.354C235.064 737.245 233.401 735.86 231.462 734.752C227.859 732.258 223.98 730.041 220.655 727.547C217.052 725.053 213.45 722.559 210.125 720.065C206.8 717.571 203.474 714.8 199.872 712.029C198.21 710.644 196.547 709.258 194.884 708.15C193.222 706.764 191.559 705.379 190.174 703.993C186.848 701.222 183.8 698.451 180.752 695.68C177.704 692.909 174.656 689.861 171.608 687.09C170.222 685.704 168.56 684.319 167.174 682.933C165.789 681.548 164.403 679.885 163.018 678.5C160.247 675.452 157.476 672.681 154.705 669.633C151.933 666.584 149.44 663.536 146.946 660.765C141.681 654.946 136.97 648.573 132.259 642.754C129.765 639.705 127.826 636.657 125.609 633.609C123.392 630.561 121.175 627.513 119.235 624.465C117.296 621.417 115.356 618.369 113.416 615.32C112.308 613.658 111.477 612.272 110.368 610.887L108.983 608.67L107.597 606.453C92.9108 582.068 82.3809 558.237 74.622 536.346C66.8631 514.732 62.1524 495.058 59.1043 478.709C58.273 474.553 57.7188 470.673 57.1646 467.071C56.8875 465.131 56.6104 463.469 56.3333 461.806C56.0562 460.143 55.7791 458.481 55.7791 456.818C54.9478 450.445 54.1165 444.903 53.8393 440.469C53.2851 431.602 52.731 426.891 52.731 426.891L58.8272 426.614Z" fill="#27FFF2"/>
</g>
<path opacity="0.03" d="M321.52 817.05C321.52 817.05 324.568 817.882 330.11 819.544C335.652 821.207 343.965 823.147 354.772 825.641C376.109 830.074 406.867 834.785 444.276 835.062C448.987 835.062 453.697 834.785 458.408 834.785C460.902 834.785 463.396 834.785 465.613 834.508C468.107 834.508 470.6 834.231 473.094 833.954C478.082 833.677 483.07 833.122 488.335 832.845C493.6 832.291 498.588 831.46 504.13 830.906C525.19 827.857 547.358 823.424 569.803 816.496C614.416 802.918 659.861 780.75 699.764 751.1C719.715 736.137 738.281 719.788 755.184 702.053C772.087 684.319 787.328 665.476 800.352 646.078C813.376 626.681 824.46 607.007 833.604 587.61C835.821 582.622 838.038 577.911 839.977 573.201C841.917 568.49 843.857 563.502 845.52 559.068C846.351 556.852 847.459 554.358 848.291 552.141C849.122 549.924 849.953 547.43 850.784 545.213C852.17 540.503 853.833 536.069 855.218 531.635C866.025 495.889 870.459 464.854 872.398 443.24C872.676 437.698 873.23 432.987 873.507 428.831C873.784 424.674 873.784 421.072 873.784 418.024C874.061 412.204 874.061 409.156 874.061 409.156H887.916C887.916 409.156 887.916 412.481 887.639 418.301C887.639 421.349 887.639 424.951 887.362 429.385C887.085 433.818 886.531 438.806 886.254 444.348C884.314 466.793 879.88 498.66 868.519 535.515C867.134 540.226 865.471 544.659 863.808 549.647C862.977 552.141 862.146 554.358 861.314 556.852C860.483 559.346 859.375 561.562 858.543 564.056C856.604 568.767 854.664 573.755 852.724 578.743C850.507 583.73 848.291 588.718 846.074 593.706C836.652 613.658 825.291 634.163 811.713 654.114C798.135 674.066 782.617 693.463 765.16 711.752C747.703 730.04 728.583 747.221 707.8 762.461C666.512 793.22 619.681 815.942 573.682 830.074C550.683 837.279 527.683 841.713 505.792 845.038C500.25 845.869 494.985 846.423 489.721 846.977C484.456 847.255 479.191 847.809 473.926 848.086C471.432 848.363 468.661 848.363 466.167 848.64C463.673 848.64 461.179 848.64 458.685 848.917C453.697 848.917 448.709 849.194 443.999 849.194C405.482 848.917 373.615 844.206 351.724 839.496C340.64 837.002 332.049 835.062 326.507 833.399C320.688 831.737 317.64 830.906 317.64 830.906L321.52 817.05Z" fill="#27FFF2"/>
<path opacity="0.03" d="M183.246 63.3334C183.246 63.3334 180.752 65.2731 176.318 68.8754C171.608 72.4777 165.234 78.0197 156.921 85.2244C154.704 86.887 152.765 89.1038 150.548 91.0436C148.331 92.9833 146.114 95.2001 143.62 97.4169C142.512 98.5253 141.126 99.6337 140.018 101.019C138.91 102.128 137.524 103.513 136.416 104.899C133.922 107.393 131.428 110.164 128.934 112.935C126.163 115.706 123.669 118.754 121.175 121.525C118.404 124.573 115.91 127.621 113.139 130.946C110.368 134.271 107.874 137.597 105.103 141.199C102.332 144.801 99.561 148.404 96.79 152.006C94.019 155.885 91.248 159.765 88.4769 163.644C85.7059 167.801 83.212 171.957 80.441 176.114C79.0555 178.331 77.67 180.27 76.2845 182.487C74.899 184.704 73.7906 186.921 72.405 189.138C71.0195 191.354 69.9111 193.571 68.5256 196.065C67.9714 197.174 67.1401 198.282 66.5859 199.39C66.0317 200.499 65.4775 201.884 64.6462 202.993C62.1523 207.704 59.6583 212.691 57.1644 217.402C54.6705 222.39 52.4537 227.378 50.2369 232.643C47.743 237.631 45.8032 243.173 43.8635 248.438C42.7551 251.209 41.6467 253.702 40.8154 256.473C39.707 259.245 38.8757 262.016 38.0444 264.787C22.5267 308.846 14.4907 358.724 14.4907 408.325C14.7678 458.204 24.1893 507.528 39.9841 551.587C48.0201 573.478 57.4415 593.984 67.6943 612.827C70.4653 617.537 72.9592 621.971 75.4532 626.405C78.2242 630.838 80.9952 634.995 83.7662 639.429C85.1517 641.645 86.5372 643.585 87.9228 645.802C89.3083 647.742 90.6938 649.681 92.0793 651.898C94.8503 655.778 97.6213 659.657 100.392 663.536C122.838 693.186 145.283 715.077 161.632 729.487C163.572 731.149 165.511 733.089 167.451 734.475C169.391 736.137 171.053 737.523 172.716 738.908C176.041 741.402 178.812 743.619 181.029 745.559C183.246 747.221 185.186 748.607 186.294 749.715C187.402 750.546 188.234 751.101 188.234 751.101L179.921 762.185C179.921 762.185 179.366 761.631 177.981 760.799C176.873 759.968 174.933 758.305 172.439 756.643C169.945 754.703 167.174 752.486 163.849 749.715C162.186 748.33 160.246 746.944 158.584 745.282C156.644 743.619 154.704 741.956 152.488 740.017C135.584 725.33 112.308 702.885 89.0311 672.127C86.2601 668.247 83.4891 664.091 80.441 660.211C79.0555 658.272 77.3929 656.055 76.0074 654.115C74.6218 651.898 73.2363 649.681 71.8508 647.742C69.0798 643.308 66.0317 638.874 63.2607 634.441C60.4896 629.73 57.9957 625.019 55.2247 620.308C44.6948 600.911 34.7192 579.852 26.4061 557.129C10.0571 511.684 0.358517 460.698 0.0814146 409.157C-0.195687 357.893 8.11736 306.352 24.1893 260.907C25.2977 258.136 26.129 255.088 27.2374 252.317C28.3458 249.546 29.4542 246.775 30.5626 244.004C32.7795 238.462 34.7192 232.92 37.2131 227.655C39.707 222.39 41.9238 217.125 44.4177 212.137C46.9117 207.149 49.6827 202.161 52.1766 197.174C52.7308 196.065 53.285 194.68 54.1163 193.571C54.6705 192.463 55.5018 191.077 56.056 189.969C57.4415 187.475 58.827 185.258 60.2125 183.041C61.5981 180.825 62.9836 178.331 64.092 176.114C65.4775 173.897 66.863 171.68 68.2485 169.463C71.0195 165.03 73.7906 160.873 76.5616 156.717C79.3326 152.56 82.3807 148.681 85.1517 144.801C87.9228 140.922 90.6938 137.043 93.7419 133.44C96.5129 129.838 99.284 126.236 102.055 122.91C104.826 119.585 107.597 116.26 110.368 113.212C113.139 110.164 115.633 107.115 118.404 104.067C121.175 101.296 123.669 98.5253 126.163 95.7543C127.548 94.3688 128.657 93.2604 129.765 91.8749C131.151 90.7665 132.259 89.3809 133.367 88.2725C135.861 86.0557 138.078 83.5618 140.295 81.6221C142.512 79.4052 144.729 77.4655 146.668 75.5258C155.259 68.0441 161.632 62.2249 166.62 58.6226C171.33 55.0203 173.824 52.8035 173.824 52.8035L183.246 63.3334Z" fill="#27FFF2"/>
</svg>
