<svg width="622" height="622" viewBox="0 0 622 622" fill="none" xmlns="http://www.w3.org/2000/svg">
<g opacity="0.7">
<path d="M529.356 317.651L529.633 311H511.344L511.067 317.097L529.356 317.651Z" fill="#27FFF2"/>
<path d="M528.801 327.904C528.801 327.904 528.801 326.241 529.079 324.578C529.079 323.747 529.078 322.916 529.356 322.362C529.356 321.807 529.356 321.253 529.356 321.253L511.067 320.422C511.067 320.422 511.067 320.699 511.067 321.53C511.067 322.084 511.067 322.916 510.79 323.747C510.79 325.41 510.513 326.795 510.513 326.795L528.801 327.904Z" fill="#27FFF2"/>
<path d="M527.97 338.156C527.97 338.156 528.247 336.494 528.524 334.831C528.801 333.169 528.801 331.506 528.801 331.506L510.513 329.843C510.513 329.843 510.513 331.506 510.236 332.891C509.959 334.554 509.958 335.94 509.958 335.94L527.97 338.156Z" fill="#27FFF2"/>
<path d="M526.309 348.409C526.309 348.409 526.586 346.746 526.863 345.084C527.14 344.253 527.14 343.421 527.14 342.867C527.14 342.313 527.14 341.759 527.14 341.759L509.128 339.265C509.128 339.265 509.128 339.542 509.128 340.096C509.128 340.65 508.851 341.481 508.851 342.313C508.574 343.975 508.297 345.361 508.297 345.361L526.309 348.409Z" fill="#27FFF2"/>
<path d="M524.368 358.384C524.368 358.384 524.645 356.722 525.199 355.059C525.476 353.397 525.753 351.734 525.753 351.734L507.741 348.409C507.741 348.409 507.464 350.071 507.187 351.457C506.91 352.842 506.356 354.505 506.356 354.505L524.368 358.384Z" fill="#27FFF2"/>
<path d="M521.874 368.36C521.874 368.36 522.428 366.698 522.705 365.035C522.983 363.372 523.537 361.71 523.537 361.71L505.802 357.553C505.802 357.553 505.525 358.939 504.971 360.601C504.694 361.987 504.14 363.65 504.14 363.65L521.874 368.36Z" fill="#27FFF2"/>
<path d="M519.104 378.059C519.104 378.059 519.104 377.782 519.381 376.951C519.658 376.397 519.935 375.565 520.213 374.734C520.767 373.071 521.044 371.409 521.044 371.409L503.586 366.421C503.586 366.421 503.032 367.806 502.755 369.469C502.478 370.3 502.201 370.854 502.201 371.409C501.924 371.963 501.924 372.24 501.924 372.24L519.104 378.059Z" fill="#27FFF2"/>
<path d="M515.5 387.758C515.5 387.758 515.777 387.481 515.777 386.649C516.054 386.095 516.331 385.264 516.609 384.433C517.163 382.77 517.717 381.107 517.717 381.107L500.537 375.288C500.537 375.288 499.982 376.674 499.428 378.336C499.151 379.168 498.874 379.722 498.597 380.276C498.32 380.83 498.32 381.107 498.32 381.107L515.5 387.758Z" fill="#27FFF2"/>
<path d="M511.898 397.457C511.898 397.457 512.73 395.794 513.284 394.409C513.838 392.746 514.669 391.36 514.669 391.36L497.766 384.71C497.766 384.71 497.212 386.095 496.658 387.481C496.104 388.866 495.549 390.252 495.549 390.252L511.898 397.457Z" fill="#27FFF2"/>
<path d="M507.465 406.878C507.465 406.878 507.742 406.601 508.019 406.047C508.296 405.492 508.573 404.661 509.127 403.83C509.959 402.167 510.513 400.782 510.513 400.782L493.887 393.3C493.887 393.3 493.333 394.685 492.501 396.071C492.224 396.902 491.947 397.456 491.67 398.011C491.393 398.565 491.116 398.842 491.116 398.842L507.465 406.878Z" fill="#27FFF2"/>
<path d="M502.756 415.745C502.756 415.745 503.033 415.467 503.31 414.913C503.587 414.359 503.864 413.528 504.418 412.974C505.249 411.588 506.081 409.925 506.081 409.925L489.732 401.612C489.732 401.612 488.9 402.998 488.346 404.383C488.069 404.938 487.515 405.769 487.238 406.323C486.961 406.877 486.684 407.154 486.684 407.154L502.756 415.745Z" fill="#27FFF2"/>
<path d="M497.765 424.889C497.765 424.889 498.043 424.612 498.32 424.058C498.597 423.504 499.151 422.673 499.428 422.118C500.259 420.733 501.091 419.07 501.091 419.07L485.296 409.926C485.296 409.926 484.465 411.311 483.633 412.697C483.356 413.251 482.802 414.082 482.525 414.637C482.248 415.191 481.971 415.468 481.971 415.468L497.765 424.889Z" fill="#27FFF2"/>
<path d="M491.948 433.479C491.948 433.479 492.225 433.202 492.502 432.648C492.779 432.094 493.333 431.263 493.888 430.708C494.719 429.323 495.827 427.937 495.827 427.937L480.31 418.239C480.31 418.239 479.478 419.624 478.647 420.733C478.093 421.287 477.816 422.118 477.539 422.395C477.262 422.95 476.984 423.227 476.984 423.227L491.948 433.479Z" fill="#27FFF2"/>
<path d="M486.128 441.793L490.008 436.251L475.044 425.721L471.442 430.709L486.128 441.793Z" fill="#27FFF2"/>
<path d="M479.755 449.828L483.912 444.563L469.503 433.202L465.623 438.19L479.755 449.828Z" fill="#27FFF2"/>
<path d="M473.103 457.587L477.537 452.322L463.682 440.684L459.525 445.395L473.103 457.587Z" fill="#27FFF2"/>
<path d="M465.9 465.069L470.611 460.081L457.31 447.611L453.153 452.045L465.9 465.069Z" fill="#27FFF2"/>
<path d="M458.694 471.996L463.405 467.286L450.658 454.262L446.225 458.695L458.694 471.996Z" fill="#27FFF2"/>
<path d="M450.936 478.924L455.923 474.491L444.008 460.636L439.297 464.792L450.936 478.924Z" fill="#27FFF2"/>
<path d="M442.9 485.297L448.164 481.141L436.803 466.731L431.815 470.611L442.9 485.297Z" fill="#27FFF2"/>
<path d="M434.589 491.117L440.131 487.237L429.324 472.551L424.059 476.153L434.589 491.117Z" fill="#27FFF2"/>
<path d="M425.996 496.936L431.538 493.057L421.562 477.816L416.297 481.141L425.996 496.936Z" fill="#27FFF2"/>
<path d="M417.13 501.924L422.949 498.598L413.528 482.804L408.263 486.129L417.13 501.924Z" fill="#27FFF2"/>
<path d="M407.985 506.635L414.081 503.587L405.491 487.515L399.949 490.286L407.985 506.635Z" fill="#27FFF2"/>
<path d="M398.563 511.068L404.936 508.297L396.9 491.671L391.358 494.442L398.563 511.068Z" fill="#27FFF2"/>
<path d="M389.143 514.947L395.516 512.453L388.311 495.55L382.492 498.044L389.143 514.947Z" fill="#27FFF2"/>
<path d="M379.443 518.55L385.816 516.333L379.72 499.153L373.624 501.093L379.443 518.55Z" fill="#27FFF2"/>
<path d="M369.746 521.321L376.12 519.659L370.855 502.201L364.758 503.864L369.746 521.321Z" fill="#27FFF2"/>
<path d="M359.77 523.815C359.77 523.815 361.432 523.538 363.095 522.984C363.926 522.707 364.758 522.707 365.312 522.43C365.866 522.43 366.42 522.152 366.42 522.152L361.709 504.418C361.709 504.418 361.432 504.418 360.878 504.695C360.324 504.695 359.493 504.972 358.661 505.249C357.276 505.526 355.613 506.081 355.613 506.081L359.77 523.815Z" fill="#27FFF2"/>
<path d="M349.517 526.032C349.517 526.032 351.18 525.755 352.842 525.478C353.674 525.201 354.505 525.201 355.059 524.923C355.613 524.646 356.168 524.646 356.168 524.646L352.288 506.635C352.288 506.635 352.011 506.635 351.457 506.912C350.903 506.912 350.071 507.189 349.24 507.189C347.577 507.466 346.192 507.743 346.192 507.743L349.517 526.032Z" fill="#27FFF2"/>
<path d="M339.541 527.417C339.541 527.417 341.203 527.14 342.866 526.863C344.528 526.586 346.191 526.309 346.191 526.309L343.42 508.297C343.42 508.297 341.757 508.574 340.372 508.851C338.709 509.128 337.324 509.128 337.324 509.128L339.541 527.417Z" fill="#27FFF2"/>
<path d="M329.289 528.525C329.289 528.525 330.951 528.525 332.614 528.248C333.445 528.248 334.277 527.971 334.831 527.971C335.385 527.971 335.939 527.971 335.939 527.971L334 509.682C334 509.682 333.722 509.682 333.168 509.682C332.614 509.682 331.783 509.959 330.951 509.959C329.289 509.959 327.903 510.236 327.903 510.236L329.289 528.525Z" fill="#27FFF2"/>
<path d="M319.036 529.079C319.036 529.079 320.699 529.079 322.361 529.079C324.024 529.079 325.687 528.802 325.687 528.802L324.578 510.514C324.578 510.514 322.915 510.514 321.53 510.791C319.867 510.791 318.482 510.791 318.482 510.791L319.036 529.079Z" fill="#27FFF2"/>
<path d="M308.783 529.357C308.783 529.357 309.337 529.357 309.891 529.357C310.445 529.357 311.277 529.357 312.108 529.357C313.771 529.357 315.433 529.357 315.433 529.357L315.156 511.068C315.156 511.068 313.493 511.068 312.108 511.068C311.277 511.068 310.445 511.068 309.891 511.068C309.337 511.068 308.783 511.068 308.783 511.068V529.357Z" fill="#27FFF2"/>
<path d="M298.529 529.08C298.529 529.08 300.192 529.357 301.855 529.357C303.517 529.357 305.18 529.357 305.18 529.357L305.734 511.068C305.734 511.068 304.071 511.068 302.686 511.068C301.023 511.068 299.638 510.791 299.638 510.791L298.529 529.08Z" fill="#27FFF2"/>
<path d="M288.278 528.248C288.278 528.248 288.833 528.248 289.387 528.248C289.941 528.248 290.772 528.248 291.604 528.525C293.266 528.525 294.929 528.802 294.929 528.802L296.314 510.514C296.314 510.514 294.652 510.514 293.266 510.237C292.435 510.237 291.604 510.237 291.049 509.959C290.495 509.959 290.218 509.959 290.218 509.959L288.278 528.248Z" fill="#27FFF2"/>
<path d="M278.025 526.863L284.952 527.694L287.169 509.683L280.796 508.852L278.025 526.863Z" fill="#27FFF2"/>
<path d="M268.047 525.2L274.698 526.309L277.746 508.297L271.65 507.188L268.047 525.2Z" fill="#27FFF2"/>
<path d="M258.073 522.707L264.724 524.369L268.603 506.358L262.507 504.972L258.073 522.707Z" fill="#27FFF2"/>
<path d="M248.097 520.213L254.748 521.875L259.458 504.418L253.362 502.478L248.097 520.213Z" fill="#27FFF2"/>
<path d="M238.399 516.887L244.773 519.104L250.315 501.647L244.496 499.707L238.399 516.887Z" fill="#27FFF2"/>
<path d="M228.702 513.285L235.075 515.779L241.448 498.599L235.629 496.382L228.702 513.285Z" fill="#27FFF2"/>
<path d="M219.279 509.129L225.375 511.9L232.58 494.996L227.038 492.502L219.279 509.129Z" fill="#27FFF2"/>
<path d="M210.135 504.694L216.231 507.742L223.99 491.116L218.448 488.345L210.135 504.694Z" fill="#27FFF2"/>
<path d="M200.99 499.707L207.086 503.032L215.677 486.96L210.412 483.912L200.99 499.707Z" fill="#27FFF2"/>
<path d="M192.4 494.164L198.219 497.767L207.641 482.249L202.376 478.924L192.4 494.164Z" fill="#27FFF2"/>
<path d="M183.809 488.345C183.809 488.345 185.195 489.454 186.58 490.285C187.411 490.839 187.966 491.393 188.52 491.671C189.074 491.948 189.351 492.225 189.351 492.225L199.604 476.984C199.604 476.984 199.327 476.707 198.773 476.43C198.218 476.153 197.664 475.599 197.11 475.321C195.724 474.49 194.616 473.382 194.616 473.382L183.809 488.345Z" fill="#27FFF2"/>
<path d="M175.774 482.25C175.774 482.25 177.16 483.358 178.545 484.466C179.1 485.021 179.931 485.575 180.485 485.852C181.039 486.129 181.316 486.406 181.316 486.406L192.123 471.72C192.123 471.72 191.846 471.443 191.292 471.166C190.738 470.888 190.184 470.334 189.63 469.78C188.521 468.949 187.136 467.84 187.136 467.84L175.774 482.25Z" fill="#27FFF2"/>
<path d="M167.738 475.599C167.738 475.599 169.124 476.708 170.232 477.816C170.786 478.37 171.618 478.924 171.895 479.202C172.449 479.479 172.726 479.756 172.726 479.756L184.364 465.624C184.364 465.624 184.087 465.347 183.533 465.069C182.979 464.792 182.425 464.238 181.87 463.684C180.762 462.575 179.654 461.744 179.654 461.744L167.738 475.599Z" fill="#27FFF2"/>
<path d="M160.256 468.671C160.256 468.671 161.365 469.78 162.75 470.888C163.304 471.442 163.859 471.996 164.413 472.551C164.967 473.105 165.244 473.382 165.244 473.382L177.437 459.804C177.437 459.804 177.16 459.527 176.605 459.25C176.051 458.973 175.497 458.419 174.943 457.864C173.834 456.756 172.726 455.647 172.726 455.647L160.256 468.671Z" fill="#27FFF2"/>
<path d="M127.557 429.323C127.557 429.323 128.388 430.708 129.497 432.094C130.051 432.925 130.328 433.479 130.882 434.034C131.159 434.588 131.437 434.865 131.437 434.865L146.4 424.335C146.4 424.335 146.123 424.058 145.846 423.504C145.569 422.949 145.015 422.395 144.737 421.841C143.906 420.456 143.075 419.347 143.075 419.347L127.557 429.323Z" fill="#27FFF2"/>
<path d="M122.293 420.456C122.293 420.456 123.124 421.842 123.956 423.504C124.787 424.89 125.618 426.275 125.618 426.275L141.136 416.577C141.136 416.577 140.305 415.191 139.473 413.806C138.642 412.42 137.811 411.035 137.811 411.035L122.293 420.456Z" fill="#27FFF2"/>
<path d="M117.305 411.588C117.305 411.588 118.136 412.973 118.968 414.636C119.799 416.022 120.63 417.684 120.63 417.684L136.702 408.817C136.702 408.817 135.871 407.431 135.04 406.046C134.208 404.66 133.654 403.275 133.654 403.275L117.305 411.588Z" fill="#27FFF2"/>
<path d="M112.872 402.444C112.872 402.444 113.703 404.107 114.257 405.492C115.088 406.878 115.92 408.54 115.92 408.54L132.269 400.227C132.269 400.227 131.437 398.842 130.883 397.456C130.329 396.071 129.498 394.685 129.498 394.685L112.872 402.444Z" fill="#27FFF2"/>
<path d="M108.714 393.023C108.714 393.023 109.269 394.685 110.1 396.071C110.931 397.733 111.485 399.119 111.485 399.119L128.112 391.637C128.112 391.637 127.557 390.252 126.726 388.866C126.172 387.481 125.618 386.095 125.618 386.095L108.714 393.023Z" fill="#27FFF2"/>
<path d="M105.113 383.324C105.113 383.324 105.668 384.986 106.222 386.649C106.776 388.312 107.33 389.697 107.33 389.697L124.51 383.047C124.51 383.047 123.956 381.661 123.402 380.276C122.848 378.89 122.294 377.228 122.294 377.228L105.113 383.324Z" fill="#27FFF2"/>
<path d="M101.787 373.626C101.787 373.626 101.787 373.903 102.064 374.734C102.341 375.288 102.341 376.119 102.618 376.951C103.173 378.613 103.727 380.276 103.727 380.276L121.184 374.457C121.184 374.457 120.63 373.071 120.076 371.409C119.799 370.577 119.522 370.023 119.522 369.469C119.245 368.915 119.245 368.638 119.245 368.638L101.787 373.626Z" fill="#27FFF2"/>
<path d="M99.293 363.65C99.293 363.65 99.57 365.313 100.124 366.975C100.678 368.638 100.956 370.3 100.956 370.3L118.413 365.313C118.413 365.313 117.859 363.927 117.582 362.264C117.027 360.879 116.75 359.216 116.75 359.216L99.293 363.65Z" fill="#27FFF2"/>
<path d="M96.7993 353.674C96.7993 353.674 96.7993 354.228 97.0764 354.782C97.3535 355.337 97.3535 356.168 97.6306 356.999C97.9077 358.662 98.4619 360.325 98.4619 360.325L116.196 356.168C116.196 356.168 115.919 354.782 115.365 353.12C115.088 352.289 115.088 351.734 114.811 350.903C114.811 350.349 114.534 350.072 114.534 350.072L96.7993 353.674Z" fill="#27FFF2"/>
<path d="M95.1377 343.421C95.1377 343.421 95.1377 343.976 95.4148 344.53C95.4148 345.084 95.6919 345.915 95.6919 346.747C95.969 348.409 96.2461 350.072 96.2461 350.072L114.258 346.747C114.258 346.747 113.981 345.084 113.704 343.699C113.704 342.867 113.426 342.036 113.426 341.482C113.426 340.928 113.149 340.65 113.149 340.65L95.1377 343.421Z" fill="#27FFF2"/>
<path d="M93.751 333.446L94.5822 340.097L112.871 337.603L112.04 331.506L93.751 333.446Z" fill="#27FFF2"/>
<path d="M93.1978 323.193L93.4749 329.843L111.764 328.181L111.209 322.084L93.1978 323.193Z" fill="#27FFF2"/>
<path d="M92.6436 312.94L92.9207 319.591L111.209 319.036L110.932 312.663L92.6436 312.94Z" fill="#27FFF2"/>
<path d="M92.9207 303.242L92.6436 310.169H110.932L111.209 304.073L92.9207 303.242Z" fill="#27FFF2"/>
<path d="M93.4741 292.989L92.9199 299.916L111.209 300.748L111.763 294.651L93.4741 292.989Z" fill="#27FFF2"/>
<path d="M94.5822 283.013C94.5822 283.013 94.3052 284.676 94.0281 286.338C94.0281 287.17 93.751 288.001 93.751 288.555C93.751 289.109 93.751 289.664 93.751 289.664L112.04 291.326C112.04 291.326 112.04 291.049 112.04 290.495C112.04 289.941 112.317 289.109 112.317 288.278C112.594 286.615 112.594 285.23 112.594 285.23L94.5822 283.013Z" fill="#27FFF2"/>
<path d="M98.1855 262.785C98.1855 262.785 97.9084 264.447 97.3542 266.11C97.0771 266.941 97.0771 267.773 96.8 268.327C96.8 268.881 96.5229 269.435 96.5229 269.435L114.535 273.037C114.535 273.037 114.535 272.76 114.812 272.206C114.812 271.652 115.089 270.821 115.366 269.989C115.643 268.604 116.197 266.941 116.197 266.941L98.1855 262.785Z" fill="#27FFF2"/>
<path d="M100.679 252.809C100.679 252.809 100.125 254.472 99.8479 256.134C99.5708 257.797 99.0166 259.46 99.0166 259.46L116.751 263.893C116.751 263.893 117.028 262.508 117.582 260.845C118.137 259.46 118.414 257.797 118.414 257.797L100.679 252.809Z" fill="#27FFF2"/>
<path d="M103.452 242.833C103.452 242.833 102.898 244.496 102.344 246.158C101.789 247.821 101.512 249.483 101.512 249.483L118.97 254.748C118.97 254.748 119.524 253.363 119.801 251.7C120.355 250.315 120.909 248.652 120.909 248.652L103.452 242.833Z" fill="#27FFF2"/>
<path d="M107.052 233.135C107.052 233.135 106.498 234.797 105.944 236.183C105.39 237.846 104.835 239.508 104.835 239.508L122.016 245.604C122.016 245.604 122.57 244.219 123.124 242.556C123.678 241.171 124.233 239.785 124.233 239.785L107.052 233.135Z" fill="#27FFF2"/>
<path d="M110.933 223.713C110.933 223.713 110.656 223.99 110.378 224.545C110.101 225.099 109.824 225.93 109.547 226.761C108.993 228.424 108.162 229.81 108.162 229.81L125.065 236.46C125.065 236.46 125.619 235.075 126.173 233.689C126.45 232.858 126.727 232.304 127.005 231.749C127.282 231.195 127.282 230.918 127.282 230.918L110.933 223.713Z" fill="#27FFF2"/>
<path d="M115.089 214.292C115.089 214.292 114.812 214.569 114.534 215.123C114.257 215.678 113.98 216.509 113.426 217.34C112.595 219.003 112.041 220.388 112.041 220.388L128.667 227.87C128.667 227.87 129.221 226.485 130.052 225.099C130.329 224.268 130.606 223.713 130.883 223.159C131.161 222.605 131.438 222.328 131.438 222.328L115.089 214.292Z" fill="#27FFF2"/>
<path d="M130.606 187.69C130.606 187.69 130.329 187.967 130.052 188.521C129.775 189.075 129.22 189.63 128.666 190.461C127.835 191.846 126.727 193.232 126.727 193.232L142.244 203.208C142.244 203.208 143.076 201.822 143.907 200.714C144.461 200.16 144.738 199.328 145.015 199.051C145.292 198.497 145.57 198.22 145.57 198.22L130.606 187.69Z" fill="#27FFF2"/>
<path d="M136.703 179.377C136.703 179.377 136.426 179.655 136.148 180.209C135.871 180.763 135.317 181.317 134.763 182.148C133.655 183.534 132.823 184.919 132.823 184.919L147.787 195.449C147.787 195.449 148.618 194.064 149.726 192.955C150.281 192.401 150.558 191.57 150.835 191.293C151.112 190.739 151.389 190.462 151.389 190.462L136.703 179.377Z" fill="#27FFF2"/>
<path d="M143.076 171.341C143.076 171.341 142.799 171.618 142.522 172.173C142.245 172.727 141.691 173.281 141.137 174.112C140.028 175.498 138.92 176.883 138.92 176.883L153.329 188.245C153.329 188.245 154.161 187.136 155.269 185.751C155.823 185.196 156.1 184.642 156.654 184.088C156.932 183.534 157.209 183.257 157.209 183.257L143.076 171.341Z" fill="#27FFF2"/>
<path d="M149.726 163.582C149.726 163.582 149.449 163.859 148.895 164.413C148.34 164.968 147.786 165.522 147.232 166.076C146.124 167.461 145.015 168.57 145.015 168.57L158.87 180.485C158.87 180.485 159.979 179.377 160.81 178.268C161.364 177.714 161.918 177.16 162.195 176.606C162.473 176.052 162.75 175.775 162.75 175.775L149.726 163.582Z" fill="#27FFF2"/>
<path d="M156.931 156.1C156.931 156.1 156.654 156.377 156.1 156.931C155.545 157.486 154.991 158.04 154.437 158.594C153.329 159.702 152.22 161.088 152.22 161.088L165.521 173.558L169.955 169.124L156.931 156.1Z" fill="#27FFF2"/>
<path d="M164.414 149.173L159.426 153.884L172.172 166.907L176.606 162.751L164.414 149.173Z" fill="#27FFF2"/>
<path d="M172.171 142.522L166.906 146.956L179.099 160.534L183.809 156.654L172.171 142.522Z" fill="#27FFF2"/>
<path d="M180.209 136.149L174.944 140.305L186.305 154.438L191.016 150.835L180.209 136.149Z" fill="#27FFF2"/>
<path d="M188.521 130.053L182.979 133.932L193.785 148.896L198.773 145.293L188.521 130.053Z" fill="#27FFF2"/>
<path d="M197.112 124.511L191.292 128.113L201.545 143.631L206.81 140.028L197.112 124.511Z" fill="#27FFF2"/>
<path d="M205.977 119.522L200.158 122.848L209.303 138.642L214.845 135.317L205.977 119.522Z" fill="#27FFF2"/>
<path d="M215.123 114.812L209.026 117.861L217.617 133.933L223.159 131.162L215.123 114.812Z" fill="#27FFF2"/>
<path d="M224.543 110.378L218.17 113.149L225.929 129.776L231.748 127.282L224.543 110.378Z" fill="#27FFF2"/>
<path d="M233.966 106.5L227.593 108.993L234.52 125.897L240.339 123.68L233.966 106.5Z" fill="#27FFF2"/>
<path d="M273.591 95.6919C273.591 95.6919 271.928 95.969 270.266 96.2461C269.434 96.5232 268.603 96.5232 268.049 96.8003C267.495 96.8003 266.94 97.0774 266.94 97.0774L270.543 115.089L276.639 113.981L273.591 95.6919Z" fill="#27FFF2"/>
<path d="M283.844 94.3066C283.844 94.3066 282.182 94.5838 280.519 94.8609C279.688 94.8609 278.856 95.138 278.302 95.138C277.748 95.138 277.194 95.4151 277.194 95.4151L279.965 113.427C279.965 113.427 280.242 113.427 280.796 113.15C281.35 113.15 282.182 112.873 283.013 112.873C284.676 112.595 286.061 112.595 286.061 112.595L283.844 94.3066Z" fill="#27FFF2"/>
<path d="M293.818 93.1982C293.818 93.1982 292.156 93.1983 290.493 93.4754C288.831 93.4754 287.168 93.7524 287.168 93.7524L289.108 112.041C289.108 112.041 290.77 111.764 292.156 111.764C293.818 111.764 295.204 111.487 295.204 111.487L293.818 93.1982Z" fill="#27FFF2"/>
<path d="M304.071 92.644C304.071 92.644 302.408 92.644 300.746 92.644C299.914 92.644 299.083 92.644 298.529 92.644C297.975 92.644 297.42 92.644 297.42 92.644L298.529 110.933C298.529 110.933 298.806 110.933 299.36 110.933C299.914 110.933 300.746 110.933 301.577 110.933C303.24 110.933 304.625 110.933 304.625 110.933L304.071 92.644Z" fill="#27FFF2"/>
<path d="M314.325 92.644C314.325 92.644 312.662 92.644 311 92.644C309.337 92.644 307.674 92.644 307.674 92.644L307.951 110.933C307.951 110.933 309.614 110.933 311 110.933C312.662 110.933 314.048 110.933 314.048 110.933L314.325 92.644Z" fill="#27FFF2"/>
<path d="M324.578 92.9214C324.578 92.9214 324.024 92.9214 323.47 92.9214C322.916 92.9214 322.084 92.9214 321.253 92.9214C319.59 92.9214 317.928 92.9214 317.928 92.9214L317.374 111.21C317.374 111.21 319.036 111.21 320.422 111.21C321.253 111.21 322.084 111.21 322.639 111.21C323.193 111.21 323.47 111.21 323.47 111.21L324.578 92.9214Z" fill="#27FFF2"/>
<path d="M334.831 93.7524C334.831 93.7524 333.168 93.4754 331.506 93.4754C329.843 93.4754 328.18 93.1982 328.18 93.1982L326.795 111.487C326.795 111.487 328.457 111.487 329.843 111.764C331.506 111.764 332.891 112.041 332.891 112.041L334.831 93.7524Z" fill="#27FFF2"/>
<path d="M345.082 95.1382C345.082 95.1382 344.528 95.1382 343.974 94.8611C343.419 94.8611 342.588 94.584 341.757 94.584C340.094 94.3069 338.432 94.0298 338.432 94.0298L336.215 112.041C336.215 112.041 337.877 112.318 339.263 112.318C340.094 112.318 340.926 112.596 341.48 112.596C342.034 112.596 342.311 112.873 342.311 112.873L345.082 95.1382Z" fill="#27FFF2"/>
<path d="M355.06 96.8003L348.409 95.6919L345.361 113.704L351.458 114.812L355.06 96.8003Z" fill="#27FFF2"/>
<path d="M365.034 99.2944L358.661 97.6318L354.504 115.643L360.601 117.029L365.034 99.2944Z" fill="#27FFF2"/>
<path d="M375.011 102.065L368.637 100.125L363.649 117.86L369.746 119.523L375.011 102.065Z" fill="#27FFF2"/>
<path d="M384.708 105.114L378.335 103.174L372.793 120.355L378.612 122.294L384.708 105.114Z" fill="#27FFF2"/>
<path d="M394.407 108.993L388.033 106.5L381.66 123.403L387.479 125.897L394.407 108.993Z" fill="#27FFF2"/>
<path d="M403.828 113.149L397.732 110.378L390.25 127.005L396.07 129.498L403.828 113.149Z" fill="#27FFF2"/>
<path d="M412.973 117.583L406.877 114.535L398.841 130.884L404.383 133.932L412.973 117.583Z" fill="#27FFF2"/>
<path d="M421.84 122.571L416.021 119.246L407.154 135.318L412.696 138.366L421.84 122.571Z" fill="#27FFF2"/>
<path d="M430.708 128.113L424.889 124.511L415.468 140.028L420.733 143.354L430.708 128.113Z" fill="#27FFF2"/>
<path d="M439.02 133.932L433.478 130.053L423.225 145.016L428.49 148.619L439.02 133.932Z" fill="#27FFF2"/>
<path d="M447.333 140.029L442.068 135.872L430.984 150.558L435.972 154.438L447.333 140.029Z" fill="#27FFF2"/>
<path d="M455.092 146.679L450.105 142.245L438.466 156.377L443.177 160.534L455.092 146.679Z" fill="#27FFF2"/>
<path d="M462.574 153.607C462.574 153.607 461.466 152.498 460.08 151.39C459.526 150.836 458.972 150.281 458.418 149.727C457.864 149.173 457.587 148.896 457.587 148.896L445.394 162.474C445.394 162.474 445.671 162.751 446.225 163.028C446.78 163.305 447.334 163.859 447.888 164.414C448.996 165.522 450.105 166.631 450.105 166.631L462.574 153.607Z" fill="#27FFF2"/>
<path d="M469.779 160.811C469.779 160.811 468.671 159.703 467.563 158.317C467.008 157.763 466.454 157.209 465.9 156.655C465.346 156.1 465.069 155.823 465.069 155.823L452.045 168.847C452.045 168.847 452.322 169.124 452.599 169.401C452.876 169.955 453.43 170.51 453.985 171.064C455.093 172.172 456.201 173.281 456.201 173.281L469.779 160.811Z" fill="#27FFF2"/>
<path d="M476.707 168.57C476.707 168.57 475.598 167.184 474.49 166.076C473.936 165.522 473.381 164.69 472.827 164.413C472.273 163.859 471.996 163.582 471.996 163.582L458.418 176.052C458.418 176.052 458.695 176.329 458.972 176.883C459.249 177.437 459.803 177.991 460.358 178.546C461.466 179.654 462.297 180.762 462.297 180.762L476.707 168.57Z" fill="#27FFF2"/>
<path d="M483.358 176.329C483.358 176.329 482.249 174.943 481.141 173.558C480.587 173.003 480.032 172.172 479.755 171.618C479.478 171.064 479.201 170.787 479.201 170.787L465.069 182.425C465.069 182.425 465.346 182.702 465.623 183.256C465.9 183.81 466.454 184.365 467.009 184.919C467.84 186.027 468.948 187.413 468.948 187.413L483.358 176.329Z" fill="#27FFF2"/>
<path d="M489.453 184.642C489.453 184.642 488.345 183.256 487.514 181.871C486.96 181.316 486.405 180.485 486.128 179.931C485.851 179.377 485.574 179.1 485.574 179.1L470.888 190.184C470.888 190.184 471.165 190.461 471.442 191.015C471.719 191.569 472.273 192.123 472.827 192.678C473.659 194.063 474.767 195.172 474.767 195.172L489.453 184.642Z" fill="#27FFF2"/>
<path d="M495.273 193.232C495.273 193.232 494.441 191.846 493.333 190.461C492.502 189.075 491.393 187.69 491.393 187.69L476.43 197.943C476.43 197.943 477.261 199.328 478.092 200.437C478.924 201.822 479.755 202.931 479.755 202.931L495.273 193.232Z" fill="#27FFF2"/>
<path d="M500.537 201.822C500.537 201.822 499.706 200.437 498.875 198.774C498.043 197.388 497.212 196.003 497.212 196.003L481.694 205.702C481.694 205.702 482.526 207.087 483.357 208.473C484.188 209.858 485.02 211.244 485.02 211.244L500.537 201.822Z" fill="#27FFF2"/>
<path d="M505.525 210.966C505.525 210.966 504.694 209.581 503.862 207.918C503.585 207.087 503.031 206.532 502.754 205.978C502.477 205.424 502.2 205.147 502.2 205.147L486.128 214.014C486.128 214.014 486.405 214.291 486.682 214.846C486.959 215.4 487.236 215.954 487.79 216.785C488.622 218.171 489.176 219.556 489.176 219.556L505.525 210.966Z" fill="#27FFF2"/>
<path d="M509.96 220.111C509.96 220.111 509.128 218.449 508.574 217.063C508.297 216.232 507.743 215.401 507.466 214.846C507.189 214.292 506.912 214.015 506.912 214.015L490.562 222.051C490.562 222.051 490.84 222.328 491.117 222.882C491.394 223.437 491.671 223.991 491.948 224.822C492.502 226.208 493.334 227.593 493.334 227.593L509.96 220.111Z" fill="#27FFF2"/>
<path d="M513.839 229.533C513.839 229.533 513.285 227.87 512.454 226.485C511.899 224.822 511.068 223.437 511.068 223.437L494.442 230.641C494.442 230.641 494.996 232.027 495.827 233.412C496.382 234.798 496.936 236.183 496.936 236.183L513.839 229.533Z" fill="#27FFF2"/>
<path d="M517.439 239.231C517.439 239.231 516.884 237.569 516.33 235.906C515.776 234.243 515.222 232.858 515.222 232.858L498.042 239.508C498.042 239.508 498.596 240.894 499.15 242.279C499.704 243.665 500.258 245.328 500.258 245.328L517.439 239.231Z" fill="#27FFF2"/>
<path d="M520.765 248.93C520.765 248.93 520.211 247.267 519.933 245.605C519.379 243.942 518.825 242.279 518.825 242.279L501.368 248.098C501.368 248.098 501.922 249.484 502.476 251.147C503.03 252.532 503.307 254.195 503.307 254.195L520.765 248.93Z" fill="#27FFF2"/>
<path d="M523.26 258.905C523.26 258.905 522.983 257.243 522.429 255.58C521.875 253.918 521.598 252.255 521.598 252.255L503.863 257.243C503.863 257.243 504.417 258.628 504.695 260.291C504.972 261.676 505.526 263.339 505.526 263.339L523.26 258.905Z" fill="#27FFF2"/>
<path d="M525.476 268.881C525.476 268.881 525.476 268.327 525.199 267.773C525.199 267.218 524.922 266.387 524.645 265.556C524.368 263.893 523.814 262.23 523.814 262.23L506.079 266.387C506.079 266.387 506.356 267.773 506.91 269.435C507.188 270.266 507.188 270.821 507.465 271.652C507.465 272.206 507.742 272.483 507.742 272.483L525.476 268.881Z" fill="#27FFF2"/>
<path d="M527.417 279.134C527.417 279.134 527.14 277.471 526.863 275.809C526.586 274.146 526.309 272.483 526.309 272.483L508.297 275.809C508.297 275.809 508.574 277.471 508.851 278.857C509.128 280.519 509.405 281.905 509.405 281.905L527.417 279.134Z" fill="#27FFF2"/>
<path d="M528.525 289.386C528.525 289.386 528.525 288.832 528.525 288.278C528.525 287.724 528.248 286.892 528.248 286.061C527.971 284.398 527.694 282.736 527.694 282.736L509.682 284.953C509.682 284.953 509.959 286.615 509.959 288.001C509.959 288.832 510.236 289.663 510.236 290.218C510.236 290.772 510.236 291.049 510.236 291.049L528.525 289.386Z" fill="#27FFF2"/>
<path d="M529.356 299.639L528.801 292.711L510.513 294.374L511.067 300.47L529.356 299.639Z" fill="#27FFF2"/>
<path d="M529.633 309.892L529.356 302.964L511.067 303.796L511.344 309.892H529.633Z" fill="#27FFF2"/>
</g>
<g opacity="0.1">
<path d="M620.799 336.493L621.076 330.12L603.064 329.012L602.51 335.108L620.799 336.493Z" fill="#27FFF2"/>
<path d="M619.692 346.192C619.692 346.192 619.969 344.529 619.969 343.144C620.246 341.481 620.246 340.096 620.246 340.096L601.957 338.433C601.957 338.433 601.957 339.819 601.68 341.481C601.403 342.867 601.403 344.529 601.403 344.529L619.692 346.192Z" fill="#27FFF2"/>
<path d="M618.583 355.614L619.415 349.518L601.126 347.024L600.572 353.12L618.583 355.614Z" fill="#27FFF2"/>
<path d="M616.919 365.311L618.027 358.938L600.016 356.167L598.907 361.986L616.919 365.311Z" fill="#27FFF2"/>
<path d="M615.257 374.733C615.257 374.733 615.534 373.071 615.811 371.685C616.089 370.023 616.366 368.637 616.366 368.637L598.354 365.312C598.354 365.312 598.077 366.697 597.8 368.36C597.523 369.746 597.246 371.408 597.246 371.408L615.257 374.733Z" fill="#27FFF2"/>
<path d="M613.041 384.432L614.426 378.059L596.692 374.179L595.306 379.998L613.041 384.432Z" fill="#27FFF2"/>
<path d="M610.547 393.576C610.547 393.576 611.101 391.914 611.378 390.528C611.655 389.697 611.932 388.866 611.932 388.312C612.209 387.757 612.209 387.203 612.209 387.203L594.475 382.77C594.475 382.77 594.475 383.047 594.198 383.601C593.92 384.155 593.92 384.986 593.643 385.541C593.366 386.926 592.812 388.589 592.812 388.589L610.547 393.576Z" fill="#27FFF2"/>
<path d="M607.777 402.998L609.717 396.902L592.26 391.914L590.32 397.733L607.777 402.998Z" fill="#27FFF2"/>
<path d="M604.728 412.142L606.945 406.046L589.488 400.504L587.548 406.323L604.728 412.142Z" fill="#27FFF2"/>
<path d="M601.402 421.287C601.402 421.287 601.956 419.901 602.51 418.239C603.065 416.853 603.619 415.191 603.619 415.191L586.438 409.094C586.438 409.094 585.884 410.48 585.33 411.865C584.776 413.251 584.222 414.636 584.222 414.636L601.402 421.287Z" fill="#27FFF2"/>
<path d="M598.077 430.431L600.293 424.335L583.39 417.684L581.173 423.226L598.077 430.431Z" fill="#27FFF2"/>
<path d="M593.92 439.299L596.691 433.479L579.788 426.275L577.294 431.817L593.92 439.299Z" fill="#27FFF2"/>
<path d="M590.041 448.165C590.041 448.165 590.872 446.78 591.427 445.394C591.981 444.009 592.812 442.346 592.812 442.346L576.186 434.587C576.186 434.587 575.632 435.973 574.801 437.358C574.246 438.744 573.415 440.129 573.415 440.129L590.041 448.165Z" fill="#27FFF2"/>
<path d="M585.608 456.756L588.379 450.937L572.03 442.624L569.259 448.166L585.608 456.756Z" fill="#27FFF2"/>
<path d="M580.897 465.069L583.945 459.527L567.873 450.937L564.825 456.201L580.897 465.069Z" fill="#27FFF2"/>
<path d="M575.909 473.382C575.909 473.382 576.74 471.996 577.571 470.611C578.403 469.225 579.234 467.84 579.234 467.84L563.439 458.695C563.439 458.695 562.608 460.081 562.054 461.189C561.222 462.575 560.391 463.683 560.391 463.683L575.909 473.382Z" fill="#27FFF2"/>
<path d="M570.644 481.695L574.246 476.153L558.728 466.454L555.403 471.719L570.644 481.695Z" fill="#27FFF2"/>
<path d="M565.101 489.731C565.101 489.731 565.933 488.346 567.041 487.237C567.872 485.852 568.981 484.743 568.981 484.743L553.74 474.491C553.74 474.491 552.909 475.599 552.078 476.985C551.246 478.093 550.415 479.479 550.415 479.479L565.101 489.731Z" fill="#27FFF2"/>
<path d="M559.56 497.489C559.56 497.489 560.391 496.104 561.5 494.995C562.331 493.61 563.44 492.501 563.44 492.501L548.476 481.694C548.476 481.694 547.645 482.803 546.814 484.188C545.982 485.297 545.151 486.682 545.151 486.682L559.56 497.489Z" fill="#27FFF2"/>
<path d="M553.74 504.971L557.619 499.983L542.933 488.899L539.331 493.61L553.74 504.971Z" fill="#27FFF2"/>
<path d="M547.368 512.453C547.368 512.453 548.477 511.345 549.585 509.959C550.694 508.851 551.525 507.465 551.525 507.465L537.393 495.827C537.393 495.827 536.561 496.936 535.453 498.044C534.345 499.152 533.513 500.261 533.513 500.261L547.368 512.453Z" fill="#27FFF2"/>
<path d="M540.994 519.934L545.428 514.947L531.573 503.031L527.693 507.465L540.994 519.934Z" fill="#27FFF2"/>
<path d="M534.343 526.862L538.776 522.152L525.475 509.682L521.319 514.116L534.343 526.862Z" fill="#27FFF2"/>
<path d="M527.693 533.79C527.693 533.79 528.801 532.682 529.91 531.573C531.018 530.465 532.126 529.357 532.126 529.357L519.103 516.61C519.103 516.61 517.994 517.718 516.886 518.827C515.777 519.935 514.669 521.044 514.669 521.044L527.693 533.79Z" fill="#27FFF2"/>
<path d="M520.765 540.441L525.199 536.007L512.729 522.706L508.296 526.863L520.765 540.441Z" fill="#27FFF2"/>
<path d="M513.284 546.814L518.272 542.38L506.079 528.802L501.369 532.682L513.284 546.814Z" fill="#27FFF2"/>
<path d="M506.08 552.91C506.08 552.91 507.466 551.801 508.574 550.97C509.683 549.862 511.068 549.03 511.068 549.03L499.43 534.898C499.43 534.898 498.322 536.006 497.213 536.838C496.105 537.669 494.719 538.777 494.719 538.777L506.08 552.91Z" fill="#27FFF2"/>
<path d="M498.32 558.729L503.308 554.85L491.947 540.44L487.236 544.32L498.32 558.729Z" fill="#27FFF2"/>
<path d="M490.562 564.548L495.827 560.669L484.743 545.982L480.032 549.585L490.562 564.548Z" fill="#27FFF2"/>
<path d="M482.526 570.091C482.526 570.091 483.912 569.259 485.297 568.428C486.683 567.597 487.791 566.488 487.791 566.488L477.261 551.525C477.261 551.525 476.153 552.356 474.767 553.188C473.382 554.019 472.273 554.85 472.273 554.85L482.526 570.091Z" fill="#27FFF2"/>
<path d="M457.586 584.777C457.586 584.777 458.972 583.945 460.357 583.391C461.743 582.56 463.128 581.729 463.128 581.729L454.261 565.657C454.261 565.657 452.876 566.488 451.767 567.042C450.382 567.874 448.996 568.428 448.996 568.428L457.586 584.777Z" fill="#27FFF2"/>
<path d="M448.995 589.211L454.815 586.44L446.224 570.091L440.959 572.862L448.995 589.211Z" fill="#27FFF2"/>
<path d="M440.127 593.367L445.946 590.873L438.188 574.247L432.646 576.74L440.127 593.367Z" fill="#27FFF2"/>
<path d="M431.261 597.524C431.261 597.524 432.646 596.969 434.309 596.138C435.694 595.584 437.357 594.753 437.357 594.753L429.875 578.126C429.875 578.126 428.49 578.681 427.104 579.235C425.719 579.789 424.333 580.343 424.333 580.343L431.261 597.524Z" fill="#27FFF2"/>
<path d="M422.394 601.126L428.213 598.632L421.563 581.729L415.744 583.945L422.394 601.126Z" fill="#27FFF2"/>
<path d="M413.25 604.451C413.25 604.451 414.636 603.897 416.298 603.343C417.961 602.789 419.347 602.235 419.347 602.235L412.973 585.054C412.973 585.054 411.588 585.608 410.202 586.163C408.817 586.717 407.431 587.271 407.431 587.271L413.25 604.451Z" fill="#27FFF2"/>
<path d="M404.105 607.5L410.201 605.283L404.382 588.103L398.562 590.042L404.105 607.5Z" fill="#27FFF2"/>
<path d="M394.684 609.993L400.78 608.33L395.515 590.873L389.696 592.536L394.684 609.993Z" fill="#27FFF2"/>
<path d="M385.263 612.487C385.263 612.487 386.926 612.209 388.311 611.655C389.974 611.101 391.359 610.824 391.359 610.824L386.648 593.089C386.648 593.089 385.263 593.367 383.6 593.921C382.215 594.198 380.552 594.752 380.552 594.752L385.263 612.487Z" fill="#27FFF2"/>
<path d="M375.841 614.704L382.214 613.319L378.058 595.584L371.961 596.969L375.841 614.704Z" fill="#27FFF2"/>
<path d="M366.421 616.644L372.517 615.536L368.915 597.524L363.096 598.632L366.421 616.644Z" fill="#27FFF2"/>
<path d="M356.72 618.306C356.72 618.306 358.383 618.029 359.768 617.752C361.431 617.475 362.816 617.198 362.816 617.198L359.768 599.186C359.768 599.186 358.383 599.463 356.72 599.74C355.335 600.017 353.672 600.294 353.672 600.294L356.72 618.306Z" fill="#27FFF2"/>
<path d="M347.299 619.414L353.396 618.583L351.179 600.571L345.083 601.403L347.299 619.414Z" fill="#27FFF2"/>
<path d="M337.601 620.523C337.601 620.523 339.264 620.523 340.649 620.246C342.312 620.246 343.697 619.969 343.697 619.969L341.757 601.68C341.757 601.68 340.372 601.957 338.709 601.957C337.324 601.957 335.661 602.234 335.661 602.234L337.601 620.523Z" fill="#27FFF2"/>
<path d="M327.903 621.078L334.276 620.523L332.891 602.512L327.072 602.789L327.903 621.078Z" fill="#27FFF2"/>
<path d="M318.204 621.355H324.578L324.024 603.066H317.927L318.204 621.355Z" fill="#27FFF2"/>
<path d="M308.783 621.632C308.783 621.632 310.446 621.632 311.831 621.632C313.494 621.632 314.879 621.632 314.879 621.632L314.602 603.343C314.602 603.343 313.217 603.343 311.554 603.343C310.168 603.343 308.506 603.343 308.506 603.343L308.783 621.632Z" fill="#27FFF2"/>
<path d="M299.084 621.355H305.458L305.735 603.066H299.916L299.084 621.355Z" fill="#27FFF2"/>
<path d="M289.385 620.8C289.385 620.8 291.047 620.8 292.433 621.078C294.096 621.078 295.481 621.355 295.481 621.355L296.312 603.066C296.312 603.066 294.927 603.066 293.264 602.789C291.879 602.789 290.216 602.512 290.216 602.512L289.385 620.8Z" fill="#27FFF2"/>
<path d="M251.145 615.812L257.518 616.921L260.567 598.909L254.747 597.801L251.145 615.812Z" fill="#27FFF2"/>
<path d="M241.724 613.595L247.82 614.981L251.699 597.246L245.603 595.861L241.724 613.595Z" fill="#27FFF2"/>
<path d="M232.302 611.379C232.302 611.379 233.965 611.933 235.35 612.21C237.013 612.487 238.398 613.041 238.398 613.041L242.555 595.307C242.555 595.307 241.169 595.03 239.507 594.475C238.121 594.198 236.459 593.644 236.459 593.644L232.302 611.379Z" fill="#27FFF2"/>
<path d="M222.881 608.607L228.977 610.547L233.965 592.812L228.146 591.15L222.881 608.607Z" fill="#27FFF2"/>
<path d="M213.459 605.837C213.459 605.837 215.122 606.391 216.508 606.945C217.339 607.222 218.17 607.499 218.724 607.499C219.279 607.776 219.556 607.776 219.556 607.776L224.821 590.319C224.821 590.319 224.544 590.319 223.989 590.042C223.435 589.765 222.604 589.765 222.05 589.488C220.664 588.933 219.279 588.656 219.279 588.656L213.459 605.837Z" fill="#27FFF2"/>
<path d="M204.316 602.789L210.412 604.728L216.508 587.548L210.689 585.608L204.316 602.789Z" fill="#27FFF2"/>
<path d="M195.449 599.186L201.268 601.403L207.918 584.5L202.099 582.283L195.449 599.186Z" fill="#27FFF2"/>
<path d="M186.303 595.306C186.303 595.306 187.688 595.861 189.351 596.692C190.736 597.246 192.399 597.8 192.399 597.8L199.327 580.897C199.327 580.897 197.941 580.343 196.556 579.789C195.17 579.234 193.784 578.68 193.784 578.68L186.303 595.306Z" fill="#27FFF2"/>
<path d="M177.437 591.427L183.256 594.198L191.015 577.295L185.473 574.801L177.437 591.427Z" fill="#27FFF2"/>
<path d="M168.846 586.994L174.665 590.042L182.701 573.416L177.159 570.922L168.846 586.994Z" fill="#27FFF2"/>
<path d="M160.256 582.56C160.256 582.56 161.641 583.391 163.027 584.223C164.412 585.054 165.798 585.608 165.798 585.608L174.388 569.536C174.388 569.536 173.003 568.705 171.617 568.151C170.232 567.319 169.123 566.765 169.123 566.765L160.256 582.56Z" fill="#27FFF2"/>
<path d="M149.45 576.187C149.45 576.187 150.835 577.018 152.221 577.849C153.606 578.681 154.992 579.512 154.992 579.512L164.136 563.717C164.136 563.717 162.751 562.886 161.642 562.331C160.257 561.5 159.148 560.669 159.148 560.669L149.45 576.187Z" fill="#27FFF2"/>
<path d="M141.414 570.922L146.678 574.524L156.377 559.006L151.389 555.681L141.414 570.922Z" fill="#27FFF2"/>
<path d="M133.377 565.657C133.377 565.657 134.763 566.488 135.871 567.597C137.257 568.428 138.642 569.259 138.642 569.259L148.895 554.019C148.895 554.019 147.51 553.187 146.401 552.356C145.293 551.525 143.907 550.693 143.907 550.693L133.377 565.657Z" fill="#27FFF2"/>
<path d="M125.341 559.837L130.606 563.717L141.413 548.753L136.425 545.428L125.341 559.837Z" fill="#27FFF2"/>
<path d="M117.859 554.019L122.847 557.898L133.931 543.489L129.221 539.609L117.859 554.019Z" fill="#27FFF2"/>
<path d="M110.379 547.922C110.379 547.922 111.487 549.031 112.873 549.862C113.981 550.97 115.367 551.802 115.367 551.802L127.005 537.669C127.005 537.669 125.897 536.838 124.788 535.73C123.68 534.621 122.571 533.79 122.571 533.79L110.379 547.922Z" fill="#27FFF2"/>
<path d="M103.174 541.549L107.885 545.706L119.8 531.851L115.366 527.971L103.174 541.549Z" fill="#27FFF2"/>
<path d="M95.9683 534.898L100.679 539.332L113.149 526.031L108.715 521.875L95.9683 534.898Z" fill="#27FFF2"/>
<path d="M89.041 528.248C89.041 528.248 90.1494 529.357 91.2578 530.465C92.3662 531.574 93.4747 532.682 93.4747 532.682L106.221 519.658C106.221 519.658 105.113 518.55 104.005 517.441C102.896 516.333 101.788 515.225 101.788 515.225L89.041 528.248Z" fill="#27FFF2"/>
<path d="M82.3911 521.043L86.8248 525.754L100.126 513.007L95.9691 508.851L82.3911 521.043Z" fill="#27FFF2"/>
<path d="M76.0181 513.839L80.1746 518.827L93.7526 506.634L89.8732 501.923L76.0181 513.839Z" fill="#27FFF2"/>
<path d="M69.9214 506.634C69.9214 506.634 71.0298 508.02 71.8611 509.128C72.9695 510.236 73.8008 511.622 73.8008 511.622L87.6559 499.707C87.6559 499.707 86.5475 498.598 85.7162 497.49C84.8849 496.381 83.7765 495.273 83.7765 495.273L69.9214 506.634Z" fill="#27FFF2"/>
<path d="M63.8247 498.875L67.9812 503.863L82.1134 492.502L78.5111 487.791L63.8247 498.875Z" fill="#27FFF2"/>
<path d="M58.2827 491.116L61.885 496.381L76.5714 485.297L72.9691 480.586L58.2827 491.116Z" fill="#27FFF2"/>
<path d="M52.7402 483.08C52.7402 483.08 53.5715 484.466 54.4028 485.851C55.2341 487.237 56.3426 488.345 56.3426 488.345L71.3061 477.815C71.3061 477.815 70.4747 476.707 69.6434 475.322C68.8121 474.213 67.9808 472.828 67.9808 472.828L52.7402 483.08Z" fill="#27FFF2"/>
<path d="M47.4761 475.045L50.8013 480.31L66.319 470.334L62.9938 465.346L47.4761 475.045Z" fill="#27FFF2"/>
<path d="M29.186 440.961C29.186 440.961 29.7402 442.346 30.5715 444.009C31.1257 445.395 31.9571 446.78 31.9571 446.78L48.3061 438.744C48.3061 438.744 47.7519 437.359 46.9206 435.973C46.3663 434.588 45.535 433.202 45.535 433.202L29.186 440.961Z" fill="#27FFF2"/>
<path d="M25.0308 432.093L27.8018 437.912L44.4279 430.431L41.934 424.889L25.0308 432.093Z" fill="#27FFF2"/>
<path d="M21.4277 423.227L23.9216 429.046L40.8249 422.118L38.6081 416.576L21.4277 423.227Z" fill="#27FFF2"/>
<path d="M18.103 414.082C18.103 414.082 18.6572 415.467 19.2114 417.13C19.7656 418.515 20.3199 420.178 20.3199 420.178L37.5002 413.805C37.5002 413.805 36.9459 412.419 36.3917 411.034C35.8375 409.648 35.2833 408.263 35.2833 408.263L18.103 414.082Z" fill="#27FFF2"/>
<path d="M15.0547 404.661L16.9944 410.757L34.4518 404.938L32.5121 399.396L15.0547 404.661Z" fill="#27FFF2"/>
<path d="M12.2842 395.516L13.9468 401.612L31.4042 396.347L29.7416 390.528L12.2842 395.516Z" fill="#27FFF2"/>
<path d="M9.78906 386.095C9.78906 386.095 10.0662 387.757 10.6204 389.143C11.1746 390.805 11.4516 392.191 11.4516 392.191L29.1862 387.48C29.1862 387.48 28.9091 386.095 28.3549 384.432C28.0778 383.046 27.5236 381.384 27.5236 381.384L9.78906 386.095Z" fill="#27FFF2"/>
<path d="M7.57275 376.673L8.95826 382.77L26.6928 378.613L25.3073 372.794L7.57275 376.673Z" fill="#27FFF2"/>
<path d="M5.6333 367.252L6.74169 373.348L24.7533 369.746L23.6449 363.927L5.6333 367.252Z" fill="#27FFF2"/>
<path d="M3.97168 357.553C3.97168 357.553 4.24877 359.216 4.52588 360.601C4.80298 362.264 5.08011 363.649 5.08011 363.649L23.0917 360.601C23.0917 360.601 22.8146 359.216 22.5375 357.553C22.2604 356.168 21.9833 354.505 21.9833 354.505L3.97168 357.553Z" fill="#27FFF2"/>
<path d="M2.86182 347.855L3.69313 354.228L21.7048 351.734L20.8734 345.915L2.86182 347.855Z" fill="#27FFF2"/>
<path d="M1.75293 338.433C1.75293 338.433 1.75295 340.096 2.03005 341.482C2.03005 343.144 2.30717 344.53 2.30717 344.53L20.5959 342.59C20.5959 342.59 20.3188 341.204 20.3188 339.542C20.3188 338.156 20.0417 336.494 20.0417 336.494L1.75293 338.433Z" fill="#27FFF2"/>
<path d="M0.92334 328.735L1.47754 335.108L19.7662 333.723L19.212 327.626L0.92334 328.735Z" fill="#27FFF2"/>
<path d="M0.645508 319.036L0.922627 325.409L19.2113 324.578L18.9343 318.759L0.645508 319.036Z" fill="#27FFF2"/>
<path d="M0.645508 309.615C0.645508 309.615 0.645508 311.277 0.645508 312.663C0.645508 314.325 0.645508 315.711 0.645508 315.711L18.9343 315.434C18.9343 315.434 18.9343 314.048 18.9343 312.386C18.9343 311 18.9343 309.337 18.9343 309.337L0.645508 309.615Z" fill="#27FFF2"/>
<path d="M0.645508 299.916V306.289L18.9343 306.566V300.47L0.645508 299.916Z" fill="#27FFF2"/>
<path d="M1.1997 290.218C1.1997 290.218 1.19973 291.88 0.922627 293.266C0.922627 294.928 0.645508 296.314 0.645508 296.314L18.9343 297.145C18.9343 297.145 18.9342 295.76 19.2113 294.097C19.2113 292.712 19.4885 291.049 19.4885 291.049L1.1997 290.218Z" fill="#27FFF2"/>
<path d="M2.03076 280.519L1.47656 286.892L19.7653 288.278L20.3195 282.459L2.03076 280.519Z" fill="#27FFF2"/>
<path d="M3.13987 271.098L2.30859 277.471L20.5973 279.411L21.1515 273.314L3.13987 271.098Z" fill="#27FFF2"/>
<path d="M4.52441 261.399C4.52441 261.399 4.24731 263.062 3.97021 264.447C3.69311 266.11 3.41602 267.495 3.41602 267.495L21.4276 269.989C21.4276 269.989 21.7048 268.604 21.7048 266.941C21.9819 265.555 22.259 263.893 22.259 263.893L4.52441 261.399Z" fill="#27FFF2"/>
<path d="M6.18749 251.978L5.0791 258.074L23.0907 261.399L24.1991 255.303L6.18749 251.978Z" fill="#27FFF2"/>
<path d="M8.1277 242.279L6.74219 248.652L24.7538 252.254L26.1393 246.435L8.1277 242.279Z" fill="#27FFF2"/>
<path d="M10.3428 232.857C10.3428 232.857 10.0657 234.52 9.51149 235.905C9.23439 237.568 8.68018 238.953 8.68018 238.953L26.4147 243.11C26.4147 243.11 26.6918 241.724 26.9689 240.062C27.246 238.676 27.8002 237.013 27.8002 237.013L10.3428 232.857Z" fill="#27FFF2"/>
<path d="M15.886 214.292C15.886 214.292 15.3318 215.954 14.7776 217.34C14.2234 218.725 13.9463 220.388 13.9463 220.388L31.4037 225.653C31.4037 225.653 31.6808 224.267 32.235 222.882C32.7892 221.496 33.0663 220.111 33.0663 220.111L15.886 214.292Z" fill="#27FFF2"/>
<path d="M18.9339 205.147L16.9941 211.243L34.1745 217.062L36.1142 211.243L18.9339 205.147Z" fill="#27FFF2"/>
<path d="M22.5361 196.003L20.3193 202.099L37.2225 208.473L39.4394 202.93L22.5361 196.003Z" fill="#27FFF2"/>
<path d="M26.1379 187.135C26.1379 187.135 25.5837 188.521 24.7524 190.183C24.1982 191.569 23.644 193.232 23.644 193.232L40.5472 200.159C40.5472 200.159 41.1015 198.774 41.6557 197.388C42.2099 196.003 42.7641 194.617 42.7641 194.617L26.1379 187.135Z" fill="#27FFF2"/>
<path d="M30.2969 178.269L27.5259 184.088L44.152 191.569L46.6459 186.027L30.2969 178.269Z" fill="#27FFF2"/>
<path d="M34.4527 169.678L31.6816 175.22L48.0307 183.256L50.8017 177.991L34.4527 169.678Z" fill="#27FFF2"/>
<path d="M39.1619 161.087C39.1619 161.087 38.8848 161.365 38.6077 161.919C38.3306 162.473 38.0535 163.027 37.4993 163.858C36.668 165.244 36.1138 166.629 36.1138 166.629L52.1857 175.22C52.1857 175.22 53.017 173.834 53.5712 172.449C53.8483 171.894 54.4025 171.063 54.6796 170.509C54.9567 169.955 55.2338 169.678 55.2338 169.678L39.1619 161.087Z" fill="#27FFF2"/>
<path d="M43.8733 152.498L40.8252 158.04L56.62 167.184L59.6681 161.919L43.8733 152.498Z" fill="#27FFF2"/>
<path d="M48.8618 144.461L45.5366 149.726L61.0544 159.148L64.3796 154.16L48.8618 144.461Z" fill="#27FFF2"/>
<path d="M54.126 136.148C54.126 136.148 53.2947 137.534 52.4634 138.919C51.6321 140.305 50.8008 141.69 50.8008 141.69L66.0414 151.666C66.0414 151.666 66.8727 150.281 67.704 149.172C68.5353 147.787 69.3666 146.678 69.3666 146.678L54.126 136.148Z" fill="#27FFF2"/>
<path d="M65.7647 120.631C65.7647 120.631 64.6563 122.016 63.825 123.125C63.2708 123.679 62.7166 124.51 62.4394 124.787C62.1623 125.342 61.8853 125.619 61.8853 125.619L76.5716 136.426C76.5716 136.426 76.8488 136.149 77.1259 135.594C77.403 135.04 77.9572 134.486 78.5114 133.932C79.3427 132.823 80.4511 131.438 80.4511 131.438L65.7647 120.631Z" fill="#27FFF2"/>
<path d="M71.585 113.149L67.7056 118.137L82.1149 129.498L85.7172 124.788L71.585 113.149Z" fill="#27FFF2"/>
<path d="M77.9573 105.667L73.8008 110.655L87.6559 122.294L91.8124 117.86L77.9573 105.667Z" fill="#27FFF2"/>
<path d="M84.3311 98.4629C84.3311 98.4629 83.2227 99.5713 82.1142 100.68C81.0058 101.788 79.8975 103.174 79.8975 103.174L93.4754 115.366C93.4754 115.366 94.5838 114.258 95.4152 113.149C96.5236 112.041 97.3549 110.932 97.3549 110.932L84.3311 98.4629Z" fill="#27FFF2"/>
<path d="M91.2583 91.5352L86.8247 96.2459L99.8485 108.993L104.005 104.559L91.2583 91.5352Z" fill="#27FFF2"/>
<path d="M98.1863 84.8848L93.4756 89.3184L106.222 102.342L110.656 98.1857L98.1863 84.8848Z" fill="#27FFF2"/>
<path d="M105.113 78.5117C105.113 78.5117 104.004 79.6201 102.619 80.7285C101.51 81.837 100.402 82.9454 100.402 82.9454L112.871 96.2463C112.871 96.2463 113.98 95.1378 115.088 94.3065C116.197 93.1981 117.305 92.3668 117.305 92.3668L105.113 78.5117Z" fill="#27FFF2"/>
<path d="M112.595 72.1382L107.607 76.2947L119.799 90.1498L124.233 86.2704L112.595 72.1382Z" fill="#27FFF2"/>
<path d="M120.075 66.042L115.087 69.9214L126.726 84.0536L131.436 80.4513L120.075 66.042Z" fill="#27FFF2"/>
<path d="M127.835 60.2231C127.835 60.2231 126.449 61.0544 125.341 62.1629C123.956 63.2713 122.847 64.1026 122.847 64.1026L133.931 78.5119C133.931 78.5119 135.04 77.6806 136.425 76.5721C137.534 75.7408 138.919 74.9095 138.919 74.9095L127.835 60.2231Z" fill="#27FFF2"/>
<path d="M135.594 54.6812L130.329 58.2834L141.136 73.247L146.124 69.6446L135.594 54.6812Z" fill="#27FFF2"/>
<path d="M143.63 49.416L138.365 52.7412L148.618 67.9818L153.606 64.6566L143.63 49.416Z" fill="#27FFF2"/>
<path d="M151.943 44.1509C151.943 44.1509 150.558 44.9822 149.172 45.8135C147.787 46.6448 146.401 47.4761 146.401 47.4761L156.1 62.9938C156.1 62.9938 157.485 62.1625 158.594 61.3312C159.979 60.4999 161.088 59.6686 161.088 59.6686L151.943 44.1509Z" fill="#27FFF2"/>
<path d="M162.751 38.0549L157.209 41.103L166.353 56.8978L171.618 54.1268L162.751 38.0549Z" fill="#27FFF2"/>
<path d="M171.341 33.3442L165.799 36.3924L174.389 52.4643L179.654 49.6933L171.341 33.3442Z" fill="#27FFF2"/>
<path d="M180.209 29.1875C180.209 29.1875 178.824 29.7417 177.161 30.573C175.776 31.1272 174.39 31.9585 174.39 31.9585L182.426 48.3076C182.426 48.3076 183.812 47.4763 185.197 46.9221C186.583 46.3679 187.968 45.5365 187.968 45.5365L180.209 29.1875Z" fill="#27FFF2"/>
<path d="M189.075 25.3079L183.256 27.8018L190.738 44.4279L196.28 41.934L189.075 25.3079Z" fill="#27FFF2"/>
<path d="M197.943 21.7056L192.124 23.9224L199.052 40.8256L204.594 38.6088L197.943 21.7056Z" fill="#27FFF2"/>
<path d="M207.087 18.1038C207.087 18.1038 205.702 18.658 204.039 19.2122C202.654 19.7664 200.991 20.3206 200.991 20.3206L207.365 37.5009C207.365 37.5009 208.75 36.9467 210.136 36.3925C211.521 35.8383 212.907 35.2841 212.907 35.2841L207.087 18.1038Z" fill="#27FFF2"/>
<path d="M216.231 15.0554L210.135 17.2722L216.231 34.4526L221.773 32.5129L216.231 15.0554Z" fill="#27FFF2"/>
<path d="M225.654 12.2842L219.558 13.9468L224.823 31.6813L230.642 29.7416L225.654 12.2842Z" fill="#27FFF2"/>
<path d="M235.074 9.79028C235.074 9.79028 233.411 10.0674 232.026 10.6216C230.363 11.1758 228.978 11.4529 228.978 11.4529L233.688 29.1874C233.688 29.1874 235.074 28.9104 236.736 28.3562C238.122 27.802 239.785 27.5248 239.785 27.5248L235.074 9.79028Z" fill="#27FFF2"/>
<path d="M244.497 7.57349L238.124 8.959L242.558 26.6935L248.377 25.308L244.497 7.57349Z" fill="#27FFF2"/>
<path d="M292.435 0.922852L286.062 1.47705L287.447 19.4887L293.266 19.2116L292.435 0.922852Z" fill="#27FFF2"/>
<path d="M301.856 0.368896L295.483 0.646015L296.591 18.9347L302.41 18.6576L301.856 0.368896Z" fill="#27FFF2"/>
<path d="M311.555 0.368896C311.555 0.368896 309.893 0.368896 308.507 0.368896C306.845 0.368896 305.459 0.368896 305.459 0.368896L305.736 18.6576C305.736 18.6576 307.122 18.6576 308.784 18.6576C310.17 18.6576 311.832 18.6576 311.832 18.6576L311.555 0.368896Z" fill="#27FFF2"/>
<path d="M321.253 0.368896H314.88L314.603 18.6576H320.699L321.253 0.368896Z" fill="#27FFF2"/>
<path d="M330.675 0.922829C330.675 0.922829 329.012 0.922854 327.626 0.645752C325.964 0.645752 324.578 0.645752 324.578 0.645752L323.747 18.9345C323.747 18.9345 325.133 18.9345 326.795 18.9345C328.181 18.9345 329.843 19.2116 329.843 19.2116L330.675 0.922829Z" fill="#27FFF2"/>
<path d="M340.373 1.75464L334 1.20044L332.614 19.4892L338.711 19.7663L340.373 1.75464Z" fill="#27FFF2"/>
<path d="M350.072 2.86252L343.699 2.03125L341.759 20.0429L347.855 20.8742L350.072 2.86252Z" fill="#27FFF2"/>
<path d="M359.493 3.97123C359.493 3.97123 357.83 3.69413 356.445 3.41703C354.782 3.13993 353.397 2.86279 353.397 2.86279L350.903 20.8744C350.903 20.8744 352.288 21.1515 353.951 21.1515C355.336 21.4286 356.999 21.7057 356.999 21.7057L359.493 3.97123Z" fill="#27FFF2"/>
<path d="M369.192 5.63354L362.819 4.52515L359.771 22.5368L365.867 23.6452L369.192 5.63354Z" fill="#27FFF2"/>
<path d="M378.613 7.5735C378.613 7.5735 376.95 7.29639 375.565 6.74218C373.902 6.46508 372.517 6.18799 372.517 6.18799L368.915 24.1996C368.915 24.1996 370.3 24.4767 371.963 24.7538C373.348 25.0309 375.011 25.308 375.011 25.308L378.613 7.5735Z" fill="#27FFF2"/>
<path d="M388.034 9.79054L381.938 8.40503L377.782 26.1396L383.601 27.5251L388.034 9.79054Z" fill="#27FFF2"/>
<path d="M397.456 12.5613L391.36 10.6216L386.649 28.3561L392.468 30.0187L397.456 12.5613Z" fill="#27FFF2"/>
<path d="M406.878 15.3323C406.878 15.3323 405.216 14.7781 403.83 14.2239C402.168 13.6697 400.782 13.3926 400.782 13.3926L395.517 30.85C395.517 30.85 396.903 31.4042 398.288 31.6813C399.674 32.2355 401.059 32.5126 401.059 32.5126L406.878 15.3323Z" fill="#27FFF2"/>
<path d="M416.022 18.3806L409.926 16.4409L404.106 33.6212L409.926 35.5609L416.022 18.3806Z" fill="#27FFF2"/>
<path d="M425.166 21.9827L419.07 19.4888L412.697 36.6691L418.239 38.8859L425.166 21.9827Z" fill="#27FFF2"/>
<path d="M434.033 25.5855C434.033 25.5855 433.756 25.3084 433.202 25.3084C432.647 25.0313 431.816 24.7541 431.262 24.477C429.876 23.9228 428.214 23.3687 428.214 23.3687L421.286 40.2719C421.286 40.2719 422.672 40.8261 424.057 41.3803C424.888 41.6574 425.443 41.9345 425.997 42.2116C426.551 42.4887 426.828 42.4887 426.828 42.4887L434.033 25.5855Z" fill="#27FFF2"/>
<path d="M442.9 29.4646L437.08 26.9707L429.599 43.5968L435.141 46.0907L442.9 29.4646Z" fill="#27FFF2"/>
<path d="M451.491 33.8982L445.949 30.8501L437.913 47.4762L443.178 50.2472L451.491 33.8982Z" fill="#27FFF2"/>
<path d="M485.02 53.2955L479.478 49.9702L469.78 65.2108L474.768 68.5361L485.02 53.2955Z" fill="#27FFF2"/>
<path d="M492.779 59.1148L487.515 55.2354L477.262 70.1988L482.25 73.8012L492.779 59.1148Z" fill="#27FFF2"/>
<path d="M500.539 64.6568C500.539 64.6568 499.154 63.5484 498.045 62.717C496.66 61.6086 495.552 60.7773 495.552 60.7773L484.745 75.4638C484.745 75.4638 485.853 76.295 487.239 77.1263C488.347 77.9577 489.732 79.0661 489.732 79.0661L500.539 64.6568Z" fill="#27FFF2"/>
<path d="M508.296 70.7529L503.308 66.8735L491.947 81.0058L496.658 84.8852L508.296 70.7529Z" fill="#27FFF2"/>
<path d="M515.501 77.1258L510.79 72.9692L498.875 86.8243L503.586 90.7038L515.501 77.1258Z" fill="#27FFF2"/>
<path d="M522.705 83.4996C522.705 83.4996 521.597 82.3912 520.489 81.2827C519.38 80.1743 517.995 79.0659 517.995 79.0659L505.802 92.6439C505.802 92.6439 506.911 93.7523 508.019 94.5837C509.128 95.6921 510.236 96.5234 510.236 96.5234L522.705 83.4996Z" fill="#27FFF2"/>
<path d="M529.635 90.1504L525.201 85.7168L512.455 99.0177L516.888 103.174L529.635 90.1504Z" fill="#27FFF2"/>
<path d="M536.561 97.0774L532.128 92.3667L519.104 105.39L523.261 109.547L536.561 97.0774Z" fill="#27FFF2"/>
<path d="M542.935 104.282C542.935 104.282 541.827 103.174 540.718 101.788C539.61 100.68 538.502 99.5713 538.502 99.5713L525.201 112.041C525.201 112.041 526.309 113.149 527.14 114.258C528.249 115.366 529.08 116.474 529.08 116.474L542.935 104.282Z" fill="#27FFF2"/>
<path d="M549.308 111.487L545.151 106.5L531.296 118.692L535.175 123.126L549.308 111.487Z" fill="#27FFF2"/>
<path d="M555.406 118.969L551.526 113.981L537.394 125.619L540.996 130.33L555.406 118.969Z" fill="#27FFF2"/>
<path d="M561.224 126.728C561.224 126.728 560.392 125.342 559.284 124.234C558.176 122.848 557.344 121.74 557.344 121.74L542.935 132.824C542.935 132.824 543.766 133.932 544.875 135.318C545.706 136.426 546.537 137.812 546.537 137.812L561.224 126.728Z" fill="#27FFF2"/>
<path d="M566.767 134.486L563.165 129.221L548.479 140.028L551.804 145.016L566.767 134.486Z" fill="#27FFF2"/>
<path d="M572.308 142.522L568.705 137.257L553.465 147.51L556.79 152.498L572.308 142.522Z" fill="#27FFF2"/>
<path d="M577.295 150.835C577.295 150.835 576.463 149.45 575.632 148.064C574.801 146.679 573.969 145.293 573.969 145.293L558.452 154.992C558.452 154.992 559.283 156.378 560.114 157.486C560.946 158.871 561.777 159.98 561.777 159.98L577.295 150.835Z" fill="#27FFF2"/>
<path d="M582.284 159.148L578.959 153.606L563.164 162.751L566.212 168.016L582.284 159.148Z" fill="#27FFF2"/>
<path d="M586.718 167.738C586.718 167.738 585.886 166.353 585.332 164.967C585.055 164.136 584.501 163.582 584.224 163.028C583.947 162.473 583.67 162.196 583.67 162.196L567.598 171.064C567.598 171.064 567.875 171.341 568.152 171.895C568.429 172.449 568.706 173.003 568.983 173.835C569.814 175.22 570.369 176.606 570.369 176.606L586.718 167.738Z" fill="#27FFF2"/>
<path d="M591.151 176.329L588.38 170.51L572.031 178.823L574.802 184.365L591.151 176.329Z" fill="#27FFF2"/>
<path d="M595.308 185.196L592.537 179.376L575.911 187.135L578.405 192.677L595.308 185.196Z" fill="#27FFF2"/>
<path d="M598.909 194.063C598.909 194.063 598.355 192.678 597.8 191.015C597.246 189.629 596.415 187.967 596.415 187.967L579.512 195.171C579.512 195.171 580.066 196.557 580.62 197.942C581.174 199.328 581.729 200.714 581.729 200.714L598.909 194.063Z" fill="#27FFF2"/>
<path d="M602.511 203.208L600.295 197.111L583.114 203.762L585.331 209.581L602.511 203.208Z" fill="#27FFF2"/>
<path d="M605.837 212.352L603.62 206.256L586.439 212.352L588.379 218.171L605.837 212.352Z" fill="#27FFF2"/>
<path d="M608.608 221.496C608.608 221.496 608.054 219.834 607.777 218.448C607.223 216.785 606.668 215.4 606.668 215.4L589.211 220.942C589.211 220.942 589.765 222.327 590.042 223.713C590.596 225.098 590.874 226.484 590.874 226.484L608.608 221.496Z" fill="#27FFF2"/>
<path d="M611.379 230.918L609.716 224.822L591.981 229.81L593.644 235.629L611.379 230.918Z" fill="#27FFF2"/>
<path d="M613.596 240.34L612.21 233.966L594.476 238.677L595.861 244.496L613.596 240.34Z" fill="#27FFF2"/>
<path d="M615.813 249.761C615.813 249.761 615.536 248.098 615.259 246.713C614.982 245.05 614.427 243.665 614.427 243.665L596.693 247.544C596.693 247.544 596.97 248.929 597.247 250.592C597.524 251.978 597.801 253.64 597.801 253.64L615.813 249.761Z" fill="#27FFF2"/>
<path d="M617.476 259.459L616.368 253.086L598.356 256.411L599.464 262.507L617.476 259.459Z" fill="#27FFF2"/>
<path d="M618.861 268.881C618.861 268.881 618.584 267.218 618.307 265.833C618.03 264.17 617.753 262.785 617.753 262.785L599.741 265.556C599.741 265.556 600.018 266.941 600.295 268.604C600.572 269.989 600.572 271.652 600.572 271.652L618.861 268.881Z" fill="#27FFF2"/>
<path d="M620.246 278.579L619.415 272.206L601.126 274.423L601.958 280.519L620.246 278.579Z" fill="#27FFF2"/>
<path d="M620.801 288.278L620.524 281.904L602.235 283.567L602.79 289.386L620.801 288.278Z" fill="#27FFF2"/>
<path d="M621.632 297.699C621.632 297.699 621.632 296.037 621.632 294.651C621.632 292.989 621.355 291.603 621.355 291.603L603.066 292.711C603.066 292.711 603.066 294.097 603.343 295.76C603.343 297.145 603.343 298.808 603.343 298.808L621.632 297.699Z" fill="#27FFF2"/>
</g>
<g opacity="0.14">
<path d="M537.114 329.011C537.114 329.011 537.114 327.903 537.391 326.24C537.391 324.577 537.668 322.36 537.668 320.144C537.668 315.71 537.945 311.276 537.945 311.276H569.812C569.812 311.276 569.812 316.264 569.535 321.529C569.535 324.023 569.258 326.517 569.258 328.457C568.981 330.396 568.981 331.505 568.981 331.505L537.114 329.011Z" fill="#27FFF2"/>
<path d="M524.091 388.589C524.091 388.589 525.477 384.432 526.862 379.998C527.694 377.782 528.248 375.842 528.525 374.179C529.079 372.517 529.356 371.408 529.356 371.408L560.115 379.998C560.115 379.998 559.838 381.107 559.283 383.047C558.729 384.986 558.175 387.48 557.344 389.697C555.681 394.408 554.018 399.396 554.018 399.396L524.091 388.589Z" fill="#27FFF2"/>
<path d="M495.827 442.346C495.827 442.346 496.381 441.515 497.49 440.129C498.044 439.575 498.598 438.743 499.152 437.912C499.707 437.081 500.261 435.972 500.815 435.141C501.923 433.201 503.309 431.262 504.14 429.876C504.972 428.491 505.526 427.382 505.526 427.382L532.959 443.731C532.959 443.731 532.405 444.84 531.296 446.502C530.188 448.165 528.802 450.382 527.417 452.322C526.585 453.43 526.031 454.538 525.477 455.37C524.923 456.478 524.092 457.309 523.537 458.141C522.429 459.803 521.598 460.635 521.598 460.635L495.827 442.346Z" fill="#27FFF2"/>
<path d="M454.262 486.682C454.262 486.682 454.539 486.405 454.816 486.127C455.093 485.85 455.648 485.296 456.479 484.742C457.864 483.634 459.527 482.248 461.19 480.585C462.852 479.2 464.515 477.537 465.623 476.429C466.732 475.321 467.563 474.489 467.563 474.489L489.731 497.766C489.731 497.766 488.9 498.597 487.514 499.983C486.129 501.368 484.189 503.031 482.249 504.693C480.31 506.356 478.37 508.019 476.985 509.404C476.153 509.958 475.599 510.513 475.322 510.79C474.768 511.067 474.768 511.344 474.768 511.344L454.262 486.682Z" fill="#27FFF2"/>
<path d="M402.166 518.549C402.166 518.549 403.274 517.995 404.66 517.441C406.045 516.61 408.262 515.778 410.202 514.947C414.081 513.007 418.238 510.791 418.238 510.791L433.479 539.055C433.479 539.055 429.045 541.272 424.334 543.766C422.117 544.874 419.623 545.982 417.961 546.814C416.298 547.645 414.913 548.199 414.913 548.199L402.166 518.549Z" fill="#27FFF2"/>
<path d="M343.697 535.176C343.697 535.176 343.974 535.176 344.528 535.176C345.082 535.176 345.636 534.898 346.468 534.898C348.13 534.621 350.347 534.344 352.564 533.79C354.781 533.513 356.998 532.959 358.66 532.682C360.323 532.405 361.431 532.127 361.431 532.127L368.359 563.44C368.359 563.44 367.251 563.717 365.311 564.271C363.371 564.826 360.877 565.103 358.383 565.657C355.889 566.211 353.395 566.488 351.456 566.765C350.624 567.042 349.793 567.042 349.239 567.042C348.685 567.042 348.408 567.042 348.408 567.042L343.697 535.176Z" fill="#27FFF2"/>
<path d="M283.012 535.729C283.012 535.729 284.121 536.007 285.783 536.007C287.446 536.284 289.663 536.561 291.88 536.561C294.097 536.838 296.313 536.838 297.976 537.115C299.639 537.392 300.747 537.392 300.747 537.392L299.361 569.259C299.361 569.259 297.976 569.259 296.313 568.982C294.374 568.705 291.88 568.705 289.386 568.428C286.892 568.15 284.398 568.15 282.458 567.873C280.519 567.596 279.41 567.596 279.41 567.596L283.012 535.729Z" fill="#27FFF2"/>
<path d="M223.991 520.212C223.991 520.212 228.147 521.874 232.304 523.537C234.521 524.368 236.46 524.923 238.123 525.477C239.786 526.031 240.894 526.308 240.894 526.308L230.918 556.789C230.918 556.789 229.81 556.512 227.87 555.681C225.931 555.127 223.714 554.295 221.22 553.464C216.509 551.524 211.798 549.585 211.798 549.585L223.991 520.212Z" fill="#27FFF2"/>
<path d="M171.617 489.453C171.617 489.453 172.449 490.007 173.834 491.116C175.22 492.224 176.882 493.61 178.822 494.718C180.762 496.104 182.424 497.212 183.81 498.32C184.364 498.875 185.195 499.152 185.472 499.429C185.75 499.706 186.027 499.983 186.027 499.983L168.292 526.585C168.292 526.585 168.015 526.308 167.461 526.031C166.907 525.754 166.352 525.199 165.521 524.645C163.859 523.537 161.919 522.151 159.702 520.489C157.485 519.103 155.545 517.44 154.16 516.332C152.774 515.224 151.666 514.392 151.666 514.392L171.617 489.453Z" fill="#27FFF2"/>
<path d="M99.8474 392.745C99.8474 392.745 100.125 393.854 100.956 395.239C101.51 396.902 102.341 398.841 103.173 401.058C105.112 405.215 106.775 409.094 106.775 409.094L77.9564 422.949C77.9564 422.949 75.7395 418.239 73.7998 413.528C72.6914 411.311 71.8601 408.817 71.0288 407.154C70.1975 405.492 69.9204 404.106 69.9204 404.106L99.8474 392.745Z" fill="#27FFF2"/>
<path d="M85.7156 333.445C85.7156 333.445 85.7156 333.722 85.7156 334.276C85.7156 334.83 85.9927 335.385 85.9927 336.216C86.2698 337.878 86.5469 340.095 86.824 342.312C87.1011 343.42 87.1011 344.529 87.3782 345.637C87.6553 346.746 87.6553 347.577 87.9324 348.408C88.2095 350.071 88.4866 351.179 88.4866 351.179L56.897 356.721C56.897 356.721 56.6199 355.336 56.3428 353.673C56.0657 352.842 56.0657 351.734 55.7886 350.348C55.5115 349.24 55.5115 347.854 55.2344 346.746C54.9573 344.252 54.6802 341.758 54.4031 339.818C54.4031 338.987 54.126 338.156 54.126 337.601C54.126 337.047 54.126 336.77 54.126 336.77L85.7156 333.445Z" fill="#27FFF2"/>
<path d="M87.6556 272.76C87.6556 272.76 87.3785 273.868 87.1014 275.531C86.8243 277.193 86.5471 279.41 86.27 281.627C85.9929 283.844 85.7159 286.061 85.4388 287.723C85.4388 289.386 85.1617 290.494 85.1617 290.494L53.2949 287.723C53.2949 287.723 53.2949 286.338 53.572 284.675C53.8491 282.735 54.1262 280.242 54.4033 277.748C54.6804 275.254 54.9575 272.76 55.2346 270.82C55.5117 268.88 55.7888 267.772 55.7888 267.772L87.6556 272.76Z" fill="#27FFF2"/>
<path d="M105.944 214.568C105.944 214.568 104.004 218.725 102.342 222.604C100.679 226.761 99.0164 230.917 99.0164 230.917L69.0894 219.556C69.0894 219.556 71.0291 214.846 72.9688 210.135C75.1856 205.424 77.1253 200.713 77.1253 200.713L105.944 214.568Z" fill="#27FFF2"/>
<path d="M138.919 163.581C138.919 163.581 135.871 166.907 133.1 170.509C131.714 172.172 130.329 174.111 129.22 175.22C128.112 176.605 127.558 177.437 127.558 177.437L101.787 158.594C101.787 158.594 102.618 157.485 103.727 156.1C104.835 154.714 106.498 152.497 108.16 150.558C111.209 146.401 114.534 142.799 114.534 142.799L138.919 163.581Z" fill="#27FFF2"/>
<path d="M184.364 123.125C184.364 123.125 180.761 125.619 177.159 128.39C175.219 129.775 173.557 131.161 172.171 131.992C170.786 133.101 169.954 133.655 169.954 133.655L150.003 108.716C150.003 108.716 151.111 107.884 152.497 106.776C153.882 105.668 156.099 104.005 158.039 102.619C162.195 99.5713 166.352 96.8003 166.352 96.8003L184.364 123.125Z" fill="#27FFF2"/>
<path d="M238.952 95.9688C238.952 95.9688 237.843 96.2459 236.181 96.8001C234.518 97.3543 232.578 98.1856 230.361 99.0169C228.145 99.8482 226.205 100.679 224.542 101.234C223.711 101.511 223.157 101.788 222.603 102.065C222.048 102.342 221.771 102.342 221.771 102.342L209.302 72.9693C209.302 72.9693 209.579 72.9693 210.133 72.6922C210.687 72.4151 211.519 72.138 212.35 71.8609C214.012 71.0296 216.506 70.1982 219 69.3669C221.494 68.5356 223.711 67.4272 225.651 66.873C227.59 66.3188 228.699 65.7646 228.699 65.7646L238.952 95.9688Z" fill="#27FFF2"/>
<path d="M298.807 84.6077C298.807 84.6077 294.373 84.8848 289.94 85.1619C287.723 85.1619 285.506 85.7161 283.844 85.7161C282.181 85.9932 281.073 85.9932 281.073 85.9932L276.916 54.4036C276.916 54.4036 278.302 54.1265 279.964 54.1265C281.904 53.8494 284.398 53.5723 286.892 53.2952C291.88 53.0181 297.144 52.4639 297.144 52.4639L298.807 84.6077Z" fill="#27FFF2"/>
<path d="M359.215 89.3179C359.215 89.3179 358.107 89.0408 356.444 88.7637C354.781 88.4866 352.565 87.9324 350.348 87.6553C345.914 86.824 341.48 86.2698 341.48 86.2698L345.637 54.6802C345.637 54.6802 350.625 55.2344 355.613 56.3428C358.107 56.897 360.601 57.1741 362.54 57.7283C364.48 58.0054 365.588 58.2825 365.588 58.2825L359.215 89.3179Z" fill="#27FFF2"/>
<path d="M416.575 110.101C416.575 110.101 415.467 109.547 414.081 108.715C412.695 107.884 410.479 106.776 408.539 105.944C404.382 104.005 400.503 102.342 400.503 102.342L412.973 72.9692C412.973 72.9692 417.683 75.1861 422.394 77.1258C424.611 78.2342 426.828 79.3426 428.767 80.1739C430.43 81.0052 431.538 81.5594 431.538 81.5594L416.575 110.101Z" fill="#27FFF2"/>
<path d="M466.177 145.57C466.177 145.57 465.346 144.738 464.237 143.63C463.129 142.522 461.189 141.136 459.527 139.473C457.864 138.088 456.201 136.425 454.816 135.594C453.43 134.486 452.599 133.931 452.599 133.931L472.55 108.992C472.55 108.992 473.659 109.823 475.044 110.932C476.43 112.04 478.37 113.703 480.309 115.366C482.249 117.028 484.189 118.691 485.574 120.076C486.96 121.462 487.791 122.293 487.791 122.293L466.177 145.57Z" fill="#27FFF2"/>
<path d="M504.416 192.677C504.416 192.677 501.922 188.798 499.705 185.196C498.597 183.256 497.211 181.593 496.103 180.208C494.995 178.822 494.44 177.991 494.44 177.991L520.211 159.148C520.211 159.148 521.042 160.256 522.151 161.642C523.259 163.304 524.645 165.244 526.03 167.461C528.801 171.895 531.572 176.051 531.572 176.051L504.416 192.677Z" fill="#27FFF2"/>
<path d="M529.078 248.375C529.078 248.375 528.801 247.267 528.247 245.604C527.693 243.941 527.139 241.725 526.307 239.785C525.476 237.568 524.922 235.628 524.368 233.966C524.091 233.134 523.813 232.58 523.536 232.026C523.259 231.472 523.259 231.195 523.259 231.195L553.186 219.833C553.186 219.833 553.186 220.111 553.463 220.665C553.74 221.219 554.018 222.05 554.295 222.882C554.849 224.821 555.68 227.038 556.512 229.532C557.343 232.026 558.174 234.52 558.728 236.183C559.283 238.122 559.56 239.231 559.56 239.231L529.078 248.375Z" fill="#27FFF2"/>
</g>
<g opacity="0.18">
<path d="M531.85 468.394C531.85 468.394 533.236 466.177 536.007 462.575C537.115 460.635 538.778 458.418 540.44 455.647C541.271 454.262 542.103 452.876 543.211 451.491C544.043 449.828 545.151 448.443 545.982 446.503C554.018 432.925 562.886 414.082 569.259 393.853C575.909 373.902 579.512 353.12 580.897 337.602C581.451 329.843 582.005 323.192 582.005 318.759C582.005 314.325 582.283 311.554 582.283 311.554H595.861C595.861 311.554 595.861 314.325 595.584 319.036C595.584 323.747 595.029 330.674 594.475 338.71C592.812 355.059 589.21 376.95 582.283 397.733C580.62 402.998 578.957 408.263 576.741 413.251C575.632 415.745 574.801 418.239 573.692 420.732C572.584 423.226 571.476 425.443 570.644 427.937C569.536 430.154 568.428 432.648 567.319 434.865C566.211 437.081 565.102 439.298 563.994 441.238C561.777 445.394 559.56 449.274 557.621 452.876C556.512 454.539 555.681 456.479 554.572 457.864C553.464 459.527 552.633 460.912 551.801 462.298C549.862 465.069 548.476 467.563 547.091 469.502C544.32 473.382 542.657 475.599 542.657 475.599L531.85 468.394Z" fill="#27FFF2"/>
<path d="M313.495 582.006C313.495 582.006 315.989 582.006 320.7 581.729C325.133 581.729 331.784 581.175 339.543 580.343C343.422 579.789 347.579 579.235 352.012 578.681C356.446 577.849 361.157 577.018 365.867 576.187C370.578 575.078 375.566 573.97 380.554 572.584C383.048 571.753 385.542 571.199 388.036 570.368L391.915 569.259L395.517 568.151C415.469 561.777 434.589 552.633 447.89 544.597C451.215 542.657 454.263 540.718 457.034 539.055C459.805 537.392 462.022 535.73 463.962 534.621C467.564 531.85 469.781 530.465 469.781 530.465L477.817 541.549C477.817 541.549 475.6 543.212 471.72 545.983C469.781 547.368 467.287 549.031 464.516 550.693C461.745 552.633 458.419 554.573 454.817 556.513C451.215 558.452 447.335 560.946 443.179 562.886C439.022 565.103 434.589 567.319 429.878 569.536C427.661 570.645 425.167 571.753 422.673 572.862C420.179 573.97 417.686 574.801 415.192 575.91C412.698 577.018 410.204 577.849 407.433 578.958C404.939 579.789 402.168 580.62 399.674 581.729L395.794 583.114L391.915 584.223C389.144 585.054 386.65 585.608 384.156 586.439C378.891 587.825 373.626 588.933 368.638 590.042C363.651 590.873 358.663 591.982 353.952 592.536C349.241 593.09 344.808 593.644 340.651 594.198C332.338 595.03 325.688 595.584 320.977 595.584C316.266 595.584 313.495 595.861 313.495 595.861V582.006Z" fill="#27FFF2"/>
<path d="M93.1969 471.996C93.1969 471.996 93.474 472.55 94.3053 473.382C95.1366 474.213 96.245 475.876 97.6305 477.538C99.016 479.201 100.679 481.418 102.895 483.911C105.112 486.405 107.329 488.899 109.823 491.947C112.317 494.718 115.365 497.767 118.413 501.092C121.461 504.417 125.064 507.465 128.666 510.79C132.268 514.116 136.148 517.441 140.027 520.766C144.184 523.814 148.063 527.139 152.497 530.188C169.4 542.38 187.966 552.633 202.375 558.729C205.977 560.392 209.303 561.777 212.351 562.886C215.399 563.994 217.893 565.102 220.11 565.934C224.543 567.319 227.037 568.15 227.037 568.15L222.881 580.897C222.881 580.897 220.387 580.066 215.676 578.403C213.459 577.572 210.688 576.464 207.64 575.355C204.592 574.247 200.99 572.861 197.11 570.921C189.628 567.596 180.761 563.44 171.894 558.452C169.677 557.066 167.46 555.958 164.966 554.572C162.75 553.187 160.533 551.801 158.039 550.416C155.822 549.03 153.328 547.368 151.111 545.982C148.894 544.32 146.678 542.934 144.461 541.272C140.027 538.223 135.593 534.621 131.437 531.296C127.28 527.971 123.401 524.368 119.522 521.043C115.919 517.441 112.04 514.116 108.715 510.79C105.389 507.465 102.341 504.14 99.5702 501.092C96.7992 498.044 94.3053 495.273 92.0885 492.502C89.8717 490.008 88.2091 487.514 86.5464 485.851C85.1609 483.911 83.7754 482.526 83.2212 481.418C82.3899 480.309 82.1128 479.755 82.1128 479.755L93.1969 471.996Z" fill="#27FFF2"/>
<path d="M52.7419 229.255C52.7419 229.255 52.4648 229.809 52.1877 230.918C51.9106 232.026 51.3564 233.966 50.8022 235.905C50.248 238.122 49.4167 240.893 48.5854 243.941C47.754 246.989 46.9227 250.592 46.0914 254.471C42.7662 269.712 39.9952 290.772 40.2723 311.554C40.2723 316.819 40.5494 322.084 40.8265 327.072C41.1036 329.566 41.1036 332.06 41.3807 334.554C41.3807 335.939 41.6578 337.048 41.6578 338.156C41.9349 339.264 41.9349 340.65 42.212 341.758C43.3204 351.457 44.983 360.601 46.6456 368.083C47.477 371.963 48.3082 375.565 49.1395 378.613C49.9709 381.661 50.8022 384.432 51.3564 386.649C52.4648 391.083 53.5732 393.576 53.5732 393.576L40.8265 397.733C40.8265 397.733 39.9952 395.239 38.6097 390.528C38.0555 388.311 37.2241 385.263 36.3928 382.215C35.5615 378.89 34.7302 375.288 33.8989 371.131C32.2363 363.095 30.5737 353.674 29.1882 343.421C28.9111 342.035 28.9111 340.927 28.634 339.542C28.634 338.156 28.3569 337.048 28.3569 335.662C28.0798 332.891 28.0798 330.397 27.8027 327.626C27.5256 322.361 27.5256 316.819 27.2485 311.277C26.9714 289.386 30.0195 267.495 33.3447 251.423C34.176 247.267 35.0073 243.664 35.8386 240.339C36.6699 237.014 37.5013 234.243 38.0555 232.026C38.6097 229.809 39.1639 227.869 39.7181 226.761C39.9952 225.653 40.2723 224.821 40.2723 224.821L52.7419 229.255Z" fill="#27FFF2"/>
<path d="M225.377 53.849C225.377 53.849 222.883 54.6803 218.449 56.0658C216.233 56.8971 213.739 58.0055 210.691 59.1139C209.305 59.6681 207.643 60.2223 205.98 61.0536C204.317 61.8849 202.655 62.4391 200.715 63.2705C186.306 69.6438 167.74 79.6195 151.114 92.0891C134.21 104.282 118.97 118.968 108.717 130.606C106.223 133.654 103.729 136.148 101.789 138.642C99.8498 141.136 98.1872 143.353 96.8016 145.016C94.0306 148.618 92.368 150.835 92.368 150.835L81.561 142.799C81.561 142.799 83.2237 140.582 85.9947 136.702C87.3802 134.763 89.3199 132.546 91.2596 129.775C93.4764 127.281 95.9704 124.233 98.4643 121.185C109.271 108.992 125.066 93.4746 143.078 80.7279C147.511 77.4027 151.945 74.3545 156.656 71.5835C158.873 70.198 161.089 68.8125 163.306 67.1499C165.523 65.7644 167.74 64.3789 169.957 63.2705C174.39 60.7765 178.824 58.2826 182.98 56.3429C187.137 54.1261 191.293 52.4635 194.896 50.5238C196.836 49.6925 198.498 48.8611 200.438 48.0298C202.1 47.1985 203.763 46.6443 205.426 46.0901C208.474 44.9817 211.245 43.8733 213.462 43.042C217.895 41.3794 220.666 40.5481 220.666 40.5481L225.377 53.849Z" fill="#27FFF2"/>
<path d="M468.672 90.4266C468.672 90.4266 466.455 89.0411 462.853 86.2701C460.913 85.1617 458.696 83.499 455.925 81.8364C454.54 81.0051 453.154 80.1738 451.769 79.0654C450.106 78.2341 448.72 77.1257 446.781 76.2944C433.203 68.2584 414.083 59.3912 394.131 53.0178C374.18 46.3674 353.397 42.7651 337.88 41.3796C334 41.1024 330.398 40.8253 327.35 40.5482C324.302 40.2711 321.531 40.2711 319.037 40.2711C314.603 40.2711 311.832 39.994 311.832 39.994V26.416C311.832 26.416 314.603 26.416 319.314 26.6931C321.808 26.6931 324.579 26.6932 327.904 26.9703C331.229 27.2474 335.109 27.5244 338.988 27.8015C355.337 29.4641 377.228 33.0665 398.011 39.994C403.276 41.6567 408.541 43.3193 413.529 45.5361C416.022 46.6445 418.516 47.4758 421.01 48.5842C423.504 49.6926 425.721 50.801 428.215 51.6323C430.432 52.7407 432.926 53.8492 435.142 54.6805C437.359 55.7889 439.576 56.8973 441.516 58.0057C445.672 60.2225 449.552 62.4393 453.154 64.379C454.817 65.4874 456.756 66.3187 458.142 67.4271C459.805 68.5355 461.19 69.3668 462.576 70.1981C465.347 72.1379 467.84 73.5234 469.78 74.9089C473.66 77.6799 475.876 79.3425 475.876 79.3425L468.672 90.4266Z" fill="#27FFF2"/>
</g>
<path d="M311.833 516.333C425.541 516.333 517.719 424.155 517.719 310.446C517.719 196.738 425.541 104.56 311.833 104.56C198.124 104.56 105.946 196.738 105.946 310.446C105.946 424.155 198.124 516.333 311.833 516.333Z" fill="#08032D"/>
<g filter="url(#filter0_f_2804_50293)">
<path d="M465.843 464.832C550.909 379.766 550.909 241.846 465.843 156.78C380.776 71.7132 242.857 71.7133 157.79 156.78C72.724 241.846 72.724 379.765 157.79 464.832C242.857 549.898 380.776 549.898 465.843 464.832Z" stroke="#446DFF" stroke-width="20.1042" stroke-miterlimit="10"/>
</g>
<path d="M447.21 445.919C521.986 371.143 521.986 249.907 447.21 175.131C372.434 100.355 251.198 100.355 176.423 175.131C101.647 249.907 101.647 371.143 176.423 445.919C251.198 520.695 372.434 520.695 447.21 445.919Z" stroke="#87C5FF" stroke-width="3.53444" stroke-miterlimit="10"/>
<defs>
<filter id="filter0_f_2804_50293" x="43.7301" y="42.7194" width="536.173" height="536.173" filterUnits="userSpaceOnUse" color-interpolation-filters="sRGB">
<feFlood flood-opacity="0" result="BackgroundImageFix"/>
<feBlend mode="normal" in="SourceGraphic" in2="BackgroundImageFix" result="shape"/>
<feGaussianBlur stdDeviation="20.1042" result="effect1_foregroundBlur_2804_50293"/>
</filter>
</defs>
</svg>
