<svg width="725" height="726" viewBox="0 0 725 726" fill="none" xmlns="http://www.w3.org/2000/svg">
<g opacity="0.04">
<path d="M720.738 423.963C720.738 423.963 721.015 422.577 721.293 420.36C721.847 418.421 722.124 415.372 722.401 412.601C723.232 407.059 723.787 401.517 723.787 401.517L685.546 397.361C685.546 397.361 684.992 402.349 684.161 407.337C683.884 409.83 683.607 412.324 683.33 414.264C683.053 416.204 682.775 417.312 682.775 417.312L720.738 423.963Z" fill="#27FFF2"/>
<path d="M713.533 457.215C713.533 457.215 713.81 455.829 714.642 453.89C715.196 451.95 715.75 449.179 716.304 446.408C716.859 443.637 717.69 440.866 717.967 438.926C718.244 437.818 718.521 436.986 718.521 436.432C718.521 435.878 718.798 435.601 718.798 435.601L681.112 428.119C681.112 428.119 681.112 428.396 680.835 428.95C680.835 429.505 680.558 430.336 680.281 431.167C679.727 433.107 679.173 435.324 678.618 437.818C678.064 440.312 677.51 442.806 676.956 444.468C676.402 446.408 676.125 447.516 676.125 447.516L713.533 457.215Z" fill="#27FFF2"/>
<path d="M703.281 489.636C703.281 489.636 703.281 489.359 703.558 488.804C703.835 488.25 704.112 487.419 704.389 486.311C704.943 484.371 706.052 481.6 706.883 478.829C707.714 476.058 708.823 473.564 709.377 471.624C709.654 470.516 709.931 469.684 710.208 469.13C710.485 468.576 710.485 468.299 710.485 468.299L673.631 457.215C673.631 457.215 673.631 457.492 673.354 458.046C673.077 458.6 673.076 459.432 672.799 460.263C672.245 461.926 671.414 464.419 670.583 466.913C669.751 469.407 668.92 471.624 668.366 473.564C668.089 474.395 667.812 475.226 667.534 475.781C667.257 476.335 667.257 476.612 667.257 476.612L703.281 489.636Z" fill="#27FFF2"/>
<path d="M689.703 520.948C689.703 520.948 689.98 520.671 690.257 520.117C690.534 519.563 690.811 518.731 691.366 517.9C692.197 515.96 693.305 513.466 694.691 510.695C695.799 508.201 697.185 505.707 697.739 503.491C698.57 501.551 699.124 500.165 699.124 500.165L663.655 485.479C663.655 485.479 663.101 486.587 662.547 488.527C661.716 490.19 660.607 492.407 659.776 494.901C658.667 497.117 657.836 499.611 657.005 501.274C656.728 502.105 656.174 502.936 656.174 503.491C655.896 504.045 655.896 504.322 655.896 504.322L689.703 520.948Z" fill="#27FFF2"/>
<path d="M673.631 550.875C673.631 550.875 676.402 545.887 679.173 541.177C682.221 536.466 684.715 531.201 684.715 531.201L650.631 513.466C650.631 513.466 648.414 517.9 645.921 522.334C643.427 526.767 640.933 531.201 640.933 531.201L673.631 550.875Z" fill="#27FFF2"/>
<path d="M654.511 579.14C654.511 579.14 657.836 574.429 661.161 569.995C662.824 567.779 664.486 565.285 665.595 563.622C666.703 561.959 667.534 560.574 667.534 560.574L635.39 539.514C635.39 539.514 634.836 540.623 633.728 542.285C632.897 543.948 631.234 545.888 629.848 548.104C626.8 552.261 624.029 556.417 624.029 556.417L654.511 579.14Z" fill="#27FFF2"/>
<path d="M632.896 605.741C632.896 605.741 636.498 601.585 640.378 597.151C641.209 596.043 642.317 594.934 643.149 594.103C643.98 592.994 644.811 592.163 645.366 591.332C646.751 589.669 647.582 588.561 647.582 588.561L617.378 564.73C617.378 564.73 616.547 565.838 615.439 567.224C614.884 568.055 614.33 568.887 613.499 569.718C612.668 570.549 611.836 571.658 611.005 572.489C607.68 576.368 604.354 580.248 604.354 580.248L632.896 605.741Z" fill="#27FFF2"/>
<path d="M608.79 629.849C608.79 629.849 612.946 625.97 617.103 622.091C618.211 620.982 619.042 620.151 620.151 619.32C620.982 618.488 621.813 617.38 622.645 616.826C624.03 615.163 625.139 614.332 625.139 614.332L597.428 587.73C597.428 587.73 596.597 588.561 595.212 589.947C594.657 590.501 593.826 591.332 592.995 592.441C592.163 593.272 591.332 594.103 590.224 594.935C586.621 598.537 583.019 601.862 583.019 601.862L608.79 629.849Z" fill="#27FFF2"/>
<path d="M582.465 651.74C582.465 651.74 586.899 648.138 591.332 644.813C593.549 643.15 595.766 641.21 597.429 639.825C599.091 638.439 600.2 637.608 600.2 637.608L574.983 608.512C574.983 608.512 574.152 609.343 572.489 610.452C571.104 611.56 569.164 613.5 567.225 614.886C563.345 617.934 559.188 621.259 559.188 621.259L582.465 651.74Z" fill="#27FFF2"/>
<path d="M493.514 701.619C493.514 701.619 498.779 699.679 504.044 697.462C509.309 695.246 514.296 692.752 514.296 692.752L498.224 657.837C498.224 657.837 493.514 660.054 489.08 661.993C484.369 663.933 479.659 665.596 479.659 665.596L493.514 701.619Z" fill="#27FFF2"/>
<path d="M461.095 712.149C461.095 712.149 462.48 711.871 464.42 711.317C466.359 710.763 469.13 709.932 471.901 709.1C477.166 707.161 482.709 705.498 482.709 705.498L469.962 669.198C469.962 669.198 465.251 670.86 460.54 672.523C458.046 673.354 455.83 673.908 453.89 674.463C451.95 675.017 450.842 675.294 450.842 675.294L461.095 712.149Z" fill="#27FFF2"/>
<path d="M427.84 719.907C427.84 719.907 429.225 719.63 431.442 719.353C433.659 719.076 436.43 718.522 438.924 717.968C444.466 716.582 450.008 715.474 450.008 715.474L440.864 678.065C440.864 678.065 435.876 679.173 431.165 680.282C428.671 680.836 426.177 681.39 424.238 681.667C422.298 681.944 421.189 682.221 421.189 682.221L427.84 719.907Z" fill="#27FFF2"/>
<path d="M394.035 724.341C394.035 724.341 395.421 724.341 397.638 724.064C399.855 724.064 402.626 723.51 405.397 723.233C410.939 722.402 416.481 721.847 416.481 721.847L410.939 683.884C410.939 683.884 405.951 684.438 400.963 685.27C398.469 685.547 395.975 685.824 394.035 686.101C392.096 686.101 390.987 686.378 390.987 686.378L394.035 724.341Z" fill="#27FFF2"/>
<path d="M359.953 725.727C359.953 725.727 361.338 725.727 363.555 725.727C365.772 725.727 368.543 725.727 371.314 725.45C374.085 725.45 376.856 725.45 379.073 725.173C380.181 725.173 381.012 725.173 381.567 725.173C382.121 725.173 382.398 725.173 382.398 725.173L380.458 686.933C380.458 686.933 380.181 686.933 379.627 686.933C379.073 686.933 378.241 686.933 377.41 686.933C375.47 686.933 372.976 686.933 370.483 687.21C367.989 687.21 365.495 687.487 363.555 687.487C361.615 687.487 360.507 687.487 360.507 687.487L359.953 725.727Z" fill="#27FFF2"/>
<path d="M325.867 723.787C325.867 723.787 331.409 724.341 337.228 724.618C339.999 724.895 342.77 725.172 344.987 725.172C347.204 725.172 348.589 725.172 348.589 725.172L350.252 686.655C350.252 686.655 348.866 686.655 347.204 686.655C345.264 686.655 342.77 686.378 340.276 686.101C335.288 685.824 330.3 685.27 330.3 685.27L325.867 723.787Z" fill="#27FFF2"/>
<path d="M292.062 718.799C292.062 718.799 297.604 719.908 303.146 720.739C304.531 721.016 305.917 721.293 307.302 721.57C308.688 721.847 309.796 721.847 310.904 722.124C313.121 722.402 314.507 722.679 314.507 722.679L319.495 684.716C319.495 684.716 318.109 684.439 316.447 684.439C315.615 684.439 314.507 684.161 313.121 683.884C312.013 683.607 310.627 683.33 309.519 683.33C304.531 682.499 299.543 681.667 299.543 681.667L292.062 718.799Z" fill="#27FFF2"/>
<path d="M226.943 699.125C226.943 699.125 232.208 701.065 237.473 703.282C239.967 704.39 242.738 705.221 244.677 705.775C246.617 706.33 248.003 706.884 248.003 706.884L260.195 670.306C260.195 670.306 259.087 670.029 257.147 669.198C255.484 668.644 252.99 667.813 250.497 666.981C245.786 665.041 241.075 663.379 241.075 663.379L226.943 699.125Z" fill="#27FFF2"/>
<path d="M195.907 684.715C195.907 684.715 200.895 687.209 205.882 689.98C211.147 692.197 216.135 694.691 216.135 694.691L231.653 659.499C231.653 659.499 226.942 657.559 222.509 655.342C218.075 653.125 213.641 650.631 213.641 650.631L195.907 684.715Z" fill="#27FFF2"/>
<path d="M166.534 667.813C166.534 667.813 167.642 668.645 169.582 669.753C171.244 670.861 173.738 672.524 176.232 673.909C181.22 676.681 185.931 679.452 185.931 679.452L204.774 645.922C204.774 645.922 200.34 643.428 195.906 640.934C193.69 639.549 191.75 638.163 190.087 637.332C188.425 636.224 187.316 635.669 187.316 635.669L166.534 667.813Z" fill="#27FFF2"/>
<path d="M138.823 647.861C138.823 647.861 139.931 648.692 141.594 650.077C142.425 650.632 143.533 651.463 144.365 652.294C145.473 653.126 146.582 653.957 147.69 654.788C152.401 658.113 156.834 661.439 156.834 661.439L178.725 629.849C178.725 629.849 174.569 626.801 170.412 624.03C169.304 623.198 168.473 622.644 167.364 621.813C166.533 620.982 165.702 620.427 164.87 619.873C163.485 618.765 162.376 617.934 162.376 617.934L138.823 647.861Z" fill="#27FFF2"/>
<path d="M113.054 625.416C113.054 625.416 114.162 626.524 115.548 627.91C117.21 629.295 119.15 631.512 121.367 633.175C125.523 636.777 129.957 640.656 129.957 640.656L154.619 611.284C154.619 611.284 150.74 607.958 146.86 604.633C144.92 602.971 143.258 601.308 141.872 599.922C140.487 598.537 139.655 597.706 139.655 597.706L113.054 625.416Z" fill="#27FFF2"/>
<path d="M89.4995 600.753C89.4995 600.753 90.3308 601.862 91.7163 603.524C93.1018 605.187 95.0415 607.404 96.9813 609.343C100.861 613.5 104.74 617.656 104.74 617.656L132.173 590.777C132.173 590.777 128.571 587.175 125.246 583.573C123.583 581.91 121.92 579.97 120.535 578.308C119.427 576.922 118.595 575.814 118.595 575.814L89.4995 600.753Z" fill="#27FFF2"/>
<path d="M68.1626 573.875C68.1626 573.875 68.9939 574.983 70.1023 576.646C70.6565 577.477 71.4878 578.585 72.3191 579.694C73.1504 580.802 73.9817 581.911 74.813 583.019C78.4154 587.453 81.7406 591.886 81.7406 591.886L111.39 567.501C111.39 567.501 108.342 563.622 105.017 559.465C104.186 558.357 103.355 557.526 102.8 556.417C102.246 555.586 101.415 554.478 100.861 553.646C99.7522 551.984 98.9209 551.152 98.9209 551.152L68.1626 573.875Z" fill="#27FFF2"/>
<path d="M49.5977 545.333C49.5977 545.333 50.429 546.442 51.2603 548.381C51.8145 549.213 52.3687 550.321 53.2 551.429C54.0313 552.538 54.5855 553.646 55.4168 555.032C58.4649 559.742 61.5131 564.453 61.5131 564.453L93.3798 543.116C93.3798 543.116 90.6088 538.96 87.8377 534.526C87.2835 533.418 86.4522 532.309 85.898 531.478C85.3438 530.37 84.7896 529.538 84.2354 528.707C83.4041 527.044 82.5728 525.936 82.5728 525.936L49.5977 545.333Z" fill="#27FFF2"/>
<path d="M33.8018 515.129C33.8018 515.129 34.356 516.514 35.1873 518.454C36.0186 520.394 37.4041 522.888 38.5125 525.382C41.0064 530.369 43.7774 535.357 43.7774 535.357L77.5839 517.069C77.5839 517.069 75.3671 512.635 72.8732 508.201C71.7648 505.984 70.3792 503.768 69.825 502.105C68.9937 500.442 68.4395 499.334 68.4395 499.334L33.8018 515.129Z" fill="#27FFF2"/>
<path d="M24.9336 494.069C26.042 496.563 26.8733 499.334 27.7046 501.274C27.9817 502.382 28.5359 503.213 28.5359 503.768C28.813 504.322 28.813 504.599 28.813 504.599L64.2821 489.635C64.2821 489.635 64.005 489.358 64.005 488.804C63.7279 488.25 63.4508 487.419 63.1737 486.587C62.6195 484.925 61.511 482.431 60.6797 480.214C59.8484 477.997 58.74 475.503 58.1858 473.841C57.6316 472.178 57.0775 470.792 57.0775 470.792" fill="#27FFF2"/>
<path d="M54.0298 461.094C54.0298 461.094 54.0298 460.817 53.7527 460.263C53.4756 459.708 53.1985 458.877 53.1985 458.046C52.6443 456.106 52.0901 453.889 51.2588 451.395C50.4275 448.901 49.8733 446.685 49.3191 444.745C49.042 443.914 49.042 443.082 48.7649 442.528C48.7649 441.974 48.4878 441.697 48.4878 441.697" fill="#27FFF2"/>
<path d="M46.2717 431.721C46.2717 431.721 45.9946 430.612 45.4404 428.673C45.1633 426.733 44.6091 424.239 44.332 421.745" fill="#27FFF2"/>
<path d="M0.826924 349.422C0.826924 349.422 0.549805 354.964 0.549805 360.783C0.549805 362.169 0.549805 363.554 0.549805 364.94C0.549805 366.325 0.549805 367.434 0.549805 368.542C0.549805 370.759 0.549805 372.144 0.549805 372.144L39.067 371.313C39.067 371.313 39.067 369.927 39.067 368.265C39.067 367.434 39.067 366.325 39.067 364.94C39.067 363.831 39.067 362.446 39.067 361.337C39.067 356.349 39.3441 351.085 39.3441 351.085L0.826924 349.422Z" fill="#27FFF2"/>
<path d="M3.59768 315.338C3.59768 315.338 3.32059 316.724 3.04349 318.941C2.76639 321.158 2.48928 323.929 2.21217 326.7C1.65797 332.242 1.38086 338.061 1.38086 338.061L39.621 340.555C39.621 340.555 39.8981 335.567 40.4523 330.579C41.0065 325.591 41.8378 320.603 41.8378 320.603L3.59768 315.338Z" fill="#27FFF2"/>
<path d="M9.69488 281.809C9.69488 281.809 9.41777 283.194 8.86357 285.134C8.30936 287.074 7.75518 289.845 7.20098 292.616C6.09257 298.158 5.26123 303.7 5.26123 303.7L43.2242 309.796C43.2242 309.796 44.0555 304.808 44.8868 299.82C45.1639 297.326 45.9952 294.832 46.2723 293.17C46.8265 291.23 47.1037 290.122 47.1037 290.122L9.69488 281.809Z" fill="#27FFF2"/>
<path d="M18.8372 249.111C18.8372 249.111 18.283 250.497 17.7288 252.437C16.8975 254.376 16.3433 257.147 15.512 259.918C13.8494 265.46 12.4639 270.725 12.4639 270.725L49.5955 280.424C49.5955 280.424 50.981 275.713 52.3665 270.725C52.9207 268.231 53.7521 265.737 54.3063 264.075C54.8605 262.412 55.4147 261.027 55.4147 261.027L18.8372 249.111Z" fill="#27FFF2"/>
<path d="M31.0303 217.245C31.0303 217.245 30.4761 218.63 29.6448 220.57C28.8135 222.51 27.7051 225.281 26.8738 227.775C24.9341 233.039 22.7173 238.304 22.7173 238.304L58.7405 251.605C58.7405 251.605 60.6803 246.895 62.3429 242.184C63.1742 239.967 64.0055 237.473 64.8368 235.81C65.6681 234.148 66.2223 233.039 66.2223 233.039L31.0303 217.245Z" fill="#27FFF2"/>
<path d="M45.9955 186.763C45.9955 186.763 45.1642 187.872 44.3329 189.811C43.2244 191.751 42.116 194.245 40.7305 196.739C39.345 199.233 38.2366 201.727 37.1282 203.666C36.574 204.498 36.2969 205.329 36.0198 205.883C35.7427 206.437 35.7427 206.715 35.7427 206.715L70.3804 223.341C70.3804 223.341 70.3804 223.064 70.6575 222.509C70.9347 221.955 71.2117 221.401 71.7659 220.57C72.5972 218.907 73.7057 216.69 74.8141 214.473C75.9225 212.257 77.0309 210.04 77.8622 208.377C78.6935 206.715 79.5248 205.606 79.5248 205.606L45.9955 186.763Z" fill="#27FFF2"/>
<path d="M64.005 157.667C64.005 157.667 63.1737 158.776 62.0653 160.439C60.9569 162.101 59.2942 164.595 57.9087 167.089C56.2461 169.583 54.8606 171.8 53.7522 173.739C53.198 174.571 52.6438 175.402 52.3667 175.956C52.0896 176.51 51.8125 176.788 51.8125 176.788L84.7877 196.462C84.7877 196.462 85.0648 196.185 85.3419 195.63C85.619 195.076 85.8961 194.522 86.4503 193.691C87.5587 192.028 88.9442 190.088 90.3297 187.872C91.7152 185.655 93.1007 183.715 93.932 182.052C95.0404 180.39 95.8718 179.559 95.8718 179.559L64.005 157.667Z" fill="#27FFF2"/>
<path d="M84.789 130.511C84.789 130.511 84.5118 130.788 84.2347 131.343C83.9576 131.897 83.1263 132.451 82.5721 133.282C81.1866 134.945 79.524 137.162 77.8614 139.378C76.1988 141.595 74.2591 143.812 73.1506 145.475C72.5964 146.306 72.0422 147.137 71.7651 147.414C71.488 147.969 71.2109 148.246 71.2109 148.246L102.246 170.968C102.246 170.968 102.523 170.691 102.801 170.137C103.078 169.583 103.632 169.028 104.186 168.197C105.295 166.812 106.957 164.595 108.62 162.655C110.282 160.715 111.668 158.776 112.776 157.113C113.33 156.282 113.885 155.728 114.162 155.45C114.439 154.896 114.716 154.896 114.716 154.896L84.789 130.511Z" fill="#27FFF2"/>
<path d="M107.788 105.295C107.788 105.295 106.68 106.126 105.295 107.789C103.909 109.451 101.969 111.391 100.03 113.331C98.0899 115.271 96.1502 117.487 94.7647 118.873C93.3792 120.536 92.5479 121.644 92.5479 121.644L121.366 147.137C121.366 147.137 122.198 146.306 123.306 144.643C124.692 143.258 126.354 141.318 128.017 139.656C129.68 137.716 131.619 136.053 132.728 134.668C134.113 133.282 134.944 132.451 134.944 132.451L107.788 105.295Z" fill="#27FFF2"/>
<path d="M133.005 82.2957C133.005 82.2957 132.728 82.5727 132.174 82.8498C131.62 83.127 131.066 83.9583 130.234 84.5125C128.572 85.898 126.632 87.8377 124.415 89.5003C122.198 91.44 119.982 93.1026 118.596 94.4881C116.933 95.8736 116.102 96.9821 116.102 96.9821L142.15 125.246C142.15 125.246 142.981 124.415 144.366 123.03C145.752 121.644 147.692 120.259 149.631 118.596C151.571 116.933 153.511 115.271 154.896 114.162C155.728 113.608 156.282 113.054 156.559 112.777C157.113 112.5 157.113 112.223 157.113 112.223L133.005 82.2957Z" fill="#27FFF2"/>
<path d="M160.438 62.0671C160.438 62.0671 155.727 65.3923 151.293 68.7176C149.076 70.3802 146.583 72.0428 144.92 73.1512C143.257 74.5367 142.149 75.368 142.149 75.368L165.703 105.849C165.703 105.849 166.811 105.018 168.197 103.91C169.582 102.801 171.799 101.416 173.739 99.753C177.895 96.7049 182.052 93.9339 182.052 93.9339L160.438 62.0671Z" fill="#27FFF2"/>
<path d="M189.533 44.3325C189.533 44.3325 184.546 47.1035 179.835 49.8746C177.341 51.2601 174.847 52.6456 173.184 53.754C171.522 54.8624 170.136 55.6937 170.136 55.6937L190.642 88.1146C190.642 88.1146 191.75 87.5604 193.413 86.452C195.075 85.3436 197.292 84.2352 199.509 82.8497C203.943 80.3558 208.376 77.8618 208.376 77.8618L189.533 44.3325Z" fill="#27FFF2"/>
<path d="M285.133 8.58643C285.133 8.58643 279.591 9.97194 274.049 11.0803C271.278 11.6346 268.507 12.4659 266.567 13.0201C264.627 13.5743 263.242 13.8514 263.242 13.8514L273.772 50.7059C273.772 50.7059 274.88 50.4289 276.82 49.8747C278.759 49.3205 280.976 48.4891 283.47 47.9349C288.458 46.8265 293.169 45.7181 293.169 45.7181L285.133 8.58643Z" fill="#27FFF2"/>
<path d="M318.662 3.04468C318.662 3.04468 313.12 3.87598 307.578 4.43019C302.036 5.5386 296.494 6.36991 296.494 6.36991L303.421 44.0558C303.421 44.0558 308.409 43.2245 313.397 42.3932C318.385 41.839 323.373 41.0076 323.373 41.0076L318.662 3.04468Z" fill="#27FFF2"/>
<path d="M352.746 0.273438C352.746 0.273438 351.361 0.273438 349.144 0.273438C346.927 0.273438 344.156 0.273454 341.385 0.550556C335.843 1.10476 330.024 1.38185 330.024 1.38185L333.349 39.6219C333.349 39.6219 338.337 39.3449 343.325 38.7906C345.819 38.5135 348.313 38.5135 350.252 38.5135C352.192 38.5135 353.3 38.5135 353.3 38.5135L352.746 0.273438Z" fill="#27FFF2"/>
<path d="M387.107 1.10475C387.107 1.10475 381.565 0.550556 375.746 0.550556C370.204 0.273454 364.385 0.273438 364.385 0.273438V38.7906C364.385 38.7906 369.373 38.7906 374.638 39.0677C379.625 39.0677 384.613 39.6219 384.613 39.6219L387.107 1.10475Z" fill="#27FFF2"/>
<path d="M420.913 4.70681C420.913 4.70681 420.636 4.70679 420.082 4.42969C419.528 4.42969 418.696 4.15259 417.588 4.15259C415.371 3.87549 412.6 3.5984 409.829 3.3213C407.058 3.0442 404.287 2.48999 402.07 2.21289C400.962 1.93579 400.13 1.93579 399.576 1.93579C399.022 1.93579 398.745 1.93579 398.745 1.93579L395.143 40.1759C395.143 40.1759 395.42 40.1759 395.974 40.1759C396.528 40.1759 397.359 40.1759 398.191 40.453C400.13 40.7301 402.624 41.0072 405.118 41.2843C407.612 41.5614 410.106 41.8385 412.046 42.1156C412.877 42.1156 413.708 42.3927 414.263 42.3927C414.817 42.3927 415.094 42.6698 415.094 42.6698L420.913 4.70681Z" fill="#27FFF2"/>
<path d="M454.442 11.6348C454.442 11.6348 454.165 11.6348 453.611 11.3577C453.057 11.3577 452.226 11.0806 451.117 10.8035C449.177 10.2493 446.406 9.6951 443.635 9.1409C440.864 8.58669 438.093 7.75539 436.154 7.47829C433.937 7.20119 432.551 6.92407 432.551 6.92407L425.347 44.6099C425.347 44.6099 426.455 44.887 428.395 45.1641C430.335 45.4412 432.551 46.2726 435.045 46.8268C437.539 47.381 440.033 47.9352 441.696 48.4894C442.527 48.7665 443.358 48.7665 443.913 49.0436C444.467 49.0436 444.744 49.3207 444.744 49.3207L454.442 11.6348Z" fill="#27FFF2"/>
<path d="M486.864 21.8875C486.864 21.8875 481.599 19.9478 476.057 18.2852C473.286 17.4539 470.792 16.3455 468.575 15.7913C466.635 15.2371 465.25 14.96 465.25 14.96L454.443 51.8145C454.443 51.8145 455.551 52.0917 457.491 52.6459C459.431 53.2001 461.648 54.0313 464.141 54.8626C468.852 56.5253 473.563 58.1879 473.563 58.1879L486.864 21.8875Z" fill="#27FFF2"/>
<path d="M576.921 69.8261C576.921 69.8261 572.21 66.5008 567.776 63.1756C567.222 62.8985 566.668 62.3443 566.114 62.0672C565.56 61.7901 565.005 61.2359 564.451 60.9588C563.343 60.1275 562.234 59.5733 561.403 59.0191C559.74 57.9106 558.355 57.0793 558.355 57.0793L537.572 89.5003C537.572 89.5003 538.681 90.0545 540.343 91.1629C541.175 91.7171 542.006 92.2713 543.114 92.8255C543.669 93.1026 544.223 93.3797 544.777 93.9339C545.331 94.211 545.885 94.7652 546.44 95.0423C550.596 98.0904 554.753 100.861 554.753 100.861L576.921 69.8261Z" fill="#27FFF2"/>
<path d="M603.523 91.1627C603.523 91.1627 599.366 87.5604 594.933 83.681C592.716 81.7413 590.499 80.0787 588.836 78.9702C587.174 77.5847 586.065 76.7534 586.065 76.7534L562.512 106.958C562.512 106.958 563.62 107.789 565.006 108.897C566.391 110.006 568.608 111.668 570.548 113.331C574.427 116.656 578.307 119.981 578.307 119.981L603.523 91.1627Z" fill="#27FFF2"/>
<path d="M627.909 114.994C627.909 114.994 624.03 110.837 620.15 106.681C615.994 102.801 612.114 98.9219 612.114 98.9219L585.79 126.909C585.79 126.909 589.392 130.511 592.994 133.837C596.597 137.439 599.922 141.041 599.922 141.041L627.909 114.994Z" fill="#27FFF2"/>
<path d="M650.077 141.041C650.077 141.041 646.474 136.608 643.149 132.174C639.547 128.018 635.667 123.584 635.667 123.584L606.849 149.077C606.849 149.077 610.174 152.957 613.499 156.836C616.547 160.716 619.595 164.872 619.595 164.872L650.077 141.041Z" fill="#27FFF2"/>
<path d="M669.751 169.028C669.751 169.028 668.92 167.92 667.812 165.98C666.703 164.318 665.318 161.824 663.655 159.33C660.33 154.619 657.005 150.186 657.005 150.186L625.969 172.631C625.969 172.631 629.017 176.787 631.788 180.944C634.559 185.1 637.33 189.534 637.33 189.534L669.751 169.028Z" fill="#27FFF2"/>
<path d="M686.655 198.679C686.655 198.679 686.101 197.293 684.992 195.631C683.884 193.691 682.775 191.197 681.39 188.703C678.619 183.715 675.848 179.004 675.848 179.004L642.873 198.679C642.873 198.679 645.366 203.112 647.86 207.546C649.246 209.763 650.077 211.98 651.186 213.642C652.017 215.305 652.571 216.413 652.571 216.413L686.655 198.679Z" fill="#27FFF2"/>
<path d="M700.51 229.714C700.51 229.714 699.956 228.328 699.124 226.389C698.293 224.449 697.462 221.678 696.076 219.184C693.86 213.919 691.366 208.931 691.366 208.931L656.451 225.28C656.451 225.28 658.39 229.991 660.607 234.425C661.716 236.641 662.547 239.135 663.378 240.798C663.932 242.461 664.487 243.846 664.487 243.846L700.51 229.714Z" fill="#27FFF2"/>
<path d="M711.593 261.858C711.593 261.858 711.316 260.472 710.761 258.532C710.484 257.424 710.207 256.316 709.653 254.93C709.099 253.545 708.822 252.436 708.267 251.051C706.328 245.786 704.665 240.244 704.665 240.244L668.365 253.267C668.365 253.267 670.027 257.978 671.69 262.689C671.967 263.797 672.521 265.183 672.798 266.291C673.075 267.4 673.353 268.508 673.63 269.339C674.184 271.279 674.461 272.387 674.461 272.387L711.593 261.858Z" fill="#27FFF2"/>
<path d="M724.34 328.917C724.34 328.917 724.34 327.531 724.063 325.314C723.785 323.098 723.508 320.327 722.954 317.555C722.677 314.784 722.123 312.013 721.846 309.797C721.569 307.58 721.292 306.194 721.292 306.194L683.329 312.013C683.329 312.013 683.606 313.122 683.883 315.062C684.16 317.001 684.437 319.495 684.714 321.989C684.991 324.483 685.268 326.977 685.545 328.917C685.822 330.856 685.823 331.965 685.823 331.965L724.34 328.917Z" fill="#27FFF2"/>
</g>
</svg>
